<?xml version="1.0" standalone="no"?>
<!DOCTYPE svg PUBLIC "-//W3C//DTD SVG 1.1//EN" "http://www.w3.org/Graphics/SVG/1.1/DTD/svg11.dtd" >
<svg xmlns="http://www.w3.org/2000/svg" xmlns:xlink="http://www.w3.org/1999/xlink" version="1.1">
<metadata></metadata>
<defs>
<font id="story_milkyregular" horiz-adv-x="1359" >
<font-face units-per-em="2048" ascent="1638" descent="-410" />
<missing-glyph horiz-adv-x="512" />
<glyph horiz-adv-x="0" />
<glyph unicode="&#xd;" horiz-adv-x="0" />
<glyph unicode="&#xa;" horiz-adv-x="0" />
<glyph unicode=" "  horiz-adv-x="512" />
<glyph unicode="&#x09;" horiz-adv-x="512" />
<glyph unicode="&#xa0;" horiz-adv-x="512" />
<glyph unicode="!" horiz-adv-x="761" d="M111 260q0 63 20.5 103t56 61.5t85 28t106.5 4.5q111 -4 171 -19.5t87 -53.5t26 -105.5t-14 -176.5q-4 -43 -26 -75q-14 -20 -43 -29.5t-61 -13.5t-63.5 -5.5t-54.5 -1.5q-27 -2 -64.5 -1t-75.5 7.5t-70.5 20.5t-47.5 39q-29 45 -30.5 105.5t-1.5 111.5zM124 1091.5 q-1 98.5 1 182.5t8 143.5t19 69.5q14 12 36.5 15t38.5 3q31 0 95.5 4t131 2t121 -12t64.5 -41q6 -16 7 -83.5t-1 -160t-7 -197t-12.5 -192.5t-15.5 -148.5t-16 -66.5q-10 -6 -31.5 -8t-46 -1t-48.5 3t-36 2q-59 4 -120.5 0t-121.5 6q-18 4 -27 10.5t-13 26.5 q-6 27 -11.5 95.5t-9.5 158.5t-5 188.5zM155 -90q3 10 12 16t23 4q16 -4 31 -7t31 -7q35 -6 78 -7t78 -18q16 -8 13 -23t-22 -18q-10 -2 -21.5 1t-21.5 -1q-47 -10 -94 -3.5t-88 26.5q-12 6 -17 16.5t-2 20.5zM162 1594.5q0 9.5 6 18.5t18 11q37 6 79 10t79 -2q20 -2 37 -14 q12 -8 38.5 -5t41.5 -3l18 -8q16 -8 11 -21.5t-21 -15.5q-20 -4 -51 -1t-45 -3q-47 -20 -96.5 -12.5t-96.5 18.5q-10 2 -14 10t-4 17.5zM529 1560.5q-1 12.5 7.5 22.5t26.5 4q16 -6 17 -22.5t-13 -24.5q-18 -10 -27.5 -1t-10.5 21.5z" />
<glyph unicode="&#x22;" horiz-adv-x="757" d="M63 1460q0 23 20.5 27t37.5 6h45t67.5 -1t64.5 -5t34 -10q6 -12 9 -46t3 -79t-3 -95.5t-8 -94.5t-13.5 -73.5t-18.5 -33.5q-6 -2 -18.5 -4t-27.5 -3t-29.5 -1h-22.5q-12 0 -28.5 -1.5t-33 1t-30 9.5t-17.5 21q-6 20 -11 72.5t-10 113t-7.5 116t-2.5 81.5zM416 1462 q0 20 20.5 25.5t36.5 7.5h45t69 -1t64.5 -5t32.5 -10q6 -10 9 -45t3 -80t-3 -95.5t-9 -93.5t-13 -73.5t-18 -34.5q-4 -2 -17 -4t-28.5 -3t-31 -1h-21.5q-12 0 -29.5 -1t-34 1t-29.5 9t-18 21q-4 16 -9 69.5t-9 116t-7 119t-3 78.5z" />
<glyph unicode="&#x201e;" horiz-adv-x="757" d="M63 1460q0 23 20.5 27t37.5 6h45t67.5 -1t64.5 -5t34 -10q6 -12 9 -46t3 -79t-3 -95.5t-8 -94.5t-13.5 -73.5t-18.5 -33.5q-6 -2 -18.5 -4t-27.5 -3t-29.5 -1h-22.5q-12 0 -28.5 -1.5t-33 1t-30 9.5t-17.5 21q-6 20 -11 72.5t-10 113t-7.5 116t-2.5 81.5zM416 1462 q0 20 20.5 25.5t36.5 7.5h45t69 -1t64.5 -5t32.5 -10q6 -10 9 -45t3 -80t-3 -95.5t-9 -93.5t-13 -73.5t-18 -34.5q-4 -2 -17 -4t-28.5 -3t-31 -1h-21.5q-12 0 -29.5 -1t-34 1t-29.5 9t-18 21q-4 16 -9 69.5t-9 116t-7 119t-3 78.5z" />
<glyph unicode="&#xbb;" horiz-adv-x="757" d="M63 1460q0 23 20.5 27t37.5 6h45t67.5 -1t64.5 -5t34 -10q6 -12 9 -46t3 -79t-3 -95.5t-8 -94.5t-13.5 -73.5t-18.5 -33.5q-6 -2 -18.5 -4t-27.5 -3t-29.5 -1h-22.5q-12 0 -28.5 -1.5t-33 1t-30 9.5t-17.5 21q-6 20 -11 72.5t-10 113t-7.5 116t-2.5 81.5zM416 1462 q0 20 20.5 25.5t36.5 7.5h45t69 -1t64.5 -5t32.5 -10q6 -10 9 -45t3 -80t-3 -95.5t-9 -93.5t-13 -73.5t-18 -34.5q-4 -2 -17 -4t-28.5 -3t-31 -1h-21.5q-12 0 -29.5 -1t-34 1t-29.5 9t-18 21q-4 16 -9 69.5t-9 116t-7 119t-3 78.5z" />
<glyph unicode="&#xab;" horiz-adv-x="757" d="M63 1460q0 23 20.5 27t37.5 6h45t67.5 -1t64.5 -5t34 -10q6 -12 9 -46t3 -79t-3 -95.5t-8 -94.5t-13.5 -73.5t-18.5 -33.5q-6 -2 -18.5 -4t-27.5 -3t-29.5 -1h-22.5q-12 0 -28.5 -1.5t-33 1t-30 9.5t-17.5 21q-6 20 -11 72.5t-10 113t-7.5 116t-2.5 81.5zM416 1462 q0 20 20.5 25.5t36.5 7.5h45t69 -1t64.5 -5t32.5 -10q6 -10 9 -45t3 -80t-3 -95.5t-9 -93.5t-13 -73.5t-18 -34.5q-4 -2 -17 -4t-28.5 -3t-31 -1h-21.5q-12 0 -29.5 -1t-34 1t-29.5 9t-18 21q-4 16 -9 69.5t-9 116t-7 119t-3 78.5z" />
<glyph unicode="#" horiz-adv-x="1585" d="M86 561v45q10 16 27 17q35 14 84 14t88 4q6 41 14 83t18 83q-82 0 -120.5 -1t-53 18.5t-12.5 68.5t2 147q10 16 29 17q12 6 40.5 10t62.5 5t64.5 2t47.5 1q2 8 9 42t16.5 79t21.5 94t21.5 92t16.5 72t9 31q12 14 33 18q29 6 65.5 6t76.5 -2t78 -5t69 -5q16 -2 37.5 -5 t31.5 -19q4 -6 0 -34t-13 -67t-20.5 -85t-22.5 -87t-20.5 -73.5t-11.5 -45.5q31 -2 60.5 -3t60.5 -1q2 8 9 40t16.5 75t19.5 90t19.5 87t15.5 66.5t8 28.5q8 10 66.5 14.5t128 3.5t129 -9.5t67.5 -22.5q6 -10 -5 -63.5t-27.5 -117t-33 -121.5t-20.5 -79h48t62 -1t59.5 -8 t37.5 -22q2 -2 3 -32.5t2 -66.5t1 -66.5t-2 -34.5q-4 -14 -17.5 -20.5t-25.5 -8.5q-57 -8 -115.5 -5t-115.5 3q-10 -43 -19.5 -86t-19.5 -86q20 0 61 2t84 0t77 -12.5t44 -32.5q10 -29 4 -54.5t-10 -52.5q-2 -14 4 -41.5t2 -37.5q-4 -14 -17.5 -21.5t-27.5 -9.5 q-66 -10 -138.5 -5t-138.5 5q-4 -16 -10 -50t-14 -77t-18.5 -89t-20.5 -86t-19.5 -68t-17.5 -34q-14 -10 -58 -13t-94.5 -2t-96.5 5t-64 8q-10 4 -20.5 9.5t-14.5 17.5q-4 10 5 63.5t22.5 118t26 121.5t16.5 76h-140q-4 -14 -10 -47t-13 -74t-16.5 -84t-18.5 -80 t-18.5 -63.5t-17.5 -32.5q-14 -12 -58 -15.5t-94.5 -1t-96.5 6.5t-64 8q-10 4 -20.5 9t-14.5 17q-2 6 1 32t9 60.5t14.5 75.5t16.5 78t14 65.5t8 41.5q-12 0 -32.5 -2t-43 -2t-40 4t-23.5 16q-4 6 -5 37t-2 67.5t-1 69.5zM672 649q33 -2 64.5 -3t64.5 -1l16 82t19 82h-129z " />
<glyph unicode="$" horiz-adv-x="1499" d="M86 1309q0 12 8 30.5t19.5 38t24 36t20.5 26.5q25 29 43 45t37.5 26.5t42 18.5t57.5 20q16 4 44 17.5t42 13.5t18 -11t-6 -22q-23 -23 -53.5 -36t-52.5 -35q-45 -41 -89 -78t-81 -86q-15 -23 -35 -31q-14 -4 -26.5 3t-12.5 24zM119 1018q-6 102 40 187t121.5 149.5 t170 107.5t182.5 60q-2 8 -5 24.5t-4 33.5t1 32.5t8 23.5q6 6 19.5 9.5t30.5 4.5t32.5 0t23.5 -1q39 0 78 4t68.5 -2t46 -30t14.5 -79q33 0 95.5 -4t128 -13t123 -23.5t77.5 -35.5q-2 -25 -2 -94t-1 -146t-2 -138.5t-5 -67.5q-16 -29 -72.5 -40t-124 -13t-132 2t-97.5 4 q-20 0 -25.5 17.5t-5.5 40v47t-10 38.5q-18 25 -53 33t-70 -1t-60.5 -33.5t-25.5 -61.5q2 -72 43 -109t103.5 -57.5t140.5 -35.5t152.5 -44t139 -79t103.5 -142q27 -63 33 -136t-4 -141q-12 -80 -51 -139t-94.5 -101t-124 -68t-142.5 -38q0 -25 1 -51t-3 -51q8 -12 -1 -19.5 t-19 -7.5q-16 0 -32 3t-32 5q-43 2 -84 -3t-84 -9q-23 -2 -31 11.5t-10 34t1 42t3 33.5q-90 6 -172 28.5t-150.5 65.5t-118.5 108.5t-73 157.5q-6 27 -11 62t3 63q4 16 36 28.5t77 21t96 12.5t96 4t76 -5t35 -14q14 -29 20 -60.5t37 -51.5q16 -10 42 -15.5t53.5 -5.5t52 7.5 t40.5 19.5q33 29 27 65.5t-35 63.5t-95 46t-146 37.5t-162 42t-139 58.5q-94 57 -125 141t-37 187zM469 1589q4 10 27 6q8 -2 10 -9t-1 -14t-10.5 -10t-13.5 3q-16 14 -12 24zM1073 -65.5q2 12.5 17 20.5q23 12 53.5 17t54.5 16q23 10 53.5 27.5t46.5 37.5q10 12 23.5 8 t11.5 -20q-4 -29 -33.5 -56.5t-56.5 -37.5q-12 -4 -33.5 -13.5t-45 -16.5t-45 -10t-34.5 5q-14 10 -12 22.5z" />
<glyph unicode="%" horiz-adv-x="2273" d="M80 932.5q-8 107.5 10.5 208t63.5 155.5q31 39 80 62.5t104 38t110.5 20.5t102.5 10q131 10 214 -35.5t127 -123.5t54 -174.5t-5 -188.5t-51 -169t-81 -111q-45 -35 -97.5 -54.5t-107.5 -29.5q-43 -8 -95 -10.5t-106.5 3t-103.5 19.5t-86 41q-59 43 -92 137t-41 201.5z M320 1517.5q2 10.5 8 18.5q29 33 95 52.5t142 22.5t145.5 -10t102.5 -42q12 -12 14 -26.5t-4 -27t-19 -19.5t-30 -3q-63 12 -117.5 23.5t-119.5 13.5q-10 0 -43 -4.5t-69 -8.5t-65.5 -7t-31.5 -1q-10 8 -8 18.5zM418 1026.5q-2 -33.5 6 -62t28.5 -49t57.5 -20.5h50.5 t47.5 12q23 12 36 56.5t10 89.5t-27.5 75.5t-75.5 18.5q-12 -4 -29.5 -8t-36 -12.5t-34 -17.5t-19.5 -22q-12 -27 -14 -60.5zM558 58.5q-3 15.5 7 37.5q12 29 37 59.5t41 59.5q82 139 166 278.5t160 282.5q86 160 165.5 322t153.5 327q8 16 18.5 41t32.5 27q2 0 23.5 -9 t52.5 -22.5t68 -29t68.5 -29.5t55 -25.5t29.5 -15.5q12 -8 23.5 -18.5t11.5 -26.5l-29 -50q-28 -50 -74 -132t-107.5 -189.5t-127 -223.5t-130 -232.5t-120 -217t-96.5 -176.5t-57 -110q-6 -14 -18.5 -40t-26.5 -30q-16 -6 -33.5 2t-34.5 16q-59 29 -116.5 51.5t-116.5 47.5 q-23 10 -26 25.5zM871 1434.5q-1 15.5 7.5 27t28.5 8.5q14 -2 20.5 -11t5.5 -20.5t-7.5 -21.5t-18.5 -14q-16 -6 -25.5 5t-10.5 26.5zM1311 33q-6 39 14.5 34.5t49 -26t54 -47t31.5 -27.5q14 -8 38 -13t47.5 -9t45 -11.5t31.5 -19.5q12 -16 10 -29.5t-12 -22.5t-26.5 -13.5 t-30.5 -0.5q-33 6 -74 21.5t-78 38t-65.5 54.5t-34.5 71zM1333 391q-4 76 4.5 146.5t31 129t58.5 93.5q23 23 50.5 36t56.5 25q66 27 134.5 37t137.5 14q135 10 218 -38t127 -127.5t51.5 -178t-10 -192.5t-54.5 -169t-84 -108q-47 -35 -92 -49t-102 -24q-43 -8 -96.5 -11.5 t-105.5 2t-102.5 20.5t-87.5 42q-41 29 -69.5 84t-45 123.5t-20.5 144.5zM1677 437.5q2 -27.5 9.5 -51.5t19.5 -34q8 -6 24.5 -9t35 -4t35 -1t26.5 2q43 8 61.5 44t20.5 78t-8.5 77.5t-24.5 42.5q-18 8 -47 8t-57.5 -7.5t-52 -20.5t-31.5 -32q-6 -14 -9.5 -39.5t-1.5 -53z " />
<glyph unicode="&#x26;" horiz-adv-x="1456" d="M85 325q-7 89 20.5 177t90 170t156.5 139q-31 72 -48 148.5t-13 154.5q6 100 54 176t121 127t163 76t182 23q98 -4 177 -37t132.5 -87.5t79 -122t19 -142t-46 -148.5t-119.5 -139q-57 -47 -119 -86t-127 -74q33 -35 59.5 -72t59.5 -69q14 12 47 51t67.5 80t63.5 73.5 t35 34.5q23 8 52.5 -7t47.5 -26q16 -10 44 -20t52.5 -25.5t39 -35t1.5 -43.5q-37 -76 -91 -145.5t-107 -135.5q6 -4 36.5 -27.5t64.5 -49t61 -47.5l28 -21q6 -12 -27.5 -47t-77.5 -70t-85 -62.5t-52 -27.5q-16 0 -38.5 18.5t-46 42t-45 46t-33.5 34.5q-119 -80 -239 -110.5 t-261 -24.5q-121 4 -202 51t-125 119t-51 161zM188 1163q-6 68 12.5 144.5t65.5 128.5q8 10 25.5 25.5t38 29.5t40 24.5t31.5 10.5q14 0 29.5 -13.5t11.5 -29.5l-20 -17q-19 -16 -42.5 -36.5t-45 -39t-27.5 -24.5q-29 -31 -40 -72t-16 -79.5t-8.5 -70.5t-11.5 -46 q-12 -20 -21 -13t-13 23t-6.5 34.5t-2.5 20.5zM476 1535q1 15 12.5 28.5t31.5 17.5q14 2 26.5 -8t14.5 -23.5t-8 -27t-39 -19.5q-20 -4 -29.5 6.5t-8.5 25.5zM481.5 433q-6.5 -40 17 -65.5t68.5 -29.5t101 24q-37 35 -66.5 76t-64.5 78q-49 -43 -55.5 -83zM611.5 1080.5 q-13.5 -52.5 15.5 -136.5q18 8 50 25.5t65.5 37t62.5 40t39 34.5q27 37 13.5 63.5t-46.5 40t-77 8.5t-76.5 -32.5t-46 -80zM704 -65.5q1 10.5 15 14.5q33 10 63.5 16t61.5 23q14 8 25.5 19t27.5 20q18 8 32.5 6t20.5 -11.5t3 -23.5t-19 -27q-10 -10 -32 -16t-36 -10 q-12 -4 -33.5 -13.5t-44 -16.5t-43 -9t-32.5 8q-10 10 -9 20.5z" />
<glyph unicode="'" horiz-adv-x="405" d="M63 1462q0 20 20.5 25.5t37.5 7.5h45t68.5 -1t64.5 -5t33 -10q6 -10 9 -45t3 -80t-3 -95.5t-8 -94.5t-13.5 -73.5t-18.5 -33.5q-6 -2 -18.5 -4t-27.5 -3t-29.5 -1h-22.5q-12 0 -28.5 -1t-33 1t-30 9t-17.5 21q-6 20 -11 72.5t-10 113t-7.5 116t-2.5 81.5z" />
<glyph unicode="&#x2039;" horiz-adv-x="405" d="M63 1462q0 20 20.5 25.5t37.5 7.5h45t68.5 -1t64.5 -5t33 -10q6 -10 9 -45t3 -80t-3 -95.5t-8 -94.5t-13.5 -73.5t-18.5 -33.5q-6 -2 -18.5 -4t-27.5 -3t-29.5 -1h-22.5q-12 0 -28.5 -1t-33 1t-30 9t-17.5 21q-6 20 -11 72.5t-10 113t-7.5 116t-2.5 81.5z" />
<glyph unicode="&#x201a;" horiz-adv-x="405" d="M63 1462q0 20 20.5 25.5t37.5 7.5h45t68.5 -1t64.5 -5t33 -10q6 -10 9 -45t3 -80t-3 -95.5t-8 -94.5t-13.5 -73.5t-18.5 -33.5q-6 -2 -18.5 -4t-27.5 -3t-29.5 -1h-22.5q-12 0 -28.5 -1t-33 1t-30 9t-17.5 21q-6 20 -11 72.5t-10 113t-7.5 116t-2.5 81.5z" />
<glyph unicode="(" horiz-adv-x="983" d="M98 862q-2 58 8 117q14 92 48 181t86.5 166t124 138.5t159.5 100.5q27 12 78 28.5t104.5 23.5t100.5 0t65 -40q6 -12 15.5 -45t17.5 -70t11.5 -69.5t1.5 -44.5q-4 -12 -33 -23.5t-68 -26t-80 -35t-67 -51.5q-39 -45 -57.5 -123.5t-24.5 -166.5t-3 -173t7 -141 q2 -35 6 -73.5t11 -77.5t19.5 -75t33.5 -65q25 -33 66.5 -55t83.5 -38.5t74 -30t36 -25.5q4 -18 -2.5 -58t-17.5 -83t-27.5 -79t-34.5 -44q-25 -12 -67 -10t-88 11t-89 22.5t-68 23.5q-102 43 -181 118.5t-134 169t-84 200t-29 214.5v92q0 59 -2 117z" />
<glyph unicode=")" horiz-adv-x="983" d="M63 168q2 12 33 24.5t71 28t80 34.5t64 48q27 31 45.5 94.5t29.5 134t15.5 138t1.5 108.5q-6 92 -10 187.5t-39 181.5q-27 66 -72.5 97.5t-92 48t-82 25.5t-41.5 30q-4 16 1 56t16 82t26.5 77.5t31.5 46.5q16 10 51 11t74 -4t75 -13.5t54 -14.5q137 -43 232.5 -129 t154 -197.5t83 -242.5t20.5 -262q-2 -55 -2 -109.5t-9 -107.5q-18 -117 -62 -220.5t-113.5 -186.5t-165 -142t-214.5 -84q-23 -4 -54.5 -9t-62 -4t-56 11t-37.5 35q-6 14 -16.5 45.5t-17.5 66.5t-11.5 68t-0.5 47z" />
<glyph unicode="*" horiz-adv-x="653" d="M66.5 1088.5q-7.5 21.5 7.5 31.5q37 27 74.5 51.5t74.5 49.5q-39 31 -73.5 66.5t-75.5 64.5q-12 10 -3 32.5t27.5 42t38 27.5t25.5 -8q27 -23 50.5 -48.5t47.5 -49.5q-2 8 -4 30.5t-2 48t2 46t8 24.5q6 2 32 4t53.5 1t48 -8t16.5 -21q-8 -25 -10.5 -53.5t-2.5 -55.5 l95 96q12 2 31.5 -10t37 -30.5t25.5 -37t-4 -26.5q-23 -41 -62 -68.5t-75 -56.5q2 -4 21 -21.5t40.5 -38t40 -38t22.5 -19.5q12 -10 4 -26.5t-25 -32t-36.5 -25.5t-28.5 -6q-6 2 -17 14.5t-24.5 25.5t-25 27.5t-17.5 20.5q2 -41 9.5 -68.5t3.5 -45t-26.5 -24.5t-78.5 -3 q-10 2 -21 2t-22 4q-8 12 -9 30.5t0 40t3 42t2 34.5q-29 -29 -56.5 -53t-53.5 -53q-10 -10 -30 1t-35 29.5t-22.5 40z" />
<glyph unicode="+" horiz-adv-x="1062" d="M67 681q1 44 1 60q0 10 3 24.5t17 14.5q6 8 44 14.5t84 11.5t89 8t57 3q0 8 -1 47t-3 82t-2 78v35q8 12 48 16t87.5 5t91.5 0t62 -1q10 0 23.5 -2t13.5 -18l12 -19q10 -59 15.5 -119.5t9.5 -119.5q18 -2 55 -2t76 -1t71.5 -4t45.5 -12q16 -12 22 -34.5t6 -49t-3 -53.5 t-5 -43q-4 -25 2 -52.5t2 -51.5q-4 -27 -28 -37q-10 -4 -46 -4t-78 1t-81 2t-53 1q-2 -18 -2.5 -62.5t-2.5 -91.5t-7 -86t-15 -49q-12 -10 -34.5 -13t-48.5 -3t-50.5 3t-38.5 3q-25 2 -52.5 -3t-52.5 -1q-27 4 -36 43t-9 89t4.5 98t4.5 71q-10 0 -54.5 -1t-93.5 -2t-89 -1 h-40q-10 6 -14 46t-6 88t-1 92z" />
<glyph unicode="," horiz-adv-x="501" d="M51 151.5q-2 45.5 15.5 86.5t53.5 71.5t87 36.5q129 16 194.5 -49.5t36.5 -196.5q-4 -18 -16 -57t-28.5 -82t-32 -80t-25.5 -51q-12 -18 -37 -34.5t-46.5 -20.5t-34.5 5t-5 44q10 41 32.5 83t26.5 85q-74 -6 -122 16.5t-72.5 60t-26.5 83z" />
<glyph unicode="-" horiz-adv-x="1046" d="M58 681q1 44 1 60q0 10 3.5 24.5t17.5 14.5q10 12 76.5 19.5t161 9.5t203 1t201.5 -5t159.5 -10.5t76.5 -12.5q16 -10 22.5 -33.5t6.5 -50t-3 -53.5t-5 -43q-4 -25 2 -52.5t2 -51.5q-2 -10 -10 -21.5t-19 -15.5q-10 -4 -45 -4t-76.5 1t-78.5 2t-52 1h-45.5h-80t-100.5 -1 t-109 -1q-129 -2 -287 -4q-10 6 -14.5 45t-6.5 88t-1 93z" />
<glyph unicode="." horiz-adv-x="497" d="M55 137q-6 49 9.5 93t50.5 77t88 39q78 8 129 -11.5t78.5 -55t33 -80.5t-9 -87t-46.5 -74t-79 -42q-80 -16 -134 1t-84 54t-36 86z" />
<glyph unicode="/" horiz-adv-x="1048" d="M35 59q10 35 27.5 69t31.5 69q92 221 180 438t187 434q47 104 93 207.5t87 210.5q4 14 15.5 38.5t29.5 24.5q2 0 26.5 -10t60.5 -25.5t77 -35t77 -36t59.5 -27.5t25.5 -13q6 -12 2 -29.5t-13.5 -36t-21.5 -36t-18 -27.5q-33 -49 -61 -109.5t-52.5 -124t-47 -127 t-42.5 -118.5q-51 -135 -106.5 -265.5t-110.5 -261.5q-37 -86 -73 -173t-79 -169l-10 -18q-12 -10 -43 -5t-70 19.5t-81 33.5t-76.5 38.5t-55 37t-18.5 27.5z" />
<glyph unicode="0" horiz-adv-x="1425" d="M92.5 718.5q-4.5 100.5 11 199t50 191.5t94.5 173q39 53 84 101.5t104 80.5q61 33 131 50.5t142.5 18.5t144.5 -14.5t133 -45.5q78 -39 144.5 -103.5t113.5 -136.5q39 -59 60.5 -144t26.5 -181.5t-4 -199t-30.5 -198.5t-53.5 -179t-70 -141q-41 -59 -97.5 -99.5 t-122.5 -67.5q-84 -35 -173 -41.5t-177 8.5q-37 6 -80 20.5t-86 33.5t-82 44t-65 51q-35 33 -63.5 80t-50 98.5t-38 104.5t-24.5 100q-18 96 -22.5 196.5zM246 1485q0 14 9 29.5t23.5 28.5t29 25.5t24.5 18.5q51 35 108.5 48.5t116.5 25.5q14 2 34.5 8t42 7t39 -3t27.5 -18 q12 -10 9 -23.5t-19 -13.5q-12 -6 -34.5 -13.5t-48 -12.5t-51.5 -10t-40 -9t-39.5 -12.5t-53.5 -18.5t-51.5 -21.5t-35.5 -19.5q-10 -6 -26.5 -21.5t-26.5 -19.5q-12 -4 -24.5 3t-12.5 22zM559 705.5q2 -72.5 22.5 -135t63.5 -93.5q27 -18 60.5 -20t62.5 10q39 18 65.5 64.5 t40 106.5t13.5 128t-13.5 129t-40 108.5t-67.5 65.5q-47 20 -86 -6.5t-66.5 -81.5t-42 -129t-12.5 -146.5zM773 -119q-5 10 12.5 21.5t62.5 19.5q61 10 114.5 30.5t112.5 37.5q31 8 49.5 -8t-10.5 -43q-16 -14 -49 -29.5t-70 -28t-72.5 -19.5t-58.5 -7q-37 0 -61.5 8 t-29.5 18zM789.5 1635.5q7.5 13.5 41.5 13.5q23 0 29 -23t-10 -37q-14 -12 -31.5 -4t-27 22.5t-2 28z" />
<glyph unicode="1" horiz-adv-x="1138" d="M57 1124q-8 20 1.5 35t27.5 24t38.5 16t35.5 13q72 29 139.5 65t128.5 83q39 29 75 71t77 64q6 4 34.5 6t68.5 4t85 4t85 2t67.5 -2t31.5 -4q14 -10 22.5 -52t12.5 -92t6 -96t2 -65q16 -268 21.5 -537.5t5.5 -537.5q0 -20 3 -41t-1 -41q-4 -27 -16 -39q-8 -6 -42 -9 t-83 -4t-106.5 -1t-109 1t-92 2t-55.5 3q-16 2 -31.5 4t-27.5 12q-8 8 -12.5 66.5t-4.5 144.5t1 187.5t4.5 193.5t5.5 162.5t4 95.5q-16 -6 -50 -18.5t-69 -24.5t-65.5 -22.5t-43.5 -10.5q-39 -4 -65 21q-10 10 -25.5 53t-31 94.5t-29.5 99.5t-23 70zM202 1403.5 q3 17.5 19 28.5q25 16 53.5 23t55.5 22q106 57 152 65t42 -12.5t-53 -59t-131 -75.5q-10 -4 -26.5 -10.5t-35 -10.5t-35 -4t-26.5 6q-18 10 -15 27.5zM473 -100q14 20 68.5 31.5t118 12.5t116.5 -8.5t66 -27.5q16 -6 15 -21.5t-17 -19.5q-12 -8 -43 -13.5t-72 -6.5t-85 2.5 t-81 9.5t-61.5 16t-24.5 25zM911.5 -87q14.5 13 35 13t35.5 -12t3 -37q-10 -23 -34.5 -25t-37.5 21q-16 27 -1.5 40z" />
<glyph unicode="2" d="M125 120.5q-2 61.5 0 128t9 123t22 68.5q6 4 31.5 16.5t35.5 18.5q74 41 152 86t148.5 97.5t131 116t99.5 143.5q10 23 19 49t11 54t-3 54.5t-23 46.5q-25 29 -55.5 36t-59.5 -1t-55.5 -29.5t-40.5 -50.5q-25 -45 -28 -92t9 -96q2 -6 9.5 -24.5t11.5 -37t2 -32t-21 -7.5 q-82 -12 -164.5 -24t-166.5 -23q-12 -2 -24.5 13.5t-22 37t-16.5 42t-9 30.5q-53 197 -2 350.5t225 264.5q74 47 171 69.5t200.5 20.5t203 -29t176.5 -80t123 -134t42 -189q-4 -109 -53.5 -207.5t-119 -190.5t-147.5 -177t-141 -165q51 4 102 3t103 -1q47 0 94 7.5t94 7.5 q10 6 16.5 0t10.5 -17q2 -6 -1 -55t-6.5 -110.5t-7.5 -118t-4 -78.5q0 -23 -39 -33t-88 -13t-97 -3t-67 -2q-156 -12 -300 -3t-298 13q-33 2 -76.5 -2t-72.5 4q-31 8 -37 43q-4 20 -6 81.5zM155.5 -144.5q-5.5 19.5 16.5 29.5q14 8 51 11.5t85 4.5t101.5 0t102.5 -3t89 -5.5 t61 -7.5q23 -4 45 -6t41 -12q10 -6 17 -19.5t9 -25.5t-4 -19.5t-22 0.5q-53 -6 -129 -6t-155 4t-153.5 12.5t-126.5 18.5q-23 4 -28.5 23.5zM274.5 1544.5q-4.5 16.5 8.5 28.5q23 23 53.5 42t58.5 32q18 8 57.5 16t83.5 14t83.5 8.5t60.5 -2.5q16 -4 30.5 -21t-5.5 -34 q-8 -6 -20.5 -7t-22.5 -1q-53 0 -98.5 -6t-88.5 -18.5t-85 -30t-91 -37.5q-20 0 -24.5 16.5zM853 -170q-3 10 3 22.5t25 20.5q12 6 25.5 0t18.5 -18.5t0 -27t-30 -24.5q-16 0 -27.5 8.5t-14.5 18.5z" />
<glyph unicode="3" horiz-adv-x="1275" d="M75 163q-3 11 0 25.5t10 28.5t11 21q25 47 49.5 94t42.5 96q6 16 14.5 50t18.5 44q12 10 31.5 -2t30.5 -16q59 -29 125.5 -47.5t132.5 -20.5q20 0 54 4t64.5 16.5t47 34t2.5 54.5q-12 25 -39 33t-58.5 7t-62.5 -6.5t-51 -7.5q-18 0 -30.5 28t-21 64.5t-13.5 72.5t-5 50 q-2 14 -2 31t16 25q25 12 47.5 19t42 16.5t39 23.5t37.5 37q25 31 37 76t-18 80q-41 43 -88 32.5t-91.5 -38t-78 -57.5t-47.5 -30q-4 0 -22.5 15.5t-43.5 38t-53.5 50.5t-52 51.5t-39 39.5t-15.5 18q-2 14 10.5 37t30 46.5t35.5 43t29 29.5q78 74 183 123t215 60.5 t213 -23.5t179 -129q37 -47 59.5 -110.5t28.5 -131t-8 -133t-51 -115.5q-23 -31 -51.5 -56t-57.5 -52q92 -25 158 -88.5t96.5 -147.5t25.5 -177t-51 -176t-137.5 -145.5t-232.5 -84.5q-88 -14 -178 -10.5t-177 25t-169 59.5t-152 92q-16 2 -19 13zM119 -10q-6 14 3 25.5 t25 0.5q27 -18 68 -29.5t82 -22.5t78 -24.5t55 -33.5q14 -14 7 -29.5t-27 -13.5q-57 4 -100.5 13t-96.5 42q-8 4 -22.5 13.5t-30 20.5t-27.5 21.5t-14 16.5zM324 1569q25 37 80 67.5t119.5 50t128 24.5t108.5 -7q23 -6 49.5 -14.5t46.5 -18.5t20.5 -33.5t-24.5 -29.5 q-23 -4 -41 7t-37 15q-12 4 -45 3t-69.5 -5t-71.5 -9l-49 -7q-12 -2 -49 -17.5t-75 -29t-66.5 -16.5t-24.5 20zM944 1548q-6 18 5.5 23.5t26.5 1.5t30.5 -13.5t21.5 -17.5q14 -27 6 -39t-25.5 -11t-37 15.5t-27.5 40.5z" />
<glyph unicode="4" horiz-adv-x="1425" d="M99 704.5q1 90.5 7.5 190.5t12.5 194.5t12 174t6 127.5q0 20 19 30l12 2q88 16 187.5 14.5t189.5 -7.5q10 0 21.5 -1.5t21.5 -7.5q16 -8 20 -55t1 -113.5t-10 -142.5t-11 -143.5t-3 -116.5t13 -62q6 -8 39 -11t70.5 -5t73.5 -2h50q0 27 1.5 82t2.5 123.5t2 142.5t3 138.5 t5 111.5t7 64q6 23 29 38q10 6 45 11.5t75.5 8.5t77.5 5t54 2q12 0 33.5 2l43 4t41 -1t29.5 -11q14 -14 15 -83t-3 -151.5t-10 -158.5t-6 -105q-4 -162 1 -327.5t17 -325.5q6 -70 13.5 -138.5t7.5 -138.5q0 -16 -6 -31.5t-19 -25.5q-6 -4 -39.5 -8t-83 -7t-105.5 -5 t-106.5 -3t-87.5 0t-45 5q-16 6 -24 14t-13 27q-4 18 -5 64t1 98.5t4 99.5t7 69h-75t-111.5 2.5t-128 4.5t-125 7t-103.5 10t-64 13q-35 14 -53 45q-18 33 -26.5 102.5t-7.5 160zM213 1551.5q-2 13.5 8 23.5q10 8 56.5 10t100.5 0t101 -8t62 -12q18 -10 30.5 -28.5t13.5 -33 t-11.5 -18.5t-45.5 14q-31 0 -71.5 -2t-83.5 0t-82 8t-66 25q-10 8 -12 21.5zM258 262q-6 14 11.5 21.5t48 9.5t69.5 -1t75 -8t63.5 -10.5t35.5 -9.5q14 0 17.5 -7t-1 -16.5t-13.5 -17.5t-17 -8q-18 -2 -62.5 -2t-92.5 5t-87 15.5t-47 28.5zM640 235.5q1 14.5 13.5 24.5 t30 10t25.5 -20q10 -23 -9.5 -33t-37.5 -4q-23 8 -22 22.5z" />
<glyph unicode="5" horiz-adv-x="1259" d="M97 136q3 46 17.5 99.5t34 102.5t29.5 70q2 6 8.5 17t13.5 21.5t16 14.5t17 -6q33 -4 59.5 -11.5t53.5 -11.5t55.5 -4t63.5 10q59 16 117.5 50t74.5 100q10 41 -1 84t-40 73q-29 29 -67.5 39.5t-81.5 8.5t-86 -12.5t-80 -18.5t-63.5 -12.5t-36.5 4.5l-17 14 q-6 12 -13 67.5t-15.5 131t-13.5 161.5t-9 162t-3 128t7 63q8 12 48 19t96.5 10t123 4.5t128 -1t110.5 -4.5t74 -4q27 -2 77 1t102 6.5t95 6.5t53 1q16 -4 22.5 -10.5t4.5 -22.5q-10 -76 -12 -150.5t-2 -150.5q4 -14 -9.5 -23.5t-23.5 -13.5q-70 -6 -140.5 -4t-141 8 t-142.5 10t-141 0q0 -29 7 -54t17 -52q39 16 79 23t81 14q170 27 280.5 -15.5t169 -127.5t71 -200.5t-15.5 -235.5t-91.5 -232.5t-155.5 -192.5q-76 -66 -177 -95.5t-208.5 -28.5t-211 30t-185.5 80q-25 14 -22 60zM201 1630q2 12 12 20.5t29 6.5q29 -2 86 -4t118.5 -7.5 t113.5 -13.5t71 -22q25 -18 9.5 -26.5t-44.5 -11.5t-58.5 -2t-31.5 1q-47 -4 -78 -6t-58.5 -1t-59 7t-77.5 18q-18 6 -26 17.5t-6 23.5zM550 -113.5q1 15.5 13 23.5q59 6 128 13t126 24q10 2 30.5 11t43 19.5t41 18.5t26.5 8q14 2 19.5 -9t-0.5 -24q-4 -6 -26.5 -20 t-51.5 -28.5t-54.5 -28t-35.5 -17.5q-59 -27 -120.5 -31t-123.5 19q-16 6 -15 21.5zM695 1597.5q1 8.5 9.5 14.5t18.5 4q16 -4 25 -20.5t-11 -26.5q-25 2 -34 11t-8 17.5z" />
<glyph unicode="6" horiz-adv-x="1349" d="M93 666.5q5 117.5 24 222.5q29 166 113.5 311.5t207.5 261.5q20 18 40 32.5t48 4.5q12 -6 58.5 -23.5t96.5 -39t91 -39t43 -23.5q4 -14 -2 -26.5t-12 -22.5q-41 -61 -81 -108.5t-73 -96.5t-56.5 -107.5t-31.5 -140.5q141 63 258 66.5t206 -38.5t148.5 -118.5t85 -171 t16.5 -196t-56.5 -192.5t-133.5 -163.5t-217 -107.5q-141 -37 -286.5 -15.5t-262.5 113.5q-92 72 -141 172.5t-68.5 214t-14.5 231zM211 -11.5q12 19.5 35 11.5q14 -4 33.5 -21.5t33.5 -27.5q23 -16 58 -34.5t72.5 -35t74.5 -30t66 -19.5t57.5 -6h56.5q18 0 28.5 -8 t11.5 -19.5t-7 -19.5t-26 -8q-53 0 -108.5 1t-110 9t-103.5 28.5t-92 57.5q-43 39 -78 84q-14 18 -2 37.5zM610 494q-8 -41 4.5 -84t51.5 -70q63 -47 109 -40t71.5 44t31 90t-10 99.5t-52.5 73t-96 9.5q-43 -12 -72 -46.5t-37 -75.5zM741.5 1029q-4.5 13 8.5 24 q12 10 34.5 17t48 10t50 4t41.5 1q63 -4 106 -37.5t90 -68.5q12 -10 9 -23.5t-19 -13.5t-28.5 6t-24.5 15l-25 6q-26 6 -58 12t-58.5 12t-30.5 6q-10 2 -28.5 2t-37 1.5t-36 2.5t-23.5 5q-14 6 -18.5 19zM822 -188.5q-9 10.5 1 28.5q8 14 24.5 19.5t31 2.5t22.5 -14.5 t2 -29.5q-4 -12 -21.5 -17.5t-34 -2.5t-25.5 13.5z" />
<glyph unicode="7" horiz-adv-x="1134" d="M73 1225.5q-1 50.5 0 108t3 105.5t6 54q10 14 32.5 15t39.5 1q141 4 283.5 -5t283.5 -13h74.5h114t108.5 -2t57 -4q23 -10 26 -27.5t-5 -38.5q-41 -102 -85 -198.5t-79 -200.5q-47 -147 -87 -297t-75 -303q-23 -104 -43 -212t-55 -208q6 -10 3 -18.5t-10.5 -14.5 t-17.5 -10t-18 -4q-14 -2 -53 -1t-88.5 5t-103.5 9t-100 11.5t-78 13.5t-36 13q-8 10 -7 24.5t3 26.5q53 291 163.5 569.5t264.5 530.5q-43 -6 -112.5 -17.5t-142.5 -18.5t-140.5 -6t-106.5 17q-25 10 -14 37q-4 8 -5 58.5zM140 1603.5q-5 18.5 18 30.5q8 4 43 6t83 1 t102 -5t102.5 -8t83 -9t42.5 -11q20 0 18 -17.5t-20 -21.5q-8 -6 -40.5 -8t-77.5 -2t-98.5 2t-100.5 5t-82 6t-45 7q-23 6 -28 24.5zM317.5 -118.5q-2.5 16.5 14.5 26.5q6 4 19.5 6t28.5 3t30.5 1h23.5t29.5 -1t43 -3t41 -4t25.5 -6q10 -8 11.5 -21.5t-13.5 -19.5 q-4 -2 -15 -3t-23.5 -1h-22.5h-16q-12 0 -36 -1t-48.5 -3t-45 -2t-28.5 4q-16 8 -18.5 24.5zM703.5 1585q-3.5 12 15.5 25q16 10 33.5 8t30 -9t15 -18.5t-9.5 -21.5q-16 -12 -35.5 -11t-32.5 8t-16.5 19z" />
<glyph unicode="8" horiz-adv-x="1304" d="M91 403.5q-1 81.5 25.5 156.5t79 136.5t132.5 96.5q-45 29 -83 68.5t-63.5 87.5t-36 101.5t-0.5 108.5q20 102 97 174t179.5 111t213 45t199.5 -25q80 -29 147.5 -71.5t111.5 -102t61 -134.5t-5 -165q-20 -84 -63 -130t-113 -91q119 -70 178 -163t67.5 -190.5 t-33.5 -189.5t-124 -159.5t-201 -102.5t-268 -16q-66 8 -131.5 22.5t-126.5 40.5q-80 35 -134.5 97.5t-81 137.5t-27.5 156.5zM193 1477q2 6 12 18t23.5 25.5t25.5 24.5t18 16q31 25 78 40t99.5 23t102.5 9t87 -5q16 -4 22.5 -14.5t14.5 -24.5q-2 -12 -11.5 -18t-21.5 -7 t-25.5 -1t-23.5 -2q-66 -8 -125 -21.5t-119 -40.5q-29 -12 -57.5 -31.5t-59.5 -27.5q-18 -4 -31.5 6t-8.5 31zM512 474q-8 -44 17.5 -83t93.5 -51q86 -14 136 1t70.5 47t15.5 72t-29.5 73.5t-66.5 54t-94 14.5q-59 -8 -97 -46t-46 -82zM539 1047q-14 -41 14.5 -72 t73.5 -45.5t93 -11.5t73 28q8 45 -27 78t-82 47t-91 9t-54 -33zM590 -132.5q4 19.5 28 15.5q23 -4 47.5 -5t47.5 -3t65.5 3t86.5 12.5t79 12.5t41 3q25 -6 33 -18.5t6 -22.5t-12.5 -16.5t-22.5 -2.5q-45 -25 -93 -33t-98 -7t-99.5 10.5t-96.5 19.5q-16 12 -12 31.5z M738 1575.5q5 15.5 23.5 26t43.5 12.5t41 -10q20 -16 18 -32t-17.5 -27t-40 -12t-48.5 13q-25 14 -20 29.5z" />
<glyph unicode="9" horiz-adv-x="1325" d="M76 895q-14 106 16.5 219t97.5 197q88 109 217.5 155.5t265.5 38.5t261 -70.5t203 -172.5q76 -109 92 -239t0 -257q-29 -256 -148.5 -469t-337.5 -354q-18 -12 -42.5 -25.5t-47.5 -1.5q-59 29 -115.5 68t-115.5 73q-27 16 -42 44t9 57q4 4 15.5 9t23.5 10t24.5 10.5 t18.5 7.5q115 47 196.5 143t112.5 215q-109 -29 -225.5 -28t-217.5 40t-173 119t-88 211zM189.5 1482.5q11.5 22.5 34 44t47 38t38.5 20.5q23 4 42.5 5t41.5 5q20 2 73.5 17.5t112 26t106.5 8.5t58 -35q14 -14 16.5 -25.5t-3.5 -17.5t-15.5 -7t-17.5 5q-37 0 -79 1t-85 -3 t-83 -15.5t-70 -36.5q-31 -25 -62 -32q-12 -4 -34.5 -13.5t-47 -17.5t-45 -11t-27.5 5q-12 16 -0.5 38.5zM468 1009q-7 -40 2 -81t42 -74q43 -43 96.5 -31.5t90 53.5t45 101t-41.5 108q-41 43 -79.5 50.5t-70.5 -7t-54.5 -47t-29.5 -72.5zM729 -131.5q19 16.5 52.5 34 t69.5 31t42 17.5q12 8 23.5 16t23.5 17q16 10 27.5 -0.5t1.5 -26.5q-16 -25 -49 -47.5t-60 -36.5q-10 -4 -26.5 -11t-35 -13.5t-36 -9.5t-25.5 1q-27 12 -8 28.5zM817 1576.5q12 14.5 33.5 18.5t40 -6t0.5 -41q-8 -14 -25.5 -13t-29.5 9q-31 18 -19 32.5z" />
<glyph unicode=":" horiz-adv-x="548" d="M79 786.5q-9 49.5 4 95.5t49 79.5t93 42.5q74 10 125 -8.5t79 -53.5t35 -78t-4 -85t-40 -76t-74 -46q-80 -23 -136 -7t-89 51.5t-42 85zM82 136q-6 48 9 93t51 78t89 39q78 8 130.5 -11.5t80 -55t32.5 -80.5t-9 -87t-47 -74t-80 -42q-82 -16 -136.5 1t-84 54t-35.5 85z " />
<glyph unicode=";" horiz-adv-x="548" d="M79 786.5q-9 49.5 4 95.5t49 79.5t93 42.5q74 10 125 -8.5t79 -53.5t35 -78t-4 -85t-40 -76t-74 -46q-80 -23 -136 -7t-89 51.5t-42 85zM80 151.5q-2 45.5 15.5 86.5t52 71.5t88.5 36.5q131 16 194.5 -50.5t36.5 -195.5q-4 -18 -17.5 -57t-30 -82t-32.5 -80t-25 -51 q-14 -20 -37.5 -35.5t-45 -20.5t-35 6t-4.5 44q10 41 32.5 83t26.5 85q-72 -6 -120 16.5t-72.5 60t-26.5 83z" />
<glyph unicode="&#x3c;" horiz-adv-x="970" d="M72 526v93.5t1 92.5t3 48q2 4 47 28.5t112.5 58.5t148.5 74t154.5 74.5t129 60t73.5 34.5q18 8 40 8t34 -21q2 -4 9 -31.5t14.5 -61.5t13.5 -63.5t6 -35.5q4 -16 7 -48t-5 -46q-10 -20 -71.5 -48t-135 -53.5t-141 -46.5t-92.5 -27q37 -14 71.5 -29.5t73.5 -25.5 q74 -20 151 -38.5t148 -43.5q29 -10 27 -43q0 -12 -7 -57t-17.5 -94t-20.5 -89t-17 -42q-16 -6 -72.5 10t-132 45t-161.5 65.5t-163 70.5t-134 61.5t-76 39.5q-12 8 -16 29q-2 8 -2 51z" />
<glyph unicode="=" horiz-adv-x="995" d="M76 491.5v47.5q0 10 1 30.5t17 20.5q4 6 43 12t87 10t91 7.5t56 3.5q14 0 55 -2.5t96.5 -4.5t115.5 -5t112.5 -6t87 -5t39.5 -4q20 -8 27 -27.5t7 -43t-3 -46t-5 -39.5q0 -10 1 -25.5t1 -30.5v-29.5t-4 -20.5q-6 -10 -20.5 -14.5t-30.5 -5.5t-32.5 0t-26.5 1 q-61 4 -149.5 7.5t-180.5 3.5t-179 -2t-145 -11q-10 -2 -21.5 -3t-21.5 3q-8 4 -12 36t-5 70t-1 72.5zM85 980q-1 24 19 24q8 10 66.5 16t140.5 8t176.5 2t178.5 -3t145 -7t76 -10q18 -6 25.5 -48t7.5 -89.5t-5.5 -88.5t-13.5 -47q-6 -6 -19.5 -8t-28.5 -2t-29.5 1t-22.5 1 q-174 10 -348 3t-349 -7q-10 8 -13 38t-4 64.5t-1 68.5v48q0 12 -1 36z" />
<glyph unicode="&#x3e;" horiz-adv-x="970" d="M80 436q-4 35 24 43q70 25 149 43.5t150 38.5q39 10 75 25.5t73 29.5q-27 6 -96.5 27t-143 47.5t-134 54t-68.5 50.5q-4 8 0 47t12 85t16 86t13 52q8 23 28.5 30t40.5 1q23 -8 44.5 -23.5t43.5 -25.5q18 -8 68.5 -31t114 -51.5t134 -60.5t130 -61.5t98.5 -52t43 -30.5 q2 -6 3 -44t2 -84t0 -87t-1 -51q-2 -12 -5 -25.5t-13 -22.5q-23 -16 -80.5 -43.5t-131 -60.5t-156.5 -66.5t-157.5 -60.5t-133 -44t-85.5 -17q-10 8 -12 19t-4 24q-10 59 -23.5 119.5t-17.5 119.5z" />
<glyph unicode="?" horiz-adv-x="1298" d="M53 979q2 65 22.5 138t52.5 140.5t60 100.5q76 90 193 130t244 38t246.5 -45t201.5 -120t108.5 -186.5t-32.5 -242.5q-29 -61 -74 -112.5t-104 -86.5q2 -10 5 -36.5t4 -56.5t1 -55.5t-6 -31.5q-10 -12 -47 -19.5t-87 -9.5t-106.5 0t-105.5 7.5t-86 15.5t-45 22 q-8 10 -10.5 28.5t-2.5 40t2 41t2 32.5q0 8 1.5 23.5t3.5 30.5t5 29.5t7 18.5q35 33 82 51.5t89 41t68.5 58t20.5 107.5q-2 16 -8 33.5t-21 30.5q-23 20 -64.5 17t-66.5 -15q-47 -23 -65.5 -61t-23.5 -78t-7 -72.5t-14 -42.5q-10 -8 -48 -10.5t-81 -2.5t-82 1t-52 1 q-12 0 -33.5 -2t-43 -2t-42 3t-28.5 12q-35 31 -33 96zM463 215q4 43 5 90t30 84q16 20 45.5 33.5t63.5 22t69 10.5t59 2q31 0 71 -1t79 -9.5t70.5 -26t45.5 -49.5q6 -16 9.5 -53t3.5 -78t-3 -80t-5 -58q-4 -20 -9.5 -39.5t-17.5 -35.5q-14 -20 -42 -29.5t-60.5 -13.5 t-65 -5.5t-55.5 -1.5q-27 -2 -64 -1t-74.5 8.5t-70.5 20.5t-49 38q-6 8 -12.5 31.5t-11.5 51.5t-8 53.5t-3 35.5zM510.5 -89.5q7.5 23.5 36.5 19.5q25 -4 53.5 -7t58 -7t57 -10t48.5 -15q16 -8 12 -23t-20 -18q-10 -2 -21.5 1t-21.5 -1q-45 -10 -93.5 -5t-89.5 28 q-27 14 -19.5 37.5zM825.5 1565.5q10.5 7.5 31 9.5t42 1t25.5 -1q25 -6 67.5 -23.5t84.5 -43t75 -55t39 -56.5q4 -16 -7.5 -28.5t-27.5 -2.5q-14 6 -22.5 15.5t-20.5 19.5q-53 41 -111.5 75.5t-123.5 51.5q-10 4 -22.5 6t-23.5 10q-16 14 -5.5 21.5zM1183 1300.5 q-1 14.5 8 25.5t22.5 13t21.5 -18q6 -16 -4 -29.5t-27 -9.5q-20 4 -21 18.5z" />
<glyph unicode="@" horiz-adv-x="1798" d="M93 728q7 130 51 255t130 227q72 88 170 154q143 96 314.5 138t343.5 22q184 -20 314 -109.5t204 -212.5t93.5 -261t-16.5 -259t-126 -206t-236 -101q-154 -19 -248 112q-41 -82 -103 -115.5t-130 -29.5t-131.5 44t-105.5 108.5t-53 162t26 203.5q25 76 86 133.5 t139 79.5q33 8 81 9t95 -8t89 -28.5t65 -48.5q18 -25 23.5 -53.5t4 -58t-3.5 -60t5 -57.5q10 -45 46.5 -67.5t82.5 -6.5q29 12 42 45t16 72t-3 78t-17 61q-14 35 -38.5 66t-53.5 53q-88 74 -192.5 90.5t-204.5 -13.5t-186 -98.5t-136.5 -164t-53.5 -212t63 -239.5 q57 -109 154.5 -159t208 -55t223 28t200.5 88q4 2 7 4t7 4q23 8 46.5 -17.5t44 -63.5t37 -76t22.5 -54q6 -14 16.5 -37.5t7.5 -38.5q-2 -16 -31.5 -36.5t-66.5 -41t-73.5 -36t-51.5 -19.5q-78 -23 -166 -37t-177 -19t-177 4t-166 36q-131 45 -229.5 130t-164 195.5 t-95 238.5t-22.5 258zM188 1296q20 33 41 65t45 60q25 27 80.5 65t119 70.5t123.5 53t95 14.5q16 4 36 5t30 -17q6 -12 -3.5 -21.5t-21.5 -1.5l-20 -8q-10 -18 -58.5 -41.5t-109 -50.5t-117.5 -52.5t-84 -50.5q-33 -29 -61.5 -61.5t-61.5 -60.5q-18 -16 -32.5 -3t-0.5 35z M809 1623.5q8 16.5 27.5 25t43.5 2.5t40 -39q0 -12 -14.5 -18.5t-32 -8.5t-35 1t-23.5 9q-14 12 -6 28.5zM861 691q-5 -44 9 -62q31 -39 64 -17.5t53.5 67.5t22.5 98t-31 75q-27 18 -52.5 -7.5t-43 -67.5t-22.5 -86zM969.5 -221.5q1.5 20.5 17.5 22.5q78 10 147.5 24.5 t145.5 31.5q10 2 19.5 6t19.5 2q14 4 21.5 -2t9.5 -16.5t-3.5 -22.5t-17.5 -19q-20 -12 -42.5 -21t-45.5 -17q-18 -6 -53 -11.5t-72 -7.5t-71.5 -2t-53.5 6q-23 6 -21.5 26.5z" />
<glyph unicode="A" horiz-adv-x="1353" d="M29 59.5q2 22.5 8 47t15 48t14 35.5q72 231 144.5 461t149.5 459q27 80 47.5 166t57.5 162q10 18 22.5 35.5t30.5 27.5q12 6 42 9t63.5 5.5t65.5 2.5h48h46t57.5 -3.5t55.5 -10.5t38 -19q10 -12 27.5 -56.5t36 -105.5t38 -132t37 -137.5t30.5 -118.5t21 -77 q8 -31 26.5 -95.5t42.5 -145t47.5 -169t43.5 -166.5q19 -76 31 -134q10 -49 10 -72v-6q0 -10 -6.5 -22.5t-20.5 -10.5q-27 -16 -72.5 -30.5t-97 -25t-99.5 -15.5q-22 -2 -40 -2q-22 0 -39 3q-20 4 -33.5 24.5t-22.5 47.5t-15.5 53.5t-10.5 42.5q-25 6 -76 7h-53h-55 q-57 -1 -111.5 -4t-85.5 -3q-10 -31 -19 -66.5t-22 -64.5q-6 -12 -34.5 -17t-71.5 -5t-91 3t-92 10t-77 15t-41 17q-12 10 -10 32.5zM139 -92q10 16 34 22.5t40 8.5q12 2 40 2t56.5 -3.5t50 -11.5t21.5 -24q0 -10 -7.5 -18.5t-17.5 -12.5q-8 -4 -49 -6q-16 -1 -33 -1 q-25 0 -50 2q-42 3 -70.5 12t-14.5 30zM195 1042q0 8 6 28t15 41.5t17.5 42t12.5 28.5q18 41 35.5 93t33 104.5t29.5 97.5t31 69q16 27 54 54.5t77 41.5q28 10 50 11q10 0 18 -2q28 -6 26 -49q0 -16 -10.5 -31.5t-30.5 0.5q-18 4 -37.5 7t-34.5 -15q-23 -31 -43 -66t-36 -70 q-8 -14 -20.5 -49t-28 -80t-33 -94t-35 -91t-34.5 -70.5t-30 -32.5q-16 -4 -24 8t-8 24zM580 473q55 4 110 3.5t111 -3.5q-31 135 -49.5 272.5t-42.5 272.5q-33 -137 -64.5 -272.5t-64.5 -272.5zM666 1589q-12 25 1 37t32.5 12t34 -12t5.5 -39l-14 -45q-6 -16 -25.5 -15 t-27.5 15q-6 10 -3 23.5t-3 23.5zM975 -128.5q-2 17.5 14 28.5q18 8 51 15t70 9q18 1 36 1t36 -1q35 -2 53 -8q23 -8 17 -25.5t-29 -13.5q-12 -6 -45 -11t-69 -10.5t-68.5 -7.5t-45.5 2q-18 4 -20 21.5z" />
<glyph unicode="B" horiz-adv-x="1316" d="M109 1315v31.5t1 41t3 40t6 28.5q10 27 37.5 42t61.5 22.5t67.5 9.5t58.5 2q53 1 112 1h60q92 -1 184.5 -13.5t177.5 -39t152 -75.5q45 -35 81 -80t58.5 -97t30.5 -110q4 -29 4 -57.5t-4 -56.5q-8 -49 -23.5 -87t-39 -68t-56 -55.5t-73.5 -50.5q106 -41 164 -105 q60 -66 76 -140q7 -33 7 -67q1 -42 -11 -85q-20 -78 -71 -146.5t-126.5 -121.5t-167.5 -80q-86 -23 -176.5 -27t-178.5 -8q-25 0 -74 -2t-103 -2t-100 4t-65 17q-23 14 -32 47.5t-12 73.5q-2 30 -2 59v20q1 39 1 62q-5 270 -19 536q-11 198 -10 398q0 70 1 139zM157 1585 q5 14 34.5 32.5t70.5 29.5q4 0 23.5 1t42 2t41 1t22.5 -2q20 -10 18.5 -27.5t-24.5 -22.5q-31 -4 -60.5 -9t-60.5 -13q-50 -12 -76 -12q-8 0 -13 1q-23 5 -18 19zM398.5 -141.5q-7.5 14.5 7.5 26.5q6 4 55 10.5t110.5 11.5t117.5 10t75 7q37 4 73.5 5t71.5 12q14 4 34 8 t26 -17q4 -16 -14.5 -29.5t-52.5 -22.5t-74 -15t-77.5 -11.5t-67.5 -8.5t-38 -7q-35 -14 -61.5 -17t-51 0t-51 10t-59.5 11q-16 2 -23.5 16.5zM551 1190l14 -313q99 12 147 61q44 45 44 96v8q-4 56 -56.5 100t-148.5 48zM571 598l2 -192q18 4 52 11t68 18t63.5 24.5 t40.5 29.5q16 23 9 45.5t-30 38.5q-41 26 -96 26h-4q-58 -1 -105 -1zM991 -52q-2 11 10 25t28.5 4.5t10.5 -26.5q-6 -18 -17 -21.5t-20.5 2t-11.5 16.5z" />
<glyph unicode="C" horiz-adv-x="1323" d="M78 644q-3 45 -3 90q-1 92 13 184q20 136 75.5 259t146.5 212.5t220 134.5q88 31 195 31q50 0 104 -7q111 -12 203 -62t148 -153q8 -14 26.5 -51t36 -77t24.5 -74.5t-10 -45.5q-20 -12 -69 -29.5t-105.5 -37t-109.5 -37.5t-84 -31q-16 -8 -29 -6q-10 2 -19.5 17.5 t-16.5 33l-14 35t-15 27.5q-18 23 -47 33t-58 2q-35 -10 -62.5 -41t-46 -72t-30.5 -84t-16 -74q-6 -36 -5 -91v-10q0 -62 11.5 -122.5t36 -111t67.5 -68.5q35 -16 65 -15q17 1 33 5q43 14 78 43.5t62.5 60.5t50.5 41q4 2 10 2q18 1 52 -13q46 -18 99.5 -44.5t99.5 -54 t62 -40.5q20 -16 13.5 -40.5t-13.5 -43.5q-47 -129 -135 -208.5t-221 -114.5q-100 -28 -206 -28q-24 0 -48 1q-131 8 -248 64q-94 45 -161.5 137t-108.5 214t-51 260zM147 1393q0 29 16.5 69.5t37.5 63.5q41 41 86 57q49 18 75.5 37.5t55 36t68.5 28t116 11.5q6 0 27.5 -2 t42 -7.5t31 -15.5t-4.5 -26q-6 -6 -52 -17.5t-105.5 -27t-117.5 -37t-87 -47.5q-35 -33 -68.5 -70t-66.5 -72q-14 -16 -34 -10t-20 29zM723 -141.5q-14 12.5 14 37.5q16 14 53 24t78 15.5t80 7.5t62 2q8 0 24.5 6t34.5 13t35.5 14.5t28.5 11.5q37 12 34.5 -7.5t-38 -50 t-102.5 -59.5t-161 -35h-37.5t-61.5 4t-44 16.5zM765 1666q5 22 28.5 35t52 9t35.5 -43q2 -18 -8.5 -34.5t-26 -23.5t-29.5 -2.5t-18 27.5q-39 10 -34 32z" />
<glyph unicode="D" horiz-adv-x="1282" d="M115 97.5q2 23.5 2 39.5v97.5v168v212t2 232.5t4 227.5t6 196.5t9 142t12 62q14 14 42.5 23t62.5 14.5t65.5 7.5t52.5 2h28q199 0 345 -54q156 -58 259 -154.5t155 -222.5q52 -125 60 -261q2 -28 2 -57q0 -107 -25 -213q-32 -134 -96.5 -246.5t-158.5 -193.5t-211 -108 q-47 -12 -124 -18t-159 -8q-41 -1 -80.5 -1t-77.5 1q-77 2 -126 8q-25 2 -35 19.5t-13 39t-1 45zM189.5 1589q-7.5 10 3.5 23q14 18 53 27t91 13q22 1 46 1q31 0 65 -2q60 -4 112 -12.5t93.5 -21t57.5 -24.5q29 -25 5 -38t-61 -1q-18 6 -53 14.5t-71.5 14.5t-70.5 8t-52 -2 q-42 -10 -100 -19q-23 -4 -43 -4q-31 0 -56 9q-12 4 -19.5 14zM459 -74.5q10 15.5 53 16.5q18 0 64.5 4.5t96.5 10.5t94 13t60 14q12 4 37 13t37 3q20 -10 16 -21.5t-23.5 -21.5t-48 -19.5t-57 -16.5t-49 -12t-24.5 -5q-86 -22 -143 -22h-14q-60 3 -84.5 15.5t-14.5 28z M524 776q-1 -53 -1 -106q0 -106 3 -213q11 -1 22 -1q28 0 55 4q38 5 73 25t63.5 74.5t42.5 122.5q11 54 10 111v29q-4 72 -31.5 134t-85 101t-149.5 39q0 -160 -2 -320zM772 1528q-2 14 8.5 23.5t22.5 9.5t23.5 -11.5t9.5 -36.5q0 -16 -9.5 -21t-20.5 -2t-21.5 13t-12.5 25z M932 27.5q2 15.5 16 27.5q8 8 21.5 7t21.5 -9t6 -22.5t-22 -34.5q-12 -12 -23.5 -9t-16.5 14t-3 26.5z" />
<glyph unicode="E" horiz-adv-x="1167" d="M117 107.5v29.5q0 59 3 119.5t3 120.5q1 64 1 127q0 160 -4 320q-1 66 -1 131q0 158 8 315q0 8 3 38.5t6 63.5t6 60.5t8 31.5q10 10 50 15.5t96 7.5q28 1 58 1t64 -1q66 -2 127 -4t108 -4t68 -2q35 0 81 3t93 5q31 1 61 2q15 0 30 -1q44 -1 75 -9q16 -4 23.5 -16.5 t10.5 -29t2 -34t-1 -29.5q-2 -61 -2 -124.5t-7 -123.5q-4 -33 -29.5 -47t-59.5 -18q-27 -3 -55 -3h-14q-36 1 -59 1l-128 -4h-18q-55 0 -108 10q-8 2 -15 4t-17 0q2 -41 4 -80t2 -80h72.5h118t111.5 -2t56 -8q10 -10 8 -31.5t-4 -34.5q-2 -23 0 -63.5t2 -83.5t-7 -79 t-25 -48q-6 -4 -21.5 -7t-33 -4t-34 -1h-24.5q-53 -2 -106.5 -2t-106.5 4q2 -49 3 -98.5t1 -98.5q68 -5 135 -5q33 0 67 1q100 4 202 4q10 0 20 -1t18 -7q2 -2 5.5 -26.5t6.5 -61.5t6 -80t5 -81t3 -63.5t-1 -29.5q-6 -14 -20.5 -18.5t-28.5 -6.5q-20 -2 -89 -4t-162 -3h-47 q-72 0 -152 2q-106 3 -196.5 8.5t-155 14.5t-79.5 23q-8 8 -12 24.5t-6 35t-2 36zM190 1567.5q0 21.5 23 21.5t60.5 2t77.5 4q20 1 38.5 1t36.5 -1q35 -2 51 -10q25 -12 29 -25.5t0 -21.5t-15.5 -8t-17.5 12q-10 -6 -45 -6t-78 2t-82 5t-55 3q-23 0 -23 21.5zM419 -109.5 q1 13.5 13 21.5q25 13 64 13h6q43 -1 90 -7t92 -10q13 -1 25 -1q29 0 51 7q8 2 29.5 4t46 4t45 2t28.5 -2q35 -10 39 -33.5t-33 -38.5q-12 -6 -33.5 -6t-44 2t-43 6.5t-34.5 8.5q-4 0 -20.5 -2t-37 -6.5t-39 -7.5t-24.5 -5q-16 -4 -46 -5t-62.5 3t-61.5 11.5t-41 17.5 q-10 10 -9 23.5zM990 -124q-3 13 4 24.5t26 11.5q14 0 21.5 -8t8.5 -18.5t-5.5 -21t-18.5 -14.5q-14 -6 -23.5 3.5t-12.5 22.5z" />
<glyph unicode="F" horiz-adv-x="1136" d="M117 103.5v27.5q0 63 3 124.5t3 125.5q0 229 -3 455q-1 45 -1 90q0 181 10 364q0 14 3 37t6 45.5t3 44t-4 31.5q2 18 24.5 24.5t39.5 8.5q10 2 76.5 2t159.5 1h96h103q106 -1 198 -2t155.5 -2t71.5 -3q23 -5 30 -53q6 -42 6 -94v-14q-1 -60 -5.5 -115.5t-4.5 -76.5 q0 -14 -4 -27.5t-16 -23.5q-8 -6 -34.5 -10t-57.5 -6t-60.5 -3t-42.5 -1q-64 -4 -130 -5h-10q-61 0 -118 11q-8 2 -15 4t-15 0v-254h73.5h114.5t107.5 -1t54.5 -3q10 -6 13 -30.5t3 -54.5t-1 -57.5t-1 -39.5v-32t-1 -44.5t-3 -42t-6 -27.5q-10 -16 -57 -23.5t-105 -8.5h-34 q-40 -1 -78 1q-54 2 -74 3q0 -25 3 -92.5t3 -142.5t-3 -136.5t-13 -73.5q-16 -18 -70 -24q-45 -5 -97 -4h-19q-64 1 -121.5 6.5t-82.5 9.5q-14 4 -28.5 6t-24.5 12q-10 6 -14 22.5t-5 35t-1 36zM209 1566q-8 22 38 38q27 10 78 9q38 0 89 -5q23 -4 42 -8.5t42 -6.5 q37 -4 83 -4t81 -16q16 -8 13 -20.5t-20 -14.5q-33 -4 -65 -4q-28 0 -56 3q-22 3 -44 3q-38 0 -76 -8q-46 -9 -83 -9q-33 0 -59 7q-56 14 -63 36zM300 -110q-15 14 6.5 29t101.5 15q8 0 25.5 -2t34.5 -5t32.5 -7t23.5 -10q16 -10 8 -24.5t-24 -10.5q-12 4 -29.5 8t-29.5 0 q-37 -14 -71 -14q-10 0 -20 1q-44 5 -58 20zM698.5 1536q-2.5 12 7 24.5t24.5 17.5t30 -13q14 -18 14 -27.5t-8 -12.5t-20.5 -2t-24.5 5q-20 -4 -22.5 8z" />
<glyph unicode="G" d="M75 728v10q0 130 27 253q27 127 82.5 234.5t137.5 177.5t190.5 110.5t221.5 44.5h19q104 0 201 -36q105 -39 179 -129q43 -53 71.5 -111.5t50.5 -124.5q4 -14 9.5 -28.5t1.5 -30.5q-2 -10 -19 -15q-12 -4 -46 -16t-77 -28.5t-90 -33t-87 -29.5t-68.5 -21.5t-32.5 -4.5 q-14 8 -25.5 39t-29 59.5t-45.5 45.5q-12 7 -28 7q-20 0 -46 -11q-33 -14 -54.5 -44t-37.5 -61q-25 -49 -40 -125q-13 -71 -13 -144v-10q1 -79 20.5 -151t60.5 -115q43 -43 90 -45h7q43 0 80 23q40 26 70 70.5t38 91.5q-12 -4 -40 -12.5t-58.5 -15.5t-56 -12t-36.5 1 q-12 8 -20 46t-10 82q-1 22 -1 42.5t1 40.5q2 39 10 49q4 6 46 14t103.5 15.5t132.5 11.5q56 3 108 3h26q63 -1 110 -9.5t60 -24.5q6 -8 8 -16.5t4 -18.5q9 -59 9 -117q0 -94 -23 -186q-37 -149 -123 -265t-217 -182q-111 -57 -249 -57q-24 0 -50 2q-78 6 -152 27.5 t-137 69.5q-88 63 -146.5 168.5t-87 230.5t-29.5 261zM162 94q-4 23 15.5 32t35.5 -7q20 -23 48 -54.5t58.5 -62.5t63.5 -55.5t63 -32.5q35 -8 69 -10t69 -10q4 -2 18 -3.5t31 -5.5q18 -4 39 -6q18 -10 14 -29.5t-24 -23.5q-16 -4 -34 -5t-34 -5q-14 -2 -30 -2q-26 0 -58 6 q-51 10 -102.5 30.5t-96.5 47t-71 55.5q-25 27 -47.5 66.5t-26.5 74.5zM695 1645.5q3 17.5 20 27.5q51 31 119 34h18q58 0 116 -15q66 -19 124.5 -53.5t93.5 -77.5q16 -18 16 -33.5t-10 -38.5q-14 -29 -28.5 -26t-29 20.5t-32 42t-37.5 39.5q-47 33 -98.5 42t-99.5 9t-89 -3 q-9 -1 -18 -1q-28 0 -45 8q-23 8 -20 25.5zM744.5 -136.5q-7.5 13.5 4 29t50.5 21.5q16 2 27.5 -7t15.5 -21.5t-1.5 -25t-21.5 -18.5q-25 -8 -46 0t-28.5 21.5z" />
<glyph unicode="H" horiz-adv-x="1611" d="M106 95q-1 20 -1 39q-1 20 1 40q2 39 3 51q0 162 7 324t13 323q4 141 10 282.5t6 283.5q0 27 19.5 41t46.5 21t55.5 8t46.5 3q29 1 75 3q17 1 35 2q29 0 58 -2q47 -2 91 -8.5t69 -18.5q20 2 24.5 -19.5t4.5 -33.5q-2 -147 -12.5 -295t-16.5 -295q16 0 64.5 1t101.5 1 t100 -1t62 -5q6 147 12 294.5t6 295.5q0 27 19.5 41t46 21t55.5 9t47 4q27 2 73 2t94 -3t92 -9t69 -16q23 4 25.5 -18.5t2.5 -35.5v-41q0 -153 -13 -306q-15 -173 -19 -347v-83v-138t-1 -164t-3 -158.5t-7.5 -123t-11.5 -58.5q-18 -23 -82 -29q-48 -5 -104 -5q-18 0 -37 1 q-76 2 -145.5 9.5t-98.5 13.5q-18 -6 -28 12q-6 10 -9.5 70.5t-3.5 132.5t2 136.5t2 86.5q-82 6 -158.5 6t-158.5 -4v-88t-1 -136t-6 -129t-14 -71q-16 -20 -80 -26q-48 -4 -104 -4h-38q-77 2 -146.5 9t-95.5 13q-23 -6 -32.5 22.5t-11.5 68.5zM137 1579.5q0 24.5 32 52.5 t89 48q35 12 76 13q25 0 51 -5q14 -4 28.5 -3t26.5 -8q27 -16 22 -45.5t-36 -38.5q-33 -8 -72 -10q-20 -1 -38 -1t-35 1q-27 2 -49.5 -8t-47.5 -14q-47 -6 -47 18.5zM332 -130.5q0 15.5 12 24.5q12 8 51 13t81 6h14q34 0 65 -4q37 -5 47 -18q6 -8 6.5 -19t-4 -20.5 t-13 -12.5t-20.5 3q-18 -6 -50 -10t-65.5 -4t-64.5 4t-47 14q-12 8 -12 23.5zM526.5 1616.5q-0.5 15.5 11 27t28 14.5t32.5 -13q12 -12 10.5 -25.5t-10 -23t-24 -11.5t-29.5 6q-18 10 -18.5 25.5zM1092.5 -119.5q-19.5 19.5 6 38t118.5 18.5q8 0 45.5 -4.5t73.5 -13.5 t55.5 -21.5t-11.5 -30.5q-10 -6 -38 -7t-44 -5q-44 -9 -81 -9q-26 0 -49 4q-56 11 -75.5 30.5z" />
<glyph unicode="I" horiz-adv-x="770" d="M106 74q-1 20 -1 40q-1 21 1 41q2 40 3 50q0 162 7 323.5t13 323.5q4 141 10 281.5t6 281.5q0 27 19.5 41t46.5 21.5t55.5 9.5t46.5 4q27 2 73 2t96 -2t94.5 -8.5t64.5 -18.5q23 4 26 -17.5t3 -33.5q-2 -174 -15.5 -348t-17.5 -348v-83.5v-139t-1 -163.5t-3 -158t-7 -123 t-12 -58q-12 -12 -46 -20q-32 -7 -78 -10q-27 -2 -57 -2q-20 0 -41 1q-52 2 -100 5t-86 8.5t-56 9.5q-23 -10 -32.5 19.5t-11.5 70.5zM138 1558.5q-1 24.5 30 53t88 48.5q34 12 73 13q27 0 56 -6q14 -4 28.5 -3t26.5 -7q27 -16 22 -46t-36 -38q-35 -8 -73 -9t-72 -1 q-27 0 -49.5 -10.5t-47.5 -14.5q-45 -4 -46 20.5zM332 -150.5q0 15.5 12 23.5q14 8 52 14.5t80 6.5t79 -5.5t47 -17.5q6 -8 6.5 -19.5t-4 -20.5t-13 -12t-20.5 3q-18 -6 -50 -10.5t-65.5 -4.5t-64.5 4.5t-47 14.5q-12 8 -12 23.5zM526.5 1595.5q-0.5 16.5 11 27.5t28 13 t32.5 -14q12 -12 10.5 -25.5t-11 -22.5t-25 -11t-27.5 6q-18 10 -18.5 26.5z" />
<glyph unicode="J" horiz-adv-x="1406" d="M48 450q-1 19 -1 37q0 72 10 144q2 18 4 44.5t9.5 50.5t21.5 40t41 16h48t81 -1t93 -2t90 -5t70 -10t32 -14q2 -8 -1 -38t-5 -68q-1 -25 -1 -50v-25q1 -37 11 -59q25 -59 67 -82q31 -17 64 -17q10 0 20 2q43 7 82 39.5t60 86.5q12 35 16 98q3 42 3 91q0 24 -1 50 q-2 78 -11 163t-19.5 165t-23.5 145.5t-24 104.5q-4 12 -10 30.5t-10 37t-3 36t11 27.5q12 10 38 13t56.5 2t60 -3t46.5 -2q23 0 59.5 2t74.5 4q25 1 49 1h24q35 -1 53 -9q20 10 30.5 -3t15.5 -36.5t6 -47.5t1 -34q16 -168 24 -340q6 -117 6 -233q0 -55 -1 -109 q-2 -90 -20.5 -191.5t-58.5 -195.5t-102.5 -173t-148.5 -122q-104 -53 -222 -60q-43 -3 -87 -3q-73 0 -146 8q-59 6 -119.5 17.5t-113.5 39.5q-88 47 -141.5 116t-79 150.5t-28.5 171.5zM120 14q11 21 34 17q6 0 25.5 -14.5t44 -32t51 -34t44.5 -20.5q61 -16 118 -22 t114 -41q41 -6 86 -10q18 -2 36 -2q26 0 52 4q25 2 38 -7.5t15 -22.5t-7 -26.5t-32 -17.5t-47 -4t-52 2t-57.5 2t-58.5 -6q-18 -4 -62 10t-92 33.5t-91 41t-62 34.5q-23 16 -50.5 36.5t-43.5 42.5q-14 16 -3 37zM741 1604q6 10 18.5 15t22.5 7q12 2 57.5 1t97.5 -2t97 -4 t58 -7q14 -4 23 -16.5t-9 -24.5q-10 -6 -37 -5t-39 -3q-47 -10 -91 -19q-26 -4 -53 -4q-20 0 -40 2q-8 0 -29.5 3t-42 9.5t-33 17.5t-0.5 30zM852 -172.5q-4 14.5 4 27t24.5 20.5t30.5 2q16 -6 21.5 -20.5t0.5 -27.5t-19.5 -21.5t-32.5 -2.5q-25 8 -29 22.5zM1169 1573 q-4 14 5.5 24.5t20.5 12.5t20.5 -9t9.5 -42q0 -6 -7.5 -13.5t-16.5 -8.5t-18 6t-14 30z" />
<glyph unicode="K" horiz-adv-x="1431" d="M103 -132q3 18 47 32q28 8 75 9q28 0 62 -3q6 0 30.5 -7.5t46 -17.5t28.5 -22.5t-19 -22.5q-10 -4 -27.5 1t-28.5 7q-18 2 -42 -1t-42 -7q-30 -5 -53 -5q-28 0 -46 7q-34 12 -31 30zM104 8q2 66 7.5 130.5t9.5 129.5q4 139 4 275.5v275.5q0 123 4 246q2 49 2 98 q0 74 -4 148q0 14 -2 39.5t-3 52.5t0 50.5t7 33.5q8 12 46 20.5t92.5 11.5t115.5 3t113.5 -4.5t89.5 -10.5t43 -16q8 -18 12 -86t4 -147.5t-2 -153.5t-2 -103q31 41 88 114t121.5 146.5t129 133t112.5 75.5q31 10 53 0q6 -4 31.5 -44t55.5 -90t55.5 -95t33.5 -59 q10 -16 14 -35t-4 -35q-2 -4 -31.5 -27.5t-75.5 -58.5t-100.5 -75t-103.5 -77.5t-89 -69.5t-54 -48q37 -35 87 -75t105 -77t110.5 -66.5t102.5 -43.5q12 -4 33.5 -8.5t40 -11.5t30 -18.5t5.5 -31.5q-4 -14 -24.5 -48t-45.5 -73t-49.5 -74.5t-34.5 -52.5q-10 -14 -24.5 -39.5 t-32 -52.5t-35 -48.5t-31.5 -27.5q-11 -4 -24 -4q-22 0 -49 14q-42 22 -90 64.5t-98 98t-93 109.5t-77 100t-48 69q0 -10 1 -43t1 -78v-95t-1 -95.5t-3 -78t-6 -42.5q-10 -31 -37 -43q-4 -2 -39 -4.5t-85 -4.5t-107.5 -4t-106.5 -3t-85 -1t-40 2q-12 4 -17.5 15.5t-5.5 23.5 zM273 1617.5q-7 22.5 16 39.5q27 16 99 20q22 1 44 1q52 0 104 -6q76 -9 137.5 -33.5t67.5 -65.5q4 -18 -10 -35.5t-33 -1.5q-14 12 -20 24.5t-13.5 23.5t-20.5 17.5t-42 6.5t-50.5 -5.5t-49.5 -15.5q-28 -8 -55 -8q-11 0 -22 1q-38 5 -77 5q-10 0 -22.5 -1t-22.5 3 q-23 8 -30 30.5zM671.5 1362q-16.5 16 16.5 37q8 4 10 21.5t7 25.5q14 27 39.5 16.5t21.5 -39.5q-2 -10 -4 -24.5t-6 -27.5t-13.5 -20t-23.5 -1q-31 -4 -47.5 12z" />
<glyph unicode="L" horiz-adv-x="1093" d="M94 100q-1 16 -1 32q0 24 2 48q3 39 7 80q10 158 13.5 313.5t15.5 313.5q10 137 13 277.5t22 275.5q4 31 35.5 41t56.5 14q29 6 81 9q26 2 53 2q28 0 56 -2q56 -3 104 -13t69 -33q18 -20 18 -53q0 -238 -21.5 -472t-21.5 -472q27 0 95.5 4t144.5 5h21q63 0 117 -5 q64 -6 79 -27q8 -12 12 -69.5t4 -124t-2 -128t-4 -81.5q-2 -14 -5 -27.5t-16 -23.5q-4 -2 -69.5 -5.5t-160.5 -4.5t-207.5 -1t-210 2t-167 5.5t-80.5 7.5q-33 14 -42 48t-11 64zM136 -102.5q9 14.5 28 16.5q29 2 56.5 -2t62.5 0q8 1 24.5 1t41.5 -1q50 -2 104.5 -8 t96.5 -17.5t42 -27.5q0 -18 -22.5 -21.5t-34.5 -5.5q-25 -2 -49.5 -5t-49.5 -5q-22 -2 -66 -3h-22q-34 0 -70 2q-48 3 -87 13t-54 33q-10 16 -1 30.5zM357 1584q-1 22 35 35q13 5 32 5q32 0 78 -14q12 -4 30.5 -4t39 -1t38 -2t25.5 -8q12 -8 10 -20t-16 -16q-24 -6 -48 -6 q-8 0 -15.5 0.5t-15.5 0.5q-24 0 -48 -6q-37 -8 -64 -8q-26 0 -44 8q-36 16 -37 36zM647 -129q6 14 29 18q8 2 20.5 2t24.5 -3t22.5 -8t12.5 -15q4 -14 -4.5 -27.5t-24.5 -9.5q-31 -12 -51.5 -5t-27.5 20.5t-1 27.5z" />
<glyph unicode="M" horiz-adv-x="1646" d="M86 83q2 54 8 120.5t13.5 128t9.5 82.5q4 43 8 132t9 198.5t11.5 227.5t14.5 221t18 178t23 99q16 33 45 43q8 2 39.5 3.5t73.5 1.5t90.5 -2.5t90.5 -5.5t71.5 -6t37.5 -5q23 -8 35 -37q10 -27 13 -63.5t8 -65.5q43 -244 118 -483q51 143 81 285.5t54 291.5 q2 14 5.5 28.5t9.5 27.5q6 12 52 19t101.5 11.5t105.5 5.5t68 1q29 0 61 2t58 -15q27 -16 37 -48t14 -60q16 -106 24.5 -224t12.5 -239t8.5 -239.5t12.5 -229.5q8 -101 24 -205q15 -93 16 -183q0 -11 -1 -22q0 -23 -13 -32l-8 -13q-92 -31 -181 -34q-17 -1 -34 -1 q-73 0 -151 11q-16 2 -25.5 18.5t-9.5 32.5q-8 150 -8 300v59q2 180 2 360q-6 -31 -19.5 -96.5t-32 -136t-39 -130t-40.5 -76.5q-12 -10 -27.5 -13t-32.5 -3q-64 0 -132 -5q-26 -2 -51 -2q-41 0 -79 5q-33 4 -53 25q-18 18 -36.5 75.5t-35 125t-30 132t-21.5 97.5 q0 -25 1 -87.5t1 -142.5v-168t-2 -163.5t-7 -129t-11 -63.5q-8 -14 -57.5 -20.5t-110 -6.5t-113.5 5.5t-72 13.5q-10 4 -18 9t-19 7l-8 15q-10 4 -8 58zM96 -83.5q6 15.5 23 20.5q4 0 39 -1.5t73.5 -3.5t71.5 -5t35 -3q18 -10 17.5 -31.5t-23.5 -29.5q-12 -4 -31.5 -1 t-32.5 9q-12 6 -35.5 3t-48 -5t-48 0t-36.5 18q-10 14 -4 29.5zM109 1512.5q2 17.5 8 36t14 33.5t16 24q25 23 60 34t71 14q16 1 32 1q21 0 41 -2q36 -4 67 -13q12 -4 33.5 -2t43 0t38 -10t16.5 -29q0 -25 -34 -33q-27 -6 -59 -5h-18q-43 2 -85 9t-58 13q-35 0 -72.5 -11.5 t-66.5 -27.5q-8 -10 -8.5 -25.5t-2.5 -27.5q-2 -14 -15 -17.5t-19 11.5q-4 10 -2 27.5zM617.5 1570.5q-9.5 22.5 5.5 37.5q10 10 22 10t22.5 -7t16 -19.5t-1.5 -24.5q6 -39 -8.5 -42t-30.5 10t-25.5 35.5zM1186 -79.5q10 11.5 36.5 16t64.5 4.5t74 -3.5t64.5 -7.5t36.5 -6 q16 -4 18.5 -19.5t-14.5 -19.5q-41 -8 -73.5 -13t-63.5 -5t-63.5 5t-71.5 19q-18 18 -8 29.5z" />
<glyph unicode="N" horiz-adv-x="1515" d="M90 51q2 29 6 60.5t9.5 62.5t7.5 43q25 265 25 529v50q-2 290 -3 578q0 14 2 29.5t13 26.5q4 12 35.5 23t78.5 19.5t102.5 12.5t104.5 4t86 -5t47 -16q25 -23 55.5 -83t65.5 -139t70.5 -169t69.5 -175t63.5 -157.5t50.5 -113.5q-1 39 -1 78q0 59 2 119q3 98 6 197 q2 74 2 149v50q-1 100 -9 195q-2 12 -4 37t6 35q6 8 42 9h25q26 0 55 -1q44 -2 84 -4t56 0q18 2 44 7t50.5 5t42 -10t21.5 -39q4 -23 2 -44t0 -44q12 -135 12 -270v-38q-2 -154 -13 -308t-25.5 -307.5t-22.5 -307.5q-2 -20 -5 -57t-14 -53q-8 -10 -37.5 -18.5t-72.5 -13.5 t-91.5 -8t-92.5 -3t-77.5 3t-45.5 7q-23 10 -38.5 26.5t-25.5 38.5q-33 68 -57.5 143t-51.5 146q-47 133 -94 264.5t-94 264.5q10 -174 21.5 -346.5t33.5 -344.5q4 -34 12 -70q3 -13 3 -26q0 -22 -9 -45q-12 -31 -74 -45q-60 -14 -136 -20q-52 -4 -103 -3q-23 1 -45 1 q-72 2 -102 4q-16 0 -36 7t-30 23q-4 8 -2 37zM113.5 -81q9.5 22 36.5 22q68 -2 139 -3q5 0 9 -1q66 0 128 14q16 4 26.5 -2t11.5 -16.5t-5.5 -20.5t-22.5 -14q-33 -8 -71.5 -15.5t-79.5 -10.5q-20 -2 -40.5 -2t-39.5 2q-39 3 -72 15q-29 10 -19.5 32zM145 1540 q6 18 24.5 29.5t41 16.5t45.5 6t39 -1q25 -4 51.5 2t48.5 2q18 -4 26.5 -22.5t-11.5 -28.5q-10 -6 -33 -10t-49.5 -7t-52 -5t-37.5 -4q-16 -2 -34 -8.5t-34 -6.5q-14 0 -21.5 12.5t-3.5 24.5zM883.5 -97.5q-11.5 11.5 5.5 27.5q12 12 47 18.5t77 7.5h17q33 0 66 -3 q41 -4 68.5 -14.5t34 -25t-22.5 -32.5q-10 -6 -40 -10q-24 -3 -53 -3h-15q-38 1 -77 4t-67.5 11t-40 19.5zM1248 -73.5q1 12.5 18 18.5q8 4 20 2t20.5 -7.5t10.5 -14.5t-6 -17q-16 -14 -30.5 -13t-24 10t-8.5 21.5z" />
<glyph unicode="O" horiz-adv-x="1744" d="M73 706v10q-1 133 27 258q28 130 84 239.5t138 179.5q70 59 154.5 95t175.5 54q92 17 186 18h15q86 0 165 -10q66 -8 132.5 -17t127.5 -34q104 -43 194.5 -124t143.5 -179q37 -72 52 -171q11 -71 11 -147q0 -30 -2 -62q-6 -110 -31.5 -224.5t-68.5 -215t-103.5 -179 t-134.5 -119.5q-98 -53 -204.5 -73.5t-216.5 -22.5h-33q-117 0 -243 12q-144 14 -265 76q-104 51 -171 150t-99.5 223.5t-33.5 262.5zM148.5 1427.5q-1.5 24.5 14 60.5t56.5 66q98 76 225 122t250 67q20 2 60 4h19q29 0 55 -4q36 -6 57.5 -24.5t7.5 -57.5 q-6 -18 -19.5 -19.5t-29.5 3.5q-12 4 -37 5t-52.5 -1t-52 -4.5t-38.5 -4.5q-41 -8 -108 -32.5t-135.5 -57t-127.5 -68.5t-86 -65q-25 -27 -41 -20.5t-17.5 31zM548 798q-3 -32 -3 -62q0 -48 7 -93q11 -74 41 -131t79 -80q35 -16 89 -26q53 -11 111 -12h11q52 0 100 8 q53 10 86 32q37 25 62.5 72t41 106.5t19.5 125.5q2 29 2 57q0 37 -3 71q-5 62 -20.5 115t-40.5 86q-20 25 -46.5 40t-55.5 26q-31 10 -62.5 13t-64.5 3q-14 0 -37.5 1t-48 2t-46 1t-32.5 -4q-55 -18 -95 -72.5t-63.5 -126t-30.5 -152.5zM599 -137.5q-1 16.5 17 24.5 q14 6 28.5 2t31.5 -4q35 0 68.5 2t68.5 4q19 1 38 1q53 0 103 -8q40 -6 80 -6q30 0 60 3q37 4 73.5 14.5t73.5 10.5q10 0 16.5 -5t12.5 -10q25 -20 -5 -38.5t-76 -32t-92.5 -22.5t-56.5 -11q-35 -6 -95 -7h-24q-49 0 -101 3q-64 4 -120.5 17.5t-85.5 35.5q-14 10 -15 26.5z M985 1672.5q-2 21.5 31 33.5q29 10 48 -9t3 -48q-4 -31 -25.5 -30t-38 16.5t-18.5 37z" />
<glyph unicode="P" horiz-adv-x="1312" d="M104 1466.5q-2 8.5 0 14.5q6 23 78 37t178 17q23 1 47 1q87 0 187 -9q127 -11 248 -42t219 -84t147 -133q54 -92 62 -203q1 -15 1 -30q0 -94 -40 -177q-37 -78 -96 -143.5t-131 -112.5q-84 -57 -179.5 -92t-193.5 -45q12 -111 14 -223.5t2 -223.5q0 -12 -33.5 -18 t-76.5 -7q-22 0 -42.5 -0.5t-41.5 0.5q-41 1 -54 1q-14 0 -52 -1t-78 -1t-74.5 1t-42.5 5q-12 4 -17.5 16.5t-5.5 24.5q-1 34 -1 68q0 68 3 135.5t3 136.5q0 35 -1 70q-2 252 -8 500.5t-19 500.5q0 8 -2 16.5zM169 1606.5q-17 13.5 13 42.5q16 16 48 27.5t55 15.5q4 0 10 1 q19 1 67 -5q62 -6 131.5 -18.5t127 -27t67.5 -24.5t4 -23.5t-20 -13.5q-51 2 -99.5 14.5t-99.5 12.5h-65q-16 0 -35 -7.5t-35 -11.5q-10 -2 -46 -3h-14q-29 0 -57 3q-35 4 -52 17.5zM590 1171l8 -264q98 6 150 46q55 42 55 89q-1 44 -51 83q-52 40 -162 46zM671 357.5 q1 15.5 31 33.5q25 14 49.5 14.5t51.5 -4.5q10 -2 34.5 7.5t51 21.5t50.5 24.5t36 18.5q16 8 28.5 3t16.5 -16t1 -25.5t-17 -22.5q-53 -33 -115 -54.5t-121 -35.5q-18 -4 -43 -1t-40 12t-14 24.5zM729 1587q8 12 24.5 17.5t33 -0.5t12.5 -31q-4 -27 -22.5 -25t-35.5 13 q-20 14 -12 26zM1049 520q0 31 20.5 36t39.5 -4t26 -28t-23 -35q-16 -10 -39.5 -0.5t-23.5 31.5z" />
<glyph unicode="Q" horiz-adv-x="1755" d="M74 707.5q0 138.5 27.5 267.5t84 239.5t136.5 178.5q55 47 120.5 76.5t135.5 50.5q61 18 114 28.5t104 13.5q26 2 52 2t53 -2q53 -3 117 -12q66 -8 132.5 -17t127.5 -34q172 -72 264 -193.5t123 -271.5q18 -86 18 -177q0 -66 -9 -135q-23 -163 -81 -314q-33 -86 -83 -166 t-126 -136q18 -4 60.5 -13t88.5 -20.5t85 -22.5t49 -19q14 -2 16.5 -12.5t-3 -24.5t-12.5 -26.5t-9 -18.5q-6 -10 -23.5 -36t-41 -58.5t-50 -68.5t-51.5 -66.5t-43 -50t-27 -21.5q-25 -6 -58.5 12t-73.5 49t-81 72t-77.5 80t-65.5 72.5t-43 52.5q-74 -6 -159 -6t-171 8 t-168 27.5t-149 54.5q-102 51 -170 151.5t-100.5 224t-32.5 262zM148.5 1427.5q-1.5 24.5 14 60.5t56.5 66q98 76 225 122t250 67q20 2 60 4q9 1 19 1q29 0 55 -5q36 -6 57.5 -24.5t7.5 -57.5q-6 -18 -19.5 -19.5t-29.5 3.5q-12 4 -37 5t-52.5 -1t-52 -4.5t-38.5 -4.5 q-41 -8 -108 -32.5t-135.5 -57t-127.5 -68.5t-86 -65q-25 -27 -41 -20.5t-17.5 31zM424 -88q-18 33 8 39q12 3 29 3t38 -3q42 -6 85 -17.5t61 -11.5q14 0 64.5 -4t106.5 -8t102.5 -9t52.5 -7q16 -8 12 -22.5t-20 -14.5q-12 0 -34 -7.5t-34 -11.5t-32.5 -6t-44 -3t-45.5 -2 t-36 -1q-22 -1 -50 -1h-29q-46 1 -92 9t-85 25.5t-57 52.5zM548 798q-3 -32 -3 -62q0 -48 7 -93q11 -74 41 -131t79 -80q35 -16 89 -26.5t111 -11.5h11q52 0 100 8q53 10 86 32q37 25 62.5 72t41 106.5t19.5 125.5q2 29 2 57q0 36 -3 71q-5 62 -20.5 115t-40.5 86 q-20 25 -46.5 40t-55.5 26q-31 10 -62.5 13t-64.5 3q-14 0 -37.5 1t-48 2t-46 1t-32.5 -4q-55 -18 -95 -72.5t-63.5 -126t-30.5 -152.5zM985 1672.5q-2 21.5 31 33.5q29 10 48 -9t3 -48q-4 -31 -25.5 -30t-38 16.5t-18.5 37z" />
<glyph unicode="R" horiz-adv-x="1376" d="M104 1465.5q-2 7.5 0 15.5q6 18 34 28.5t63 15.5t68.5 5h49.5q29 1 60 1q77 0 169 -4q130 -5 257 -29.5t235.5 -79t167.5 -150.5q56 -92 62 -202q1 -14 0 -28q0 -95 -39 -180q-37 -78 -95 -141.5t-128 -112.5q53 -80 110.5 -157.5t118.5 -151.5q23 -25 47.5 -50.5 t40.5 -51.5q4 -6 7 -19.5t-7 -17.5q-27 -12 -73 -33t-94 -44.5t-89 -47t-59 -41.5q-16 -16 -23.5 -16.5t-28.5 14.5q-31 23 -76.5 79t-93 120.5t-89.5 128t-64 100.5q8 -100 10 -198.5t2 -199.5q0 -12 -33.5 -18t-76.5 -7q-22 0 -42.5 -0.5t-41.5 0.5q-41 1 -54 1 q-14 0 -51 -1t-79 -1t-75.5 1t-41.5 5q-23 10 -23 41q-1 34 -1 68q0 68 3 135.5t3 136.5q0 35 -1 70q-2 252 -8 500.5t-19 500.5q0 8 -2 15.5zM219.5 1637.5q-4.5 17.5 5.5 29.5t49 20.5t85.5 14.5t88 9t58.5 1q25 -2 85 -12t124.5 -25.5t119 -33t66.5 -33.5t1 -28.5 t-28 -8.5q-78 23 -160 49q-57 18 -115 17q-25 0 -50 -3q-14 -2 -61.5 -6t-100.5 -8t-97 -6t-50 0q-16 6 -20.5 23.5zM268.5 -79.5q10.5 20.5 85.5 26.5q6 0 22.5 2t33 3t32 2t19.5 -1q28 -8 53 -8q10 0 20 1q12 2 24 2q23 0 46 -7q16 -4 24.5 -15.5t8.5 -21.5t-7 -17.5 t-22 -3.5q-30 6 -68 12q-10 2 -20 2q-26 0 -47 -12q-44 -23 -89 -23h-16q-54 4 -82 21t-17.5 37.5zM590 1171l8 -264q98 6 150 46q55 42 55 89q-1 44 -51 83q-52 40 -162 46zM979 1540q-2 25 11.5 32t28.5 3t27.5 -17.5t8.5 -27.5q-4 -18 -16.5 -23.5t-26 -2.5t-23.5 13.5 t-10 22.5z" />
<glyph unicode="S" horiz-adv-x="1429" d="M79 1128q34 108 110.5 189.5t185 134.5t223.5 72q124 22 251 22q42 0 84 -2q171 -10 331 -47q10 -4 31.5 -10t23.5 -21q0 -8 -1 -17t-1 -17q-2 -14 -2 -49v-79t1 -92v-47v-43q-1 -41 -3 -69.5t-4 -32.5q-16 -29 -72.5 -40t-124.5 -13q-23 -1 -45 -1q-45 0 -87 3 q-64 4 -97 4q-20 0 -25.5 17.5t-5.5 40v47t-10 38.5q-16 25 -51 32q-16 3 -33 3q-19 0 -38 -4q-36 -8 -61.5 -32.5t-25.5 -61.5q2 -57 29.5 -91t73.5 -56.5t104.5 -37t121 -31t124 -40t114.5 -62.5q76 -61 115 -149q29 -66 33 -136q1 -19 1 -38q0 -52 -8 -103 q-14 -98 -64 -163.5t-123 -106.5t-158 -61.5t-171 -26.5q-47 -4 -95 -4q-60 0 -122 6q-112 10 -209.5 50t-170 113.5t-101.5 194.5q-6 29 -11 63t3 62q4 16 34.5 28.5t75.5 21t96.5 12.5t96.5 4t75.5 -5t37.5 -14q8 -14 12 -29.5t8 -30.5t12 -28.5t25 -23.5 q16 -10 41.5 -15.5t53.5 -5.5t52.5 7.5t40.5 19.5q28 25 28 54q0 5 -1 11q-6 36 -35 64q-33 31 -89 47t-125 29.5t-142.5 31t-139 49t-118 86t-76.5 142.5q-19 67 -19 129q0 57 16 108zM198 1497q-5 14 3 29q8 14 35.5 32.5t59.5 31t61.5 13t41.5 -19.5q6 -12 7 -28.5 t-9 -26.5q-12 -8 -36.5 -19.5t-52 -20.5t-52.5 -13.5t-39 2.5q-14 6 -19 20zM320 -87.5q6 9.5 19 12.5t28.5 -3t27.5 -22q6 -12 1 -21.5t-17 -13.5t-27.5 2t-27.5 24q-10 12 -4 21.5zM453 -143q-4 12 4 19t18 7t27 -8q23 -10 76 -16q54 -5 114 -7q15 0 29 -1q44 -1 83 3 q52 4 75 17q35 20 73.5 30.5t77.5 19.5t78 20.5t76 31.5q14 8 30.5 -2t6.5 -28q-6 -10 -19.5 -37t-21.5 -35q-37 -37 -73 -54.5t-73 -25.5t-78 -11t-86 -9q-16 -2 -51 -1t-73.5 4t-74.5 8t-50 9t-40 9t-52.5 12.5t-48 18.5t-27.5 26z" />
<glyph unicode="T" horiz-adv-x="1167" d="M22 1304q0 15 -1 30q1 54 5 102q6 62 15 77q10 16 88 25q77 10 191 13q68 2 143 2q50 0 102 -1q131 -2 248 -9t202 -15t107 -19q25 -10 28 -46q1 -12 1 -25q0 -26 -4 -54q-6 -43 -15.5 -83.5t-9.5 -65.5q0 -10 2 -28.5t2 -37t-4 -35t-16 -20.5q-10 -4 -48 -5h-26 q-26 0 -55 1q-43 2 -84 4t-57 2q-12 -172 -12 -342q0 -7 -1 -15q0 -163 11 -327q6 -109 15 -215t13 -215v-13t-2 -12q-6 -14 -23.5 -19t-37 -4t-40 4t-32.5 3q-91 6 -189 11q-33 2 -64 2q-63 0 -122 -7q-23 -4 -31 -2t-18 27q-12 37 -16 124q-2 44 -2 94t2 106q4 112 12 239 t17.5 241.5t18.5 206t13 134.5q-6 4 -51 0t-97.5 -10.5t-97.5 -10.5t-53 0q-12 6 -18.5 62t-8.5 126zM87 1670q-3 26 40 42q22 8 55 8q10 0 20 -1q46 -3 74 -11q47 -12 82 -13h25q26 0 59 1q12 0 22.5 -6.5t13.5 -14.5t-4 -16t-28 -14q-35 -10 -72.5 -11.5t-72.5 -9.5 q-27 -5 -56 -5q-14 0 -28 1q-43 4 -84 14q-43 10 -46 36zM438 -188q-14 14 8 43q20 27 56.5 37t74 10t75.5 -6.5t67 -12.5l8 -8q23 -2 33 -10t10 -17.5t-7 -17.5t-18 -8q-4 0 -33.5 -6t-70.5 -11.5t-84 -8.5q-22 -2 -40.5 -2t-34.5 2q-32 3 -44 16zM507 1642.5 q-3 14.5 7 30.5q6 8 17.5 11.5t20.5 -1t13 -17.5t-8 -36q-6 -14 -17.5 -15t-20.5 6t-12 21.5zM800 -171q-3 11 9 21q27 23 43 26t23.5 -5t7.5 -20.5t-6 -20.5q-14 -16 -32 -19.5t-30 2t-15 16.5z" />
<glyph unicode="U" horiz-adv-x="1368" d="M87 740q1 144 18.5 286.5t27.5 265.5q2 16 1 46t0 61t6 55.5t22 34.5q8 6 27.5 8t43 3t44 1h32.5q25 0 63 -1t76.5 -7t71.5 -17.5t45 -33.5q-4 -43 -12 -118t-15.5 -165t-11.5 -185q-2 -54 -2 -106q0 -39 1 -75q3 -86 15.5 -153t39.5 -97q27 -29 65.5 -40t75.5 -11 q53 0 96 36.5t62 83.5q23 57 23 167q0 5 1 11q0 106 -10 220q-10 120 -26.5 233t-28.5 176q-4 17 8 25q2 18 53 29.5t117 16.5q47 4 91 4q17 0 35 -1q62 -2 81 -10q4 -2 12 -9.5t8 -13.5l-4 -45q0 -10 -1 -21q0 -32 5 -66q6 -46 10 -87l31 -457q2 -27 2 -56q0 -70 -11 -144 q-15 -104 -53 -202.5t-98.5 -183.5t-142.5 -141q-98 -66 -217 -80q-34 -4 -67 -4q-83 0 -162 25q-94 29 -173 88t-139 137q-81 105 -109 239q-27 130 -27 267v11zM213 45q-2 18 12.5 29.5t30.5 1.5q23 -10 42 -30.5t42 -35.5q47 -29 107.5 -57.5t113.5 -44.5q39 -12 84 -14 t86 -3q14 0 18.5 -5t-1 -11t-14.5 -13t-17 -9q-42 -13 -105 -13h-29q-83 4 -163 27.5t-140.5 68t-66.5 109.5zM789 -118.5q2 14.5 14 25.5t29.5 13t29.5 -18q8 -16 5 -27.5t-14 -16.5t-24.5 -4t-23.5 11q-18 2 -16 16.5zM935 1554q-13 20 5 38q11 11 42 12q19 0 46 -5 q12 -2 31.5 -2t40 1t38 1t25.5 -4q27 -12 14.5 -22t-39 -17.5t-55 -13.5t-30.5 -8q-25 -15 -48 -15q-12 -1 -23 3q-34 12 -47 32z" />
<glyph unicode="V" horiz-adv-x="1341" d="M29 1419q2 10 7 21.5t19 9.5q25 14 79 30.5t114 27.5q58 12 114 15q13 1 25 1q37 0 57 -8t46 -65.5t51.5 -140.5t50 -180.5t45 -187.5t36 -161.5t21.5 -102.5q31 137 62.5 272t70.5 271q16 66 39 127t39 127v6q4 12 34 18t71 6t89 -3t92 -10t76.5 -14.5t43.5 -15.5 q14 -10 14 -31.5t-7 -47t-16.5 -49t-13.5 -36.5q-74 -233 -146.5 -463.5t-150.5 -461.5q-29 -82 -49 -166t-57 -162q-10 -18 -21.5 -34.5t-29.5 -26.5q-12 -6 -52.5 -9.5t-87.5 -4.5t-90 -1h-63q-29 0 -59.5 4t-55.5 23q-12 10 -31.5 61.5t-42 122t-45 150.5t-41 148.5 t-30 113.5t-11.5 47q-8 31 -26.5 95.5t-41 144t-46 167t-42 163t-30.5 133.5q-10 49 -10 71v6zM67.5 1589q6.5 23 30.5 27q27 4 53.5 4t53.5 4q31 4 63.5 5t63.5 1t32 -21.5t-28 -25.5q-25 -4 -48 -6t-46 -8q-18 -6 -38 -13.5t-40.5 -12.5t-41 -4t-38.5 13q-23 14 -16.5 37z M514 -116.5q-10 14.5 14 30.5q18 12 45 14t55.5 1t57.5 -3t49 0t39 6.5t39 6.5q53 2 67.5 3t17.5 5t7 15t35 36q12 10 23.5 2t7.5 -23q-2 -8 -12.5 -23t-22.5 -30.5t-25.5 -29t-19.5 -17.5q-31 -18 -55.5 -18t-51 4t-56.5 3.5t-71 -18.5q-18 -8 -50 -5t-57.5 14.5t-35.5 26z M975 92q2 8 11 11t17.5 -1t11.5 -16t-5 -35q-8 -18 -26.5 -13t-8.5 54z" />
<glyph unicode="W" horiz-adv-x="1755" d="M79 1236q3 106 19 202q4 23 36 36t79 19t100.5 6t99.5 -6t77.5 -16.5t33.5 -22.5q2 -16 0 -29.5t-2 -29.5q-1 -23 -1 -58v-39q1 -62 4 -138.5t8.5 -158t13.5 -154.5t18 -130.5t23 -83.5l14 -12q12 6 24.5 43.5t26 93t26.5 121t26.5 126t29 107.5t33.5 68q12 16 29.5 20 t36.5 8q29 4 58.5 8.5t57.5 -6.5q27 -10 47.5 -49t36 -94t28.5 -120.5t25.5 -126t25.5 -111t30 -76.5l18 -8q18 18 30.5 86.5t20 162t11.5 198t6 192.5t3 146t3 60q8 14 53 22q44 7 98 9q27 1 52.5 1t50.5 -1q49 -2 67 -4q12 -2 29 -4t31 -8t25.5 -16.5t13.5 -26.5 q14 -88 18 -184q3 -64 3 -124q0 -31 -1 -61q-2 -59 -9 -148t-22.5 -190.5t-37 -207t-49 -203t-61.5 -176t-75 -123.5q-23 -25 -50.5 -38.5t-58 -19.5t-62 -7t-62.5 -1q-33 0 -68 2t-63 19q-23 14 -44.5 46.5t-39 78t-33.5 96.5t-27.5 100t-20.5 91t-13 69 q-8 -39 -23.5 -110.5t-38 -146.5t-50.5 -137.5t-58 -84.5q-18 -14 -42 -20.5t-48.5 -8.5t-50 -1t-46.5 3q-53 2 -109.5 16.5t-88.5 61.5q-55 78 -99.5 209t-75 275.5t-48 282.5t-21.5 232q-2 56 -2 114q0 45 1 90zM358 -109q-10 16 0.5 26.5t26.5 10.5q23 0 48.5 -10 t47.5 -14q6 0 32 1t57.5 2t63.5 0t50 -6t15 -16.5t-40 -29.5q-18 -9 -63 -13q-21 -2 -43 -2q-25 0 -50 2q-48 4 -90 16.5t-55 32.5zM734.5 -93.5q-1.5 11.5 6 19.5t18.5 9t19 -15q6 -12 -3.5 -23.5t-22.5 -7.5q-16 6 -17.5 17.5zM1234 1559.5q-5 17.5 7 29.5q8 8 26.5 16.5 t28.5 12.5q8 4 24.5 7t36 6t37 4t27.5 1q8 0 26.5 -1t38 -3t36 -5t22.5 -9q10 -10 8 -23.5t-16 -17.5q-23 -8 -45 -6t-45 -2q-47 -6 -94 -16.5t-95 -10.5q-18 0 -23 17.5z" />
<glyph unicode="X" horiz-adv-x="1370" d="M53 1280q2 18 32 46t72 58.5t92 58t97 48t83 28t50 -5.5q10 -8 13.5 -19t7.5 -21q37 -94 85 -185.5t97 -179.5q49 90 102.5 187.5t83.5 195.5q8 25 36 28q6 1 12 1q24 0 54 -10q38 -12 82 -33t84 -44.5t70.5 -45t42.5 -31.5q16 -14 33.5 -30.5t24.5 -39.5 q4 -14 -16.5 -59t-54.5 -106.5t-76 -130t-82 -130t-72.5 -111t-44.5 -67.5q25 -33 77 -93.5t107 -125t101 -121.5t59 -82q12 -27 -3.5 -53.5t-42 -50t-56 -44t-46.5 -32.5q-18 -14 -39.5 -34.5t-46 -40t-49.5 -33t-49 -11.5q-23 2 -65 47t-87 103.5t-84 113.5t-55 78 q-16 -23 -55 -78t-83 -113.5t-86 -104.5t-63 -48q-20 -2 -43.5 9.5t-47 28.5t-45 36.5t-36.5 32.5q-16 14 -42.5 32.5t-52.5 39t-46.5 43t-24.5 42.5q-2 14 18.5 49t54.5 80t76 95.5t82 95.5t70.5 82t44.5 55q-12 20 -44.5 67.5t-71.5 110t-82 130t-77 128t-55.5 105.5 t-19.5 59zM82 1468.5q0 16.5 17.5 35t45 34.5t50.5 21q29 4 52 11t50 13q18 4 31.5 -1t18.5 -13t2 -17.5t-15 -11.5q-23 -6 -43.5 -7t-42.5 -17q-8 -6 -13.5 -13.5t-15.5 -11.5q-8 -4 -22.5 -11t-29.5 -14.5t-28.5 -11.5t-21.5 -4q-35 2 -35 18.5zM995 -104q6 18 34 39.5 t61.5 42t66.5 35t49 16.5t28.5 -11.5t-5.5 -25.5q-47 -31 -92.5 -63.5t-98.5 -59.5q-16 -8 -33.5 -2t-9.5 29zM1253 49.5q0 16.5 11.5 27.5t35.5 3q23 -8 19.5 -29t-21.5 -31q-23 -10 -34 1.5t-11 28z" />
<glyph unicode="Y" horiz-adv-x="1320" d="M14 1434q-4 18 6.5 29.5t26.5 17.5t35.5 9l32.5 5q88 16 191.5 43t189.5 33q14 2 27.5 0t17.5 -19q6 -16 12 -55t13 -83t14.5 -89t15.5 -74q16 -66 39.5 -129.5t58.5 -122.5q6 18 19.5 62.5t31 101t36 117.5t37 113.5t33.5 90.5t26 48q8 6 39 9q22 2 53 2h21 q44 -1 94.5 -3t94.5 -7t76.5 -10t40.5 -12q25 -16 23 -40.5t-14 -47.5q-127 -233 -206 -469.5t-122 -498.5q-16 -104 -27.5 -206t-25.5 -206q-2 -12 -4 -26.5t-19 -18.5q-12 -2 -46 -3t-79 -2q-22 -1 -46 -1t-49 1q-50 1 -97 1t-85 1t-59 1h-61.5t-56.5 14q-17 21 -17 63 q0 7 1 15q3 53 19.5 120.5t43 142.5t54.5 144.5t51.5 126t33.5 87.5q-57 0 -105.5 20.5t-87.5 54t-70.5 77.5t-56.5 91q-55 104 -103 234.5t-71 247.5zM154 1614.5q-2 13.5 8 23.5q6 6 49 17.5t93 23t96 18.5t59 7q16 0 44.5 -7t39.5 -22q12 -16 -0.5 -29.5t-28.5 -3.5 l-20 5q-18 -14 -63.5 -26.5t-97.5 -21t-99 -10.5h-17q-33 0 -47 6t-16 19.5zM356.5 -123.5q5.5 12.5 24 21t39 11.5t31.5 3q18 0 55 -1t77 -3t73.5 -7t43.5 -14q8 -6 26.5 -5t29.5 -5q10 -6 9 -18.5t-13 -16.5q-8 -4 -27 1t-29 -1t-59 -7q-25 -1 -51.5 -1t-55.5 1 q-57 1 -105 5t-56 10q-18 14 -12.5 26.5zM809 -146.5q-6 17.5 2 35t37 23.5q18 2 30.5 -6t16.5 -22.5t0 -29t-18 -22.5q-25 -12 -43.5 -4t-24.5 25.5z" />
<glyph unicode="Z" horiz-adv-x="1163" d="M57 150q2 60 10.5 116t14.5 78q20 63 82.5 151.5t137.5 188.5t146.5 205.5t108.5 206.5q-69 3 -142 3h-37q-93 -1 -177 -18q-10 -2 -25.5 -4t-25.5 6q-14 9 -18 69q-2 32 -1 68q0 30 1 63q3 71 13.5 131.5t24.5 72.5q8 8 44 10q18 1 39 1t46 -1q49 -2 106.5 -7t110.5 -10 t95 -9.5t61 -4.5h34q56 0 112 4q74 6 145 17q10 2 25.5 4t31.5 4t30.5 0t22.5 -10q4 -4 6 -42t2 -86t1 -91t1 -58q0 -14 -9 -35.5t-23.5 -44t-27.5 -43t-22 -32.5q-98 -166 -186 -338t-174 -346q14 2 70.5 9t119 13t116.5 11.5t67 5.5q25 -2 41 -34t26.5 -78t13.5 -102 q2 -28 1.5 -53.5t-1.5 -49.5q-3 -48 -11.5 -83t-22.5 -41t-35.5 -7t-45.5 1t-47.5 5t-37.5 5q-169 17 -351 21q-24 0 -48 1q-156 0 -303 -20q-20 -4 -54.5 -8t-50.5 8q-20 13 -26 65q-5 40 -5 84v28zM67 -155.5q-1 12.5 8 23.5t24.5 20.5t25.5 13.5q33 12 71 14q15 1 30 1 q23 0 47 -2q40 -3 78 -7t73 -4q20 0 53 2t67 4t63.5 2t45.5 -2q6 -2 30 -12.5t44.5 -22.5t26.5 -24.5t-25 -16.5q-12 -2 -22.5 -4t-20.5 -6q-12 -6 -48 -2t-82 9q-38 4 -82 4h-18q-54 -1 -100 -15q-10 -4 -51 -5t-87 -1t-85 2t-47 6q-18 10 -19 22.5zM337 1632.5 q15 14.5 83 19.5q22 2 53 3q61 0 154 -8q94 -7 188 -7h23h22t27.5 -2t23 -8t7.5 -20t-15 -23q-63 -8 -117 -16q-47 -6 -88 -12.5t-55 -10.5q-33 -6 -69 -6q-22 0 -44 2q-60 6 -107.5 20.5t-74 34t-11.5 34zM803 -147q6 14 15 18.5t20.5 2t19.5 -12t10 -23.5q4 -23 -8 -30 t-27.5 -2.5t-25.5 17.5t-4 30zM967 1589.5q-4 14.5 6 24.5t29.5 15t33.5 -1q16 -6 21 -19.5t-1.5 -25.5t-20 -19.5t-29.5 -0.5q-35 12 -39 26.5z" />
<glyph unicode="[" horiz-adv-x="903" d="M121 787.5v298t1 258t1 182t2 71.5q4 12 19.5 15.5t25.5 3.5q129 10 257 3t257 -3q20 0 54 2t50 -2q31 -6 33 -35q2 -18 3 -67.5t3 -104.5t2 -103.5t-2 -62.5q-2 -16 -37.5 -23.5t-80.5 -10.5t-88 -2t-60 1q4 -481 0 -960q57 0 124 1t122 -13q12 4 16 -5.5t4 -22.5 t-2 -26.5t-2 -17.5q-4 -72 1 -144.5t-3 -144.5q-2 -16 -7 -23.5t-23 -11.5q-4 -2 -54.5 -2t-122 1t-153.5 1t-152.5 1t-118.5 2l-49 1q-16 6 -17 20.5t-1 29.5v109.5v207.5t-1 273.5t-1 303z" />
<glyph unicode="\" horiz-adv-x="1048" d="M35 1393q2 14 20.5 26.5t41 21.5t45 16t34.5 11t42 17.5t60.5 28t56 25.5t30.5 11q18 0 29.5 -24.5t15.5 -38.5q63 -160 134.5 -315.5t143.5 -313.5q84 -186 152.5 -377.5t156.5 -376.5q8 -16 17.5 -35.5t-6.5 -35.5q-12 -10 -43 -26.5t-67 -33t-70 -32t-50 -21.5 q-23 -8 -39 -15t-31.5 -8t-27.5 8t-25 34q-98 195 -181 399.5t-163 406.5q-51 129 -99 270.5t-122 258.5q-6 8 -16.5 24.5t-19.5 34t-15 33.5t-4 27z" />
<glyph unicode="]" horiz-adv-x="903" d="M76 175v38q2 16 38 23.5t81 10.5t88 2t59 -1q-2 242 -1 480.5t1 479.5h-53t-72 1t-71 4.5t-48 7.5q-12 -4 -16 5t-4 21.5t2 25.5t2 17v271q0 23 3 36t30 19q4 2 54 2t121.5 -1t154.5 -1t154 -1t117 -2t48 -1q16 -6 17 -21.5t1 -27.5q0 -350 -1 -695.5t-1 -695.5 q0 -16 1 -63.5t1 -99.5t-1 -96t-3 -54q-4 -12 -20.5 -15.5t-26.5 -3.5q-14 -2 -65.5 -2h-121h-147.5t-145.5 2t-112.5 4t-49 6q-2 2 -4 28t-4 62.5t-3 82t-2 84t-1 68.5z" />
<glyph unicode="^" horiz-adv-x="870" d="M53.5 931.5q3.5 14.5 7.5 29.5q8 20 28 65t45.5 101.5t54 118t56 113.5t50 89t37.5 47q10 6 39.5 8t64.5 2t67 -2t48 -2t24.5 -4t16.5 -20q29 -55 55.5 -129t53 -150t55 -145.5t63.5 -116.5q2 -16 -34.5 -25.5t-84 -14.5t-92.5 -7t-59 0q-20 4 -27 20q-8 23 -10 50.5 t-6 50.5q-12 59 -30 115.5t-38 111.5q-35 -82 -66.5 -164t-56.5 -168q-4 -12 -7 -17t-17 -5q-2 0 -37 4t-76 8q-49 6 -110 14q-18 8 -14.5 22.5z" />
<glyph unicode="_" horiz-adv-x="1257" d="M41 88q0 14 4.5 31.5t22.5 17.5q6 8 46 16.5t89 14.5t94 9t61 5q14 2 79 0t154 -5t189.5 -7t185.5 -8t143 -8t62 -7q25 -12 35.5 -42.5t10.5 -66.5t-4.5 -72t-6.5 -58q-2 -18 1 -43t4 -50.5t-2 -49t-19 -35.5q-8 -6 -26.5 -9.5t-40 -3.5h-42h-30.5q-240 8 -479.5 8.5 t-479.5 -16.5q-25 -2 -35 14.5t-13 39t-1 47t2 38.5q0 59 -2 120t-2 120z" />
<glyph unicode="`" horiz-adv-x="530" d="M47 1430q-6 14 17.5 39.5t56.5 50t65.5 45t44.5 28.5q8 4 15.5 8.5t17.5 6.5q14 2 36 -18.5t45.5 -54.5t48 -75t44 -79t31.5 -68.5t12 -42.5q0 -10 -22.5 -25.5t-51 -31t-55.5 -29t-37 -19.5q-14 -8 -37.5 -18t-35.5 8q-10 12 -41 55t-65 90.5t-60.5 86t-28.5 43.5z" />
<glyph unicode="a" d="M29 59.5q2 22.5 8 47t15 48t14 35.5q72 231 144.5 461t149.5 459q27 80 47.5 166t57.5 162q10 18 22.5 35.5t30.5 27.5q12 6 42 9t63.5 5.5t65.5 2.5h48h46t57.5 -3.5t55.5 -10.5t38 -19q10 -12 27.5 -56.5t36 -105.5t38 -132t37 -137.5t30.5 -118.5t21 -77 q8 -31 26.5 -95.5t42.5 -145t47.5 -169t43.5 -166.5q19 -76 31 -134q10 -49 10 -72v-6q0 -10 -6.5 -22.5t-20.5 -10.5q-27 -16 -72.5 -30.5t-97 -25t-99.5 -15.5q-22 -2 -40 -2q-22 0 -39 3q-20 4 -33.5 24.5t-22.5 47.5t-15.5 53.5t-10.5 42.5q-25 6 -76 7h-53h-55 q-57 -1 -111.5 -4t-85.5 -3q-10 -31 -19 -66.5t-22 -64.5q-6 -12 -34.5 -17t-71.5 -5t-91 3t-92 10t-77 15t-41 17q-12 10 -10 32.5zM139 -92q10 16 34 22.5t40 8.5q12 2 40 2t56.5 -3.5t50 -11.5t21.5 -24q0 -10 -7.5 -18.5t-17.5 -12.5q-8 -4 -49 -6q-16 -1 -33 -1 q-25 0 -50 2q-42 3 -70.5 12t-14.5 30zM195 1042q0 8 6 28t15 41.5t17.5 42t12.5 28.5q18 41 35.5 93t33 104.5t29.5 97.5t31 69q16 27 54 54.5t77 41.5q28 10 50 11q10 0 18 -2q28 -6 26 -49q0 -16 -10.5 -31.5t-30.5 0.5q-18 4 -37.5 7t-34.5 -15q-23 -31 -43 -66t-36 -70 q-8 -14 -20.5 -49t-28 -80t-33 -94t-35 -91t-34.5 -70.5t-30 -32.5q-16 -4 -24 8t-8 24zM580 473q55 4 110 3.5t111 -3.5q-31 135 -49.5 272.5t-42.5 272.5q-33 -137 -64.5 -272.5t-64.5 -272.5zM666 1589q-12 25 1 37t32.5 12t34 -12t5.5 -39l-14 -45q-6 -16 -25.5 -15 t-27.5 15q-6 10 -3 23.5t-3 23.5zM975 -128.5q-2 17.5 14 28.5q18 8 51 15t70 9q18 1 36 1t36 -1q35 -2 53 -8q23 -8 17 -25.5t-29 -13.5q-12 -6 -45 -11t-69 -10.5t-68.5 -7.5t-45.5 2q-18 4 -20 21.5z" />
<glyph unicode="b" horiz-adv-x="1300" d="M98 1315v31.5t1 41t3 40t7 28.5q10 27 37.5 42t61.5 22.5t67.5 9.5t58.5 2q53 1 112 1h60q92 -1 184 -13.5t177 -39t153 -75.5q45 -35 81 -80t58.5 -97t30.5 -110q4 -29 4 -57.5t-4 -56.5q-8 -49 -23.5 -87t-39 -68t-56.5 -55.5t-74 -50.5q106 -41 165 -105 q59 -66 75 -140q7 -33 7 -65q0 -43 -12 -87q-20 -78 -70 -146.5t-125.5 -121.5t-168.5 -80q-86 -23 -176 -27t-178 -8q-25 0 -74 -2t-103 -2t-100.5 4t-64.5 17q-23 14 -32 47.5t-12 73.5q-2 30 -2 59v20q1 39 1 62q-5 270 -19 536q-11 208 -11 420q0 58 1 117zM146 1585 q6 14 35.5 32.5t70.5 29.5q4 0 23.5 1t42 2t41 1t22.5 -2q20 -10 18 -27.5t-24 -22.5q-31 -4 -60.5 -9t-60.5 -13q-50 -12 -76 -12q-8 0 -14 1q-24 5 -18 19zM388.5 -141.5q-7.5 14.5 6.5 26.5q6 4 55.5 10.5t111 11.5t117.5 10t75 7q37 4 73.5 5t71.5 12q14 4 33.5 8 t25.5 -17q4 -16 -14 -29.5t-52 -22.5t-74 -15t-78 -11.5t-67.5 -8.5t-37.5 -7q-35 -14 -61.5 -17t-51 0t-51.5 10t-59 11q-16 2 -23.5 16.5zM541 1190l14 -313q99 12 147 61q43 45 44 95v9q-4 56 -56.5 100t-148.5 48zM561 598l2 -192q18 4 52 11t68 18t63.5 24.5t39.5 29.5 q16 23 9 45.5t-29 38.5q-41 26 -96 26h-4q-58 -1 -105 -1zM981 -52q-2 11 10 25t28.5 4.5t10.5 -26.5q-6 -18 -17.5 -21.5t-20.5 2t-11 16.5z" />
<glyph unicode="c" horiz-adv-x="1310" d="M70 644q-4 47 -4 93q0 91 14 181q20 136 75.5 259t146.5 212.5t220 134.5q88 31 195 31q50 0 104 -7q111 -12 203 -62t147 -153q8 -14 27 -51t36 -77t24.5 -74.5t-9.5 -45.5q-20 -12 -69.5 -29.5t-105.5 -37t-109.5 -37.5t-83.5 -31q-16 -8 -29 -6q-10 2 -19.5 17.5 t-16.5 33l-14 35t-16 27.5q-18 23 -46.5 33t-57.5 2q-35 -10 -62.5 -41t-46 -72t-31 -84t-16.5 -74q-5 -33 -5 -83v-18q1 -62 12.5 -122.5t36 -111t67.5 -68.5q35 -16 65 -15q17 1 33 5q43 14 78 43.5t62.5 60.5t50.5 41q4 2 10 2q18 1 52 -13q46 -18 99.5 -44.5t99.5 -54 t62 -40.5q20 -16 13 -40.5t-13 -43.5q-47 -129 -135 -208.5t-221 -114.5q-100 -28 -206 -28q-24 0 -48 1q-131 8 -248 64q-94 45 -161.5 137t-108.5 214t-51 260zM139 1393q0 29 16.5 69.5t37.5 63.5q41 41 86 57q49 18 75.5 37.5t55 36t68.5 28t116 11.5q6 0 27.5 -2 t42 -7.5t31 -15.5t-4.5 -26q-6 -6 -52 -17.5t-105.5 -27t-118 -37t-86.5 -47.5q-35 -33 -68.5 -70t-66.5 -72q-14 -16 -34 -10t-20 29zM714.5 -141.5q-14.5 12.5 14.5 37.5q16 14 53 24t78 15.5t80 7.5t61 2q8 0 24.5 6t35 13t36 14.5t27.5 11.5q37 12 35 -7.5t-38 -50 t-102.5 -59.5t-160.5 -35h-38t-61.5 4t-44 16.5zM757 1666q5 22 28.5 35t52 9t34.5 -43q2 -18 -8 -34.5t-25.5 -23.5t-29.5 -2.5t-18 27.5q-39 10 -34 32z" />
<glyph unicode="d" horiz-adv-x="1265" d="M104 97.5q2 23.5 2 39.5v97.5v168v212t2.5 232.5t4.5 227.5t6 196.5t9 142t11 62q14 14 43 23t63 14.5t65.5 7.5t51.5 2h28q199 0 346 -54q157 -58 259.5 -154.5t154.5 -222.5q52 -125 60 -261q2 -28 3 -57q0 -107 -26 -213q-32 -134 -96.5 -246.5t-158.5 -193.5 t-211 -108q-47 -12 -124 -18t-159 -8q-41 -1 -80.5 -1t-77.5 1q-76 2 -126 8q-25 2 -35 19.5t-13.5 39t-1.5 45zM179.5 1589q-7.5 10 2.5 23q14 18 53 27t91 13q22 1 47 1q31 0 65 -2q60 -4 112 -12.5t93 -21t57 -24.5q29 -25 5.5 -38t-60.5 -1q-18 6 -53 14.5t-72 14.5 t-70.5 8t-52.5 -2q-41 -10 -99 -19q-23 -4 -43 -4q-31 0 -56 9q-12 4 -19.5 14zM448.5 -74.5q10.5 15.5 53.5 16.5q18 0 64 4.5t96.5 10.5t94.5 13t60 14q12 4 37 13t37 3q20 -10 16 -21.5t-23.5 -21.5t-48 -19.5t-57 -16.5t-49 -12t-24.5 -5q-86 -22 -144 -22h-13 q-61 3 -85.5 15.5t-14 28zM514 776q-1 -53 -1 -106q0 -106 3 -213q11 -1 22 -1q28 0 55 4q38 5 73 25t63.5 74.5t41.5 122.5q11 55 11 113q0 13 -1 27q-3 72 -30.5 134t-85 101t-149.5 39q0 -160 -2 -320zM762 1528q-2 14 8 23.5t22.5 9.5t23.5 -11.5t9 -36.5q0 -16 -9 -21 t-20.5 -2t-21.5 13t-12 25zM922 27.5q2 15.5 16 27.5q8 8 21.5 7t21.5 -9t6 -22.5t-22 -34.5q-12 -12 -23.5 -9t-16.5 14t-3 26.5z" />
<glyph unicode="e" horiz-adv-x="1148" d="M104 107.5v29.5q0 59 3.5 119.5t3.5 120.5q1 59 1 119q0 164 -4 328q-2 66 -2 132q0 157 9 314q0 8 3 38.5t6 63.5t6 60.5t7 31.5q8 10 49 16q42 5 98 7q28 1 58 1t64 -1q66 -2 127 -4t108 -4t68 -2q35 0 81 3t93 5q31 1 61 2q15 0 30 -1q44 -1 75 -9q16 -4 23 -16.5 t10 -29t2 -34t-1 -29.5q-2 -61 -2 -124.5t-6 -123.5q-4 -33 -29.5 -47t-59.5 -18q-27 -3 -55 -3h-15q-36 1 -58 1l-128 -4h-18q-55 0 -108 10q-8 2 -15 4t-18 0q2 -41 4.5 -80t2.5 -80h72.5h117.5t111.5 -2t56.5 -8q10 -10 8 -31.5t-4 -34.5q-2 -23 0 -63.5t2 -83.5t-7 -79 t-26 -48q-6 -4 -21.5 -7t-32.5 -4t-33.5 -1h-24.5q-53 -2 -106.5 -2t-106.5 4q2 -49 3 -98.5t1 -98.5q68 -5 135 -5q33 0 67 1q100 4 201 4q10 0 20.5 -1t18.5 -7q2 -2 5 -26.5t6 -61.5t6.5 -80t5.5 -81t3 -63.5t-1 -29.5q-6 -14 -20.5 -18.5t-28.5 -6.5q-20 -2 -89 -4 t-162 -3h-47q-72 0 -152 2q-106 3 -197 8.5t-155.5 14.5t-78.5 23q-8 8 -12 24.5t-6.5 35t-2.5 36zM407 -109.5q1 13.5 13 21.5q25 13 64 13h6q42 -1 89.5 -7t92.5 -10q13 -1 25 -1q29 0 51 7q8 2 29.5 4t46 4t45 2t28.5 -2q35 -10 39 -33.5t-33 -38.5q-12 -6 -33.5 -6 t-44 2t-43 6.5t-34.5 8.5q-4 0 -20.5 -2t-37 -6.5t-39 -7.5t-24.5 -5q-16 -4 -46 -5t-63 3t-61.5 11.5t-40.5 17.5q-10 10 -9 23.5zM978 -124q-3 13 4 24.5t26 11.5q14 0 21 -8t8 -18.5t-5 -21t-18 -14.5q-14 -6 -23.5 3.5t-12.5 22.5z" />
<glyph unicode="f" horiz-adv-x="1126" d="M104 103.5v27.5q0 63 3.5 124.5t3.5 125.5q0 229 -3 455q-1 47 -1 95q0 179 10 359q0 14 3 37t6 45.5t3 44t-4 31.5q2 18 24.5 24.5t38.5 8.5q10 2 77 2t160 1h96.5h102.5q107 -1 198 -2t154.5 -2t72.5 -3q23 -6 29 -53q6 -42 6 -93v-15q-1 -61 -5 -116t-4 -76 q0 -14 -4 -27.5t-16 -23.5q-8 -6 -35 -10t-57.5 -6t-60.5 -3t-42 -1q-63 -4 -130 -5h-10q-61 0 -118 11q-8 2 -15 4t-16 0v-254h73.5h115t107.5 -1t55 -3q10 -6 13 -30.5t3 -54.5t-1 -57.5t-1 -39.5v-32t-1 -44.5t-3 -42t-6 -27.5q-10 -16 -57.5 -23.5t-105.5 -8.5h-33 q-40 0 -78 1q-54 3 -74 3q0 -25 3 -92.5t3 -142.5t-3 -136.5t-14 -73.5q-16 -18 -69 -24q-46 -4 -98 -4h-20q-63 1 -120 6.5t-82 9.5q-14 4 -28.5 6t-24.5 12q-10 6 -14.5 22.5t-5.5 35t-1 36zM196.5 1565.5q-8.5 21.5 37.5 38.5q27 9 79 9q37 0 88 -5q23 -4 42.5 -8.5 t41.5 -6.5q37 -4 83 -4t81 -16q16 -8 13 -20.5t-19 -14.5q-33 -4 -65 -4q-28 0 -56 3q-22 3 -44 3q-38 0 -77 -8q-46 -9 -83 -9q-32 0 -58 7q-55 14 -63.5 35.5zM287.5 -110.5q-15.5 14.5 6 29.5t101.5 15q8 0 25.5 -2t35 -5t33 -7t23.5 -10q16 -10 8 -24.5t-24 -10.5 q-12 4 -30 8t-30 0q-37 -14 -71 -14q-10 0 -19 1q-43 5 -58.5 19.5zM686.5 1536q-2.5 12 6.5 24.5t24.5 17.5t30.5 -13q14 -18 14 -27.5t-8.5 -12.5t-20.5 -2t-24 5q-20 -4 -22.5 8z" />
<glyph unicode="g" horiz-adv-x="1343" d="M67 728v10q0 130 27 253q27 127 82 234.5t137 177.5t190.5 110.5t222.5 44.5h19q104 0 201 -36q105 -39 178 -129q43 -53 72 -111.5t51 -124.5q4 -14 9.5 -28.5t0.5 -30.5q-2 -10 -18 -15q-12 -4 -46 -16t-77 -28.5t-90 -33t-87 -29.5t-68.5 -21.5t-32.5 -4.5 q-14 8 -25.5 39t-29 59.5t-45.5 45.5q-12 7 -28 7q-20 0 -46 -11q-33 -14 -54.5 -44t-38.5 -61q-25 -49 -39 -125q-13 -71 -13 -144v-10q1 -79 20.5 -151t60.5 -115q43 -43 90 -45h7q43 0 80 23q40 26 70 70.5t38 91.5q-12 -4 -40 -12.5t-58.5 -15.5t-56 -12t-36.5 1 q-12 8 -20 46t-10 82q-1 22 -1 42.5t1 40.5q2 39 10 49q4 6 46 14t103.5 15.5t132.5 11.5q56 3 108 3h26q63 -1 110 -9.5t60 -24.5q6 -8 8 -16.5t4 -18.5q9 -59 9 -117q0 -94 -23 -186q-37 -149 -123 -265t-217 -182q-112 -57 -249 -57q-25 0 -51 2q-78 6 -151.5 27.5 t-136.5 69.5q-88 63 -146.5 168.5t-87 230.5t-29.5 261zM154 94q-4 23 15 32t36 -7q20 -23 48 -54.5t58.5 -62.5t63.5 -55.5t63 -32.5q35 -8 69 -10t68 -10q4 -2 18.5 -3.5t31.5 -5.5q18 -4 39 -6q18 -10 14 -29.5t-25 -23.5q-16 -4 -33.5 -5t-33.5 -5q-14 -2 -30 -2 q-26 0 -58 6q-52 10 -103 30.5t-96 47t-72 55.5q-25 27 -47 66.5t-26 74.5zM687 1645.5q3 17.5 20 27.5q51 31 119 34h18q58 0 116 -15q66 -19 124.5 -53.5t93.5 -77.5q16 -18 16 -33.5t-10 -38.5q-14 -29 -28.5 -26t-29 20.5t-32 42t-37.5 39.5q-47 33 -98.5 42t-99.5 9 t-89 -3q-9 -1 -18 -1q-28 0 -45 8q-23 8 -20 25.5zM736 -136.5q-7 13.5 4.5 29t50.5 21.5q16 2 27 -7t15.5 -21.5t-1 -25t-21.5 -18.5q-25 -8 -46.5 0t-28.5 21.5z" />
<glyph unicode="h" horiz-adv-x="1591" d="M96 95q-1 20 -1 39.5t1 39.5q2 39 2 51q0 162 7.5 324t13.5 323q4 141 10 282.5t6 283.5q0 27 19.5 41t46 21t55.5 8t47 3q29 1 75 3q17 1 35 2q29 0 58 -2q47 -2 91 -8.5t69 -18.5q20 2 24 -19.5t4 -33.5q-2 -147 -12 -295t-16 -295q16 0 64 1t101.5 1t100.5 -1t61 -5 q6 147 12.5 294.5t6.5 295.5q0 27 19.5 41t46 21t55 9t47.5 4q27 2 73 2t94 -3t92 -9t69 -16q23 4 25.5 -18.5t2.5 -35.5v-41q0 -153 -13 -306q-15 -173 -20 -347v-83v-138t-1 -164t-3 -158.5t-7 -123t-11 -58.5q-18 -23 -83 -29q-49 -5 -103 -5q-18 0 -38 1q-76 2 -145 9.5 t-98 13.5q-18 -6 -29 12q-6 10 -9 70.5t-3 132.5t2 136.5t2 86.5q-82 6 -158.5 6t-158.5 -4v-88t-1 -136t-6.5 -129t-13.5 -71q-16 -20 -80 -26q-48 -4 -104 -4h-38q-77 2 -146.5 9t-96.5 13q-23 -6 -32 22.5t-11 68.5zM127 1579.5q0 24.5 31 52.5q32 28 90 48q36 12 75 13 q25 0 52 -5q14 -4 28.5 -3t26.5 -8q27 -16 21.5 -45.5t-35.5 -38.5q-33 -8 -72 -10q-20 -1 -38 -1t-36 1q-27 2 -49 -8t-47 -14q-47 -6 -47 18.5zM322 -130.5q0 15.5 12 24.5q12 8 51 13t81 6h14q34 0 65 -4q37 -5 47 -18q6 -8 6.5 -19t-4 -20.5t-13 -12.5t-20.5 3 q-18 -6 -50 -10t-65.5 -4t-64.5 4t-47 14q-12 8 -12 23.5zM516.5 1616.5q-0.5 15.5 11 27t28 14.5t32.5 -13q12 -12 10.5 -25.5t-10 -23t-24 -11.5t-29.5 6q-18 10 -18.5 25.5zM1082.5 -119.5q-19.5 19.5 6 38t117.5 18.5q8 0 46 -4.5t74 -13.5t55.5 -21.5t-11.5 -30.5 q-10 -6 -38 -7t-44 -5q-44 -9 -81 -9q-26 0 -49 4q-56 11 -75.5 30.5z" />
<glyph unicode="i" horiz-adv-x="749" d="M96 74q-1 20 -1 40.5t1 40.5q2 40 2 50q0 162 7.5 323.5t13.5 323.5q4 141 10 281.5t6 281.5q0 27 19.5 41t46 21.5t55.5 9.5t47 4q27 2 73 2t96 -2t94.5 -8.5t64.5 -18.5q23 4 25.5 -17.5t2.5 -33.5q-2 -174 -15 -348t-16 -348v-83.5v-139t-1.5 -163.5t-3.5 -158 t-7.5 -123t-11.5 -58q-12 -12 -46 -19.5t-79 -10.5q-27 -2 -57 -2q-20 0 -40 1q-52 2 -100.5 5t-86 8.5t-56.5 9.5q-23 -10 -32 19.5t-11 70.5zM128 1558.5q-1 24.5 29.5 53t88.5 48.5q34 12 73 13q27 0 56 -6q14 -4 28.5 -3t26.5 -7q27 -16 21.5 -46t-35.5 -38 q-35 -8 -73 -9t-73 -1q-27 0 -49 -10.5t-47 -14.5q-45 -4 -46 20.5zM322 -150.5q0 15.5 12 23.5q14 8 52 14.5t80 6.5t79 -5.5t47 -17.5q6 -8 6.5 -19.5t-4 -20.5t-13 -12t-20.5 3q-18 -6 -50 -10.5t-65.5 -4.5t-64.5 4.5t-47 14.5q-12 8 -12 23.5zM516.5 1595.5 q-0.5 16.5 11 27.5t28 13t32.5 -14q12 -12 10.5 -25.5t-11 -22.5t-25 -11t-27.5 6q-18 10 -18.5 26.5z" />
<glyph unicode="j" horiz-adv-x="1400" d="M52 450q-1 19 -1 37q0 72 10 144q2 18 4.5 44.5t9.5 50.5t21.5 40t40.5 16h48t81 -1t93.5 -2t90.5 -5t69.5 -10t31.5 -14q2 -8 -1 -38t-5 -68q-1 -25 -1 -50v-25q1 -37 11 -59q25 -59 67 -82q32 -17 65 -17q10 0 20 2q43 7 81.5 39.5t59.5 86.5q12 35 16 98q3 42 3 91 q0 24 -1 50q-2 78 -11 163t-19.5 165t-23.5 145.5t-24 104.5q-4 12 -10 30.5t-10 37t-3 36t11 27.5q12 10 38 13t56.5 2t60.5 -3t46 -2q23 0 59.5 2t74.5 4q25 1 49 1h24q35 -1 53 -9q20 10 30.5 -3t15.5 -36.5t6 -47.5t1 -34q16 -168 24 -340q6 -117 6 -233q0 -55 -1 -109 q-2 -90 -20.5 -191.5t-58.5 -195.5t-102.5 -173t-148.5 -122q-104 -53 -222 -60q-43 -3 -86 -3q-74 0 -146 8q-59 6 -120 17.5t-114 39.5q-88 47 -141.5 116t-79 150.5t-28.5 171.5zM124 14q11 21 34 17q6 0 25.5 -14.5t44 -32t51 -34t45.5 -20.5q61 -16 117.5 -22 t113.5 -41q41 -6 86 -10q18 -2 36 -2q26 0 52 4q25 2 38 -7.5t15 -22.5t-7 -26.5t-32 -17.5t-47 -4t-52 2t-57.5 2t-58.5 -6q-18 -4 -62 10t-92 33.5t-91 41t-62 34.5q-23 16 -50.5 36.5t-43.5 42.5q-14 16 -3 37zM745 1604q6 10 18.5 15t22.5 7q12 2 57.5 1t97.5 -2t97 -4 t58 -7q14 -4 23 -16.5t-9 -24.5q-10 -6 -37 -5t-39 -3q-47 -10 -91 -19q-26 -4 -53 -4q-20 0 -40 2q-8 0 -29.5 3t-42 9.5t-33 17.5t-0.5 30zM856 -172.5q-4 14.5 4 27t24.5 20.5t30.5 2q16 -6 21.5 -20.5t0.5 -27.5t-19.5 -21.5t-32.5 -2.5q-25 8 -29 22.5zM1174 1573 q-4 14 5 24.5t20 12.5t20.5 -9t9.5 -42q0 -6 -7.5 -13.5t-16.5 -8.5t-18 6t-13 30z" />
<glyph unicode="k" horiz-adv-x="1419" d="M93 -132q3 18 47 32q28 8 74 9q28 0 62 -3q6 0 31 -7.5t46.5 -17.5t28.5 -22.5t-20 -22.5q-10 -4 -27.5 1t-27.5 7q-18 2 -42 -1t-42 -7q-30 -5 -53 -5q-28 0 -46 7q-34 12 -31 30zM94 8q2 66 7 130.5t10 129.5q4 139 4 275.5v275.5q0 123 4 246q2 49 2 98q0 74 -4 148 q0 14 -2 39.5t-3 52.5t0 50.5t7 33.5q8 12 46 20.5t92 11.5t115.5 3t114 -4.5t89 -10.5t42.5 -16q8 -18 12.5 -86t4.5 -147.5t-2 -153.5t-2 -103q31 41 88 114t121.5 146.5t129 133t111.5 75.5q31 10 54 0q6 -4 31.5 -44t55 -90t55.5 -95t34 -59q10 -16 14 -35t-4 -35 q-2 -4 -31.5 -27.5t-76 -58.5t-100.5 -75t-103 -77.5t-89 -69.5t-55 -48q37 -35 87.5 -75t105.5 -77t110.5 -66.5t102.5 -43.5q12 -4 33.5 -8.5t40 -11.5t29.5 -18.5t5 -31.5q-4 -14 -24.5 -48t-45 -73t-49 -74.5t-34.5 -52.5q-10 -14 -24.5 -39.5t-32 -52.5t-35 -48.5 t-31.5 -27.5q-11 -4 -24 -4q-22 0 -49 14q-42 22 -90 64.5t-98 98t-93 109.5t-77 100t-48 69q0 -10 1 -43t1 -78v-95t-1 -95.5t-3 -78t-7 -42.5q-10 -31 -36 -43q-4 -2 -39 -4.5t-85 -4.5t-107.5 -4t-106.5 -3t-85 -1t-40 2q-12 4 -17.5 15.5t-5.5 23.5zM263 1617.5 q-7 22.5 16 39.5q27 16 99 20q22 1 44 1q52 0 104 -6q76 -9 137.5 -33.5t67.5 -65.5q4 -18 -10 -35.5t-33 -1.5q-14 12 -20 24.5t-13.5 23.5t-20.5 17.5t-42 6.5t-50.5 -5.5t-49.5 -15.5q-28 -8 -55 -8q-11 0 -22 1q-38 5 -77 5q-10 0 -22.5 -1t-22.5 3q-23 8 -30 30.5z M661.5 1362q-16.5 16 16.5 37q8 4 10 21.5t6 25.5q14 27 40 16.5t22 -39.5q-2 -10 -4 -24.5t-6.5 -27.5t-13.5 -20t-23 -1q-31 -4 -47.5 12z" />
<glyph unicode="l" horiz-adv-x="1095" d="M84 100q-1 16 -1 32q0 24 2 48q3 39 7 80q10 158 13.5 313.5t15.5 313.5q10 137 13 277.5t22 275.5q4 31 35.5 41t56.5 14q29 6 81 9q26 2 53 2q28 0 56 -2q56 -3 104 -13t68 -33q18 -20 19 -53q0 -238 -21.5 -472t-21.5 -472q27 0 95.5 4t144.5 5h21q63 0 117 -5 q64 -6 78 -27q8 -12 12.5 -69.5t4.5 -124t-2 -128t-4 -81.5q-2 -14 -5.5 -27.5t-15.5 -23.5q-4 -2 -69.5 -5.5t-160.5 -4.5t-208 -1t-210 2t-167 5.5t-80 7.5q-33 14 -42 48t-11 64zM126 -102.5q9 14.5 28 16.5q29 2 56.5 -2t61.5 0q8 1 24 1t42 -1q50 -2 105 -8t97 -17.5 t42 -27.5q0 -18 -22.5 -21.5t-35.5 -5.5q-25 -2 -49 -5t-49 -5q-23 -2 -67 -3h-22q-34 0 -69 2q-47 3 -87 13t-54 33q-10 16 -1 30.5zM347 1584q-1 22 35 35q13 5 32 5q32 0 78 -14q12 -4 30.5 -4t39 -1t37.5 -2t26 -8q12 -8 10 -20t-17 -16q-31 -8 -63 -5.5t-63 -5.5 q-37 -8 -64 -8q-26 0 -44 8q-36 16 -37 36zM637 -129q6 14 29 18q8 2 20 2t24.5 -3t22.5 -8t12 -15q4 -14 -4 -27.5t-24 -9.5q-31 -12 -51.5 -5t-27.5 20.5t-1 27.5z" />
<glyph unicode="m" horiz-adv-x="1630" d="M78 83q2 54 8 120.5t13 128t10 82.5q4 43 8 132t9 198.5t11 227.5t14.5 221t18.5 178t23 99q16 33 45 43q8 2 39.5 3.5t73.5 1.5t90 -2.5t90 -5.5t72 -6t38 -5q23 -8 35 -37q10 -27 13 -63.5t7 -65.5q43 -244 119 -483q51 143 81 285.5t54 291.5q2 14 5 28.5t10 27.5 q6 12 52 19t101.5 11.5t105.5 5.5t68 1q29 0 60.5 2t58.5 -15q27 -16 37 -48t14 -60q16 -106 24.5 -224t12.5 -239t7.5 -239.5t13.5 -229.5q8 -101 24 -205q15 -93 15 -183v-22q0 -23 -13 -32l-8 -13q-92 -31 -181 -34q-17 -1 -34 -1q-74 0 -152 11q-16 2 -25 18.5t-9 32.5 q-9 157 -9 313v46q2 180 2 360q-6 -31 -19 -96.5t-31.5 -136t-39 -130t-41.5 -76.5q-12 -10 -27.5 -13t-31.5 -3q-63 0 -132 -5q-27 -2 -52 -2q-41 0 -78 5q-33 4 -53 25q-18 18 -37 75.5t-35 125t-29.5 132t-21.5 97.5q0 -25 1 -87.5t1 -142.5v-168t-2 -163.5t-7.5 -129 t-11.5 -63.5q-8 -14 -57 -20.5t-109.5 -6.5t-113.5 5.5t-72 13.5q-10 4 -18.5 9t-18.5 7l-8 15q-10 4 -8 58zM88 -83.5q6 15.5 23 20.5q4 0 38.5 -1.5t73.5 -3.5t72 -5t35 -3q18 -10 17.5 -31.5t-23.5 -29.5q-12 -4 -32 -1t-32 9t-35.5 3t-48 -5t-48.5 0t-36 18 q-10 14 -4 29.5zM100 1512.5q2 17.5 8.5 36t14.5 33.5t16 24q25 23 59.5 34t71.5 14q16 1 32 1q21 0 41 -2q36 -4 67 -13q12 -4 33.5 -2t43 0t38 -10t16.5 -29q0 -25 -34 -33q-27 -6 -59 -5h-18q-43 2 -85 9t-58 13q-35 0 -73 -11.5t-67 -27.5q-8 -10 -8 -25.5t-2 -27.5 q-2 -14 -15 -17.5t-20 11.5q-4 10 -2 27.5zM609 1570.5q-9 22.5 5 37.5q10 10 22.5 10t23 -7t15.5 -19.5t-1 -24.5q6 -39 -8.5 -42t-31 10t-25.5 35.5zM1178 -79.5q10 11.5 36.5 16t64.5 4.5t74 -3.5t64.5 -7.5t36.5 -6q16 -4 18.5 -19.5t-14.5 -19.5q-41 -8 -73.5 -13 t-63.5 -5t-63.5 5t-71.5 19q-18 18 -8 29.5z" />
<glyph unicode="n" horiz-adv-x="1497" d="M82 51q2 29 6 60.5t9 62.5t7 43q25 269 25 539v40q-2 290 -2 578q0 14 2 29.5t12 26.5q4 12 36 23t79 19.5t102.5 12.5t104.5 4t86 -5t47 -16q25 -23 55.5 -83t65.5 -139t70.5 -169t69.5 -175t63.5 -157.5t50.5 -113.5q-1 39 -1 78q0 59 2 119q3 98 6 197q2 74 2 149v50 q-1 100 -9 195q-2 12 -4 37t6 35q6 8 42 9h25q26 0 55 -1q44 -2 84 -4t56 0q18 2 44 7t50.5 5t42 -10t21.5 -39q4 -23 2 -44t0 -44q12 -135 12 -270v-38q-2 -154 -13.5 -308t-25.5 -307.5t-22 -307.5q-2 -20 -5.5 -57t-13.5 -53q-8 -10 -37.5 -18.5t-72.5 -13.5t-91.5 -8 t-92.5 -3t-77.5 3t-46.5 7q-23 10 -38 26.5t-25 38.5q-33 68 -57.5 143t-51.5 146q-47 133 -94 264.5t-94 264.5q10 -174 21.5 -346.5t33.5 -344.5q4 -34 12 -70q3 -13 2 -26q0 -22 -8 -45q-12 -31 -74 -45q-60 -14 -136 -20q-52 -4 -103 -3q-23 1 -45 1q-72 2 -102 4 q-16 0 -36 7t-30 23q-4 8 -2 37zM105.5 -81q9.5 22 35.5 22q67 -2 139 -3q5 0 10 -1q66 0 128 14q16 4 26.5 -2t11.5 -16.5t-5.5 -20.5t-22.5 -14q-33 -8 -72 -16q-40 -7 -80 -10q-20 -2 -40 -2t-39 2q-39 3 -72 15q-29 10 -19.5 32zM137 1540q6 18 24.5 29.5t41 16.5t45 6 t39.5 -1q25 -4 51.5 2t48.5 2q18 -4 26.5 -22.5t-12.5 -28.5q-10 -6 -32.5 -10t-49 -7t-52.5 -5t-38 -4q-16 -2 -33.5 -8.5t-33.5 -6.5q-14 0 -21.5 12.5t-3.5 24.5zM875.5 -97.5q-11.5 11.5 5.5 27.5q12 12 47 18.5t77 7.5h17q34 0 66 -3q40 -4 68 -14.5t34 -25t-23 -32.5 q-9 -6 -39 -10q-24 -3 -53 -3h-15q-38 1 -77 4t-67.5 11t-40 19.5zM1240 -73.5q1 12.5 17 18.5q8 4 20.5 2t21 -7.5t10.5 -14.5t-6 -17q-16 -14 -31 -13t-24 10t-8 21.5z" />
<glyph unicode="o" horiz-adv-x="1730" d="M64 706v14q0 130 28 254q29 130 84 239.5t137 179.5q70 59 155 95t176 54q92 17 186 18h15q86 0 165 -10q66 -8 132 -17t128 -34q104 -43 194 -124t144 -179q37 -72 52 -171q11 -74 11 -155q0 -26 -1 -54q-5 -110 -31.5 -224.5t-69.5 -215t-103.5 -179t-134.5 -119.5 q-98 -53 -204.5 -73.5t-217.5 -22.5h-33q-118 0 -244 12q-144 14 -263 76q-102 51 -170 150t-100.5 223.5t-34.5 262.5zM140 1427.5q-1 24.5 14.5 60.5t56.5 66q98 76 225 122t250 67q20 2 59 4h19q29 0 56 -4q36 -6 57.5 -24.5t7.5 -57.5q-6 -18 -19.5 -19.5t-29.5 3.5 q-12 4 -37 5t-52.5 -1t-52 -4.5t-39.5 -4.5q-41 -8 -107.5 -32.5t-135 -57t-127.5 -68.5t-86 -65q-25 -27 -41.5 -20.5t-17.5 31zM540 798q-3 -32 -4 -63q0 -47 8 -92q12 -74 41.5 -131t78.5 -80q35 -16 89 -26q53 -11 111 -12h11q52 0 100 8q53 10 86 32q37 25 62.5 72 t41 106.5t19.5 125.5q2 29 2 57q0 37 -3 71q-5 62 -20.5 115t-40.5 86q-20 25 -46.5 40t-55.5 26q-31 10 -62.5 13t-64.5 3q-14 0 -38 1t-48.5 2t-46 1t-31.5 -4q-55 -18 -95 -72.5t-63 -126t-31 -152.5zM591 -137.5q-1 16.5 17 24.5q14 6 28.5 2t31.5 -4q35 0 68.5 2 t68.5 4q19 1 38 1q53 0 103 -8q40 -6 80 -6q29 0 59 3q37 4 74 14.5t74 10.5q10 0 16 -5t13 -10q25 -20 -5 -38.5t-76 -32t-92.5 -22.5t-56.5 -11q-35 -6 -95 -7h-24q-49 0 -101 3q-64 4 -120.5 17.5t-85.5 35.5q-14 10 -15 26.5zM977 1672.5q-2 21.5 31 33.5q29 10 48 -9 t3 -48q-4 -31 -25.5 -30t-38 16.5t-18.5 37z" />
<glyph unicode="p" horiz-adv-x="1302" d="M92 1466.5q-2 8.5 0 14.5q8 23 79 37t177 17q23 1 47 1q87 0 187 -9q127 -11 247.5 -42t219 -84t147.5 -133q55 -92 62 -203q2 -15 2 -30q0 -94 -41 -177q-37 -78 -96.5 -143.5t-131.5 -112.5q-84 -57 -179.5 -92t-193.5 -45q12 -111 14.5 -223.5t2.5 -223.5 q0 -12 -34 -18t-77 -7q-22 -1 -43 -1t-41 1q-41 1 -53 1q-14 0 -52 -1t-78 -1t-75 1t-43 5q-12 4 -17 16.5t-5 24.5q-1 34 -1 68q0 68 3 135.5t3 136.5q0 35 -1 70q-2 252 -8.5 500.5t-18.5 500.5q0 8 -2 16.5zM156.5 1606.5q-17.5 13.5 13.5 42.5q16 16 48 27.5t54 15.5h10 q21 0 68 -4q62 -7 131.5 -19t127 -26.5t67.5 -24.5t4 -23.5t-21 -13.5q-51 2 -99 14.5t-99 12.5h-66q-16 0 -34.5 -7.5t-34.5 -11.5q-10 -2 -46 -3h-14q-29 0 -57 3q-35 4 -52.5 17.5zM578 1171l8 -264q98 6 150 46q55 42 55 90q0 44 -51 82q-52 40 -162 46zM658 357.5 q1 15.5 32 33.5q25 14 49.5 14.5t51.5 -4.5q10 -2 34.5 7.5t51 21.5t50 24.5t36.5 18.5q16 8 28.5 3t16.5 -16t1 -25.5t-18 -22.5q-53 -33 -114.5 -54.5t-120.5 -35.5q-18 -4 -43 -1t-40.5 12t-14.5 24.5zM717 1587q8 12 24.5 17.5t32.5 -0.5t12 -31q-4 -27 -22.5 -25 t-34.5 13q-20 14 -12 26zM1036 520q0 31 20.5 36t40 -4t26 -28t-22.5 -35q-16 -10 -40 -0.5t-24 31.5z" />
<glyph unicode="q" horiz-adv-x="1740" d="M64 708v13q0 131 28 254q29 129 85 239.5t136 178.5q55 47 121 76.5t135 50.5q61 18 114.5 28.5t104.5 13.5q26 2 52 2t53 -2q53 -3 117 -12q66 -8 132 -17t128 -34q172 -72 264 -193.5t123 -271.5q18 -85 18 -176q0 -67 -10 -136q-23 -163 -80 -314q-33 -86 -83 -166 t-126 -136q18 -4 60.5 -13t88.5 -20.5t85 -22.5t49 -19q14 -2 16 -12.5t-3 -24.5t-12 -26.5t-9 -18.5q-6 -10 -23.5 -36t-41 -58.5t-50.5 -68.5t-51.5 -66.5t-43 -50t-26.5 -21.5q-25 -6 -58.5 12t-73.5 49t-81 72t-78 80t-65.5 72.5t-42.5 52.5q-74 -6 -159 -6t-171 8 t-168 27.5t-149 54.5q-102 51 -170 151.5t-100.5 224t-34.5 262.5zM140 1427.5q-1 24.5 14.5 60.5t56.5 66q98 76 225 122t250 67q20 2 59 4q10 1 19 1q29 0 56 -5q36 -6 57.5 -24.5t7.5 -57.5q-6 -18 -19.5 -19.5t-29.5 3.5q-12 4 -37 5t-52.5 -1t-52 -4.5t-39.5 -4.5 q-41 -8 -107.5 -32.5t-135 -57t-127.5 -68.5t-86 -65q-25 -27 -41.5 -20.5t-17.5 31zM416 -88q-18 33 8 39q12 3 29 3t37 -3q42 -6 85 -17.5t62 -11.5q14 0 64.5 -4t106.5 -8t102 -9t53 -7q16 -8 12 -22.5t-21 -14.5q-12 0 -33.5 -7.5t-33.5 -11.5t-32.5 -6t-44.5 -3 t-45.5 -2t-35.5 -1q-22 -1 -50 -1h-29q-46 1 -92 9t-85 25.5t-57 52.5zM540 798q-3 -32 -3 -63q0 -47 7 -92q11 -74 41 -131t79 -80q35 -16 89 -26.5t111 -11.5h11q52 0 100 8q53 10 86 32q37 25 62.5 72t41 106.5t19.5 125.5q2 29 2 57q0 36 -3 71q-5 62 -20.5 115 t-40.5 86q-20 25 -46.5 40t-55.5 26q-31 10 -62.5 13t-64.5 3q-14 0 -38 1t-48.5 2t-46 1t-31.5 -4q-55 -18 -95 -72.5t-63.5 -126t-30.5 -152.5zM977 1672.5q-2 21.5 31 33.5q29 10 48 -9t3 -48q-4 -31 -25.5 -30t-38 16.5t-18.5 37z" />
<glyph unicode="r" d="M92 1465.5q-2 7.5 0 15.5q6 18 34 28.5t62.5 15.5t68.5 5h50q29 1 60 1q77 0 169 -4q130 -5 257 -29.5t235.5 -79t167.5 -150.5q56 -92 62 -202q1 -14 1 -28q0 -95 -40 -180q-37 -78 -95.5 -141.5t-128.5 -112.5q53 -80 110.5 -157.5t119.5 -151.5q23 -25 47 -50.5 t41 -51.5q4 -6 7 -19.5t-7 -17.5q-27 -12 -73 -33t-94 -44.5t-89 -47t-60 -41.5q-16 -16 -23 -16.5t-28 14.5q-31 23 -77 79t-93 120.5t-89 128t-64 100.5q8 -100 10 -198.5t2 -199.5q0 -12 -34 -18t-77 -7q-22 0 -43 -0.5t-41 0.5q-41 1 -53 1q-14 0 -51 -1t-79 -1t-76 1 t-42 5q-23 10 -22 41q-1 34 -1 68q0 68 3 135.5t3 136.5q0 35 -1 70q-2 252 -8.5 500.5t-18.5 500.5q0 8 -2 15.5zM207 1637.5q-4 17.5 6 29.5t49 20.5t85 14.5t88 9t59 1q25 -2 85 -12t124.5 -25.5t119 -33t66.5 -33.5t1 -28.5t-28 -8.5q-78 23 -160 49q-57 18 -115 17 q-25 0 -50 -3q-14 -2 -61.5 -6t-100.5 -8t-97.5 -6t-50.5 0q-16 6 -20 23.5zM256 -79.5q10 20.5 86 26.5q6 0 22.5 2t33 3t31.5 2t20 -1q28 -8 53 -8q10 0 20 1q12 2 24 2q23 0 46 -7q16 -4 24.5 -15.5t8.5 -21.5t-7.5 -17.5t-21.5 -3.5q-30 6 -68 12q-10 2 -20 2 q-26 0 -47 -12q-44 -23 -89 -23h-16q-54 4 -82 21t-18 37.5zM578 1171l8 -264q98 6 150 46q55 42 55 90q-1 44 -51 82q-52 40 -162 46zM967 1540q-2 25 11 32t28.5 3t27.5 -17.5t8 -27.5q-4 -18 -16 -23.5t-25.5 -2.5t-23.5 13.5t-10 22.5z" />
<glyph unicode="s" horiz-adv-x="1415" d="M72 1128q34 108 111 189.5t185.5 134.5t223.5 72q124 22 251 22q42 0 84 -2q171 -10 330 -47q10 -4 32 -10t24 -21q0 -8 -1 -17t-1 -17q-2 -14 -2 -49v-79t1 -92v-47v-43q-1 -41 -3 -69.5t-4 -32.5q-16 -29 -72.5 -40t-124.5 -13q-23 -1 -45 -1q-45 0 -87 3q-64 4 -97 4 q-20 0 -25.5 17.5t-5.5 40v47t-10 38.5q-16 25 -51 32q-16 3 -33 3q-19 0 -38 -4q-36 -8 -61.5 -32.5t-25.5 -61.5q2 -57 29.5 -91t73.5 -56.5t104.5 -37t121 -31t124 -40t114.5 -62.5q76 -61 115 -149q29 -66 33 -136q1 -19 1 -38q0 -52 -8 -103q-14 -98 -64 -163.5 t-123 -106.5t-158 -61.5t-171 -26.5q-47 -4 -95 -4q-60 0 -123 6q-112 10 -209 50t-169.5 113.5t-101.5 194.5q-6 29 -11.5 63t3.5 62q4 16 34.5 28.5t75.5 21t96.5 12.5t96.5 4t75.5 -5t36.5 -14q8 -14 12.5 -29.5t8.5 -30.5t12 -28.5t25 -23.5q16 -10 41.5 -15.5 t53.5 -5.5t52.5 7.5t40.5 19.5q28 25 28 54q0 5 -1 11q-6 36 -35 64q-33 31 -89 47t-125 29.5t-142.5 31t-139 49t-118 86t-76.5 142.5q-19 68 -19 129q-1 57 15 108zM191.5 1497q-5.5 14 3.5 29q8 14 35.5 32.5t59.5 31t61.5 13t41.5 -19.5q6 -12 7 -28.5t-9 -26.5 q-12 -8 -36.5 -19.5t-52.5 -20.5t-52.5 -13.5t-38.5 2.5q-14 6 -19.5 20zM313 -87.5q6 9.5 19.5 12.5t29 -3t27.5 -22q6 -12 1 -21.5t-17.5 -13.5t-27.5 2t-28 24q-10 12 -4 21.5zM446 -143q-4 12 4.5 19t18.5 7t27 -8q23 -10 76 -16q53 -5 113 -7q15 0 30 -1q45 -1 83 3 q52 4 74 17q35 20 74 30.5t78 19.5t78 20.5t76 31.5q14 8 30.5 -2t5.5 -28q-6 -10 -19 -37t-21 -35q-37 -37 -73 -54.5t-73 -25.5t-78 -11t-86 -9q-16 -2 -51 -1t-74 4t-74.5 8t-50.5 9q-14 4 -39.5 9t-52 12.5t-48 18.5t-28.5 26z" />
<glyph unicode="t" horiz-adv-x="1191" d="M32 1304v23q0 57 4 109q5 62 15 77q10 16 88 25q77 10 191 13q68 2 143 2q51 0 103 -1q132 -2 248 -9t201 -15t108 -19q25 -10 27 -46q1 -11 1 -22q0 -27 -4 -57q-6 -43 -15 -83.5t-9 -65.5q0 -10 2 -28.5t2 -37t-4.5 -35t-16.5 -20.5q-10 -4 -48 -5h-26q-26 0 -55 1 q-43 2 -84 4t-57 2q-12 -172 -12 -342t10 -342q6 -109 15 -215t13 -215v-13t-2 -12q-6 -14 -23.5 -19t-36.5 -4t-39.5 4t-33.5 3q-90 6 -188 11q-33 2 -64 2q-63 0 -123 -7q-23 -4 -30.5 -2t-18.5 27q-12 37 -16 124q-2 44 -2 94t2 106q4 112 12 239t17.5 241.5t18.5 206 t13 134.5q-6 4 -51 0t-97 -10.5t-97 -10.5t-54 0q-12 6 -19 62t-8 126zM97 1670q-3 26 40 42q22 8 55 8q10 0 20 -1q46 -3 75 -11q47 -12 81 -13h25q26 0 60 1q12 0 22 -6.5t13.5 -14.5t-4 -16t-27.5 -14q-35 -10 -73 -11.5t-73 -9.5q-27 -5 -56 -5q-14 0 -28 1 q-43 4 -84 14q-43 10 -46 36zM448 -188q-14 14 9 43q20 27 56 37t74 10t75.5 -6.5t66.5 -12.5l8 -8q23 -2 33 -10t10 -17.5t-7 -17.5t-17 -8q-4 0 -34 -6t-71 -11.5t-84 -8.5q-22 -2 -40.5 -2t-34.5 2q-32 3 -44 16zM517 1642.5q-3 14.5 7 30.5q6 8 17.5 11.5t20.5 -1 t13 -17.5t-8 -36q-6 -14 -17 -15t-20.5 6t-12.5 21.5zM810 -171q-3 11 9 21q27 23 43.5 26t23.5 -5t7 -20.5t-6 -20.5q-14 -16 -31.5 -19.5t-30 2t-15.5 16.5z" />
<glyph unicode="u" horiz-adv-x="1349" d="M77 740q1 144 18.5 286.5t27.5 265.5q2 16 1 46t0 61t6 55.5t22 34.5q8 6 27.5 8t43 3t44 1h32.5q25 0 62.5 -1t76.5 -7t72 -17.5t45 -33.5q-4 -43 -12 -118t-15.5 -165t-11.5 -185q-2 -54 -2 -106q0 -39 1 -75q3 -86 15.5 -153t38.5 -97q27 -29 66 -40t76 -11 q53 0 96 36.5t61 83.5q23 57 24 167v19q0 102 -10 212q-10 120 -26 233t-29 176q-3 17 9 25q2 18 53 29.5t117 16.5q47 4 91 4q17 0 35 -1q62 -2 80 -10q4 -2 12.5 -9.5t8.5 -13.5l-4 -45v-21q0 -32 4 -66q6 -46 10 -87l31 -457q2 -27 2 -54q0 -70 -12 -146 q-16 -104 -53 -202.5t-97.5 -183.5t-142.5 -141q-98 -66 -217 -80q-34 -4 -67 -4q-83 0 -163 25q-94 29 -173 88t-138 137q-81 105 -109 239q-27 130 -27 267v11zM203 45q-2 18 12 29.5t31 1.5q23 -10 42 -30.5t42 -35.5q47 -29 107.5 -57.5t113.5 -44.5q39 -12 84 -14 t86 -3q14 0 18 -5t-1 -11t-14 -13t-17 -9q-42 -13 -106 -13h-29q-84 4 -163 27.5t-139.5 68t-66.5 109.5zM778.5 -118.5q1.5 14.5 14 25.5t30 13t29.5 -18q8 -16 4.5 -27.5t-14.5 -16.5t-24 -4t-23 11q-18 2 -16.5 16.5zM924 1554q-12 20 6 38q11 11 42 12q19 0 46 -5 q12 -2 31.5 -2t40 1t38 1t25.5 -4q27 -12 14.5 -22t-39 -17.5t-55.5 -13.5t-31 -8q-25 -15 -48 -15q-12 -1 -22 3q-34 12 -48 32z" />
<glyph unicode="v" horiz-adv-x="1357" d="M35 1419q2 10 7 21.5t19 9.5q25 14 79.5 30.5t113.5 27.5q58 12 114 15q13 1 25 1q38 0 58 -8t45.5 -65.5t51 -140.5t50.5 -180.5t45.5 -187.5t35.5 -161.5t21 -102.5q31 137 63 272t71 271q16 66 38.5 127t38.5 127v6q4 12 34 18t71 6t89 -3t92 -10t77 -14.5t43 -15.5 q14 -10 14 -31.5t-7 -47t-16.5 -49t-13.5 -36.5q-74 -233 -146.5 -463.5t-150.5 -461.5q-29 -82 -49 -166t-57 -162q-10 -18 -21.5 -34.5t-29.5 -26.5q-12 -6 -52 -9.5t-87.5 -4.5t-90.5 -1h-63q-29 0 -59.5 4t-55.5 23q-12 10 -31.5 61.5t-42 122t-45 150.5t-41 148.5 t-30 113.5t-11.5 47q-8 31 -26.5 95.5t-41 144t-46 167t-42 163t-30.5 133.5q-10 49 -10 71v6zM73.5 1589q6.5 23 30.5 27q27 4 53.5 4t53.5 4q31 4 63.5 5t63.5 1t32 -21.5t-28 -25.5q-25 -4 -48 -6t-46 -8q-18 -6 -38 -13.5t-40 -12.5t-40.5 -4t-39.5 13q-23 14 -16.5 37z M520 -116.5q-10 14.5 15 30.5q18 12 44.5 14t55.5 1t57.5 -3t48.5 0t39 6.5t39 6.5q53 2 67.5 3t17.5 5t7 15t35 36q12 10 23.5 2t7.5 -23q-2 -8 -12.5 -23t-22.5 -30.5t-25.5 -29t-19.5 -17.5q-31 -18 -55.5 -18t-51 4t-56 3.5t-70.5 -18.5q-18 -8 -50 -5t-58 14.5t-36 26z M981 92q2 8 11 11t17.5 -1t11.5 -16t-5 -35q-8 -18 -26.5 -13t-8.5 54z" />
<glyph unicode="w" horiz-adv-x="1738" d="M71 1236q3 106 19 202q4 23 36 36t79 19t100 6t99.5 -6t78 -16.5t33.5 -22.5q2 -16 0 -29.5t-2 -29.5q-1 -23 -1 -58v-39q1 -62 4 -138.5t8 -158t13.5 -154.5t18.5 -130.5t23 -83.5l14 -12q12 6 24.5 43.5t25.5 93t26.5 121t27 126t28.5 107.5t34 68q12 16 29.5 20 t35.5 8q29 4 58.5 8.5t58.5 -6.5q27 -10 47.5 -49t35.5 -94t28.5 -120.5t26 -126t25.5 -111t30 -76.5l18 -8q18 18 30.5 86.5t19.5 162t11.5 198t6.5 192.5t3 146t3 60q8 14 53 22q44 7 98 9q27 1 52.5 1t50.5 -1q49 -2 67 -4q12 -2 28.5 -4t31 -8t26 -16.5t13.5 -26.5 q14 -88 18 -184q3 -64 2 -124v-61q-2 -59 -9 -148t-22.5 -190.5t-37 -207t-49 -203t-61.5 -176t-75 -123.5q-23 -25 -50.5 -38.5t-58 -19.5t-62.5 -7t-62 -1q-33 0 -68 2t-63 19q-23 14 -44.5 46.5t-39 78t-34 96.5t-27.5 100t-20.5 91t-13.5 69q-8 -39 -23.5 -110.5 t-38 -146.5t-50 -137.5t-58.5 -84.5q-18 -14 -41.5 -20.5t-48 -8.5t-50 -1t-46.5 3q-53 2 -109.5 16.5t-89.5 61.5q-55 78 -99 209t-74.5 275.5t-48 282.5t-21.5 232q-2 56 -2 114q0 45 1 90zM350 -82.5q10 10.5 27 10.5q23 0 48.5 -10t47.5 -14q6 0 31.5 1t57.5 2t63.5 0 t50 -6t15.5 -16.5t-40 -29.5q-18 -9 -63 -13q-21 -2 -43 -2q-25 0 -51 2q-48 4 -90 16.5t-54 32.5q-10 16 0 26.5zM726 -93.5q-1 11.5 6 19.5t18.5 9t19.5 -15q6 -12 -3 -23.5t-24 -7.5q-16 6 -17 17.5zM1226 1559.5q-5 17.5 7 29.5q8 8 26.5 16.5t28.5 12.5q8 4 24.5 7 t36 6t37 4t27.5 1q8 0 26.5 -1t38 -3t36 -5t22.5 -9q10 -10 8 -23.5t-16 -17.5q-23 -8 -45 -6t-45 -2q-47 -6 -94.5 -16.5t-94.5 -10.5q-18 0 -23 17.5z" />
<glyph unicode="x" horiz-adv-x="1363" d="M49 1280q4 18 33 46t71 58.5t92 58t97 48t83 28t50 -5.5q10 -8 13.5 -19t7.5 -21q37 -94 85 -185.5t97 -179.5q49 90 102.5 187.5t83.5 195.5q8 25 36 28q6 1 12 1q24 0 54 -10q38 -12 82 -33t83.5 -44.5t70.5 -45t43 -31.5q16 -14 33.5 -30.5t24.5 -39.5 q4 -14 -16.5 -59t-54.5 -106.5t-76 -130t-82 -130t-72.5 -111t-45.5 -67.5q25 -33 77 -93.5t107.5 -125t101.5 -121.5t58 -82q12 -27 -3 -53.5t-41.5 -50t-56.5 -44t-46 -32.5q-18 -14 -39.5 -34.5t-46.5 -40t-49.5 -33t-48.5 -11.5q-23 2 -65 47t-87 103.5t-84 113.5 t-55 78q-16 -23 -55 -78t-83 -113.5t-86 -104.5t-63 -48q-20 -2 -43.5 9.5t-47.5 28.5t-45.5 36.5t-35.5 32.5q-16 14 -42.5 32.5t-52.5 39t-46.5 43t-24.5 42.5q-2 14 18.5 49t54.5 80t76 95.5t82 95.5t70.5 82t44.5 55q-12 20 -44.5 67.5t-71.5 110t-82 130t-77 128 t-55.5 105.5t-19.5 59zM78 1468.5q0 16.5 17.5 35t45 34.5t49.5 21q29 4 52.5 11t50.5 13q18 4 31.5 -1t18.5 -13t2 -17.5t-15 -11.5q-23 -6 -43.5 -7t-42.5 -17q-8 -6 -13.5 -13.5t-15.5 -11.5q-8 -4 -22.5 -11t-30 -14.5t-28.5 -11.5t-21 -4q-35 2 -35 18.5zM991 -104 q6 18 34 39.5t61.5 42t66.5 35t49 16.5t28.5 -11.5t-5.5 -25.5q-47 -31 -92.5 -63.5t-98.5 -59.5q-16 -8 -33.5 -2t-9.5 29zM1249 49.5q0 16.5 11.5 27.5t35.5 3q23 -8 19.5 -29t-21.5 -31q-23 -10 -34 1.5t-11 28z" />
<glyph unicode="y" horiz-adv-x="1349" d="M27 1434q-4 18 6 29.5t26.5 17.5t36 9t31.5 5q88 16 191.5 43t189.5 33q14 2 27.5 0t17.5 -19q6 -16 12 -55t13.5 -83t14.5 -89t15 -74q16 -66 40 -129.5t59 -122.5q6 18 19 62.5t30.5 101t36 117.5t37 113.5t34 90.5t25.5 48q6 6 37 9q24 2 55 2h21q45 -1 95 -3t94 -7 t76.5 -10t41.5 -12q25 -16 22.5 -40.5t-14.5 -47.5q-127 -233 -206 -469.5t-122 -498.5q-16 -104 -27.5 -206t-25.5 -206q-2 -12 -4 -26.5t-19 -18.5q-14 -2 -46.5 -3t-78.5 -2q-22 -1 -46 -1t-49 1q-50 1 -97 1t-85 1t-58 1h-62t-57 14q-17 21 -17 61q0 8 1 17 q4 53 20 120.5t43 142.5t54.5 144.5t51 126t33.5 87.5q-57 0 -105 20.5t-87 54t-71 77.5t-56 91q-55 104 -103.5 234.5t-70.5 247.5zM166 1614.5q-2 13.5 8 23.5q6 6 49 17.5t93.5 23t96.5 18.5t58 7q16 0 45 -7t39 -22q12 -16 0 -29.5t-29 -3.5l-20 5q-18 -14 -63.5 -26.5 t-97.5 -21t-98 -10.5h-17q-33 0 -48 6q-14 6 -16 19.5zM369 -123.5q6 12.5 24.5 21t39 11.5t30.5 3q18 0 55 -1t77 -3t73.5 -7t44.5 -14q8 -6 26.5 -5t28.5 -5t9 -18.5t-13 -16.5q-8 -4 -26.5 1t-28.5 -1t-59 -7q-25 -1 -52 -1t-56 1q-57 1 -105 5t-56 10q-18 14 -12 26.5z M821 -146.5q-6 17.5 2 35t37 23.5q18 2 30.5 -6t16.5 -22.5t0 -29t-18 -22.5q-25 -12 -43.5 -4t-24.5 25.5z" />
<glyph unicode="z" horiz-adv-x="1153" d="M53 150q2 60 10.5 116t14.5 78q20 63 82.5 151.5t137.5 188.5t146.5 205.5t108.5 206.5q-69 3 -142 3h-37q-93 -1 -177 -18q-10 -2 -25.5 -4t-26.5 6q-14 9 -17 69q-2 30 -2 63t2 68q3 71 13.5 131.5t24.5 72.5q8 8 44 10q18 1 39 1t46 -1q49 -2 106.5 -7t110.5 -10 t95 -9.5t61 -4.5h34q56 0 112 4q74 6 144 17q10 2 25.5 4t32 4t31 0t22.5 -10q4 -4 6 -42t2 -86t1 -91t1 -58q0 -14 -9 -35.5t-23.5 -44t-27.5 -43t-22 -32.5q-98 -166 -186 -338t-174 -346q14 2 70.5 9t119 13t116.5 11.5t67 5.5q25 -2 41 -34t26 -78q9 -46 13 -102 q2 -28 2 -53.5t-2 -49.5q-4 -48 -11.5 -83t-21.5 -41t-36 -7t-45.5 1t-47 5t-37.5 5q-169 17 -351 21q-24 0 -48 1q-156 0 -304 -20q-20 -4 -54 -8t-50 8q-20 13 -26 65q-5 40 -5 84v28zM62.5 -155.5q-1.5 12.5 8 23.5t25 20.5t25.5 13.5q33 12 71 14q15 1 30 1q23 0 47 -2 q40 -3 78 -7t73 -4q20 0 53 2t66.5 4t63.5 2t46 -2q6 -2 29.5 -12.5t44 -22.5t27 -24.5t-24.5 -16.5q-12 -2 -22.5 -4t-20.5 -6q-12 -6 -48 -2t-82 9q-38 4 -82 4h-18q-54 -1 -100 -15q-10 -4 -51 -5t-87 -1t-85 2t-47 6q-18 10 -19.5 22.5zM332.5 1632.5 q15.5 14.5 83.5 20.5q22 2 53 2q61 0 154 -8q94 -7 188 -7h23h22t27.5 -2t22.5 -8t7 -20t-14 -23q-63 -8 -117 -16q-47 -6 -88 -12.5t-55 -10.5q-32 -6 -67 -6q-20 0 -44 2q-60 6 -108.5 20.5t-75.5 34t-11.5 34zM799 -147q6 14 15 18.5t20.5 2t19.5 -12t10 -23.5 q4 -23 -8 -30t-27.5 -2.5t-25.5 17.5t-4 30zM962 1589.5q-4 14.5 6.5 24.5t30 15t33.5 -1q16 -6 20 -19.5t-2 -25.5t-19 -19.5t-30 -0.5q-35 12 -39 26.5z" />
<glyph unicode="{" horiz-adv-x="1116" d="M51 660.5q2 25.5 2 39.5q0 16 -2 43t4 39q6 14 43 18.5t82 10.5t88 23.5t66 62.5q20 43 11 100.5t-26.5 119t-32 125t-1.5 122.5q20 90 80.5 150.5t140.5 97.5t169 52t166 14t130 -14t61 -36q4 -12 8 -66.5t6.5 -117t1.5 -115.5t-8 -61q-10 -12 -26 -17q-29 -8 -77 -7 t-97 -2t-88 -14t-45 -42q-8 -35 1 -74t23 -82t27.5 -86t14.5 -84t-17.5 -79.5t-65.5 -71.5q51 -39 67.5 -86.5t11.5 -96.5t-21.5 -99t-29.5 -94t-15.5 -80t24.5 -58q18 -16 60 -18.5t88.5 -1.5t89.5 -1t65 -16q8 -6 12.5 -20.5t6.5 -31t1 -32t-1 -25.5q2 -45 0 -89t-5 -89 q-2 -18 -5 -52t-15 -48q-8 -10 -29.5 -15.5t-47 -8.5t-50.5 -4t-37 -1q-82 -2 -168 7t-163.5 39t-139 85t-94.5 143q-23 59 -15.5 115.5t23.5 112t32.5 111t12.5 110.5q-4 45 -23.5 71.5t-48 42t-62.5 21.5t-65.5 9t-55 5t-32.5 11q-12 10 -10 35.5z" />
<glyph unicode="|" horiz-adv-x="825" d="M99.5 -125q-1.5 45 0.5 96.5t6.5 99.5t6.5 79q14 344 35.5 679.5t17.5 681.5q0 23 6 38.5t33 11.5q14 6 54 12t91 11t108.5 8t105.5 4t82 -2t40 -11q4 -4 5 -65.5t2 -152.5t1 -199.5v-207v-173v-97.5q0 -35 2 -109.5t5.5 -168t5.5 -193.5t3 -188t0 -151.5t-5 -82.5 q-6 -20 -31 -31q-14 -6 -58.5 -10t-103.5 -5t-123.5 -1t-122 3t-97.5 8t-48 12q-6 6 -7 15t-5 17q-8 27 -9.5 72z" />
<glyph unicode="}" horiz-adv-x="1116" d="M68 -43q-2 66 0 122t8 68q10 16 36.5 21.5t60.5 5.5t71 -1t70.5 2t58 12.5t33.5 33.5q10 33 2.5 72t-21.5 82t-28.5 87t-15.5 88t16.5 84t66.5 75q-51 35 -67.5 80t-12.5 92t20.5 96t30 94t16.5 82t-18 61q-18 20 -61 23.5t-91 2.5t-92.5 0t-64.5 17q-12 10 -16 33 q-2 14 -2 64.5t1 108t5 105.5t8 60q8 20 55 34.5t117 16.5t152.5 -9t161.5 -42t144.5 -83t100.5 -130q20 -49 21.5 -98t-8 -98.5t-25 -96.5t-24.5 -91t-8 -83t24 -69q25 -35 64.5 -49.5t79.5 -19.5t72.5 -7t45.5 -12q6 -6 8 -17.5t2 -25t-1 -25.5t-1 -21q0 -10 1 -35.5 t-3 -33.5q-8 -16 -44 -19.5t-81 -9.5t-89 -23.5t-65 -62.5q-18 -39 -15 -80t15.5 -85t27.5 -92t21.5 -97t-1 -102.5t-42.5 -106.5q-41 -61 -99 -107.5t-128 -70.5q-29 -10 -98.5 -20.5t-144 -14.5t-140 1t-86.5 28q-10 10 -16 65t-8 121z" />
<glyph unicode="~" horiz-adv-x="1335" d="M62 460.5q4 24.5 8 41.5q33 139 102.5 250.5t208.5 169.5q82 33 140.5 24.5t101.5 -41.5t73.5 -80t57 -91t52 -74.5t58.5 -28.5t58.5 32.5t45 68.5t33 70t23.5 34t38 -2.5t58.5 -11.5t58 -15t40.5 -12q41 -14 52 -49t2 -78t-35 -91.5t-58.5 -91.5t-67 -76t-63.5 -47 q-63 -31 -114.5 -31.5t-93.5 18t-78 48t-66.5 61t-58.5 57.5t-56 36q-45 16 -73 -2.5t-45.5 -50t-29.5 -67.5t-28 -54q-10 -12 -61.5 -10t-111 11t-109.5 22.5t-56 21.5q-10 14 -6 38.5zM232.5 960.5q-7.5 14.5 0.5 28.5q18 33 51 59.5t72 43t80 21.5t78 -3q47 -10 82 -23.5 t53 -60.5q8 -23 -7.5 -32t-29.5 7q-35 10 -60.5 24.5t-64.5 2.5q-29 -10 -61.5 -17t-60.5 -22q-18 -10 -53.5 -26.5t-55.5 -16.5q-16 0 -23.5 14.5zM668 940q-2 12 3 20.5t16.5 10.5t23.5 -8q8 -8 9 -19.5t-4 -20t-14.5 -11.5t-19.5 6q-12 10 -14 22z" />
<glyph unicode="&#xa2;" horiz-adv-x="1263" d="M94.5 815q14.5 131 67.5 245t146 198.5t227 117.5q-4 33 -6.5 71t3.5 71q4 20 19 28q10 6 45 11.5t74 3.5t70.5 -11.5t35.5 -29.5q4 -31 4 -64t-2 -63q147 -14 255 -105.5t145 -236.5q4 -10 5 -23.5t-12 -19.5q-16 -8 -63 -25.5t-101.5 -36t-103.5 -34t-72 -21.5 q-23 -8 -36 4q-12 8 -21.5 33.5t-25 48t-41 35t-70.5 -3.5q-39 -14 -66.5 -56.5t-43 -96.5t-19.5 -116.5t5 -120t30.5 -101.5t58.5 -64q47 -27 91 -13.5t80 40t63.5 53t42.5 30.5q10 2 20 0t21 -6q20 -6 55 -20.5t72.5 -32t71.5 -35.5t50 -31q16 -12 12.5 -32.5t-10.5 -36.5 q-47 -131 -152.5 -198t-236.5 -87q0 -10 1 -32.5t2 -47t1 -45t-4 -29.5q-6 -14 -43 -22t-79 -7t-76.5 12t-38.5 38q-4 33 -3 65.5t-1 65.5q-55 10 -109.5 27.5t-101.5 50.5q-92 63 -149.5 169.5t-79 230.5t-7 255zM131 1215.5q4 21.5 22.5 48t40 49t29.5 28.5 q16 10 32.5 16.5t33.5 16.5l33 23q14 10 32.5 3t7.5 -28q-6 -14 -21 -29.5t-33.5 -32t-37 -31t-30.5 -24.5q-8 -6 -18.5 -17t-23 -22.5t-24.5 -19.5t-22 -6q-25 4 -21 25.5zM403 1415q0 12 15 21q16 10 37.5 -0.5t5.5 -30.5q-14 -18 -27.5 -18.5t-22 8t-8.5 20.5zM845 32.5 q-3 20.5 11 38t45 24.5t82 -7q14 -4 31.5 5t36 20.5t35 19.5t28.5 6q20 -4 13 -24.5t-17 -28.5q-18 -14 -44 -24.5t-48 -20.5q-6 -4 -12.5 -6t-12.5 -6q-45 -31 -76.5 -35t-50 7t-21.5 31.5z" />
<glyph unicode="&#xa3;" horiz-adv-x="1445" d="M83 225q-1 47 3 54q6 10 25.5 15t44 8t47 6t35.5 7q49 18 67.5 60.5t18.5 92.5t-12.5 101.5t-22.5 85.5q-10 0 -36 -1t-55.5 -1t-53 1t-27.5 8q-6 8 -5 37.5t1 41.5q-2 35 5 50.5t24.5 20.5t44 4t63.5 1q-41 184 -8.5 326.5t111.5 240t191.5 146.5t234.5 48t240 -55.5 t206 -164.5q35 -43 54 -88t32 -99q23 -92 3 -129.5t-68 -50t-116.5 -12.5t-146.5 -16l-46 -11.5t-44 -1.5q-16 6 -17.5 42t-5.5 74t-21.5 67.5t-64.5 23.5t-59 -50t-7 -100.5t18.5 -110.5t19.5 -81h49t72.5 -1t69.5 -6t40 -15q10 -14 4 -34t-6 -36q0 -12 3 -24.5t1 -24.5 l-16 -15q-14 -4 -39 -5t-53.5 -1t-55 1t-43.5 1q6 -61 8.5 -99t-1 -70.5t-12.5 -69.5t-29 -94q135 20 277 38.5t280 6.5q25 -2 36 -21.5t15 -45.5t4 -52.5v-42.5q0 -18 3 -64.5t-2 -90.5t-23.5 -71.5t-61.5 -11.5q-37 0 -134.5 -1t-225.5 -2t-266 -1t-256 1t-197.5 3 t-85.5 8q-6 4 -11.5 49.5t-10.5 99.5t-6 101zM145.5 -129q6.5 23 28.5 29q23 6 48.5 11t49.5 9q8 2 38 -1t65 -6t67.5 -6t49.5 -3h32.5h42t40 -2t30.5 -6q6 -4 13 -8.5t12 -8.5q20 -16 5.5 -27.5t-28.5 -13.5h-37h-86t-111.5 1t-112.5 1t-88 1t-38 1q-27 6 -20.5 29z M741 -133q4 8 17 12q29 8 33.5 -7.5t-9.5 -23.5q-16 -10 -26.5 -7t-14.5 10.5t0 15.5zM753.5 1666q10.5 20 28.5 26q29 8 81 6t106.5 -14.5t100.5 -34t63 -47.5q8 -16 6 -27.5t-10.5 -17t-17.5 -4t-13 13.5q-55 20 -105.5 46.5t-113.5 24.5q-8 0 -24.5 -1l-33 -2t-32 -1 t-21.5 2q-25 10 -14.5 30z" />
<glyph unicode="&#xa4;" horiz-adv-x="1550" d="M76 1163q-6 12 14.5 47t50 74t58 70.5t39.5 36.5q20 8 59 -17.5t79 -61.5t73.5 -73t48.5 -53q55 23 128.5 36t152.5 15t153 -9t127 -38q14 16 49 54t77 75t81 58.5t61 6.5q10 -8 37 -37.5t54.5 -65.5t46 -69.5t14.5 -46.5q-2 -4 -37 -31.5t-78 -61.5t-83 -63.5t-52 -39.5 q12 -51 16 -111.5t1 -122t-13 -122t-27 -109.5q12 -12 56.5 -45t91.5 -70t85 -68.5t38 -37.5q2 -12 -6.5 -27.5t-19.5 -31t-23.5 -29t-18.5 -21.5q-8 -10 -19.5 -26.5t-25.5 -33t-27.5 -30.5t-23.5 -18q-23 -8 -64 19.5t-83 66t-77.5 78.5t-50.5 57q-57 -29 -127.5 -46.5 t-145.5 -22.5t-147 2t-133 30q-14 -16 -48 -51t-72.5 -69t-75.5 -54.5t-58 -5.5q-10 6 -36.5 37.5t-54 68.5t-47 70t-15.5 45q2 4 32.5 28.5t69.5 54t74 56.5t45 33q-18 57 -29.5 126.5t-14.5 141.5t4 140.5t30 125.5q-10 8 -44 34t-71 53.5t-66.5 51t-31.5 27.5zM649 780 q0 -12 1 -30.5t4 -37t9.5 -36t14.5 -25.5q16 -14 52 -17t58 -3q61 0 90 37t36.5 83t-2 90t-23.5 58q-16 16 -55 20.5t-80 -9t-73 -44t-32 -86.5z" />
<glyph unicode="&#xa5;" horiz-adv-x="1441" d="M72 1434q-4 18 6 29.5t26.5 17.5t36 9t31.5 5q92 18 189.5 42t191.5 34q12 2 26.5 0t18.5 -19q18 -74 26.5 -149.5t28.5 -151.5q16 -66 40 -129t59 -123q6 16 19 60.5t29.5 101t36 118.5t38 115.5t34 91.5t25.5 46q8 6 30.5 9t49 3t50 -1t36.5 -1q18 0 55 -2t77 -6 t74.5 -9t47.5 -14q25 -16 22.5 -40.5t-14.5 -47.5q-104 -180 -174 -367.5t-115 -391.5q14 0 43 1t59.5 0t56 -4.5t36.5 -9.5q8 -6 10 -22.5t2 -36t-2 -37.5t0 -29q-6 -10 -39 -14t-72 -4t-74.5 1t-50.5 1q-4 -16 -6 -32.5t-4 -33.5h46h61.5t60.5 -2t41 -6q20 -6 26.5 -14 t6.5 -19.5t-4 -23.5t-4 -25q0 -12 2 -23.5t2 -20.5t-8.5 -14t-28.5 -7q-55 -4 -110.5 -2t-110.5 2q-2 -16 -6.5 -63.5t-11.5 -97.5t-16 -90t-20 -40q-16 0 -63 -1t-109.5 -2t-131 0t-128 2t-100.5 4t-47 9q-14 20 -14 58t6 79t16 79t19 63q-12 0 -45 -1t-70 -2t-66.5 1 t-34.5 8q-2 4 -4 22.5t-3 40t-1 42v26.5q8 8 47 13t86 7.5t90.5 3.5t59.5 1q4 16 10 29.5t12 29.5q-12 0 -58 -1t-95 -2t-90 0t-45 7q-2 4 -4 22.5t-3.5 41t-1.5 43v26.5q18 8 67.5 14.5t107 8.5t110.5 3t78 1l12 35q-76 0 -138 37.5t-111.5 99t-89.5 140.5t-68.5 159 t-50 155.5t-35.5 133.5zM211 1614.5q-2 13.5 8 23.5q6 6 49 17.5t93.5 23t96.5 18.5t58 7q16 0 45 -7t39 -22q12 -16 0 -29.5t-29 -3.5l-20 5q-18 -14 -63.5 -26.5t-97.5 -21t-98 -10.5t-65 6q-14 6 -16 19.5zM414 -123.5q6 12.5 24.5 21t39 11.5t30.5 3q18 0 55 -1t77 -3 t74 -7t44 -14q8 -6 26.5 -5t28.5 -5t9 -18.5t-13 -16.5q-8 -4 -26.5 1t-28.5 -1t-59.5 -7t-107 0t-105.5 5t-56 10q-18 14 -12 26.5zM866 -146.5q-6 17.5 2.5 35t36.5 23.5q18 2 30.5 -6t16.5 -22.5t0 -29t-18 -22.5q-25 -12 -43.5 -4t-24.5 25.5z" />
<glyph unicode="&#xad;" horiz-adv-x="0" />
<glyph unicode="&#xb1;" horiz-adv-x="1118" d="M87 228q1 44 1 61q0 10 3 24.5t18 14.5l18 12q66 14 145.5 20.5t145.5 4.5q14 0 60 -2.5t107.5 -5.5t129 -6t125 -6t96.5 -5t43 -4q12 -6 25 -25q4 -6 6 -45t3 -85t1 -86t-2 -48q-4 -25 -41 -34t-84 -10t-91 3t-65 4q-49 2 -126 3t-161 1t-161.5 -3t-126.5 -9 q-10 -2 -24.5 -4t-22.5 4q-10 6 -14.5 46t-6.5 88t-1 92zM103 1033q1 44 1 61q0 10 3.5 24.5t17.5 14.5q14 10 51 16t80 10t82 6t61 4q0 8 -1 47t-3 82t-2 78v35q8 12 48 16.5t87 5.5t91.5 0t62.5 -1q10 0 23.5 -2.5t13.5 -18.5l12 -18q10 -59 15.5 -120t9.5 -120 q16 -2 52 -2t74 -2t69.5 -4t43.5 -6q20 -8 27.5 -32t8.5 -51.5t-2 -55t-5 -46.5q-4 -25 2 -52.5t2 -51.5q-4 -27 -29 -37q-10 -4 -45.5 -4t-77.5 1t-81.5 2t-53.5 1q-2 -20 -2 -61t-2 -86t-5 -83t-11 -51q-10 -16 -31.5 -21t-46.5 -5t-49.5 2t-38.5 4q-29 4 -58.5 -1 t-58.5 -1t-37 27q-4 12 -5 50t0 82t3 84t2 58q-10 0 -54 -1t-93 -2t-89 -1h-40q-10 6 -14.5 46t-6.5 88t-1 92z" />
<glyph unicode="&#xd7;" horiz-adv-x="1005" d="M70 803q-2 12 22.5 44t56 67.5t63.5 67.5t42 44q8 8 19.5 15.5t21.5 -3.5q16 -2 47 -22.5t64.5 -47t64.5 -52t47 -37.5q6 6 31.5 34.5t53.5 61.5t51 59l24 25q10 2 27 -6q51 -31 104 -82t94 -94q8 -8 15.5 -19.5t-3.5 -21.5q2 -8 -18 -39t-47 -67t-52.5 -67.5 t-33.5 -41.5q12 -12 39.5 -39t57.5 -56.5t51.5 -58.5t21.5 -43q0 -10 -24.5 -42t-55.5 -66.5t-60.5 -65.5t-39.5 -37t-22.5 -8t-22.5 2q-14 6 -42 30.5t-56.5 53t-54.5 55.5t-34 37q-14 -12 -43.5 -44t-63.5 -64.5t-63.5 -58.5t-44.5 -26q-10 0 -42 25t-66.5 55.5t-65.5 59 t-39 39.5q-18 20 -8 47q4 12 29.5 39.5t57.5 59.5l60.5 60.5l40.5 40.5q-12 12 -45.5 42t-68.5 62t-62 58z" />
<glyph unicode="&#xf7;" horiz-adv-x="1044" d="M58 681q1 44 1 60q0 10 3.5 24.5t17.5 14.5q10 12 76.5 19.5t161 9.5t203 1t201.5 -5t159.5 -10.5t76.5 -12.5q16 -10 22.5 -33.5t6.5 -50t-3 -53.5t-5 -43q-4 -25 2 -52.5t2 -51.5q-2 -10 -10 -21.5t-19 -15.5q-10 -4 -45 -4t-76.5 1t-78.5 2t-52 1h-45.5h-80t-100.5 -1 t-109 -1q-129 -2 -287 -4q-10 6 -14.5 45t-6.5 88t-1 93zM342 233q-2 43 17.5 81t48.5 48q23 8 48 10.5t50 2.5q84 2 121 -33t41 -80t-16.5 -86t-49.5 -51q-8 -4 -23.5 -5t-33 -1h-33.5h-27q-76 2 -108.5 36.5t-34.5 77.5zM346 1018q-2 43 17.5 80t48.5 47q20 6 47.5 8 t50.5 2q55 2 90 -14.5t51.5 -42t19.5 -56t-5.5 -58.5t-25 -49.5t-34.5 -27.5t-58 -8t-61 0q-76 6 -107.5 41t-33.5 78z" />
<glyph unicode="&#x2000;" horiz-adv-x="874" />
<glyph unicode="&#x2001;" horiz-adv-x="1748" />
<glyph unicode="&#x2002;" horiz-adv-x="874" />
<glyph unicode="&#x2003;" horiz-adv-x="1748" />
<glyph unicode="&#x2004;" horiz-adv-x="582" />
<glyph unicode="&#x2005;" horiz-adv-x="437" />
<glyph unicode="&#x2006;" horiz-adv-x="291" />
<glyph unicode="&#x2007;" horiz-adv-x="291" />
<glyph unicode="&#x2008;" horiz-adv-x="218" />
<glyph unicode="&#x2009;" horiz-adv-x="349" />
<glyph unicode="&#x200a;" horiz-adv-x="97" />
<glyph unicode="&#x2010;" horiz-adv-x="1046" d="M58 681q1 44 1 60q0 10 3.5 24.5t17.5 14.5q10 12 76.5 19.5t161 9.5t203 1t201.5 -5t159.5 -10.5t76.5 -12.5q16 -10 22.5 -33.5t6.5 -50t-3 -53.5t-5 -43q-4 -25 2 -52.5t2 -51.5q-2 -10 -10 -21.5t-19 -15.5q-10 -4 -45 -4t-76.5 1t-78.5 2t-52 1h-45.5h-80t-100.5 -1 t-109 -1q-129 -2 -287 -4q-10 6 -14.5 45t-6.5 88t-1 93z" />
<glyph unicode="&#x2011;" horiz-adv-x="1046" d="M58 681q1 44 1 60q0 10 3.5 24.5t17.5 14.5q10 12 76.5 19.5t161 9.5t203 1t201.5 -5t159.5 -10.5t76.5 -12.5q16 -10 22.5 -33.5t6.5 -50t-3 -53.5t-5 -43q-4 -25 2 -52.5t2 -51.5q-2 -10 -10 -21.5t-19 -15.5q-10 -4 -45 -4t-76.5 1t-78.5 2t-52 1h-45.5h-80t-100.5 -1 t-109 -1q-129 -2 -287 -4q-10 6 -14.5 45t-6.5 88t-1 93z" />
<glyph unicode="&#x2012;" horiz-adv-x="1046" d="M58 681q1 44 1 60q0 10 3.5 24.5t17.5 14.5q10 12 76.5 19.5t161 9.5t203 1t201.5 -5t159.5 -10.5t76.5 -12.5q16 -10 22.5 -33.5t6.5 -50t-3 -53.5t-5 -43q-4 -25 2 -52.5t2 -51.5q-2 -10 -10 -21.5t-19 -15.5q-10 -4 -45 -4t-76.5 1t-78.5 2t-52 1h-45.5h-80t-100.5 -1 t-109 -1q-129 -2 -287 -4q-10 6 -14.5 45t-6.5 88t-1 93z" />
<glyph unicode="&#x2013;" horiz-adv-x="1140" d="M57 681q1 44 1 60q0 10 4 24.5t20 14.5q11 12 84 19.5t177 9.5t224 1t222 -5t175.5 -10.5t84.5 -12.5q18 -10 25 -33.5t7 -50t-3.5 -53.5t-5.5 -43q-4 -25 2.5 -52.5t2.5 -51.5q-3 -10 -11.5 -21.5t-20.5 -15.5q-11 -4 -50 -4t-84.5 1t-86.5 2t-57 1h-50h-88.5t-111 -1 t-119.5 -1q-142 -2 -316 -4q-11 6 -16 45t-7.5 88t-1.5 93z" />
<glyph unicode="&#x2014;" horiz-adv-x="2163" d="M58 681q2 44 2 60q0 10 7.5 24.5t38.5 14.5q22 12 168.5 19.5t355 9.5t447.5 1t444 -5t351.5 -10.5t168.5 -12.5q35 -10 49.5 -33.5t14.5 -50t-6.5 -53.5t-11.5 -43q-8 -25 5 -52.5t4 -51.5q-4 -10 -21.5 -21.5t-42.5 -15.5q-22 -4 -99 -4t-168.5 1t-173 2t-114.5 1 h-100.5h-176t-221.5 -1t-240 -1q-285 -2 -633 -4q-22 6 -32 45t-14 88t-2 93z" />
<glyph unicode="&#x2018;" horiz-adv-x="405" d="M63 1462q0 20 20.5 25.5t37.5 7.5h45t68.5 -1t64.5 -5t33 -10q6 -10 9 -45t3 -80t-3 -95.5t-8 -94.5t-13.5 -73.5t-18.5 -33.5q-6 -2 -18.5 -4t-27.5 -3t-29.5 -1h-22.5q-12 0 -28.5 -1t-33 1t-30 9t-17.5 21q-6 20 -11 72.5t-10 113t-7.5 116t-2.5 81.5z" />
<glyph unicode="&#x2019;" horiz-adv-x="405" d="M63 1462q0 20 20.5 25.5t37.5 7.5h45t68.5 -1t64.5 -5t33 -10q6 -10 9 -45t3 -80t-3 -95.5t-8 -94.5t-13.5 -73.5t-18.5 -33.5q-6 -2 -18.5 -4t-27.5 -3t-29.5 -1h-22.5q-12 0 -28.5 -1t-33 1t-30 9t-17.5 21q-6 20 -11 72.5t-10 113t-7.5 116t-2.5 81.5z" />
<glyph unicode="&#x201c;" horiz-adv-x="757" d="M63 1460q0 23 20.5 27t37.5 6h45t67.5 -1t64.5 -5t34 -10q6 -12 9 -46t3 -79t-3 -95.5t-8 -94.5t-13.5 -73.5t-18.5 -33.5q-6 -2 -18.5 -4t-27.5 -3t-29.5 -1h-22.5q-12 0 -28.5 -1.5t-33 1t-30 9.5t-17.5 21q-6 20 -11 72.5t-10 113t-7.5 116t-2.5 81.5zM416 1462 q0 20 20.5 25.5t36.5 7.5h45t69 -1t64.5 -5t32.5 -10q6 -10 9 -45t3 -80t-3 -95.5t-9 -93.5t-13 -73.5t-18 -34.5q-4 -2 -17 -4t-28.5 -3t-31 -1h-21.5q-12 0 -29.5 -1t-34 1t-29.5 9t-18 21q-4 16 -9 69.5t-9 116t-7 119t-3 78.5z" />
<glyph unicode="&#x201d;" horiz-adv-x="757" d="M63 1460q0 23 20.5 27t37.5 6h45t67.5 -1t64.5 -5t34 -10q6 -12 9 -46t3 -79t-3 -95.5t-8 -94.5t-13.5 -73.5t-18.5 -33.5q-6 -2 -18.5 -4t-27.5 -3t-29.5 -1h-22.5q-12 0 -28.5 -1.5t-33 1t-30 9.5t-17.5 21q-6 20 -11 72.5t-10 113t-7.5 116t-2.5 81.5zM416 1462 q0 20 20.5 25.5t36.5 7.5h45t69 -1t64.5 -5t32.5 -10q6 -10 9 -45t3 -80t-3 -95.5t-9 -93.5t-13 -73.5t-18 -34.5q-4 -2 -17 -4t-28.5 -3t-31 -1h-21.5q-12 0 -29.5 -1t-34 1t-29.5 9t-18 21q-4 16 -9 69.5t-9 116t-7 119t-3 78.5z" />
<glyph unicode="&#x202f;" horiz-adv-x="349" />
<glyph unicode="&#x205f;" horiz-adv-x="437" />
<glyph unicode="&#x20ac;" horiz-adv-x="1454" d="M71 628.5q1 24.5 5 45t14 22.5q23 6 45.5 7.5t46.5 3.5q-4 31 0 63q-18 0 -38.5 -3t-39.5 1q-12 2 -19 26.5t-8 52t4 51.5t15 24q14 8 48 7t53 3q25 147 83 269t151 205t219 122t286 20q47 -6 94 -18t90 -35q53 -29 95 -70t71 -92q6 -12 25.5 -49t36 -79t24.5 -76.5 t-8 -43.5q-33 -16 -80 -33.5t-98 -35t-101.5 -34.5t-89.5 -32q-6 -4 -14 -6t-14 0q-8 2 -18.5 21.5t-26 44t-35 49t-43 35t-52 2t-63.5 -48.5q-23 -25 -37 -54.5t-24 -60.5q14 -2 59 -1t93 -1t88 -6t46 -17q10 -16 4 -34.5t-6 -34.5q0 -12 4.5 -23.5t-0.5 -23.5 q-4 -12 -48 -16.5t-99 -5.5t-105.5 1t-68.5 2v-63h66.5t100.5 -2t96 -7.5t50 -15.5q10 -16 4 -35.5t-6 -36.5q0 -12 4 -23t0 -24q-4 -12 -43 -16t-89 -4t-96 2t-60 2q35 -117 108.5 -137.5t171.5 45.5q27 18 48.5 51t49.5 45q16 6 62.5 -11.5t98.5 -45t98.5 -54t62.5 -39.5 q18 -14 13 -39.5t-11 -44.5q-41 -127 -135 -207.5t-221 -115.5q-125 -35 -256 -27t-248 64q-68 31 -120 90t-89 130t-61.5 148.5t-36.5 145.5q-8 0 -25.5 -2t-36 -2t-35 2t-20.5 8t-7 28.5t-2 47zM258 1401q0 29 12.5 64.5t36.5 60.5q18 18 39 32.5t45 24.5q49 18 78 37.5 t56.5 36t67.5 28t114 11.5q8 0 29.5 -1t41 -6.5t29.5 -15.5t-4 -28q-6 -6 -52 -17.5t-104.5 -27t-117 -37t-87.5 -47.5q-35 -33 -69.5 -70t-67.5 -72q-23 -25 -35 -13.5t-12 40.5zM829.5 -141.5q-14.5 12.5 12.5 37.5q14 14 51 23t80 15.5t82 8.5t61 2q8 0 24.5 6t35 13 t35 14.5t26.5 11.5q37 12 35 -7.5t-38 -50t-102.5 -59.5t-160.5 -35h-37t-60.5 4t-44 16.5zM871.5 1666q5.5 22 29 35t51 9t33.5 -43q2 -23 -8 -38t-25.5 -21t-30 -1.5t-16.5 27.5q-39 10 -33.5 32z" />
<glyph unicode="&#x2122;" horiz-adv-x="1681" d="M55 1323q-2 37 15 127q12 10 62 14t118.5 4t145.5 -3t141.5 -8t108.5 -11t48 -12q2 -4 -1 -18.5t-6 -32l-6 -35t-3 -23.5q0 -10 2 -22.5t-2 -22.5l-21 -10l-141 2q-12 -127 2 -249t14 -247q0 -10 -9 -13t-17 -3q-66 -4 -133.5 2t-132.5 2q-18 -2 -22.5 14.5t-6.5 30.5 q-10 117 3 236.5t30 236.5q-61 0 -102.5 -7t-63 2t-23.5 46zM100 1509q-10 10 0.5 17.5t18.5 9.5q29 8 55.5 2t54.5 -10q16 -2 34 -1t34 1t17 -9.5t-15 -13.5q-23 -4 -45 -5t-45 -5h-23.5t-33 2t-32 5t-20.5 7zM298 697.5q-11 7.5 1 16.5t36.5 16t47.5 7q4 0 17.5 -2 t27.5 -4t26.5 -4t16.5 -4q10 -4 8 -11t-12 -12q-23 -6 -53.5 -8t-55.5 -2q-49 0 -60 7.5zM336 1516q6 12 20.5 7.5t8.5 -16.5q-8 -16 -23.5 -14t-5.5 23zM500 700.5q2 14.5 18 24.5q2 2 10.5 1t12.5 -6t-0.5 -11.5t-22.5 -14.5q-20 -8 -18 6.5zM705 788q2 23 7 78.5t11 127 t13 150.5t15.5 144.5t14.5 110.5t12 51q10 12 51 16t89.5 2t91.5 -7t55 -11q18 -76 37.5 -148.5t50.5 -144.5q23 53 42 106.5t30 108.5q2 18 7 50t28 38q14 4 54 7t85 3t82 -4t47 -16q6 -6 13 -52t14.5 -112.5t14.5 -144.5t14 -149.5t12.5 -127t7.5 -76.5l-9 -14 q-33 -20 -87 -22t-91 2l-49 4q-12 2 -18.5 50t-7.5 109.5t0 119t1 77.5q-4 -12 -12 -43t-19.5 -64.5t-23.5 -61t-24 -34.5q-18 -10 -56.5 -9t-60.5 1q-20 0 -56 -1t-53 11q-12 8 -23 35t-21.5 58.5t-17.5 61.5t-11 46q0 -84 2 -171t-9 -169q-2 -10 -12 -15t-23.5 -6 t-26.5 -1h-19q-39 -2 -84 -1t-80 21zM715 711q-14 12 3 17t43.5 5t53.5 -2t33 -2q23 0 21.5 -16.5t-23.5 -14.5q-8 0 -28.5 1t-42 2t-39 3.5t-21.5 6.5zM723 1459.5q-2 13.5 6 31.5t37 29q47 16 96 11t96 -7q23 0 28 -16.5t-23 -18.5q-18 0 -49 2t-64 4t-60.5 -1t-41.5 -15 q-6 -31 -14.5 -32t-10.5 12.5zM1026 1497q4 12 12.5 15.5t15.5 1t12 -9.5t1 -13q4 -12 0 -16.5t-11 -2t-16.5 8.5t-13.5 16zM1382 711q-23 8 3 15t63 9t70.5 -3t27.5 -21l-26 -4q-29 -4 -69 -5.5t-69 9.5z" />
<glyph unicode="&#x25fc;" horiz-adv-x="1587" d="M0 0v1587h1587v-1587h-1587z" />
</font>
</defs>
</svg>
