<?xml version="1.0" standalone="no"?>
<!DOCTYPE svg PUBLIC "-//W3C//DTD SVG 1.1//EN" "http://www.w3.org/Graphics/SVG/1.1/DTD/svg11.dtd" >
<svg xmlns="http://www.w3.org/2000/svg" xmlns:xlink="http://www.w3.org/1999/xlink" version="1.1">
<metadata></metadata>
<defs>
<font id="atmalight" horiz-adv-x="1239" >
<font-face units-per-em="2048" ascent="1638" descent="-410" />
<missing-glyph horiz-adv-x="368" />
<glyph horiz-adv-x="0" />
<glyph horiz-adv-x="0" />
<glyph horiz-adv-x="682" />
<glyph unicode="&#xd;" horiz-adv-x="0" />
<glyph unicode=" "  horiz-adv-x="368" />
<glyph unicode="&#x09;" horiz-adv-x="368" />
<glyph unicode="&#xa0;" horiz-adv-x="368" />
<glyph unicode="!" horiz-adv-x="407" d="M123 1370v78t2 43q25 10 42 14t36 4h18t33 -4q-20 -233 -25.5 -499.5t4.5 -593.5q-8 -2 -16 -3t-18 -1q-14 0 -25.5 1t-23.5 5q-14 262 -20.5 480t-6.5 476zM145 68.5q0 31.5 2 62.5q33 4 58.5 4t52.5 -4q2 -33 4 -76t2 -51q-16 -4 -32.5 -5t-30.5 -1q-8 0 -17.5 1 t-36.5 3q-2 35 -2 66.5z" />
<glyph unicode="&#x22;" horiz-adv-x="450" d="M51 1505q14 2 35 4t39 2q10 0 21.5 -2t15.5 -2q4 -102 -1 -208.5t-22 -272.5q-12 -4 -32.5 -5t-43.5 1q2 162 -1 267.5t-11 215.5zM256 1505q14 2 35 4t39 2q10 0 21.5 -2t15.5 -2q4 -102 -1 -208.5t-22 -272.5q-12 -4 -32.5 -5t-43.5 1q2 162 -1 267.5t-11 215.5z" />
<glyph unicode="#" horiz-adv-x="1228" d="M20 438q0 20 2.5 39t10.5 49q76 -18 141.5 -31.5t126.5 -21.5q27 82 47.5 159t36.5 148q-92 12 -176 26.5t-164 33.5q0 29 3 49t9 39q80 -20 167 -35.5t179 -28.5q20 104 36 207t24 199q20 -4 39.5 -12.5t50.5 -22.5q-10 -106 -23.5 -200.5t-29.5 -182.5q90 -8 181 -11 t181 -1q23 106 38 210.5t24 209.5q23 -4 43 -11.5t47 -21.5q-10 -109 -23.5 -203t-29.5 -182q61 2 123.5 7t123.5 11q0 -12 -3 -27.5t-13 -58.5q-109 -10 -158 -13t-92 -5q-18 -90 -39.5 -169t-44.5 -151q88 2 169 7.5t157 13.5q-2 -23 -6 -42.5t-11 -43.5 q-94 -10 -177 -15.5t-161 -7.5q-43 -123 -83.5 -226.5t-83.5 -201.5q-41 8 -58.5 15.5t-34.5 15.5q47 98 87 197.5t75 199.5q-94 2 -184 9.5t-178 19.5q-39 -111 -83 -221.5t-93 -227.5q-35 8 -55.5 15.5t-37.5 17.5q49 100 92.5 207.5t81.5 220.5q-143 27 -182 34t-72 15z M395 459q96 -12 187.5 -17.5t177.5 -5.5q25 80 46 160t38 156q-98 0 -187.5 4t-175.5 12q-16 -74 -37.5 -150.5t-48.5 -158.5z" />
<glyph unicode="$" horiz-adv-x="673" d="M61 1110q0 121 62.5 195.5t175.5 89.5q-10 59 -14 102t-2 74q20 10 42.5 12t55.5 0q-2 -37 -2 -83t4 -105q102 -12 158.5 -84t76.5 -219q-20 -10 -44.5 -16.5t-53.5 -8.5q-16 125 -60 182.5t-122 57.5t-121 -48.5t-43 -136.5q0 -86 44 -161.5t181 -192.5 q152 -133 198 -215t46 -174q0 -121 -69.5 -198t-186.5 -87q4 -78 3 -128t-5 -89q-23 -8 -43 -9t-53 3q10 70 13 120t1 105q-115 18 -177.5 118.5t-62.5 264.5q31 8 60 12.5t53 2.5q-8 -147 41 -229.5t148 -82.5q80 0 122.5 48.5t42.5 136.5q0 78 -42 148.5t-181 193.5 q-150 129 -198 216t-48 185z" />
<glyph unicode="%" horiz-adv-x="1552" d="M82 1071q0 219 89 343t247 124q119 0 186.5 -98.5t67.5 -265.5q0 -252 -81 -389.5t-229 -137.5q-127 0 -203.5 119t-76.5 305zM190 1085q0 -162 52.5 -262t136.5 -100t134 107.5t50 287.5q0 178 -41 261t-129 83q-90 0 -146.5 -103.5t-56.5 -273.5zM281 -8 q213 410 371.5 753.5t365.5 847.5q29 -12 50.5 -23t41.5 -26q-156 -391 -320.5 -745.5t-427.5 -857.5q-12 4 -22 9t-21 13q-8 4 -20 14.5t-18 14.5zM881 403q0 219 89 343t247 124q119 0 186 -98t67 -266q0 -252 -80.5 -389t-228.5 -137q-127 0 -203.5 118.5t-76.5 304.5z M989 418q0 -162 52.5 -262.5t136.5 -100.5t134 108t50 288q0 178 -41 261t-129 83q-90 0 -146.5 -103.5t-56.5 -273.5z" />
<glyph unicode="&#x26;" horiz-adv-x="1523" d="M82 379q0 172 101.5 293t291.5 174q-12 57 -18 116.5t-6 120.5q0 182 78.5 288t215.5 106q106 0 174 -77t68 -200q0 -145 -99.5 -246.5t-289.5 -148.5q47 -176 157.5 -326.5t280.5 -273.5q51 78 79 171t28 195q0 61 -5 109.5t-18 103.5q25 6 54.5 7.5t62.5 -3.5 q8 -53 11 -100t3 -94q0 -131 -31.5 -242.5t-95.5 -204.5q57 -37 127 -72.5t152 -70.5q-10 -25 -31.5 -45t-50.5 -33q-76 31 -142.5 66t-123.5 71q-84 -84 -193.5 -129t-226.5 -45q-252 0 -402.5 136.5t-150.5 353.5zM195 387q0 -186 119.5 -296.5t318.5 -110.5 q94 0 179 35.5t157 105.5q-178 129 -299 294t-176 355q-137 -39 -218 -140.5t-81 -242.5zM563 1081q0 -53 5 -104t14 -103q143 33 217.5 114t74.5 202q0 96 -36.5 148.5t-104.5 52.5q-76 0 -123 -83t-47 -227z" />
<glyph unicode="'" horiz-adv-x="245" d="M51 1505q14 2 35 4t39 2q10 0 21.5 -2t15.5 -2q4 -102 -1 -208.5t-22 -272.5q-12 -4 -32.5 -5t-43.5 1q2 162 -1 267.5t-11 215.5z" />
<glyph unicode="(" horiz-adv-x="677" d="M51 633q0 322 132 575.5t388 423.5q16 -8 34.5 -23t51.5 -50q-244 -147 -368.5 -381t-124.5 -533q0 -293 123 -521t362 -378q-33 -35 -51 -50t-35 -24q-254 176 -383 419t-129 542z" />
<glyph unicode=")" horiz-adv-x="688" d="M20 -254q244 150 374 388.5t130 524.5q0 293 -118.5 528.5t-335.5 373.5q33 35 51 50t35 23q231 -162 356 -411.5t125 -550.5q0 -311 -137.5 -569.5t-393.5 -430.5q-16 8 -34.5 23.5t-51.5 50.5z" />
<glyph unicode="*" horiz-adv-x="874" d="M61 897q53 35 115 67.5t174 86.5q-53 31 -108.5 60.5t-175.5 88.5q12 29 19 44.5t13 25.5q4 8 10.5 16t10.5 12q68 -37 131 -75.5t147 -98.5q0 82 -3 156t-9 166q14 2 34.5 4t39.5 2q10 0 21.5 -2t15.5 -2q2 -66 0 -137.5t-13 -192.5q96 57 155.5 96t117.5 80 q2 -2 19.5 -26.5t23.5 -38.5q4 -8 8 -17.5t6 -13.5q-47 -31 -102.5 -60.5t-190.5 -93.5q74 -43 141.5 -77.5t147.5 -71.5q-12 -29 -19.5 -44t-13.5 -26q-4 -8 -10 -16t-10 -12q-59 31 -119 68.5t-160 109.5q0 -84 3 -159t9 -167q-14 -2 -34.5 -4t-38.5 -2q-10 0 -21.5 2 t-15.5 2q-2 68 1 140.5t13 189.5q-63 -39 -124.5 -78t-149.5 -98q-2 2 -19.5 26.5t-23.5 38.5q-4 8 -8.5 17.5t-6.5 13.5z" />
<glyph unicode="+" horiz-adv-x="698" d="M55 664q0 23 2 42t9 44q66 -8 125 -12.5t116 -4.5q0 53 -3 113.5t-9 130.5q20 4 40.5 4t41.5 -4q6 -51 10 -109.5t6 -134.5q53 0 114.5 3t135.5 9q0 -23 -2 -43t-6 -38q-49 -6 -107.5 -10.5t-134.5 -6.5q-2 -78 -6 -137t-10 -113q-20 -4 -42 -4t-44 6q8 68 12 128.5 t4 119.5q-76 2 -137 6t-115 11z" />
<glyph unicode="," horiz-adv-x="233" d="M-10 -430q39 158 59.5 290.5t26.5 282.5q25 2 52.5 1t59.5 -5q-4 -143 -31.5 -280.5t-88.5 -309.5q-20 4 -39 8.5t-39 12.5z" />
<glyph unicode="-" horiz-adv-x="540" d="M61 545q0 47 2.5 67.5t6.5 40.5q51 -10 120.5 -15t135.5 -5q49 0 87 2t66 6q0 -39 -1 -62.5t-5 -46.5q-129 -12 -234.5 -9t-177.5 22z" />
<glyph unicode="." horiz-adv-x="305" d="M72 135q45 10 84 11t77 -5q-2 -53 -5 -81.5t-7 -57.5q-41 -4 -74.5 -4t-68.5 4q0 10 -1 22.5t-1 32.5l-3 46.5t-1 31.5z" />
<glyph unicode="/" horiz-adv-x="952" d="M-61 -356q172 295 384 738.5t515 1141.5q18 -8 35.5 -18.5t48.5 -30.5q-174 -418 -397.5 -893.5t-485.5 -989.5q-31 10 -54.5 21.5t-45.5 30.5z" />
<glyph unicode="0" horiz-adv-x="1003" d="M82 641q0 350 125 543.5t350 193.5q170 0 267.5 -158.5t97.5 -426.5q0 -406 -111 -620t-317 -214q-182 0 -297 191.5t-115 490.5zM195 657q0 -274 85 -441t226 -167q139 0 221 178.5t82 483.5q0 297 -68.5 437t-212.5 140q-150 0 -241.5 -172t-91.5 -459z" />
<glyph unicode="1" horiz-adv-x="641" d="M51 999q170 100 307.5 204t247.5 216q27 -16 40 -25.5t26 -21.5q-78 -201 -146.5 -600t-107.5 -850q-8 -4 -18.5 -6t-20.5 -4q-8 -2 -19.5 -2h-33.5q8 150 18 259.5t29 250.5q27 219 63.5 421.5t79.5 372.5q-82 -72 -181 -144.5t-222 -149.5q-25 23 -37.5 39t-24.5 40z " />
<glyph unicode="2" horiz-adv-x="753" d="M10 43q2 23 6 45.5t13 42.5q311 238 443 432.5t132 419.5q0 109 -50 174.5t-136 65.5t-149.5 -86t-90.5 -238q-23 0 -50.5 7t-55.5 20q37 184 129 285.5t219 101.5q133 0 215 -94.5t82 -249.5q0 -203 -149.5 -426.5t-436.5 -444.5q147 -29 284.5 -41t317.5 -14 q-2 -27 -10 -52.5t-21 -53.5q-233 20 -396 44.5t-296 61.5z" />
<glyph unicode="3" horiz-adv-x="772" d="M10 1136.5q0 26.5 4 55.5q201 37 375 56.5t340 21.5q2 -18 3 -39t-1 -45q-68 -125 -152.5 -221.5t-213.5 -196.5q199 -35 303 -151t104 -302q0 -197 -95 -314.5t-249 -117.5t-253 126t-109 347q23 8 49 13.5t59 9.5q0 -193 67.5 -298.5t184.5 -105.5q111 0 172 81t61 227 q0 209 -117.5 314t-332.5 87q-6 37 -7 50.5t-1 23.5q141 90 243.5 189.5t184.5 230.5q-219 -18 -353.5 -40t-259.5 -57q-6 29 -6 55.5z" />
<glyph unicode="4" horiz-adv-x="978" d="M41 459q190 272 304 507.5t218 573.5q27 -4 55.5 -13t61.5 -26q-104 -293 -232.5 -549t-281.5 -483q111 -25 199 -40t170 -26q8 121 21 225.5t32 198.5q12 6 26.5 9.5t30.5 5.5t32.5 1t29.5 -5q-25 -88 -42.5 -201t-27.5 -244q76 -6 162 -11t190 -9q-2 -27 -8 -51.5 t-16 -47.5q-119 6 -195 11.5t-141 11.5q-4 -86 -6 -182.5t-2 -200.5q-10 0 -21.5 1t-28.5 3q-10 2 -19 4t-20 6q-2 96 -3 137t-1 76v105t2 63q-100 12 -209.5 29.5t-244.5 42.5q-10 18 -19.5 36.5t-15.5 41.5z" />
<glyph unicode="5" horiz-adv-x="765" d="M10 406q16 0 57.5 -4.5t53.5 -6.5q0 -186 64.5 -282.5t187.5 -96.5q111 0 169 89.5t58 259.5q0 168 -74.5 265t-208.5 97q-39 0 -76.5 -9t-70.5 -26q-18 12 -30.5 25.5t-22.5 30.5q-4 43 -5 77.5t-1 71.5q0 119 12 242t31 213q193 -43 325.5 -59.5t306.5 -20.5 q-2 -27 -11 -55.5t-21 -57.5q-164 16 -278 33.5t-238 46.5q-23 -127 -31 -242.5t-2 -212.5q31 14 70.5 22.5t80.5 8.5q166 0 261.5 -116.5t95.5 -323.5q0 -201 -94.5 -326t-243.5 -125q-162 0 -257 126t-108 356z" />
<glyph unicode="6" horiz-adv-x="915" d="M82 600q0 387 123 601t342 214q133 0 208.5 -93t102.5 -288q-27 -12 -53.5 -20t-56.5 -15q-16 168 -68.5 247t-147.5 79q-147 0 -242 -193.5t-95 -513.5v-45t2 -26q55 111 138 169t187 58q152 0 247 -108.5t95 -274.5q0 -221 -105.5 -357t-281.5 -136q-182 0 -288.5 189 t-106.5 513zM211 387q29 -188 101.5 -293.5t176.5 -105.5q113 0 188 102.5t75 245.5q0 164 -67 256t-183 92q-92 0 -169 -79t-122 -218z" />
<glyph unicode="7" horiz-adv-x="716" d="M-31 1280q0 23 3 48.5t12 53.5q229 -37 377.5 -46t343.5 1q16 -20 26.5 -37.5t16.5 -33.5q-246 -367 -375 -632t-256 -648q-33 0 -58.5 4t-54.5 14q135 365 284.5 664t336.5 577q-215 -6 -353.5 2t-302.5 33z" />
<glyph unicode="8" horiz-adv-x="866" d="M72 348q0 123 52 228.5t144 164.5q-80 45 -128 132.5t-48 191.5q0 193 97.5 304.5t263.5 111.5q135 0 228 -95.5t93 -238.5q0 -133 -42 -228.5t-124 -148.5q88 -45 142.5 -129t54.5 -180q0 -207 -112.5 -340t-284.5 -133q-143 0 -239.5 103.5t-96.5 256.5zM184 371 q0 -137 63.5 -215t172.5 -78q117 0 194.5 103.5t77.5 260.5q0 117 -66.5 193t-176.5 76q-109 0 -187 -97.5t-78 -242.5zM205 1077q0 -125 61.5 -201.5t167.5 -76.5q6 0 15.5 1t13.5 1q90 12 144.5 93t54.5 204q0 139 -60 216t-166 77q-100 0 -165.5 -89.5t-65.5 -224.5z" />
<glyph unicode="9" horiz-adv-x="952" d="M72 113q16 29 32.5 50t36.5 44q45 -92 106.5 -136t143.5 -44q156 0 266.5 212t110.5 513q-59 -98 -143 -151.5t-185 -53.5q-145 0 -243.5 117.5t-98.5 289.5q0 219 107.5 360.5t271.5 141.5q188 0 296 -179.5t108 -494.5q0 -358 -144.5 -601.5t-361.5 -243.5 q-90 0 -164 43t-139 133zM211 983q0 -164 66.5 -255t183.5 -91q102 0 182 89t113 239q-25 193 -98.5 297t-184.5 104q-113 0 -187.5 -108.5t-74.5 -274.5z" />
<glyph unicode=":" horiz-adv-x="305" d="M72 135q45 10 84 11t77 -5q-2 -53 -5 -81.5t-7 -57.5q-41 -4 -74.5 -4t-68.5 4q0 10 -1 22.5t-1 32.5l-3 46.5t-1 31.5zM72 1108q23 4 47 7t51 3q25 0 38 -1t25 -3q-2 -53 -5 -81.5t-7 -57.5q-41 -4 -74.5 -4t-68.5 4q0 10 -1 22.5t-1 32.5l-3 46.5t-1 31.5z" />
<glyph unicode=";" horiz-adv-x="305" d="M0 -430q49 190 67.5 315t18.5 258q25 2 54.5 1t62.5 -5q4 -141 -28 -280.5t-103 -309.5q-14 2 -29.5 6.5t-42.5 14.5zM72 1108q23 4 47 7t51 3q25 0 38 -1t25 -3q-2 -53 -5 -81.5t-7 -57.5q-41 -4 -74.5 -4t-68.5 4q0 10 -1 22.5t-1 32.5l-3 46.5t-1 31.5z" />
<glyph unicode="&#x3c;" horiz-adv-x="696" d="M63 659l7 72q117 84 240.5 150.5t299.5 138.5q4 -12 13.5 -35.5t13.5 -40.5q-141 -61 -255 -121.5t-218 -130.5q78 -57 187.5 -114.5t279.5 -131.5q-2 -18 -8.5 -36.5t-18.5 -38.5q-174 68 -304 137.5t-237 150.5z" />
<glyph unicode="=" horiz-adv-x="698" d="M45 489q0 23 2 42.5t8 43.5q139 -16 270.5 -17t307.5 13q0 -23 -2 -43t-6 -39q-139 -16 -287 -16t-293 16zM66 735q0 23 2 42.5t8 43.5q139 -16 270 -17t307 13q0 -23 -2 -43t-6 -39q-139 -16 -286.5 -16t-292.5 16z" />
<glyph unicode="&#x3e;" horiz-adv-x="696" d="M61 449q141 61 255 121.5t219 129.5q-78 57 -187.5 114.5t-279.5 131.5q2 18 8 36.5t18 39.5q174 -68 304 -137.5t237 -151.5l-6 -71q-115 -82 -239 -148.5t-302 -142.5q-4 10 -13 34.5t-14 43.5z" />
<glyph unicode="?" horiz-adv-x="722" d="M31 1116q14 225 96 336t235 111q135 0 217.5 -105.5t82.5 -279.5q0 -156 -79.5 -272t-220.5 -167v-329q-18 -2 -37.5 -2t-37.5 2q0 4 -12.5 148t-14.5 237q141 35 215 130t74 244q0 137 -54.5 220.5t-144.5 83.5q-104 0 -160.5 -97.5t-56.5 -273.5q-25 0 -50.5 4 t-51.5 10zM279 68.5q0 31.5 2 62.5q33 4 58 4t52 -4q2 -33 4 -76t2 -51q-16 -4 -32.5 -5t-30.5 -1q-8 0 -17.5 1t-35.5 3q-2 35 -2 66.5z" />
<glyph unicode="@" horiz-adv-x="1792" d="M92 598q0 401 221.5 636.5t599.5 235.5q344 0 540 -204.5t196 -538.5q0 -246 -108.5 -399.5t-276.5 -153.5q-94 0 -155.5 52.5t-86.5 152.5q-37 -92 -92.5 -137t-134.5 -45q-121 0 -198 112.5t-77 294.5q0 221 98.5 354.5t258.5 133.5q29 0 60.5 -5.5t61.5 -15.5v27.5 v27.5q27 12 61 14.5t68 -5.5q-12 -166 -17 -283t-5 -213q0 -199 37 -287t123 -88q119 0 194.5 129t75.5 338q0 291 -174 470t-473 179q-305 0 -494.5 -207.5t-189.5 -547.5q0 -334 176 -529.5t477 -195.5q123 0 217 28.5t166 89.5q14 -14 25.5 -28.5t31.5 -57.5 q-98 -59 -214.5 -90.5t-241.5 -31.5q-334 0 -542 217t-208 571zM633 623q0 -158 44 -247t122 -89q72 0 124 61.5t83 179.5v2q0 33 -1 84.5t-4 171.5q0 82 -1 123t-1 76q-20 8 -46.5 12t-59.5 4q-115 0 -187.5 -104t-72.5 -274z" />
<glyph unicode="A" d="M51 16q188 330 303 640.5t219 787.5q68 -6 89.5 -8t39.5 -6q209 -416 313.5 -763t176.5 -841q-25 -14 -50.5 -22.5t-64.5 -14.5q-33 217 -64.5 384t-66.5 304h-53q-121 0 -239 -7q-144 -9 -271 -30q-43 -109 -98.5 -226.5t-126.5 -254.5q-29 6 -51.5 17.5t-55.5 39.5z M420 535q113 16 242 26t262 12q-55 197 -121 370.5t-160 359.5q-53 -236 -105.5 -417t-117.5 -351z" />
<glyph unicode="B" horiz-adv-x="1150" d="M145 1360v84q78 35 166 53.5t181 18.5q221 0 345 -88.5t124 -245.5q0 -109 -62.5 -191t-185.5 -137q172 -20 261 -103.5t89 -222.5q0 -236 -184.5 -402.5t-450.5 -166.5q-72 0 -142.5 18.5t-113.5 47.5q-14 401 -19.5 619t-5.5 458v52.5v86.5q-2 76 -2 119zM260 723 q2 -35 2 -73v-107q0 -145 3 -250t11 -207q39 -16 82 -25.5t88 -9.5q203 0 348.5 133t145.5 314q0 145 -84 214.5t-254 69.5q-78 0 -175 -17t-167 -42zM260 825q301 25 439.5 106.5t138.5 239.5q0 121 -86 187.5t-246 66.5q-59 0 -117.5 -8t-112.5 -24q-10 -133 -14 -271 q-3 -92 -3 -194q0 -50 1 -103z" />
<glyph unicode="C" horiz-adv-x="1095" d="M98 584q0 375 148.5 605t392.5 230q174 -1 254 -115q71 -102 71 -302q0 -25 -1 -52q-18 -14 -52 -22q-27 -6 -55 -6h-14q4 51 4 94q0 142 -40 214q-52 93 -188 93q-96 0 -181 -72.5t-140 -203.5q-37 -90 -56.5 -201t-19.5 -240q0 -281 87 -431t251 -150q147 1 228 115 q77 109 77 293v18q31 0 52.5 -4.5t50.5 -16.5q-12 -246 -118 -374t-296 -128q-217 0 -336 171t-119 485z" />
<glyph unicode="D" horiz-adv-x="1159" d="M139 1040q0 86 2 181.5t4 167.5q78 41 169.5 60t195.5 19q272 0 415.5 -143.5t143.5 -413.5q0 -313 -214 -564t-587 -372l-7 1t-30 6q-39 4 -51 6t-14 2q-14 301 -20.5 541.5t-6.5 508.5zM256 483q0 -135 2 -229t6 -182q336 125 508 339t172 507q0 223 -117.5 338.5 t-347.5 115.5q-57 0 -107.5 -9.5t-97.5 -27.5q-10 -164 -14 -299t-4 -553z" />
<glyph unicode="E" horiz-adv-x="1034" d="M119 1419q274 47 436 64.5t346 21.5q2 -27 0 -50t-6 -46q-168 -2 -326.5 -17.5t-326.5 -45.5q-1 -43 -1 -85q0 -105 4 -203q5 -138 17 -288q274 43 361.5 54.5t175.5 19.5q6 -25 8 -47.5t0 -44.5q-156 -12 -268.5 -26.5t-268.5 -43.5q16 -172 38 -343t46 -331 q195 6 326 21.5t264 44.5q6 -23 7 -53t-3 -50q-176 -25 -330.5 -37t-359.5 -18q-59 403 -97 805.5t-42 697.5z" />
<glyph unicode="F" horiz-adv-x="1017" d="M119 1481q238 18 405.5 40.5t374.5 63.5q6 -12 9 -24.5t5 -22.5q2 -14 3.5 -27.5t-1.5 -29.5q-219 -39 -365.5 -58.5t-299.5 -29.5q20 -145 32.5 -278.5t18.5 -258.5q106 18 222 32.5t259 24.5q6 -25 8.5 -47t2.5 -47q-111 -6 -234 -19.5t-252 -33.5v-20.5t1 -30.5v-30.5 v-18.5q10 -384 12 -528q0 -48 1 -96q0 -97 -2 -194q-25 -4 -56.5 -6t-51.5 0q3 151 3 293q0 319 -16 590q-22 391 -79 756z" />
<glyph unicode="G" horiz-adv-x="1138" d="M98 627q0 385 140.5 620.5t371.5 235.5q160 0 250 -131q86 -125 86 -334v-19q-25 -8 -54.5 -12t-66.5 -8q-2 201 -64.5 304t-180.5 103q-156 0 -257.5 -204.5t-101.5 -519.5q0 -287 77 -447t208 -160q119 0 205 94.5t135 276.5q-8 57 -14.5 123.5t-12.5 148.5 q33 6 69.5 10.5t67.5 4.5q-1 -26 -1 -51q0 -172 24 -332q27 -183 86 -377q-14 -4 -39 -7t-53 -5q-29 72 -52.5 148.5t-41.5 160.5q-70 -150 -164 -221.5t-223 -71.5q-180 0 -287 179t-107 491z" />
<glyph unicode="H" horiz-adv-x="1206" d="M139 1452q14 4 34 7t40 3q18 0 32.5 -2t30.5 -6q-10 -117 -15 -298q-4 -129 -4 -273q0 -57 1 -117q150 27 309.5 39t347.5 14q-6 217 -15 396.5t-19 291.5q27 8 42 10.5t31 2.5q14 0 26.5 -3.5t20.5 -7.5q18 -375 30.5 -838.5t12.5 -783.5q-23 0 -54.5 5.5t-59.5 11.5 q0 160 -3 381t-9 436q-199 0 -359 -9.5t-299 -29.5q2 -178 7 -349t16 -308q-25 -6 -53.5 -8.5t-53.5 -0.5q-18 344 -27.5 693.5t-9.5 742.5z" />
<glyph unicode="I" horiz-adv-x="448" d="M141 1372q20 10 41 14.5t43 4.5q8 0 17.5 -1t23.5 -4q6 -88 10 -179t3 -222q0 -565 -3.5 -715.5t-7.5 -314.5q-14 -4 -39.5 -7t-58.5 -5q3 180 3 354q0 203 -4 397q-7 360 -28 678z" />
<glyph unicode="J" horiz-adv-x="911" d="M78 336q20 12 44.5 20.5t65.5 18.5q31 -252 79 -355.5t143 -103.5q104 0 156 139.5t52 419.5q0 213 -14 434t-51 547q14 8 31.5 14.5t38.5 8.5q14 2 31.5 4t33.5 2q27 -250 40 -454t13 -372q0 -197 -14 -335t-43 -236q-41 -133 -111.5 -200.5t-169.5 -67.5 q-133 0 -216 131t-109 385z" />
<glyph unicode="K" horiz-adv-x="1120" d="M139 901q0 102 5.5 232.5t17.5 300.5q27 4 45 6t33 2q16 0 32.5 -2t32.5 -6q-25 -160 -36 -322t-11 -410v-70.5v-72.5q227 201 350 363.5t273 472.5q23 -10 45 -29.5t45 -46.5q-123 -227 -231.5 -374.5t-252.5 -282.5q184 -170 300.5 -313.5t304.5 -430.5 q-23 -29 -42.5 -46t-43.5 -32q-147 250 -273.5 410t-318.5 344q-16 -14 -55.5 -46t-98.5 -81q4 -154 14.5 -289t32.5 -309q-55 -8 -72.5 -9t-29.5 -1q-37 299 -51.5 523t-14.5 519z" />
<glyph unicode="L" horiz-adv-x="964" d="M156 1364q23 10 41 13t45 3q10 0 23.5 -1t21.5 -3q-10 -114 -14 -240q-2 -80 -2 -193q0 -64 1 -140q4 -248 19.5 -457t48.5 -434q147 20 302 31t294 12q4 -23 6 -53.5t2 -48.5q-188 -2 -345 -12.5t-353 -39.5q-55 416 -78 806q-16 264 -16 517q0 121 4 240z" />
<glyph unicode="M" horiz-adv-x="1482" d="M162 1499q33 16 61.5 27.5t55.5 17.5q145 -209 265 -469t199 -536q74 244 184.5 489.5t268.5 515.5q33 -6 62.5 -15t56.5 -22q11 -251 11 -607v-60q-1 -395 -19 -940q-27 -10 -56.5 -14.5t-60.5 -4.5q20 346 26 675q3 171 4 381q0 193 -3 419q-131 -215 -234.5 -454.5 t-198.5 -543.5q-18 -8 -39.5 -11t-42.5 -1q-86 295 -190 531.5t-246 461.5q-2 -35 -4 -104.5t-2 -175.5q0 -231 24.5 -496.5t73.5 -554.5q-27 -10 -55.5 -14t-54.5 -2q-55 336 -79 740q-14 237 -14 459q0 158 7 308z" />
<glyph unicode="N" horiz-adv-x="1261" d="M141 1397q55 25 79 32t59 13q231 -295 397 -578.5t307 -617.5q4 76 6 173t2 304q0 293 -8 490.5t-27 312.5q33 10 64 16t65 8q8 -131 11.5 -231t3.5 -195q0 -340 -10.5 -573.5t-32.5 -503.5q-16 -4 -37 -6t-55 -4q-156 358 -335 669.5t-368 546.5q-1 -40 -1 -88 q0 -95 3 -221q4 -188 4 -207q2 -125 10.5 -280.5t34.5 -526.5q-23 -4 -46 -7t-50 -5q-43 496 -59.5 815.5t-16.5 663.5z" />
<glyph unicode="O" horiz-adv-x="1210" d="M98 700q0 348 155.5 574.5t399.5 226.5q223 0 339 -180t116 -526q0 -354 -147.5 -595t-399.5 -241q-205 0 -334 208t-129 533zM223 719q0 -287 92 -475.5t250 -188.5q193 0 306.5 202t113.5 515q0 322 -84 476.5t-262 154.5q-180 0 -298 -191.5t-118 -492.5z" />
<glyph unicode="P" horiz-adv-x="1097" d="M141 1102q0 78 4.5 190.5t10.5 184.5q102 23 182 33t158 10q250 0 386 -105.5t136 -294.5q0 -209 -184.5 -362.5t-581.5 -272.5q2 -137 11 -281.5t28 -342.5q-16 -4 -52 -3t-51 5q-27 330 -37 569.5t-10 669.5zM252 584q319 86 481 218t162 308q0 156 -99.5 238 t-289.5 82q-59 0 -113.5 -7.5t-109.5 -23.5q-16 -176 -23.5 -334t-7.5 -334v-73.5v-73.5z" />
<glyph unicode="Q" horiz-adv-x="1187" d="M90 569q0 356 155.5 582.5t405.5 226.5q211 0 323.5 -170t112.5 -477q0 -170 -39.5 -321.5t-113.5 -262.5q37 -41 83 -95t146 -175q-18 -27 -38.5 -48.5t-43.5 -35.5q-72 100 -120 163.5t-91 111.5q-70 -74 -153.5 -112t-179.5 -38q-199 0 -323 177t-124 474zM213 588 q0 -266 87 -420t239 -154q76 0 143.5 33t120.5 96q-41 43 -88 85t-111 94q2 2 20.5 29.5t32.5 37.5q72 -55 117 -92t82 -74q53 92 81 216t28 270q0 283 -83 427t-245 144q-188 0 -306 -191.5t-118 -500.5z" />
<glyph unicode="R" horiz-adv-x="1124" d="M141 1448q88 61 199 95t221 34q190 0 304 -104.5t114 -276.5q0 -158 -77 -276.5t-234 -206.5q96 -117 199.5 -297t207.5 -416q-12 -12 -47 -28.5t-57 -20.5q-109 248 -196 404.5t-202 312.5q-66 -29 -134 -52.5t-140 -42.5q-6 -164 -14.5 -307t-20.5 -276q-20 -4 -51 -3 t-45 7q12 242 15 331t3 183q0 358 -9 529t-36 411zM272 1411q16 -184 22.5 -322.5t6.5 -279.5v-69.5v-69.5q283 68 420 190.5t137 306.5q0 154 -79 235t-226 81q-76 0 -149 -18.5t-132 -53.5z" />
<glyph unicode="S" horiz-adv-x="944" d="M78 469q25 14 55.5 23.5t63.5 11.5v-12q1 -222 75 -348q76 -130 217 -130q109 0 175.5 74t66.5 193q0 72 -18.5 133t-57.5 112q-27 37 -65.5 74t-126.5 100q-98 74 -143.5 118t-73.5 89q-41 61 -60.5 132t-19.5 157q0 174 93 274.5t251 100.5q147 0 227 -86t119 -301 q-23 -12 -48.5 -18.5t-64.5 -8.5q-20 168 -75.5 243t-163.5 75q-104 0 -159.5 -70t-55.5 -203q0 -74 18.5 -135t57.5 -115q29 -37 67.5 -73.5t126.5 -104.5q98 -72 142 -115t73 -88q41 -59 60.5 -129.5t19.5 -154.5q0 -164 -101.5 -266.5t-260.5 -102.5q-199 0 -306.5 148.5 t-107.5 402.5z" />
<glyph unicode="T" horiz-adv-x="1212" d="M51 1474.5q-2 28.5 0 49.5q326 51 560.5 71.5t525.5 24.5q6 -12 9 -25.5t5 -29.5q2 -12 1 -29.5t-1 -19.5q-141 -2 -256 -7.5t-221 -13.5q33 -311 47 -559t14 -508q0 -86 -1 -175t-5 -185q-14 -6 -46 -10.5t-67 -6.5q5 132 5 269q0 218 -12 450q-19 379 -64 713 q-94 -10 -207 -24.5t-279 -39.5q-6 27 -8 55.5z" />
<glyph unicode="U" horiz-adv-x="1101" d="M119 561q0 186 29.5 390t72.5 339q12 4 33.5 6t40.5 2q10 0 20.5 -1t24.5 -3q-47 -188 -71.5 -363t-24.5 -331q0 -354 59 -508.5t201 -154.5q164 0 254 186t90 524q0 213 -22.5 388t-77.5 386q29 8 57 13.5t69 9.5q49 -184 73 -358.5t24 -342.5q0 -461 -120 -684 t-370 -223q-184 0 -273 179.5t-89 545.5z" />
<glyph unicode="V" horiz-adv-x="1124" d="M53 1260q35 16 60.5 24t56.5 12q39 -340 123 -672.5t219 -672.5q186 442 273 793.5t128 811.5q29 2 54.5 -2t62.5 -16q-53 -504 -152.5 -861.5t-332.5 -860.5q-25 -6 -44.5 -8.5t-45.5 -2.5q-150 338 -248 697.5t-154 757.5z" />
<glyph unicode="W" horiz-adv-x="1464" d="M41 1352q29 10 56.5 16t62.5 8q20 -317 79.5 -616t180.5 -692q123 354 174 566t76 445q25 6 52.5 10.5t55.5 8.5q12 -276 53 -512t127 -514q145 369 225.5 690t119.5 692q29 0 58.5 -7t57.5 -24q-61 -444 -154.5 -771.5t-263.5 -712.5q-29 -6 -51 -9.5t-49 -5.5 q-86 266 -128.5 434t-65.5 320q-43 -197 -105.5 -385.5t-152.5 -401.5q-29 -8 -48.5 -12t-33.5 -6q-156 487 -223.5 795.5t-102.5 683.5z" />
<glyph unicode="X" horiz-adv-x="1312" d="M41 113q190 201 336.5 370.5t275.5 339.5q-106 176 -225 333t-278 327q33 29 60.5 47t57.5 31q154 -184 264.5 -338t200.5 -308q109 150 201 296.5t174 297.5q25 -12 48.5 -33.5t43.5 -48.5q-88 -147 -188.5 -294.5t-223.5 -311.5q84 -154 172 -340t205 -465 q-18 -20 -40.5 -36.5t-47.5 -28.5q-106 250 -196 438.5t-174 341.5q-150 -190 -296.5 -356t-304.5 -328q-20 14 -37.5 30.5t-27.5 35.5z" />
<glyph unicode="Y" horiz-adv-x="1032" d="M37 1454q35 14 66.5 23.5t64.5 11.5q55 -274 147.5 -512t237.5 -475q88 203 152.5 436t111.5 522q35 -8 68.5 -20.5t66.5 -28.5q-160 -631 -305 -964.5t-352 -610.5q-27 8 -51.5 18.5t-46.5 24.5q92 129 167.5 254t135.5 252q-164 227 -270.5 471t-192.5 598z" />
<glyph unicode="Z" horiz-adv-x="1198" d="M55 10q-2 29 0 53.5t6 45.5q332 348 565.5 643t370.5 536q-219 20 -409.5 46t-384.5 61q2 31 11 59.5t28 54.5q168 -35 341 -64.5t556 -84.5q0 -2 -1 -9.5t-5 -31.5q-6 -27 -7.5 -34t-1.5 -9q-172 -274 -401 -560t-551 -630q240 -29 465 -36q75 -2 147 -2q144 0 277 9 q-2 -29 -10.5 -59.5t-24.5 -67.5q-248 2 -500 22.5t-471 57.5z" />
<glyph unicode="[" horiz-adv-x="698" d="M125 1542q92 25 194.5 40t219.5 24q2 -20 2 -44t-2 -49q-111 -8 -177.5 -15t-113.5 -17q-12 -461 11.5 -829.5t90.5 -854.5q78 0 164 7.5t160 19.5q2 -20 4 -45t2 -47q-92 -14 -198.5 -19.5t-223.5 -3.5q-70 477 -102.5 918.5t-30.5 914.5z" />
<glyph unicode="\" horiz-adv-x="952" d="M31 1477q174 -418 397 -893t485 -990q31 10 54.5 21.5t46.5 30.5q-172 295 -384 738.5t-515 1141.5q-18 -8 -36 -18.5t-48 -30.5z" />
<glyph unicode="]" horiz-adv-x="641" d="M20 1624q92 14 198.5 19.5t223.5 3.5q47 -274 54.5 -774t-27.5 -1051q-94 -20 -195.5 -33.5t-218.5 -21.5q-2 20 -2 43.5t2 48.5q96 4 177 13t130 22q35 416 29 836.5t-51 830.5q-70 0 -150.5 -7.5t-162.5 -21.5l-4.5 45t-2.5 47z" />
<glyph unicode="^" horiz-adv-x="772" d="M61 473q68 174 137.5 304t151.5 237l72 -6q84 -117 150.5 -241t138.5 -300q-12 -4 -36 -13.5t-40 -13.5q-61 141 -121.5 255t-130.5 218q-57 -78 -114.5 -187.5t-131.5 -279.5q-18 2 -36.5 8.5t-39.5 18.5z" />
<glyph unicode="_" horiz-adv-x="737" d="M61 -176q2 37 4.5 56t6.5 36q102 -16 201.5 -24.5t213.5 -8.5q59 0 126 3t145 9q0 -18 -2 -39.5t-8 -50.5q-180 -16 -347.5 -11t-339.5 30z" />
<glyph unicode="`" horiz-adv-x="532" d="M152 1532q25 6 60.5 8t66.5 -2q6 -78 26.5 -161t56.5 -189q-20 -6 -40.5 -9t-42.5 -5q-53 94 -85 182t-42 176z" />
<glyph unicode="a" horiz-adv-x="890" d="M57 283q0 131 113 199.5t328 68.5q29 0 58.5 -1t86.5 -3q2 25 2 54.5v96.5q0 160 -43 230.5t-143 70.5t-169 -86t-73 -217q-45 10 -70.5 23.5t-42.5 36.5q23 139 130.5 237.5t242.5 98.5q143 0 216 -100.5t73 -299.5q0 -137 -37 -359t-88 -403q-23 0 -48.5 5.5 t-51.5 15.5q8 33 19 82t13 55q-43 -35 -98 -53.5t-117 -18.5q-135 0 -218 74t-83 193zM176 283q0 -80 53.5 -128.5t139.5 -48.5q63 0 121.5 19.5t105.5 56.5q20 96 29.5 163t13.5 130q-52 3 -98 3q-157 0 -248 -36q-117 -48 -117 -159z" />
<glyph unicode="b" horiz-adv-x="874" d="M115 621q0 246 10 484t29 372q18 6 35.5 8t41.5 2q8 0 16.5 -1t41.5 -7q-20 -125 -35.5 -276.5t-26.5 -317.5q53 84 124 125t159 41q137 0 209 -108.5t72 -315.5q0 -315 -122 -501.5t-327 -186.5q-66 0 -119 22.5t-98 67.5q-4 76 -7 175t-3 417zM213 479q0 -168 1 -268 t3 -133q29 -25 59.5 -36t73.5 -11q154 0 237 156.5t83 437.5q0 166 -50.5 249.5t-148.5 83.5q-72 0 -141.5 -72.5t-112.5 -197.5q-2 -104 -3 -141t-1 -68z" />
<glyph unicode="c" horiz-adv-x="835" d="M57 406q0 305 115 503.5t291 198.5q135 0 211 -94t76 -260q-29 -14 -58.5 -20.5t-62.5 -6.5q0 143 -41 216t-121 73q-123 0 -211 -182.5t-88 -417.5q0 -176 60.5 -276.5t170.5 -100.5q82 0 150.5 66.5t118.5 193.5q25 -10 44 -22.5t33 -30.5q-33 -125 -137 -212t-225 -87 q-158 0 -242 119.5t-84 339.5z" />
<glyph unicode="d" horiz-adv-x="894" d="M70 483q0 264 115.5 421t312.5 157q35 0 74.5 -5t72.5 -16q-2 195 -3 280t-1 153q14 8 32.5 12t35.5 4q16 0 31.5 -2t29.5 -6q-8 -111 -12 -303.5t-4 -917.5q0 -98 1 -170t5 -164q-16 -6 -40 -9t-42 -3q-2 51 -5 119.5t-7 154.5q-37 -127 -100.5 -188t-159.5 -61 q-154 0 -245 150.5t-91 393.5zM182 502q0 -225 60.5 -349t167.5 -124q100 0 163.5 109.5t81.5 320.5q-2 43 -3 95t-3 159q0 100 -1 149t-3 92q-25 8 -57.5 12.5t-73.5 4.5q-150 0 -241 -125t-91 -344z" />
<glyph unicode="e" horiz-adv-x="851" d="M63 461q0 233 128 422.5t309 189.5q113 0 177 -74.5t64 -203.5q0 -72 -13 -141.5t-38 -131.5q-39 -12 -92 -18t-127 -6q-72 0 -145.5 13t-143.5 38q-4 -25 -5 -48.5t-1 -47.5q0 -170 60.5 -275.5t162.5 -105.5q90 0 177 78.5t118 191.5q25 -4 50.5 -18.5t43.5 -34.5 q-37 -119 -153.5 -214t-233.5 -95q-158 0 -248 131t-90 350zM199 633q63 -27 137 -39t170 -12q25 0 52.5 3t39.5 7q14 59 22.5 110.5t8.5 94.5q0 98 -33 140t-107 42q-94 0 -173.5 -96t-116.5 -250z" />
<glyph unicode="f" horiz-adv-x="747" d="M70 834q0 25 3 45t9 26q18 -4 43 -7t72 -7q8 311 74.5 454.5t205.5 143.5q100 0 158.5 -69.5t58.5 -182.5q0 -33 -8 -70t-18 -57q-27 0 -51.5 5t-47.5 13q10 35 15.5 65t5.5 58q0 66 -31 106t-82 40q-84 0 -130 -124t-46 -355v-17.5v-19.5q61 -2 98 -3t70 -1q35 0 69.5 3 t69.5 9q0 -18 -3 -44t-7 -54q-23 -4 -57.5 -6.5t-81.5 -2.5q-45 0 -84 2.5t-72 6.5q4 -236 26.5 -438.5t61.5 -370.5q-37 -12 -64.5 -18.5t-50.5 -6.5q-27 123 -52 379t-27 467q-37 6 -70 13t-57 18z" />
<glyph unicode="g" horiz-adv-x="880" d="M68 -178q29 18 56.5 30.5t53.5 20.5q23 -152 72 -219.5t135 -67.5q113 0 178.5 158t75.5 461q-41 -100 -95.5 -148.5t-129.5 -48.5q-147 0 -234.5 139.5t-87.5 378.5q0 240 103.5 382.5t275.5 142.5q55 0 110.5 -14.5t104.5 -41.5q31 -135 50.5 -314t19.5 -335 q0 -412 -101.5 -632t-275.5 -220q-123 0 -204 88t-107 240zM215 518q0 -193 54.5 -303.5t146.5 -110.5q78 0 132 82t91 258q-6 147 -23.5 264t-52.5 232q-18 8 -40.5 12t-49.5 4q-131 0 -194.5 -108.5t-63.5 -329.5z" />
<glyph unicode="h" horiz-adv-x="909" d="M117 774q0 174 14 408.5t31 341.5q27 14 43 18t33 4q8 0 17 -2t28 -6q8 -4 14 -5t10 -3q-35 -158 -57.5 -350.5t-30.5 -378.5q61 125 147.5 197.5t174.5 72.5q141 0 202.5 -96t61.5 -313q0 -164 -49 -385.5t-103 -342.5q-29 6 -52 14.5t-42 20.5q61 160 97 344.5 t36 345.5q0 176 -34.5 246t-122.5 70q-94 0 -184.5 -105.5t-135.5 -283.5q2 -115 13.5 -271.5t21.5 -246.5q-18 -6 -47 -9.5t-56 -3.5q-14 203 -22 384.5t-8 334.5z" />
<glyph unicode="i" horiz-adv-x="387" d="M112 520q6 280 48 500q18 10 36.5 15t36.5 5q8 0 18.5 -1t20.5 -5q-41 -229 -53 -518q-4 -108 -5 -209q0 -168 13 -315q-12 -4 -25.5 -7t-27.5 -3q-8 0 -16 1t-17 3q-30 214 -30 447q0 43 1 87zM199 1289v28q0 47 10 100t27 88q18 6 30.5 8t30.5 0q23 -2 38 -6t32 -14 q-25 -51 -44.5 -109.5t-31.5 -111.5q-14 -2 -40 -2t-50 2q-2 8 -2 17z" />
<glyph unicode="j" horiz-adv-x="438" d="M-287 -221q14 27 30.5 49t35.5 39q39 -84 82 -123t100 -39q106 0 162.5 163t56.5 474q0 125 -17.5 259t-92.5 486q29 12 62 15h27q22 0 46 -2q49 -250 69.5 -413t20.5 -300q0 -381 -84 -582.5t-240 -201.5q-80 0 -144.5 44t-113.5 132zM63 1350q-2 22 -2 43q0 23 3 44 q4 40 16 74q16 8 31.5 11.5t35.5 3.5q27 -2 41.5 -5.5t30.5 -11.5q-20 -51 -35.5 -110.5t-23.5 -114.5q-16 -4 -40 -6t-46 -4q-4 25 -6 43t-5 33z" />
<glyph unicode="k" horiz-adv-x="868" d="M106 627q0 225 15.5 442t46.5 430q32 5 58 5h8q30 -1 55 -7q-35 -227 -52.5 -437t-21.5 -433q168 143 267.5 260t213.5 299q25 -14 44.5 -28.5t33.5 -31.5q-115 -178 -202 -280.5t-216 -212.5q100 -152 203 -253t268 -214q-23 -41 -38 -59.5t-31 -30.5 q-145 113 -244.5 217t-228.5 280q-6 -4 -12.5 -9t-18.5 -15q-16 -12 -24.5 -19.5t-16.5 -13.5v-8v-8q0 -145 9 -291t28 -299q-33 -4 -60.5 -7t-44.5 -3q-23 256 -31 409.5t-8 317.5z" />
<glyph unicode="l" horiz-adv-x="372" d="M106 716v55q0 347 23 732q14 8 32.5 12.5t35.5 4.5q16 0 31.5 -2t29.5 -7q-35 -336 -39 -759v-103q0 -374 25 -762q-14 -4 -48 -8t-55 -4q-33 469 -35 841z" />
<glyph unicode="m" horiz-adv-x="1388" d="M106 1063q16 8 35 12t39 4q25 0 39 -1t29 -5q-6 -47 -10.5 -108.5t-8.5 -135.5q61 98 136 149.5t159 51.5q76 0 124 -36t73 -109q70 129 149.5 193.5t167.5 64.5q119 0 172.5 -91t53.5 -288q0 -178 -34 -399.5t-83 -403.5q-27 2 -56.5 9t-46.5 16q55 221 81 408.5 t26 377.5q0 143 -32 204.5t-105 61.5q-72 0 -143.5 -70.5t-127.5 -199.5q4 -27 5.5 -55.5t1.5 -61.5q0 -145 -25 -327.5t-55 -298.5q-27 2 -56.5 9t-46.5 15q39 209 54.5 346t15.5 264q0 143 -32 205t-105 62q-78 0 -154 -66.5t-123 -181.5q-2 -82 -4 -161.5t-1 -147.5 q0 -109 3.5 -239t11.5 -185q-18 -8 -45.5 -12.5t-52.5 -4.5q-10 207 -19.5 549t-9.5 586z" />
<glyph unicode="n" horiz-adv-x="894" d="M106 1063q16 8 35 12t39 4q14 0 30.5 -1t35.5 -5q0 -4 -6.5 -90t-8.5 -145q68 117 144 175t160 58q125 0 180 -90t55 -289q0 -162 -25.5 -359.5t-54.5 -307.5q-27 2 -56.5 9t-45.5 15q37 203 53 355.5t16 295.5q0 141 -34.5 204t-112.5 63t-154.5 -76t-132.5 -209 q-2 -82 -4 -162.5t-1 -150.5q0 -109 3.5 -239t11.5 -185q-18 -8 -45.5 -12.5t-52.5 -4.5q-10 207 -19.5 549t-9.5 586z" />
<glyph unicode="o" horiz-adv-x="882" d="M63 500q0 262 114 427t294 165q152 0 240 -120t88 -323q0 -299 -107.5 -484t-281.5 -185q-158 0 -252.5 145.5t-94.5 374.5zM176 514q0 -188 67.5 -315t182.5 -127q100 0 176 144t76 351q0 219 -57.5 325.5t-176.5 106.5q-109 0 -188.5 -141t-79.5 -344z" />
<glyph unicode="p" horiz-adv-x="886" d="M125 713q0 121 4 217t14 190q23 12 45.5 17.5t49.5 5.5q14 0 24 -1t23 -5q-16 -63 -26.5 -122t-16.5 -122q53 115 133 177.5t174 62.5q115 0 184.5 -111t69.5 -295q0 -299 -129 -503t-312 -204q-35 0 -62 5.5t-50 17.5q8 -115 21.5 -226.5t35.5 -246.5q-27 -8 -52.5 -12 t-49.5 -4q-35 258 -57.5 578.5t-22.5 580.5zM229 594q0 -121 3.5 -228.5t9.5 -201.5q25 -29 54.5 -42t65.5 -13q129 0 224.5 176t95.5 436q0 137 -47 217t-127 80q-94 0 -165 -86t-114 -254v-42v-42z" />
<glyph unicode="q" horiz-adv-x="964" d="M84 401q0 293 128 467t345 174q29 0 69 -6t72 -16q4 29 10.5 56.5t12.5 56.5q18 10 35.5 13t40.5 3q16 0 33.5 -2t29.5 -6q-80 -279 -109 -693q-16 -232 -16 -494q0 -209 10 -437q-10 -4 -28.5 -7.5t-32.5 -3.5q-8 0 -13 1t-22 6q-6 47 -12 229t-8 362 q-45 -104 -103.5 -155t-134.5 -51q-137 0 -222 142t-85 361zM197 403q0 -186 56 -299.5t142 -113.5q90 0 144.5 74.5t91.5 244.5q4 156 18.5 319t34.5 296q-27 14 -61.5 20t-83.5 6q-152 0 -247 -146.5t-95 -400.5z" />
<glyph unicode="r" horiz-adv-x="679" d="M102 1110q12 6 27.5 8t48.5 2q8 0 16.5 -1t34.5 -7q-12 -100 -18 -164.5t-8 -120.5q45 164 125 262.5t164 98.5q76 0 109.5 -53.5t33.5 -171.5q0 -27 -2 -58t-4 -63q-14 -4 -34 -6t-56 -2q4 33 6 63.5t2 58.5q0 70 -16.5 102t-51.5 32q-76 0 -151.5 -151t-122.5 -394 q6 -111 21 -244t42 -307q-10 -4 -23.5 -7t-29.5 -5q-14 -2 -24.5 -1t-20.5 3q-50 266 -66 546q-9 151 -8 308q0 134 6 272z" />
<glyph unicode="s" horiz-adv-x="720" d="M51 305q31 8 55.5 11t51.5 1v-19q0 -131 51 -208q55 -82 158 -82q80 0 126 55.5t46 149.5q0 76 -40 138.5t-169 160.5q-147 111 -193.5 188.5t-46.5 173.5q0 125 68.5 196t191.5 71q115 0 179.5 -72t91.5 -233q-23 -8 -46.5 -14.5t-46.5 -10.5q-16 125 -60 182.5 t-122 57.5q-68 0 -105.5 -43t-37.5 -121q0 -80 42 -147t177 -167q141 -104 185 -176.5t44 -160.5q0 -137 -81 -227.5t-208 -90.5q-139 0 -225 106.5t-86 280.5z" />
<glyph unicode="t" horiz-adv-x="729" d="M53 1022q2 20 7.5 40.5t13.5 45.5q41 -8 77.5 -14.5t69.5 -8.5q12 70 26.5 137.5t31.5 135.5q29 -2 55 -7t65 -18q-20 -66 -36.5 -130t-28.5 -126q33 -1 68.5 -1t73.5 1q76 2 169 10q0 -18 -4 -38.5t-10 -42.5q-88 -8 -166 -10q-43 -1 -84 -2q-33 0 -64 1 q-16 -98 -24 -201.5t-8 -207.5q0 -229 34.5 -350t102.5 -121q61 0 91 71.5t32 229.5q25 -2 49 -8.5t43 -16.5q-6 -174 -65.5 -271t-159.5 -97q-117 0 -173.5 142t-56.5 439q0 102 6.5 200.5t20.5 196.5q-45 4 -83 9.5t-73 11.5z" />
<glyph unicode="u" horiz-adv-x="790" d="M84 555q0 143 22.5 283.5t57.5 205.5q12 4 25.5 7.5t27.5 3.5q10 0 21.5 -3t21.5 -8q-33 -98 -50 -226t-17 -283q0 -201 50 -332t136 -131q104 0 159.5 151.5t55.5 431.5q0 82 -8 168t-17 121q23 10 56.5 16.5t60.5 6.5q10 -45 15.5 -109.5t5.5 -130.5 q0 -362 -87.5 -554.5t-257.5 -192.5q-137 0 -207.5 146t-70.5 429z" />
<glyph unicode="v" horiz-adv-x="862" d="M23 1118q27 16 57.5 26.5t60.5 12.5q80 -221 139.5 -441t122.5 -530q111 244 181.5 474.5t97.5 424.5q27 -4 53 -14.5t53 -26.5q-76 -322 -151.5 -527.5t-216.5 -491.5q-6 -2 -26.5 -3.5t-55.5 -1.5q-61 319 -139 590t-176 508z" />
<glyph unicode="w" horiz-adv-x="1296" d="M33 1098q20 10 44.5 15t57.5 7q27 -293 73 -519t124 -445q78 176 130 359t89 415q23 8 44 11t46 3q68 -178 120 -396t83 -450q109 246 179.5 478.5t98.5 431.5q25 -4 52.5 -15.5t58.5 -29.5q-76 -322 -152 -527.5t-217 -492.5q-18 -6 -44.5 -10.5t-43.5 -4.5 q-37 246 -77 428.5t-93 348.5q-47 -190 -98 -338t-131 -328q-25 -8 -50.5 -12t-45.5 -7q-104 276 -163 528.5t-85 549.5z" />
<glyph unicode="x" horiz-adv-x="964" d="M2 76q127 121 246 254t227 276q-74 119 -153.5 232.5t-167.5 222.5q37 25 67.5 42t59.5 27q76 -115 142 -222t128 -212q76 106 142.5 210t123.5 206q29 -20 54.5 -51t29.5 -37q-82 -121 -154.5 -223.5t-142.5 -196.5q78 -137 150.5 -283.5t146.5 -316.5 q-25 -18 -48.5 -31.5t-39.5 -19.5q-61 143 -133 284.5t-152 280.5q-96 -123 -204.5 -243.5t-251.5 -264.5q-20 12 -38 28.5t-32 37.5z" />
<glyph unicode="y" horiz-adv-x="862" d="M84 502q0 139 19.5 259t84.5 324q27 -2 56.5 -9t46.5 -15q-51 -186 -70.5 -304t-19.5 -253q0 -162 54 -261.5t148 -99.5q66 0 121.5 60.5t98.5 181.5q-2 199 -20.5 347.5t-63.5 289.5q25 25 61 34q18 5 36 5q16 0 32 -4q31 -135 50 -314t19 -335q0 -412 -96 -632 t-260 -220q-113 0 -188.5 88t-102.5 239q29 18 56.5 30.5t54.5 20.5q23 -154 65.5 -220t120.5 -66q98 0 157.5 140t73.5 413q-47 -80 -107 -121t-132 -41q-133 0 -214 126t-81 337z" />
<glyph unicode="z" horiz-adv-x="864" d="M34 91.5q1 19.5 3 37.5q186 256 335.5 438.5t313.5 354.5q-143 29 -257 46t-290 33q4 31 8.5 48.5t14.5 50.5q182 -16 315 -41t324 -80q0 -20 -3 -43t-10 -39q-184 -195 -329.5 -369t-325.5 -417q173 -27 313 -34q75 -4 158 -4q71 0 148 3q0 -18 -5.5 -37t-25.5 -68 q-203 2 -358.5 17.5t-327.5 54.5q-2 29 -1 48.5z" />
<glyph unicode="{" horiz-adv-x="583" d="M82 677q0 48 6 79q20 -6 36.5 -8.5t39.5 -2.5q66 0 103.5 43t37.5 117q0 35 -11 69t-93 171q-47 80 -66.5 139t-19.5 125q0 113 65.5 184.5t169.5 71.5q45 0 75 -6t56 -21q2 -23 -4 -45t-20 -43q-27 12 -47.5 17.5t-51.5 5.5q-59 0 -95 -44t-36 -120q0 -51 17.5 -102.5 t72.5 -143.5q55 -94 73 -145t18 -103q0 -90 -44.5 -152.5t-125.5 -86.5q88 -20 134 -84t46 -162q0 -51 -17.5 -104.5t-72.5 -149.5q-55 -98 -72.5 -151.5t-17.5 -104.5q0 -76 35.5 -120t95.5 -44q31 0 51 5.5t47 17.5q10 -16 16.5 -38.5t8.5 -49.5q-29 -14 -57.5 -20.5 t-74.5 -6.5q-104 0 -169.5 71.5t-65.5 184.5q0 66 19.5 125t66.5 139q66 111 85 161t19 95q0 68 -39.5 113t-101.5 45q-25 0 -44 -2t-40 -6q-8 39 -8 87z" />
<glyph unicode="|" horiz-adv-x="540" d="M207 1462q27 12 60.5 18.5t68.5 4.5q-18 -342 -14 -872.5t24 -950.5q-14 -4 -46 -8t-52 -4q-20 393 -31.5 863t-9.5 949z" />
<glyph unicode="}" horiz-adv-x="634" d="M94 -301q-2 25 5 47.5t22 40.5q29 -14 50.5 -19.5t47.5 -5.5q59 -2 96 42t39 120q2 51 -14 102.5t-70 145.5q-55 94 -71.5 145.5t-14.5 102.5q2 90 47 151.5t127 85.5q-86 23 -132 88.5t-42 161.5q2 51 19.5 104.5t77.5 151.5q57 96 74.5 148.5t19.5 103.5q2 76 -33 120 t-94 46q-33 0 -53.5 -4t-44.5 -16q-10 18 -16.5 40.5t-6.5 47.5q29 14 58.5 20t72.5 4q104 -2 169 -75.5t60 -186.5q-2 -66 -21.5 -123t-70.5 -139q-68 -106 -88 -158.5t-20 -97.5q-2 -68 36.5 -113t100.5 -47q35 0 52.5 1t31.5 5q8 -41 7 -89t-9 -77q-27 8 -42 10.5 t-34 2.5q-63 2 -102 -41t-41 -117q0 -35 10 -70t88 -172q47 -80 65.5 -140t16.5 -126q-4 -113 -70.5 -182.5t-171.5 -67.5q-47 2 -76.5 8.5t-54.5 20.5z" />
<glyph unicode="~" horiz-adv-x="671" d="M66 592q-6 66 33.5 107.5t107.5 41.5q27 0 59.5 -8t93.5 -33q47 -18 66.5 -23t34.5 -5q41 0 60.5 22.5t17.5 61.5q23 2 40 -1t39 -14q6 -66 -35.5 -108.5t-109.5 -42.5q-29 0 -63.5 8t-100.5 33q-45 18 -64.5 23t-33.5 5q-41 0 -57.5 -19t-14.5 -62q-14 -2 -30.5 1 t-42.5 13z" />
<glyph unicode="&#xa1;" horiz-adv-x="407" d="M123 1126q16 4 32.5 5.5t30.5 1.5q8 0 17.5 -1.5t36.5 -3.5q2 -33 2 -65.5t-2 -63.5q-33 -2 -57.5 -2t-53.5 2q-2 33 -4 76t-2 51zM133 -375q20 233 25.5 499.5t-4.5 594.5q8 2 16 3t18 1q14 0 26 -1t24 -5q14 -262 20 -480.5t6 -476.5v-77.5t-2 -42.5q-25 -10 -42 -14.5 t-36 -4.5h-18t-33 4z" />
<glyph unicode="&#xa2;" horiz-adv-x="841" d="M82 555q0 303 117.5 502.5t298.5 199.5q37 0 69.5 -7t61.5 -21q20 66 39.5 113t38.5 81q20 0 41.5 -7t52.5 -23q-31 -59 -56.5 -114.5t-46.5 -107.5q37 -47 56.5 -114.5t19.5 -153.5q-29 -14 -58.5 -20t-62.5 -6q0 143 -41 215.5t-120 72.5q-123 0 -211 -182t-88 -418 q0 -178 60 -277.5t171 -99.5q80 0 146.5 64.5t121.5 196.5q25 -2 52.5 -19t35.5 -33q-31 -121 -140.5 -211t-231.5 -90q-33 0 -64 6.5t-57 16.5q-16 -51 -40 -104.5t-52 -110.5q-29 0 -53.5 6t-47.5 20q37 68 62.5 125.5t48.5 114.5q-61 57 -92 154.5t-31 230.5z" />
<glyph unicode="&#xa3;" horiz-adv-x="827" d="M52 560q1 13 5 26q43 -4 89.5 -7.5t91.5 -3.5q-86 119 -120 213.5t-34 190.5q0 172 98.5 285.5t251.5 113.5q166 0 247 -122.5t71 -362.5q-25 -4 -51.5 -2t-53.5 10q8 195 -45 291t-170 96q-109 0 -172 -82t-63 -223q0 -57 10 -110.5t33 -104.5q10 -25 24.5 -49.5 t87.5 -138.5q78 2 171 11t202 25v-22t-2 -14q-4 -23 -5 -31t-3 -14q-86 -12 -167 -20.5t-153 -12.5q18 -41 27.5 -79t9.5 -79q0 -70 -28.5 -129t-88.5 -109q74 -6 120 -9t65 -3q68 0 141.5 8.5t146.5 22.5q14 -29 17.5 -52.5t-0.5 -60.5q-104 -12 -199.5 -11t-234.5 17 q-57 8 -84 10.5t-49 2.5q-35 0 -73 -9.5t-85 -29.5q-12 20 -18.5 39.5t-6.5 40.5q35 16 74 26.5t84 14.5q68 45 98.5 97t30.5 122q0 49 -11.5 86t-37.5 80q-59 -2 -118.5 -2t-117.5 4q-6 47 -5 60z" />
<glyph unicode="&#xa4;" horiz-adv-x="1159" d="M41 201q72 66 130 128t110 130q-23 53 -35.5 114.5t-12.5 128.5q0 102 21.5 187.5t64.5 152.5q-57 51 -107 108.5t-93 117.5q8 23 25.5 42t41.5 38q53 -78 96.5 -129.5t96.5 -102.5q47 45 106.5 68.5t128.5 23.5q66 0 123.5 -25.5t100.5 -74.5q45 63 94 119.5t98 103.5 q18 -6 35.5 -20.5t42.5 -40.5q-66 -57 -119 -115.5t-102 -126.5q20 -43 31.5 -96t11.5 -117q0 -90 -13.5 -169t-39.5 -146q66 -57 121 -116.5t100 -121.5q-10 -16 -26.5 -33.5t-45.5 -35.5q-61 86 -98 130t-90 95q-49 -82 -120 -124t-155 -42q-70 0 -129 30.5t-104 88.5 q-43 -59 -94.5 -117.5t-108.5 -112.5q-25 8 -46.5 22.5t-39.5 37.5zM336 719q0 -168 67.5 -277.5t171.5 -109.5t178 127t74 305q0 176 -57 270t-166 94q-121 0 -194.5 -113.5t-73.5 -295.5z" />
<glyph unicode="&#xa5;" horiz-adv-x="933" d="M45 1313q6 6 15.5 12t21.5 14q8 4 18.5 9.5t32.5 15.5q106 -182 174 -330.5t146 -369.5q119 197 193.5 358.5t139.5 366.5q18 -2 35 -8.5t51 -26.5q-51 -166 -125.5 -323t-207.5 -372q47 2 103 5.5t185 15.5q0 -8 -1 -17.5t-3 -21.5q-2 -8 -4 -16.5t-6 -26.5 q-106 -10 -179 -15t-132 -8v-87v-87q84 4 160.5 9.5t154.5 13.5q0 -6 -1 -13.5t-3 -27.5q-2 -8 -4 -18.5t-6 -22.5q-74 -8 -146.5 -13t-154.5 -10q-4 -100 -11.5 -200.5t-17.5 -206.5q-23 -4 -46.5 -6t-45.5 -2q8 119 13 220t7 195q-76 0 -147.5 4.5t-144.5 12.5 q0 37 2 54.5t6 31.5q78 -8 146.5 -13.5t137.5 -7.5v108t-2 66q-59 0 -125.5 4.5t-154.5 12.5q0 37 2 54.5t6 31.5q70 -8 129 -12t115 -7q-66 178 -138.5 326t-187.5 328z" />
<glyph unicode="&#xa6;" horiz-adv-x="548" d="M205 1462q27 12 60.5 18.5t68.5 4.5q-6 -143 -10.5 -323.5t-4.5 -391.5q-25 -6 -51 -9t-59 -1q-2 127 -3 272.5t-1 429.5zM215 455q23 4 49.5 4t57.5 -6q2 -182 8 -381t14 -410q-14 -4 -46 -8t-52 -4q-10 186 -18.5 389t-12.5 416z" />
<glyph unicode="&#xa7;" horiz-adv-x="710" d="M61 528q0 90 48.5 159t142.5 108q-84 66 -122 137.5t-38 165.5q0 121 76 203.5t188 82.5q121 0 189.5 -73.5t93.5 -231.5q-20 -12 -44 -18t-48 -6q-16 125 -61.5 182t-123.5 57q-76 0 -116.5 -47t-40.5 -131q0 -92 43 -157.5t149 -137.5q135 -92 183.5 -166.5 t48.5 -165.5q0 -90 -49.5 -158.5t-141.5 -107.5q94 -72 137 -146.5t43 -170.5q0 -113 -74.5 -195t-183.5 -82q-125 0 -194.5 74t-93.5 231q23 12 45 18.5t47 6.5q16 -125 62 -182.5t128 -57.5q70 0 111 46.5t41 121.5q0 92 -46 160t-167 150q-135 92 -183.5 166.5 t-48.5 164.5zM168 543q0 -76 42 -133.5t142 -124.5q82 18 126 67t44 123q0 76 -42 133t-142 125q-82 -18 -126 -67.5t-44 -122.5z" />
<glyph unicode="&#xa8;" horiz-adv-x="532" d="M88 1299.5v27.5q0 47 10.5 100.5t26.5 88.5q18 6 30.5 8t30.5 0q23 -2 38.5 -6.5t31.5 -14.5q-25 -51 -44 -109.5t-32 -111.5q-14 -2 -39.5 -2t-50.5 2q-2 8 -2 17.5zM301 1299.5v27.5q0 47 10.5 100.5t26.5 88.5q18 6 30.5 8t30.5 0q23 -2 38.5 -6.5t31.5 -14.5 q-25 -51 -44 -109.5t-32 -111.5q-14 -2 -39.5 -2t-50.5 2q-2 8 -2 17.5z" />
<glyph unicode="&#xa9;" horiz-adv-x="1484" d="M92 659q0 352 192.5 561.5t514.5 209.5q285 0 439.5 -191.5t154.5 -531.5q0 -336 -178.5 -529.5t-487.5 -193.5q-283 0 -459 186t-176 489zM205 686q0 -283 144 -447.5t394 -164.5q258 0 397.5 166t139.5 471q0 295 -133 461.5t-373 166.5q-236 0 -402.5 -190.5 t-166.5 -462.5zM485 651q0 201 87 327t227 126q96 0 143 -62.5t45 -185.5q-18 -12 -42.5 -17t-57.5 -5q6 102 -19.5 149t-87.5 47q-76 0 -130 -100.5t-54 -255.5q0 -141 42 -216t120 -75q72 0 109.5 55.5t33.5 151.5q27 2 47.5 -2t36.5 -13q-6 -129 -69.5 -198.5 t-176.5 -69.5q-121 0 -187.5 90t-66.5 254z" />
<glyph unicode="&#xaa;" horiz-adv-x="485" d="M10 1077q0 72 61.5 110t178.5 38q18 0 34.5 -1t45.5 -3v27.5v27.5q0 90 -20.5 130t-67.5 40t-78 -42t-33 -110q-35 4 -58.5 16.5t-33.5 32.5q12 72 73.5 121t141.5 49q88 0 133 -55.5t45 -161.5q0 -74 -20.5 -193.5t-46.5 -219.5q-18 0 -40 4t-44 10q4 14 9 37.5t5 26.5 q-23 -14 -52.5 -22.5t-60.5 -8.5q-78 0 -125 40t-47 107zM115 1073q0 -37 24.5 -59.5t65.5 -22.5q29 0 54.5 8.5t47.5 24.5q8 39 12.5 74t8.5 71q-106 6 -159.5 -18.5t-53.5 -77.5z" />
<glyph unicode="&#xab;" horiz-adv-x="917" d="M20 541q88 53 177.5 142t167.5 204q35 -25 51 -41.5t28 -34.5q-68 -90 -142.5 -164t-160.5 -133q55 -78 135.5 -151.5t176.5 -139.5q-25 -35 -41.5 -51t-34.5 -29q-117 88 -204 185.5t-153 212.5zM424 541q88 53 177 142t167 204q35 -25 51.5 -41.5t28.5 -34.5 q-68 -90 -142.5 -164t-160.5 -133q55 -78 135 -151.5t176 -139.5q-25 -35 -41 -51t-35 -29q-117 88 -204 185.5t-152 212.5z" />
<glyph unicode="&#xac;" horiz-adv-x="698" d="M51 735q0 23 2 42.5t8 43.5q139 -16 270.5 -17t307.5 13q8 -74 7 -154.5t-11 -177.5q-23 0 -42.5 2t-43.5 9q10 76 12 128t-2 103q-125 -10 -254 -8t-254 16z" />
<glyph unicode="&#xad;" horiz-adv-x="0" />
<glyph unicode="&#xae;" horiz-adv-x="1484" d="M92 659q0 352 192.5 561.5t514.5 209.5q285 0 439.5 -191.5t154.5 -531.5q0 -336 -178.5 -529.5t-487.5 -193.5q-283 0 -459 186t-176 489zM205 686q0 -283 144.5 -447.5t393.5 -164.5q258 0 397.5 166t139.5 471q0 295 -133 461.5t-373 166.5q-236 0 -402.5 -190.5 t-166.5 -462.5zM510 1071q47 35 110.5 55.5t124.5 20.5q113 0 178.5 -57.5t65.5 -153.5q0 -80 -40 -142.5t-120 -109.5q53 -59 107 -151.5t111 -215.5q-14 -14 -41 -27.5t-54 -19.5q-59 137 -103 218t-99 157q-31 -12 -61 -22.5t-54 -16.5q-2 -76 -6 -153.5t-13 -153.5 q-20 -2 -45.5 0t-42.5 6q4 61 6.5 113.5t2.5 120.5q0 174 -6.5 283.5t-20.5 248.5zM625 1051q6 -98 9 -171t3 -143v-28.5v-28.5q127 33 186.5 91t59.5 149q0 76 -39 116.5t-109 40.5q-29 0 -56 -7t-54 -19z" />
<glyph unicode="&#xaf;" horiz-adv-x="532" d="M76 1329q-2 23 0 50.5t6 50.5q88 -18 186.5 -21.5t190.5 8.5q2 -25 2 -48t-4 -56q-123 -12 -219.5 -8t-161.5 24z" />
<glyph unicode="&#xb0;" horiz-adv-x="489" d="M20 1288q0 102 66 165t176 63q94 0 150.5 -52.5t56.5 -136.5q0 -119 -63.5 -187.5t-172.5 -68.5q-96 0 -154.5 60.5t-58.5 156.5zM115 1286q0 -59 33.5 -95t91.5 -36q53 0 90 43t37 111q0 61 -31 95t-84 34q-59 0 -98 -43t-39 -109z" />
<glyph unicode="&#xb1;" horiz-adv-x="696" d="M43 250q0 23 2 42t8 44q139 -16 270.5 -17.5t307.5 13.5q0 -23 -2 -43.5t-6 -38.5q-139 -16 -287 -16t-293 16zM45 664q0 23 2 42t8 44q66 -8 125.5 -12.5t116.5 -4.5q0 53 -3 113.5t-9 130.5q20 4 40.5 4t41.5 -4q6 -51 10 -109.5t6 -134.5q53 0 114.5 3t135.5 9 q0 -23 -2 -43t-6 -38q-49 -6 -107.5 -10.5t-134.5 -6.5q-2 -78 -6 -137t-10 -113q-20 -4 -42 -4t-44 6q8 68 12 128.5t4 119.5q-76 2 -137.5 6t-114.5 11z" />
<glyph unicode="&#xb2;" horiz-adv-x="520" d="M-8 672q2 23 6 41t8 32q207 150 295 267.5t88 247.5q0 63 -29.5 100t-80.5 37q-53 0 -92.5 -51.5t-57.5 -145.5q-27 0 -51.5 5t-48.5 16q27 119 92 183t160 64q96 0 156.5 -60t60.5 -161q0 -121 -98.5 -254t-290.5 -272q94 -14 183 -20.5t208 -8.5q-2 -23 -7.5 -44 t-15.5 -46q-164 12 -281.5 28.5t-203.5 41.5z" />
<glyph unicode="&#xb3;" horiz-adv-x="552" d="M15 1343.5q-1 22.5 1 42.5q125 25 250 39.5t246 16.5q6 -23 8 -42.5t0 -37.5q-45 -76 -100 -133.5t-137 -116.5q127 -23 194.5 -93t67.5 -181q0 -123 -71 -200t-179 -77q-109 0 -177.5 78t-74.5 215q20 8 43 12t57 6q0 -113 42 -176t112 -63q66 0 102.5 47t36.5 131 q0 123 -72.5 185.5t-207.5 54.5q-4 25 -6.5 41t-2.5 22q88 53 153 110.5t116 131.5q-127 -8 -218.5 -22.5t-177.5 -35.5q-4 23 -5 45.5z" />
<glyph unicode="&#xb4;" horiz-adv-x="532" d="M147 1184q37 106 57.5 189t26.5 161q31 4 66.5 2t60.5 -8q-10 -88 -41.5 -176t-85.5 -183q-23 2 -43 5.5t-41 9.5z" />
<glyph unicode="&#xb5;" horiz-adv-x="862" d="M78 -383q0 367 3 519.5t9 297.5q6 156 30.5 337t49.5 273q27 -2 56.5 -9t45.5 -15q-37 -203 -53 -355.5t-16 -295.5q0 -141 34.5 -204t112.5 -63q82 0 161 80t132 221q4 215 -3 403.5t-24 317.5q18 6 50 11.5t59 5.5q10 -207 19.5 -549t9.5 -586q-16 -8 -35 -12t-39 -4 q-10 0 -19.5 1t-35.5 5q4 41 7 98.5t7 153.5q-70 -125 -148.5 -187.5t-164.5 -62.5q-55 0 -95 26.5t-67 79.5q8 -145 22.5 -275t30.5 -224q-12 -2 -26.5 -3t-38.5 -1q-20 0 -39 4t-35 12z" />
<glyph unicode="&#xb6;" horiz-adv-x="1282" d="M152 1169q0 184 138 291t384 107q115 0 213 -18.5t237 -65.5q20 -637 10 -1056t-55 -984q-23 -2 -46 -3t-52 1q49 772 54 1101.5t-23 876.5q-14 6 -32.5 11.5t-57.5 15.5q23 -717 11.5 -1089.5t-54.5 -913.5q-25 -4 -51.5 -4t-47.5 2q27 422 36 646t11 452 q-346 106 -510.5 259.5t-164.5 370.5z" />
<glyph unicode="&#xb7;" horiz-adv-x="305" d="M72 557q45 10 84 11t77 -5q-2 -53 -5 -81.5t-7 -57.5q-41 -4 -74.5 -4t-68.5 4q0 10 -1 22.5t-1 32.5l-3 46.5t-1 31.5z" />
<glyph unicode="&#xb8;" horiz-adv-x="534" d="M41 -309q27 18 43 27.5t35 15.5q16 -49 49 -78t76 -29q49 0 77.5 25.5t28.5 71.5q0 37 -27.5 62.5t-66.5 25.5q-23 0 -40 -5.5t-36 -15.5q-16 12 -32.5 28.5t-22.5 26.5q29 43 45 85t23 87l96 -20q-4 -31 -12.5 -58.5t-24.5 -56.5q20 2 27.5 3t13.5 1q76 0 121 -42.5 t45 -114.5q0 -84 -58.5 -137.5t-152.5 -53.5q-76 0 -127 38t-80 114z" />
<glyph unicode="&#xb9;" horiz-adv-x="450" d="M8 1245q109 57 204 123t175 137q25 -12 38 -21t24 -20q-51 -125 -97 -378t-69 -519q-14 -4 -24.5 -6t-20.5 -2q-12 -2 -22.5 -2t-20.5 2q4 76 9 138.5t15 146.5q12 121 34.5 249t51.5 240q-61 -47 -119.5 -86t-119.5 -76q-23 18 -35.5 35t-22.5 39z" />
<glyph unicode="&#xba;" horiz-adv-x="454" d="M10 1186q0 143 68.5 233t177.5 90q88 0 138 -62.5t50 -170.5q0 -160 -65.5 -262.5t-173.5 -102.5q-88 0 -141.5 76t-53.5 199zM113 1198q0 -94 30.5 -155.5t81.5 -61.5q45 0 79 73t34 173q0 109 -25.5 161t-79.5 52q-49 0 -84.5 -70t-35.5 -172z" />
<glyph unicode="&#xbb;" horiz-adv-x="917" d="M61 223q96 66 176 139.5t136 151.5q-86 59 -161 133t-142 164q12 18 28.5 34.5t51.5 41.5q78 -115 167 -204t177 -142q-66 -115 -153 -212.5t-204 -185.5q-18 12 -34.5 28.5t-41.5 51.5zM465 223q96 66 176 139.5t135 151.5q-86 59 -160.5 133t-142.5 164 q12 18 28.5 34.5t51.5 41.5q78 -115 167 -204t177 -142q-66 -115 -153 -212.5t-203 -185.5q-18 12 -35 28.5t-41 51.5z" />
<glyph unicode="&#xbc;" horiz-adv-x="1343" d="M20 1288q109 57 204 123t175 137q25 -12 38 -21t24 -20q-51 -125 -97 -378t-69 -519q-14 -4 -24.5 -6t-20.5 -2q-12 -2 -22.5 -2t-20.5 2q4 76 9 138.5t15 146.5q12 121 34.5 249t51.5 240q-61 -47 -119.5 -86t-119.5 -76q-23 18 -35.5 35t-22.5 39zM149 -8 q213 410 371.5 753.5t365.5 847.5q29 -12 50.5 -23t42.5 -26q-156 -391 -321 -745t-427 -858q-12 4 -22.5 9t-20.5 13q-8 4 -20.5 14.5t-18.5 14.5zM662 310q125 174 198.5 320t141.5 357q23 -2 47.5 -8t61.5 -20q-70 -182 -150 -338t-178 -293q59 -12 114.5 -21.5 t108.5 -15.5q8 80 16.5 139.5t18.5 108.5q10 4 24.5 7t34.5 5q12 0 25.5 -1t28.5 -3q-14 -47 -26.5 -113.5t-21.5 -154.5q53 -4 106.5 -7t111.5 -5q-2 -25 -7.5 -45.5t-13.5 -36.5q-35 2 -75 4t-130 10q-4 -94 -6 -142.5t-2 -86.5q-8 -2 -18.5 -2h-32.5q-10 2 -18.5 3 t-16.5 3q-2 59 -3 83.5t-1 47.5v64.5t2 37.5q-86 10 -164 21.5t-151 23.5q-6 10 -12.5 22.5t-12.5 35.5z" />
<glyph unicode="&#xbd;" horiz-adv-x="1290" d="M20 1288q109 57 204 123t175 137q25 -12 38 -21t24 -20q-51 -125 -97 -378t-69 -519q-14 -4 -24.5 -6t-20.5 -2q-12 -2 -22.5 -2t-20.5 2q4 76 9 138.5t15 146.5q12 121 34.5 249t51.5 240q-61 -47 -119.5 -86t-119.5 -76q-23 18 -35.5 35t-22.5 39zM133 -6 q213 410 371.5 753.5t365.5 847.5q29 -12 50.5 -23t42.5 -26q-156 -391 -321 -745t-427 -858q-12 4 -22.5 9t-20.5 13q-8 4 -20.5 14.5t-18.5 14.5zM709 74q2 23 6 41t8 32q207 150 295 267.5t88 247.5q0 63 -29.5 100t-80.5 37q-53 0 -92.5 -51.5t-57.5 -145.5 q-27 0 -51.5 5t-48.5 16q27 119 92 183t160 64q96 0 156.5 -60t60.5 -161q0 -121 -98.5 -254t-290.5 -272q94 -14 183 -20.5t208 -8.5q-2 -23 -7.5 -44t-15.5 -46q-164 12 -281.5 28.5t-203.5 41.5z" />
<glyph unicode="&#xbe;" horiz-adv-x="1439" d="M52 1447.5q-1 22.5 1 42.5q125 25 250 39.5t246 16.5q6 -23 8 -42.5t0 -37.5q-45 -76 -100 -133.5t-137 -116.5q127 -23 194.5 -93t67.5 -181q0 -123 -71 -200t-179 -77q-109 0 -177.5 78t-74.5 215q20 8 43 12t57 6q0 -113 42 -176t112 -63q66 0 102.5 47t36.5 131 q0 123 -72.5 185.5t-207.5 54.5q-4 25 -6.5 41t-2.5 22q88 53 153 110.5t116 131.5q-127 -8 -218.5 -22.5t-177.5 -35.5q-4 23 -5 45.5zM311 -8q213 410 371.5 753.5t365.5 847.5q29 -12 50.5 -23t42.5 -26q-156 -391 -321 -745t-427 -858q-12 4 -22.5 9t-20.5 13 q-8 4 -20.5 14.5t-18.5 14.5zM778 310q125 174 198.5 320t141.5 357q23 -2 47.5 -8t61.5 -20q-70 -182 -150 -338t-178 -293q59 -12 114.5 -21.5t108.5 -15.5q8 80 16.5 139.5t18.5 108.5q10 4 24.5 7t34.5 5q12 0 25.5 -1t28.5 -3q-14 -47 -26.5 -113.5t-21.5 -154.5 q53 -4 106.5 -7t111.5 -5q-2 -25 -7.5 -45.5t-13.5 -36.5q-35 2 -75 4t-130 10q-4 -94 -6 -142.5t-2 -86.5q-8 -2 -18.5 -2h-32.5q-10 2 -18.5 3t-16.5 3q-2 59 -3 83.5t-1 47.5v64.5t2 37.5q-86 10 -164 21.5t-151 23.5q-6 10 -12.5 22.5t-12.5 35.5z" />
<glyph unicode="&#xbf;" horiz-adv-x="702" d="M61 -47q0 156 78 271.5t221 166.5v330q18 2 38 2t38 -2q0 -4 12.5 -148.5t14.5 -236.5q-141 -35 -215 -130t-74 -245q0 -137 54.5 -220t144.5 -83q104 0 160.5 97.5t56.5 273.5q25 0 50 -4.5t52 -10.5q-14 -225 -96 -335.5t-236 -110.5q-135 0 -217 105.5t-82 279.5z M326 1126q16 4 32.5 5.5t30.5 1.5q8 0 17.5 -1.5t35.5 -3.5q2 -33 2 -65.5t-2 -63.5q-33 -2 -57 -2t-53 2q-2 33 -4 76t-2 51z" />
<glyph unicode="&#xc0;" d="M51 16q188 330 303 640.5t219 787.5q68 -6 89.5 -8t39.5 -6q209 -416 313.5 -763t176.5 -841q-25 -14 -50.5 -22.5t-64.5 -14.5q-33 217 -64.5 384t-66.5 304q-147 2 -291.5 -7t-271.5 -30q-43 -109 -98.5 -226.5t-126.5 -254.5q-29 6 -51.5 17.5t-55.5 39.5zM420 535 q113 16 242 26t262 12q-55 197 -121 370.5t-160 359.5q-53 -236 -105.5 -417t-117.5 -351zM463 1890q25 6 60.5 8t66.5 -2q6 -78 26.5 -161t56.5 -189q-20 -6 -40.5 -9t-42.5 -5q-53 94 -85 182t-42 176z" />
<glyph unicode="&#xc1;" d="M51 16q188 330 303 640.5t219 787.5q68 -6 89.5 -8t39.5 -6q209 -416 313.5 -763t176.5 -841q-25 -14 -50.5 -22.5t-64.5 -14.5q-33 217 -64.5 384t-66.5 304q-147 2 -291.5 -7t-271.5 -30q-43 -109 -98.5 -226.5t-126.5 -254.5q-29 6 -51.5 17.5t-55.5 39.5zM420 535 q113 16 242 26t262 12q-55 197 -121 370.5t-160 359.5q-53 -236 -105.5 -417t-117.5 -351zM598 1544q37 106 57.5 189t26.5 161q31 4 66.5 2t60.5 -8q-10 -88 -41.5 -176t-85.5 -183q-23 2 -43 5.5t-41 9.5z" />
<glyph unicode="&#xc2;" d="M51 16q188 330 303 640.5t219 787.5q68 -6 89.5 -8t39.5 -6q209 -416 313.5 -763t176.5 -841q-25 -14 -50.5 -22.5t-64.5 -14.5q-33 217 -64.5 384t-66.5 304q-147 2 -291.5 -7t-271.5 -30q-43 -109 -98.5 -226.5t-126.5 -254.5q-29 6 -51.5 17.5t-55.5 39.5zM393 1565 q86 78 128 133.5t77 132.5q10 2 25.5 4t27.5 2q8 0 22.5 -1t24.5 -3q31 -72 73 -127t134 -139q-18 -18 -33.5 -27.5t-35.5 -19.5q-68 47 -110 87t-77 89q-33 -47 -76 -89t-110 -89q-23 12 -39 23.5t-31 23.5zM420 535q113 16 242 26t262 12q-55 197 -121 370.5t-160 359.5 q-53 -236 -105.5 -417t-117.5 -351z" />
<glyph unicode="&#xc3;" d="M51 16q188 330 303 640.5t219 787.5q68 -6 89.5 -8t39.5 -6q209 -416 313.5 -763t176.5 -841q-25 -14 -50.5 -22.5t-64.5 -14.5q-33 217 -64.5 384t-66.5 304q-147 2 -291.5 -7t-271.5 -30q-43 -109 -98.5 -226.5t-126.5 -254.5q-29 6 -51.5 17.5t-55.5 39.5zM420 535 q113 16 242 26t262 12q-55 197 -121 370.5t-160 359.5q-53 -236 -105.5 -417t-117.5 -351zM422 1542q-6 74 25 115t94 41q25 0 48.5 -8t64.5 -33q31 -18 46 -23.5t27 -5.5q29 0 39.5 17.5t8.5 60.5q23 2 41 -2t45 -16q6 -78 -25 -117t-96 -39q-27 0 -52.5 8t-66.5 33 q-29 18 -43 23.5t-27 5.5q-25 0 -35 -18.5t-8 -55.5q-23 -2 -44 2t-42 12z" />
<glyph unicode="&#xc4;" d="M51 16q188 330 303 640.5t219 787.5q68 -6 89.5 -8t39.5 -6q209 -416 313.5 -763t176.5 -841q-25 -14 -50.5 -22.5t-64.5 -14.5q-33 217 -64.5 384t-66.5 304q-147 2 -291.5 -7t-271.5 -30q-43 -109 -98.5 -226.5t-126.5 -254.5q-29 6 -51.5 17.5t-55.5 39.5zM420 535 q113 16 242 26t262 12q-55 197 -121 370.5t-160 359.5q-53 -236 -105.5 -417t-117.5 -351zM467 1551.5v27.5q0 47 10.5 100.5t26.5 88.5q18 6 30.5 8t30.5 0q23 -2 38.5 -6.5t31.5 -14.5q-25 -51 -44 -109.5t-32 -111.5q-14 -2 -39.5 -2t-50.5 2q-2 8 -2 17.5zM680 1551.5 v27.5q0 47 10.5 100.5t26.5 88.5q18 6 30.5 8t30.5 0q23 -2 38.5 -6.5t31.5 -14.5q-25 -51 -44 -109.5t-32 -111.5q-14 -2 -39.5 -2t-50.5 2q-2 8 -2 17.5z" />
<glyph unicode="&#xc5;" d="M51 16q188 330 303 640.5t219 787.5q68 -6 89.5 -8t39.5 -6q209 -416 313.5 -763t176.5 -841q-25 -14 -50.5 -22.5t-64.5 -14.5q-33 217 -64.5 384t-66.5 304q-147 2 -291.5 -7t-271.5 -30q-43 -109 -98.5 -226.5t-126.5 -254.5q-29 6 -51.5 17.5t-55.5 39.5zM420 535 q113 16 242 26t262 12q-55 197 -121 370.5t-160 359.5q-53 -236 -105.5 -417t-117.5 -351zM465 1702q0 92 57 147.5t154 55.5q82 0 129 -44t47 -120q0 -102 -55.5 -160.5t-149.5 -58.5q-80 0 -131 51t-51 129zM565 1700q0 -47 25.5 -77t62.5 -30q43 0 68.5 37.5t25.5 98.5 q0 53 -22.5 81.5t-59.5 28.5q-45 0 -72.5 -38t-27.5 -101z" />
<glyph unicode="&#xc6;" horiz-adv-x="1646" d="M55 10q211 336 342 649.5t248 770.5q27 -2 51.5 -6.5t46.5 -10.5q279 47 436.5 63.5t333.5 20.5q2 -27 0 -50.5t-6 -45.5q-168 -2 -326.5 -17.5t-326.5 -46.5q-2 -150 3 -288t17 -287q274 43 361.5 54t175.5 20q6 -25 8 -47.5t0 -45.5q-156 -12 -268.5 -26.5 t-267.5 -42.5q16 -172 37.5 -343t46.5 -331q195 6 325.5 21.5t263.5 44.5q6 -23 7.5 -53t-2.5 -50q-176 -25 -331 -37t-360 -18q-18 123 -35.5 254t-31.5 264q-106 -2 -211 -12.5t-199 -26.5q-45 -98 -101 -205.5t-130 -232.5q-33 8 -56.5 21.5t-50.5 39.5zM438 481 q80 14 170 23.5t185 13.5q-25 227 -40.5 438t-19.5 383q-70 -262 -140.5 -465.5t-154.5 -392.5z" />
<glyph unicode="&#xc7;" horiz-adv-x="1095" d="M98 584q0 375 148.5 605t392.5 230q174 0 254 -114.5t70 -354.5q-18 -14 -52 -22t-69 -6q16 215 -36 308t-188 93q-96 0 -181 -72.5t-140 -203.5q-37 -90 -56.5 -201t-19.5 -240q0 -281 87 -431t251 -150q147 0 228 114.5t77 311.5q31 0 52.5 -4.5t50.5 -16.5 q-12 -246 -118 -374t-296 -128q-217 0 -336 171t-119 485zM330 -360q27 18 43 27.5t35 15.5q16 -49 49 -78t76 -29q49 0 77.5 25.5t28.5 71.5q0 37 -27.5 62.5t-66.5 25.5q-23 0 -40 -5.5t-36 -15.5q-16 12 -32.5 28.5t-22.5 26.5q29 43 45 85t23 87l96 -20 q-4 -31 -12.5 -58.5t-24.5 -56.5q20 2 27.5 3t13.5 1q76 0 121 -42.5t45 -114.5q0 -84 -58.5 -137.5t-152.5 -53.5q-76 0 -127 38t-80 114z" />
<glyph unicode="&#xc8;" horiz-adv-x="1034" d="M119 1419q274 47 436 64.5t346 21.5q2 -27 0 -50t-6 -46q-168 -2 -326.5 -17.5t-326.5 -45.5q-2 -150 3 -288t17 -288q274 43 361.5 54.5t175.5 19.5q6 -25 8 -47.5t0 -44.5q-156 -12 -268.5 -26.5t-268.5 -43.5q16 -172 38 -343t46 -331q195 6 326 21.5t264 44.5 q6 -23 7 -53t-3 -50q-176 -25 -330.5 -37t-359.5 -18q-59 403 -97 805.5t-42 697.5zM371 1911q25 6 60.5 8t66.5 -2q6 -78 26.5 -161t56.5 -189q-20 -6 -40.5 -9t-42.5 -5q-53 94 -85 182t-42 176z" />
<glyph unicode="&#xc9;" horiz-adv-x="1034" d="M119 1419q274 47 436 64.5t346 21.5q2 -27 0 -50t-6 -46q-168 -2 -326.5 -17.5t-326.5 -45.5q-2 -150 3 -288t17 -288q274 43 361.5 54.5t175.5 19.5q6 -25 8 -47.5t0 -44.5q-156 -12 -268.5 -26.5t-268.5 -43.5q16 -172 38 -343t46 -331q195 6 326 21.5t264 44.5 q6 -23 7 -53t-3 -50q-176 -25 -330.5 -37t-359.5 -18q-59 403 -97 805.5t-42 697.5zM403 1573q37 106 57.5 189t26.5 161q31 4 66.5 2t60.5 -8q-10 -88 -41.5 -176t-85.5 -183q-23 2 -43 5.5t-41 9.5z" />
<glyph unicode="&#xca;" horiz-adv-x="1034" d="M119 1419q274 47 436 64.5t346 21.5q2 -27 0 -50t-6 -46q-168 -2 -326.5 -17.5t-326.5 -45.5q-2 -150 3 -288t17 -288q274 43 361.5 54.5t175.5 19.5q6 -25 8 -47.5t0 -44.5q-156 -12 -268.5 -26.5t-268.5 -43.5q16 -172 38 -343t46 -331q195 6 326 21.5t264 44.5 q6 -23 7 -53t-3 -50q-176 -25 -330.5 -37t-359.5 -18q-59 403 -97 805.5t-42 697.5zM258 1618q86 78 128 133.5t77 132.5q10 2 25.5 4t27.5 2q8 0 22.5 -1t24.5 -3q31 -72 73 -127t134 -139q-18 -18 -33.5 -27.5t-35.5 -19.5q-68 47 -110 87t-77 89q-33 -47 -76 -89 t-110 -89q-23 12 -39 23.5t-31 23.5z" />
<glyph unicode="&#xcb;" horiz-adv-x="1034" d="M119 1419q274 47 436 64.5t346 21.5q2 -27 0 -50t-6 -46q-168 -2 -326.5 -17.5t-326.5 -45.5q-2 -150 3 -288t17 -288q274 43 361.5 54.5t175.5 19.5q6 -25 8 -47.5t0 -44.5q-156 -12 -268.5 -26.5t-268.5 -43.5q16 -172 38 -343t46 -331q195 6 326 21.5t264 44.5 q6 -23 7 -53t-3 -50q-176 -25 -330.5 -37t-359.5 -18q-59 403 -97 805.5t-42 697.5zM334 1598.5v27.5q0 47 10.5 100.5t26.5 88.5q18 6 30.5 8t30.5 0q23 -2 38.5 -6.5t31.5 -14.5q-25 -51 -44 -109.5t-32 -111.5q-14 -2 -39.5 -2t-50.5 2q-2 8 -2 17.5zM547 1598.5v27.5 q0 47 10.5 100.5t26.5 88.5q18 6 30.5 8t30.5 0q23 -2 38.5 -6.5t31.5 -14.5q-25 -51 -44 -109.5t-32 -111.5q-14 -2 -39.5 -2t-50.5 2q-2 8 -2 17.5z" />
<glyph unicode="&#xcc;" horiz-adv-x="448" d="M15 1866q25 6 60.5 8t66.5 -2q6 -78 26.5 -161t56.5 -189q-20 -6 -40.5 -9t-42.5 -5q-53 94 -85 182t-42 176zM141 1372q20 10 41 14.5t43 4.5q8 0 17.5 -1t23.5 -4q6 -88 9.5 -179t3.5 -222q0 -565 -3.5 -715.5t-7.5 -314.5q-14 -4 -39.5 -7t-58.5 -5q6 391 -1 750.5 t-28 678.5z" />
<glyph unicode="&#xcd;" horiz-adv-x="448" d="M135 1524q37 106 57.5 189t26.5 161q31 4 66.5 2t60.5 -8q-10 -88 -41.5 -176t-85.5 -183q-23 2 -43 5.5t-41 9.5zM141 1372q20 10 41 14.5t43 4.5q8 0 17.5 -1t23.5 -4q6 -88 9.5 -179t3.5 -222q0 -565 -3.5 -715.5t-7.5 -314.5q-14 -4 -39.5 -7t-58.5 -5 q6 391 -1 750.5t-28 678.5z" />
<glyph unicode="&#xce;" horiz-adv-x="448" d="M-72 1534q86 78 128 133.5t77 132.5q10 2 25.5 4t27.5 2q8 0 22.5 -1t24.5 -3q31 -72 73 -127t134 -139q-18 -18 -33.5 -27.5t-35.5 -19.5q-68 47 -110 87t-77 89q-33 -47 -76 -89t-110 -89q-23 12 -39 23.5t-31 23.5zM141 1372q20 10 41 14.5t43 4.5q8 0 17.5 -1 t23.5 -4q6 -88 9.5 -179t3.5 -222q0 -565 -3.5 -715.5t-7.5 -314.5q-14 -4 -39.5 -7t-58.5 -5q6 391 -1 750.5t-28 678.5z" />
<glyph unicode="&#xcf;" horiz-adv-x="448" d="M27 1559.5v27.5q0 47 10.5 100.5t26.5 88.5q18 6 30.5 8t30.5 0q23 -2 38.5 -6.5t31.5 -14.5q-25 -51 -44 -109.5t-32 -111.5q-14 -2 -39.5 -2t-50.5 2q-2 8 -2 17.5zM141 1372q20 10 41 14.5t43 4.5q8 0 17.5 -1t23.5 -4q6 -88 9.5 -179t3.5 -222q0 -565 -3.5 -715.5 t-7.5 -314.5q-14 -4 -39.5 -7t-58.5 -5q6 391 -1 750.5t-28 678.5zM240 1559.5v27.5q0 47 10.5 100.5t26.5 88.5q18 6 30.5 8t30.5 0q23 -2 38.5 -6.5t31.5 -14.5q-25 -51 -44 -109.5t-32 -111.5q-14 -2 -39.5 -2t-50.5 2q-2 8 -2 17.5z" />
<glyph unicode="&#xd0;" horiz-adv-x="1159" d="M-55 727q0 45 1 61.5t3 30.5q47 -6 94 -9t98 -5q-2 41 -2 89v146q0 86 2 181.5t4 167.5q82 39 169 59t165 20q293 0 441.5 -140.5t148.5 -416.5q0 -313 -214 -564t-587 -372l-7 1t-30 6q-39 4 -51 6t-14 2q-8 180 -14.5 351t-10.5 374q-47 2 -96 5t-100 7zM256 483 q0 -135 2 -229t6 -182q336 125 508 339t172 507q0 223 -117.5 338.5t-347.5 115.5q-55 0 -107.5 -8t-97.5 -25q-10 -158 -14 -282.5t-4 -253.5q74 2 153.5 10t184.5 27q2 -18 1 -42t-5 -50q-86 -14 -169 -22.5t-165 -10.5v-115.5v-116.5z" />
<glyph unicode="&#xd1;" horiz-adv-x="1261" d="M141 1397q55 25 79 32t59 13q231 -295 397 -578.5t307 -617.5q4 76 6 173t2 304q0 293 -8 490.5t-27 312.5q33 10 64 16t65 8q8 -131 11.5 -231t3.5 -195q0 -340 -10.5 -573.5t-32.5 -503.5q-16 -4 -37 -6t-55 -4q-156 358 -335 669.5t-368 546.5q-2 -121 2 -309.5 t4 -206.5q2 -125 10.5 -280.5t34.5 -526.5q-23 -4 -46 -7t-50 -5q-43 496 -59.5 815.5t-16.5 663.5zM370 1614q-6 74 25 115t94 41q25 0 48.5 -8t64.5 -33q31 -18 46 -23.5t27 -5.5q29 0 39.5 17.5t8.5 60.5q23 2 41 -2t45 -16q6 -78 -25 -117t-96 -39q-27 0 -52.5 8 t-66.5 33q-29 18 -43 23.5t-27 5.5q-25 0 -35 -18.5t-8 -55.5q-23 -2 -44 2t-42 12z" />
<glyph unicode="&#xd2;" horiz-adv-x="1210" d="M98 700q0 348 155.5 574.5t399.5 226.5q223 0 339 -180t116 -526q0 -354 -147.5 -595t-399.5 -241q-205 0 -334 208t-129 533zM223 719q0 -287 92 -475.5t250 -188.5q193 0 306.5 202t113.5 515q0 322 -84 476.5t-262 154.5q-180 0 -298 -191.5t-118 -492.5zM474 1942 q25 6 60.5 8t66.5 -2q6 -78 26.5 -161t56.5 -189q-20 -6 -40.5 -9t-42.5 -5q-53 94 -85 182t-42 176z" />
<glyph unicode="&#xd3;" horiz-adv-x="1210" d="M98 700q0 348 155.5 574.5t399.5 226.5q223 0 339 -180t116 -526q0 -354 -147.5 -595t-399.5 -241q-205 0 -334 208t-129 533zM223 719q0 -287 92 -475.5t250 -188.5q193 0 306.5 202t113.5 515q0 322 -84 476.5t-262 154.5q-180 0 -298 -191.5t-118 -492.5zM550 1587 q37 106 57.5 189t26.5 161q31 4 66.5 2t60.5 -8q-10 -88 -41.5 -176t-85.5 -183q-23 2 -43 5.5t-41 9.5z" />
<glyph unicode="&#xd4;" horiz-adv-x="1210" d="M98 700q0 348 155.5 574.5t399.5 226.5q223 0 339 -180t116 -526q0 -354 -147.5 -595t-399.5 -241q-205 0 -334 208t-129 533zM223 719q0 -287 92 -475.5t250 -188.5q193 0 306.5 202t113.5 515q0 322 -84 476.5t-262 154.5q-180 0 -298 -191.5t-118 -492.5zM397 1614 q86 78 128 133.5t77 132.5q10 2 25.5 4t27.5 2q8 0 22.5 -1t24.5 -3q31 -72 73 -127t134 -139q-18 -18 -33.5 -27.5t-35.5 -19.5q-68 47 -110 87t-77 89q-33 -47 -76 -89t-110 -89q-23 12 -39 23.5t-31 23.5z" />
<glyph unicode="&#xd5;" horiz-adv-x="1210" d="M98 700q0 348 155.5 574.5t399.5 226.5q223 0 339 -180t116 -526q0 -354 -147.5 -595t-399.5 -241q-205 0 -334 208t-129 533zM223 719q0 -287 92 -475.5t250 -188.5q193 0 306.5 202t113.5 515q0 322 -84 476.5t-262 154.5q-180 0 -298 -191.5t-118 -492.5zM438 1622 q-6 74 25 115t94 41q25 0 48.5 -8t64.5 -33q31 -18 46 -23.5t27 -5.5q29 0 39.5 17.5t8.5 60.5q23 2 41 -2t45 -16q6 -78 -25 -117t-96 -39q-27 0 -52.5 8t-66.5 33q-29 18 -43 23.5t-27 5.5q-25 0 -35 -18.5t-8 -55.5q-23 -2 -44 2t-42 12z" />
<glyph unicode="&#xd6;" horiz-adv-x="1210" d="M98 700q0 348 155.5 574.5t399.5 226.5q223 0 339 -180t116 -526q0 -354 -147.5 -595t-399.5 -241q-205 0 -334 208t-129 533zM223 719q0 -287 92 -475.5t250 -188.5q193 0 306.5 202t113.5 515q0 322 -84 476.5t-262 154.5q-180 0 -298 -191.5t-118 -492.5zM471 1631.5 v27.5q0 47 10.5 100.5t26.5 88.5q18 6 30.5 8t30.5 0q23 -2 38.5 -6.5t31.5 -14.5q-25 -51 -44 -109.5t-32 -111.5q-14 -2 -39.5 -2t-50.5 2q-2 8 -2 17.5zM684 1631.5v27.5q0 47 10.5 100.5t26.5 88.5q18 6 30.5 8t30.5 0q23 -2 38.5 -6.5t31.5 -14.5q-25 -51 -44 -109.5 t-32 -111.5q-14 -2 -39.5 -2t-50.5 2q-2 8 -2 17.5z" />
<glyph unicode="&#xd7;" horiz-adv-x="698" d="M102 819q14 14 31 27.5t33 23.5q39 -31 83 -68.5t103 -92.5q47 49 93.5 91t91.5 77q16 -10 30.5 -25.5t28.5 -36.5q-47 -37 -91 -77t-93 -91q51 -53 97 -105.5t87 -105.5q-14 -14 -29.5 -26.5t-38.5 -26.5q-59 74 -97 119t-77 84q-18 -20 -38.5 -44t-65.5 -77 q-27 -31 -40 -46.5t-26 -29.5q-16 10 -31.5 25.5t-25.5 31.5q45 57 86 106.5t80 94.5q-53 51 -99.5 92t-91.5 80z" />
<glyph unicode="&#xd8;" horiz-adv-x="1177" d="M82 700q0 348 155.5 574.5t399.5 226.5q72 0 132 -18.5t112 -57.5q14 35 32.5 76t57.5 125q20 -8 38.5 -20.5t43.5 -30.5q-41 -94 -61.5 -140t-37.5 -83q68 -90 103 -230.5t35 -326.5q0 -354 -147.5 -595t-399.5 -241q-63 0 -120.5 21.5t-109.5 64.5q-27 -49 -52 -98 t-52 -99q-29 8 -50.5 20.5t-43.5 31.5q35 59 66.5 113.5t60.5 105.5q-78 102 -120 251.5t-42 329.5zM207 719q0 -137 25.5 -266t72.5 -222q109 201 229.5 451t296.5 639q-39 41 -90.5 61.5t-117.5 20.5q-180 0 -298 -191.5t-118 -492.5zM367 141q37 -43 83 -64.5t99 -21.5 q193 0 306.5 202t113.5 515q0 150 -17.5 262.5t-54.5 188.5q-125 -272 -255 -537.5t-275 -544.5z" />
<glyph unicode="&#xd9;" horiz-adv-x="1101" d="M119 561q0 186 29.5 390t72.5 339q12 4 33.5 6t40.5 2q10 0 20.5 -1t24.5 -3q-47 -188 -71.5 -363t-24.5 -331q0 -354 59 -508.5t201 -154.5q164 0 254 186t90 524q0 213 -22.5 388t-77.5 386q29 8 57 13.5t69 9.5q49 -184 73 -358.5t24 -342.5q0 -461 -120 -684 t-370 -223q-184 0 -273 179.5t-89 545.5zM353 1770q25 6 60.5 8t66.5 -2q6 -78 26.5 -161t56.5 -189q-20 -6 -40.5 -9t-42.5 -5q-53 94 -85 182t-42 176z" />
<glyph unicode="&#xda;" horiz-adv-x="1101" d="M119 561q0 186 29.5 390t72.5 339q12 4 33.5 6t40.5 2q10 0 20.5 -1t24.5 -3q-47 -188 -71.5 -363t-24.5 -331q0 -354 59 -508.5t201 -154.5q164 0 254 186t90 524q0 213 -22.5 388t-77.5 386q29 8 57 13.5t69 9.5q49 -184 73 -358.5t24 -342.5q0 -461 -120 -684 t-370 -223q-184 0 -273 179.5t-89 545.5zM456 1420q37 106 57.5 189t26.5 161q31 4 66.5 2t60.5 -8q-10 -88 -41.5 -176t-85.5 -183q-23 2 -43 5.5t-41 9.5z" />
<glyph unicode="&#xdb;" horiz-adv-x="1101" d="M119 561q0 186 29.5 390t72.5 339q12 4 33.5 6t40.5 2q10 0 20.5 -1t24.5 -3q-47 -188 -71.5 -363t-24.5 -331q0 -354 59 -508.5t201 -154.5q164 0 254 186t90 524q0 213 -22.5 388t-77.5 386q29 8 57 13.5t69 9.5q49 -184 73 -358.5t24 -342.5q0 -461 -120 -684 t-370 -223q-184 0 -273 179.5t-89 545.5zM262 1550q86 78 128 133.5t77 132.5q10 2 25.5 4t27.5 2q8 0 22.5 -1t24.5 -3q31 -72 73 -127t134 -139q-18 -18 -33.5 -27.5t-35.5 -19.5q-68 47 -110 87t-77 89q-33 -47 -76 -89t-110 -89q-23 12 -39 23.5t-31 23.5z" />
<glyph unicode="&#xdc;" horiz-adv-x="1101" d="M119 561q0 186 29.5 390t72.5 339q12 4 33.5 6t40.5 2q10 0 20.5 -1t24.5 -3q-47 -188 -71.5 -363t-24.5 -331q0 -354 59 -508.5t201 -154.5q164 0 254 186t90 524q0 213 -22.5 388t-77.5 386q29 8 57 13.5t69 9.5q49 -184 73 -358.5t24 -342.5q0 -461 -120 -684 t-370 -223q-184 0 -273 179.5t-89 545.5zM362 1526.5v27.5q0 47 10.5 100.5t26.5 88.5q18 6 30.5 8t30.5 0q23 -2 38.5 -6.5t31.5 -14.5q-25 -51 -44 -109.5t-32 -111.5q-14 -2 -39.5 -2t-50.5 2q-2 8 -2 17.5zM575 1526.5v27.5q0 47 10.5 100.5t26.5 88.5q18 6 30.5 8 t30.5 0q23 -2 38.5 -6.5t31.5 -14.5q-25 -51 -44 -109.5t-32 -111.5q-14 -2 -39.5 -2t-50.5 2q-2 8 -2 17.5z" />
<glyph unicode="&#xdd;" horiz-adv-x="1032" d="M37 1454q35 14 66.5 23.5t64.5 11.5q55 -274 147.5 -512t237.5 -475q88 203 152.5 436t111.5 522q35 -8 68.5 -20.5t66.5 -28.5q-160 -631 -305 -964.5t-352 -610.5q-27 8 -51.5 18.5t-46.5 24.5q92 129 167.5 254t135.5 252q-164 227 -270.5 471t-192.5 598zM415 1483 q37 106 57.5 189t26.5 161q31 4 66.5 2t60.5 -8q-10 -88 -41.5 -176t-85.5 -183q-23 2 -43 5.5t-41 9.5z" />
<glyph unicode="&#xde;" horiz-adv-x="1064" d="M125 1102q0 78 4 190.5t10 184.5q35 2 68 -4.5t65 -20.5q-2 -27 -7 -85t-13 -146q66 12 123 17t114 5q250 0 386.5 -105.5t136.5 -293.5q0 -209 -183.5 -361.5t-578.5 -271.5q4 -72 10 -155t14 -195q-27 -4 -56.5 -4t-45.5 6q-27 330 -37 569.5t-10 669.5zM236 731 q0 -102 2 -201.5t8 -222.5q319 86 481 218t162 309q0 156 -99.5 237.5t-289.5 81.5q-78 0 -139.5 -8.5t-114.5 -26.5q-6 -92 -8 -184t-2 -203z" />
<glyph unicode="&#xdf;" horiz-adv-x="1099" d="M53 834q0 25 3 45t10 26q23 -4 48 -7t66 -7q10 299 99.5 448.5t261.5 149.5q119 0 188.5 -77t69.5 -200q0 -57 -23.5 -105t-81.5 -103q-49 -49 -68.5 -92.5t-19.5 -98.5q0 -68 39 -122t168 -134q147 -90 193.5 -160.5t46.5 -160.5q0 -139 -77 -228.5t-202 -89.5 q-139 0 -225 106.5t-86 280.5q31 8 55.5 11t50.5 1q-4 -145 51.5 -227t157.5 -82q78 0 120 54.5t42 150.5q0 74 -41 133.5t-176 145.5q-137 86 -179 147t-42 137q0 70 24.5 126t83.5 118q51 53 67.5 96t16.5 111q0 76 -42 123t-111 47q-123 0 -189.5 -123t-66.5 -356 q0 -276 22.5 -512t67.5 -424q-37 -12 -64.5 -18.5t-50.5 -6.5q-27 123 -52.5 378t-27.5 466q-39 6 -71.5 15t-55.5 18z" />
<glyph unicode="&#xe0;" horiz-adv-x="890" d="M57 283q0 131 113 199.5t328 68.5q29 0 58.5 -1t86.5 -3q2 25 2 54.5v96.5q0 160 -43 230.5t-143 70.5t-169 -86t-73 -217q-45 10 -70.5 23.5t-42.5 36.5q23 139 130.5 237.5t242.5 98.5q143 0 216 -100.5t73 -299.5q0 -137 -37 -359t-88 -403q-23 0 -48.5 5.5 t-51.5 15.5q8 33 19 82t13 55q-43 -35 -98 -53.5t-117 -18.5q-135 0 -218 74t-83 193zM176 283q0 -80 53.5 -128.5t139.5 -48.5q63 0 121.5 19.5t105.5 56.5q20 96 29.5 163t13.5 130q-229 14 -346 -33.5t-117 -158.5zM355 1530q25 6 60.5 8t66.5 -2q6 -78 26.5 -161 t56.5 -189q-20 -6 -40.5 -9t-42.5 -5q-53 94 -85 182t-42 176z" />
<glyph unicode="&#xe1;" horiz-adv-x="890" d="M57 283q0 131 113 199.5t328 68.5q29 0 58.5 -1t86.5 -3q2 25 2 54.5v96.5q0 160 -43 230.5t-143 70.5t-169 -86t-73 -217q-45 10 -70.5 23.5t-42.5 36.5q23 139 130.5 237.5t242.5 98.5q143 0 216 -100.5t73 -299.5q0 -137 -37 -359t-88 -403q-23 0 -48.5 5.5 t-51.5 15.5q8 33 19 82t13 55q-43 -35 -98 -53.5t-117 -18.5q-135 0 -218 74t-83 193zM176 283q0 -80 53.5 -128.5t139.5 -48.5q63 0 121.5 19.5t105.5 56.5q20 96 29.5 163t13.5 130q-229 14 -346 -33.5t-117 -158.5zM428 1182q37 106 57.5 189t26.5 161q31 4 66.5 2 t60.5 -8q-10 -88 -41.5 -176t-85.5 -183q-23 2 -43 5.5t-41 9.5z" />
<glyph unicode="&#xe2;" horiz-adv-x="890" d="M57 283q0 131 113 199.5t328 68.5q29 0 58.5 -1t86.5 -3q2 25 2 54.5v96.5q0 160 -43 230.5t-143 70.5t-169 -86t-73 -217q-45 10 -70.5 23.5t-42.5 36.5q23 139 130.5 237.5t242.5 98.5q143 0 216 -100.5t73 -299.5q0 -137 -37 -359t-88 -403q-23 0 -48.5 5.5 t-51.5 15.5q8 33 19 82t13 55q-43 -35 -98 -53.5t-117 -18.5q-135 0 -218 74t-83 193zM176 283q0 -80 53.5 -128.5t139.5 -48.5q63 0 121.5 19.5t105.5 56.5q20 96 29.5 163t13.5 130q-229 14 -346 -33.5t-117 -158.5zM231 1202q86 78 128 133.5t77 132.5q10 2 25.5 4 t27.5 2q8 0 22.5 -1t24.5 -3q31 -72 73 -127t134 -139q-18 -18 -33.5 -27.5t-35.5 -19.5q-68 47 -110 87t-77 89q-33 -47 -76 -89t-110 -89q-23 12 -39 23.5t-31 23.5z" />
<glyph unicode="&#xe3;" horiz-adv-x="890" d="M57 283q0 131 113 199.5t328 68.5q29 0 58.5 -1t86.5 -3q2 25 2 54.5v96.5q0 160 -43 230.5t-143 70.5t-169 -86t-73 -217q-45 10 -70.5 23.5t-42.5 36.5q23 139 130.5 237.5t242.5 98.5q143 0 216 -100.5t73 -299.5q0 -137 -37 -359t-88 -403q-23 0 -48.5 5.5 t-51.5 15.5q8 33 19 82t13 55q-43 -35 -98 -53.5t-117 -18.5q-135 0 -218 74t-83 193zM176 283q0 -80 53.5 -128.5t139.5 -48.5q63 0 121.5 19.5t105.5 56.5q20 96 29.5 163t13.5 130q-229 14 -346 -33.5t-117 -158.5zM262 1227q-6 74 25 115t94 41q25 0 48.5 -8t64.5 -33 q31 -18 46 -23.5t27 -5.5q29 0 39.5 17.5t8.5 60.5q23 2 41 -2t45 -16q6 -78 -25 -117t-96 -39q-27 0 -52.5 8t-66.5 33q-29 18 -43 23.5t-27 5.5q-25 0 -35 -18.5t-8 -55.5q-23 -2 -44 2t-42 12z" />
<glyph unicode="&#xe4;" horiz-adv-x="890" d="M57 283q0 131 113 199.5t328 68.5q29 0 58.5 -1t86.5 -3q2 25 2 54.5v96.5q0 160 -43 230.5t-143 70.5t-169 -86t-73 -217q-45 10 -70.5 23.5t-42.5 36.5q23 139 130.5 237.5t242.5 98.5q143 0 216 -100.5t73 -299.5q0 -137 -37 -359t-88 -403q-23 0 -48.5 5.5 t-51.5 15.5q8 33 19 82t13 55q-43 -35 -98 -53.5t-117 -18.5q-135 0 -218 74t-83 193zM176 283q0 -80 53.5 -128.5t139.5 -48.5q63 0 121.5 19.5t105.5 56.5q20 96 29.5 163t13.5 130q-229 14 -346 -33.5t-117 -158.5zM346 1213.5v27.5q0 47 10.5 100.5t26.5 88.5 q18 6 30.5 8t30.5 0q23 -2 38.5 -6.5t31.5 -14.5q-25 -51 -44 -109.5t-32 -111.5q-14 -2 -39.5 -2t-50.5 2q-2 8 -2 17.5zM559 1213.5v27.5q0 47 10.5 100.5t26.5 88.5q18 6 30.5 8t30.5 0q23 -2 38.5 -6.5t31.5 -14.5q-25 -51 -44 -109.5t-32 -111.5q-14 -2 -39.5 -2 t-50.5 2q-2 8 -2 17.5z" />
<glyph unicode="&#xe5;" horiz-adv-x="890" d="M57 283q0 131 113 199.5t328 68.5q29 0 58.5 -1t86.5 -3q2 25 2 54.5v96.5q0 160 -43 230.5t-143 70.5t-169 -86t-73 -217q-45 10 -70.5 23.5t-42.5 36.5q23 139 130.5 237.5t242.5 98.5q143 0 216 -100.5t73 -299.5q0 -137 -37 -359t-88 -403q-23 0 -48.5 5.5 t-51.5 15.5q8 33 19 82t13 55q-43 -35 -98 -53.5t-117 -18.5q-135 0 -218 74t-83 193zM176 283q0 -80 53.5 -128.5t139.5 -48.5q63 0 121.5 19.5t105.5 56.5q20 96 29.5 163t13.5 130q-229 14 -346 -33.5t-117 -158.5zM308 1352q0 92 57 147.5t154 55.5q82 0 129 -44 t47 -120q0 -102 -55.5 -160.5t-149.5 -58.5q-80 0 -131 51t-51 129zM408 1350q0 -47 25.5 -77t62.5 -30q43 0 68.5 37.5t25.5 98.5q0 53 -22.5 81.5t-59.5 28.5q-45 0 -72.5 -38t-27.5 -101z" />
<glyph unicode="&#xe6;" horiz-adv-x="1429" d="M57 272q0 133 114 206t327 73q29 0 55.5 -1t91.5 -3q2 43 1 95t-1 56q0 160 -43 230.5t-143 70.5t-169 -86t-73 -217q-45 10 -70.5 23.5t-42.5 36.5q23 139 130.5 237.5t242.5 98.5q106 0 176 -67t97 -189q66 115 149.5 176t177.5 61q113 0 177.5 -74.5t64.5 -203.5 q0 -72 -13.5 -141.5t-37.5 -131.5q-39 -12 -92.5 -18t-126.5 -6q-72 0 -146 13t-143 38q-4 -25 -5 -48.5t-1 -47.5q0 -170 60 -275.5t163 -105.5q90 0 177 78.5t118 191.5q25 -4 50.5 -18.5t43.5 -34.5q-37 -119 -153.5 -214t-233.5 -95q-98 0 -172 53t-117 155 q-68 -86 -156 -129t-196 -43q-129 0 -205 70t-76 186zM176 272q0 -78 46 -122t126 -44q92 0 174 37t146 109q-12 45 -19.5 98t-7.5 111v7v7q-227 18 -346 -35t-119 -168zM776 633q63 -27 137 -39t170 -12q25 0 52.5 3t40.5 7q14 59 22 110.5t8 94.5q0 98 -32.5 140 t-106.5 42q-94 0 -174 -96t-117 -250z" />
<glyph unicode="&#xe7;" horiz-adv-x="835" d="M57 410q0 305 115 503.5t291 198.5q135 0 211 -94t76 -260q-29 -14 -58.5 -20.5t-62.5 -6.5q0 143 -41 216t-121 73q-123 0 -211 -182.5t-88 -417.5q0 -176 60.5 -276.5t170.5 -100.5q82 0 150.5 66.5t118.5 193.5q25 -10 44 -22.5t33 -30.5q-29 -113 -118.5 -197 t-198.5 -98q-4 -18 -11 -37.5t-20 -40.5q20 2 27.5 3t13.5 1q78 0 127 -43.5t49 -113.5q0 -88 -60 -139.5t-161 -51.5q-76 0 -127 38t-80 114q10 6 31 19t51 26q16 -49 48 -78t73 -29q47 0 75 25.5t28 68.5q0 37 -27 61.5t-70 24.5q-16 0 -33.5 -4t-35.5 -14 q-16 12 -33 28.5t-23 26.5q20 31 33.5 58.5t22.5 56.5q-131 20 -200 138t-69 317z" />
<glyph unicode="&#xe8;" horiz-adv-x="851" d="M63 461q0 233 128 422.5t309 189.5q113 0 177 -74.5t64 -203.5q0 -72 -13 -141.5t-38 -131.5q-39 -12 -92 -18t-127 -6q-72 0 -145.5 13t-143.5 38q-4 -25 -5 -48.5t-1 -47.5q0 -170 60.5 -275.5t162.5 -105.5q90 0 177 78.5t118 191.5q25 -4 50.5 -18.5t43.5 -34.5 q-37 -119 -153.5 -214t-233.5 -95q-158 0 -248 131t-90 350zM199 633q63 -27 137 -39t170 -12q25 0 52.5 3t39.5 7q14 59 22.5 110.5t8.5 94.5q0 98 -33 140t-107 42q-94 0 -173.5 -96t-116.5 -250zM379 1530q25 6 60.5 8t66.5 -2q6 -78 26.5 -161t56.5 -189 q-20 -6 -40.5 -9t-42.5 -5q-53 94 -85 182t-42 176z" />
<glyph unicode="&#xe9;" horiz-adv-x="851" d="M63 461q0 233 128 422.5t309 189.5q113 0 177 -74.5t64 -203.5q0 -72 -13 -141.5t-38 -131.5q-39 -12 -92 -18t-127 -6q-72 0 -145.5 13t-143.5 38q-4 -25 -5 -48.5t-1 -47.5q0 -170 60.5 -275.5t162.5 -105.5q90 0 177 78.5t118 191.5q25 -4 50.5 -18.5t43.5 -34.5 q-37 -119 -153.5 -214t-233.5 -95q-158 0 -248 131t-90 350zM199 633q63 -27 137 -39t170 -12q25 0 52.5 3t39.5 7q14 59 22.5 110.5t8.5 94.5q0 98 -33 140t-107 42q-94 0 -173.5 -96t-116.5 -250zM487 1184q37 106 57.5 189t26.5 161q31 4 66.5 2t60.5 -8 q-10 -88 -41.5 -176t-85.5 -183q-23 2 -43 5.5t-41 9.5z" />
<glyph unicode="&#xea;" horiz-adv-x="851" d="M63 461q0 233 128 422.5t309 189.5q113 0 177 -74.5t64 -203.5q0 -72 -13 -141.5t-38 -131.5q-39 -12 -92 -18t-127 -6q-72 0 -145.5 13t-143.5 38q-4 -25 -5 -48.5t-1 -47.5q0 -170 60.5 -275.5t162.5 -105.5q90 0 177 78.5t118 191.5q25 -4 50.5 -18.5t43.5 -34.5 q-37 -119 -153.5 -214t-233.5 -95q-158 0 -248 131t-90 350zM199 633q63 -27 137 -39t170 -12q25 0 52.5 3t39.5 7q14 59 22.5 110.5t8.5 94.5q0 98 -33 140t-107 42q-94 0 -173.5 -96t-116.5 -250zM293 1208q86 78 128 133.5t77 132.5q10 2 25.5 4t27.5 2q8 0 22.5 -1 t24.5 -3q31 -72 73 -127t134 -139q-18 -18 -33.5 -27.5t-35.5 -19.5q-68 47 -110 87t-77 89q-33 -47 -76 -89t-110 -89q-23 12 -39 23.5t-31 23.5z" />
<glyph unicode="&#xeb;" horiz-adv-x="851" d="M63 461q0 233 128 422.5t309 189.5q113 0 177 -74.5t64 -203.5q0 -72 -13 -141.5t-38 -131.5q-39 -12 -92 -18t-127 -6q-72 0 -145.5 13t-143.5 38q-4 -25 -5 -48.5t-1 -47.5q0 -170 60.5 -275.5t162.5 -105.5q90 0 177 78.5t118 191.5q25 -4 50.5 -18.5t43.5 -34.5 q-37 -119 -153.5 -214t-233.5 -95q-158 0 -248 131t-90 350zM199 633q63 -27 137 -39t170 -12q25 0 52.5 3t39.5 7q14 59 22.5 110.5t8.5 94.5q0 98 -33 140t-107 42q-94 0 -173.5 -96t-116.5 -250zM397 1190.5v27.5q0 47 10.5 100.5t26.5 88.5q18 6 30.5 8t30.5 0 q23 -2 38.5 -6.5t31.5 -14.5q-25 -51 -44 -109.5t-32 -111.5q-14 -2 -39.5 -2t-50.5 2q-2 8 -2 17.5zM610 1190.5v27.5q0 47 10.5 100.5t26.5 88.5q18 6 30.5 8t30.5 0q23 -2 38.5 -6.5t31.5 -14.5q-25 -51 -44 -109.5t-32 -111.5q-14 -2 -39.5 -2t-50.5 2q-2 8 -2 17.5z " />
<glyph unicode="&#xec;" horiz-adv-x="387" d="M50 1469q25 6 60.5 8t66.5 -2q6 -78 26.5 -161t56.5 -189q-20 -6 -40.5 -9t-42.5 -5q-53 94 -85 182t-42 176zM112.5 519.5q6.5 279.5 47.5 500.5q18 10 36.5 15t36.5 5q8 0 18.5 -1t20.5 -5q-41 -229 -53 -518t8 -524q-12 -4 -25.5 -7t-27.5 -3q-8 0 -16 1t-17 3 q-35 254 -28.5 533.5z" />
<glyph unicode="&#xed;" horiz-adv-x="387" d="M112.5 519.5q6.5 279.5 47.5 500.5q18 10 36.5 15t36.5 5q8 0 18.5 -1t20.5 -5q-41 -229 -53 -518t8 -524q-12 -4 -25.5 -7t-27.5 -3q-8 0 -16 1t-17 3q-35 254 -28.5 533.5zM180 1123q37 106 57.5 189t26.5 161q31 4 66.5 2t60.5 -8q-10 -88 -41.5 -176t-85.5 -183 q-23 2 -43 5.5t-41 9.5z" />
<glyph unicode="&#xee;" horiz-adv-x="387" d="M-23 1165q86 78 128 133.5t77 132.5q10 2 25.5 4t27.5 2q8 0 22.5 -1t24.5 -3q31 -72 73 -127t134 -139q-18 -18 -33.5 -27.5t-35.5 -19.5q-68 47 -110 87t-77 89q-33 -47 -76 -89t-110 -89q-23 12 -39 23.5t-31 23.5zM112.5 519.5q6.5 279.5 47.5 500.5q18 10 36.5 15 t36.5 5q8 0 18.5 -1t20.5 -5q-41 -229 -53 -518t8 -524q-12 -4 -25.5 -7t-27.5 -3q-8 0 -16 1t-17 3q-35 254 -28.5 533.5z" />
<glyph unicode="&#xef;" horiz-adv-x="387" d="M76 1176.5v27.5q0 47 10.5 100.5t26.5 88.5q18 6 30.5 8t30.5 0q23 -2 38.5 -6.5t31.5 -14.5q-25 -51 -44 -109.5t-32 -111.5q-14 -2 -39.5 -2t-50.5 2q-2 8 -2 17.5zM112.5 519.5q6.5 279.5 47.5 500.5q18 10 36.5 15t36.5 5q8 0 18.5 -1t20.5 -5q-41 -229 -53 -518 t8 -524q-12 -4 -25.5 -7t-27.5 -3q-8 0 -16 1t-17 3q-35 254 -28.5 533.5zM289 1176.5v27.5q0 47 10.5 100.5t26.5 88.5q18 6 30.5 8t30.5 0q23 -2 38.5 -6.5t31.5 -14.5q-25 -51 -44 -109.5t-32 -111.5q-14 -2 -39.5 -2t-50.5 2q-2 8 -2 17.5z" />
<glyph unicode="&#xf0;" horiz-adv-x="894" d="M70 483q0 264 115.5 421t312.5 157q35 0 74.5 -5t72.5 -16q-2 27 -2 56.5v89.5q-74 -2 -148.5 1t-154.5 11q0 45 1 61.5t3 30.5q90 -10 160.5 -14t136.5 -2v99v100q14 8 32.5 12t35.5 4q16 0 31.5 -2t29.5 -6q-4 -51 -6 -101.5t-4 -99.5q49 4 104.5 11t124.5 20 q2 -18 1 -42t-5 -50q-57 -10 -113.5 -16.5t-113.5 -10.5q-2 -94 -3 -209t-1 -723q0 -98 1 -170t5 -164q-16 -6 -40 -9t-42 -3q-2 51 -5 119.5t-7 154.5q-37 -127 -100.5 -188t-159.5 -61q-154 0 -245 150.5t-91 393.5zM182 502q0 -225 60.5 -349t167.5 -124 q100 0 163.5 109.5t81.5 320.5q-2 43 -3 95t-3 159q0 100 -1 149t-3 92q-25 8 -57.5 12.5t-73.5 4.5q-150 0 -241 -125t-91 -344z" />
<glyph unicode="&#xf1;" horiz-adv-x="894" d="M106 1063q16 8 35 12t39 4q14 0 30.5 -1t35.5 -5q0 -4 -6.5 -90t-8.5 -145q68 117 144 175t160 58q125 0 180 -90t55 -289q0 -162 -25.5 -359.5t-54.5 -307.5q-27 2 -56.5 9t-45.5 15q37 203 53 355.5t16 295.5q0 141 -34.5 204t-112.5 63t-154.5 -76t-132.5 -209 q-2 -82 -4 -162.5t-2 -150.5q0 -109 4 -239t12 -185q-18 -8 -45.5 -12.5t-52.5 -4.5q-10 207 -19.5 549t-9.5 586zM250 1216q-6 74 25 115t94 41q25 0 48.5 -8t64.5 -33q31 -18 46 -23.5t27 -5.5q29 0 39.5 17.5t8.5 60.5q23 2 41 -2t45 -16q6 -78 -25 -117t-96 -39 q-27 0 -52.5 8t-66.5 33q-29 18 -43 23.5t-27 5.5q-25 0 -35 -18.5t-8 -55.5q-23 -2 -44 2t-42 12z" />
<glyph unicode="&#xf2;" horiz-adv-x="882" d="M63 500q0 262 114 427t294 165q152 0 240 -120t88 -323q0 -299 -107.5 -484t-281.5 -185q-158 0 -252.5 145.5t-94.5 374.5zM176 514q0 -188 67.5 -315t182.5 -127q100 0 176 144t76 351q0 219 -57.5 325.5t-176.5 106.5q-109 0 -188.5 -141t-79.5 -344zM314 1520 q25 6 60.5 8t66.5 -2q6 -78 26.5 -161t56.5 -189q-20 -6 -40.5 -9t-42.5 -5q-53 94 -85 182t-42 176z" />
<glyph unicode="&#xf3;" horiz-adv-x="882" d="M63 500q0 262 114 427t294 165q152 0 240 -120t88 -323q0 -299 -107.5 -484t-281.5 -185q-158 0 -252.5 145.5t-94.5 374.5zM176 514q0 -188 67.5 -315t182.5 -127q100 0 176 144t76 351q0 219 -57.5 325.5t-176.5 106.5q-109 0 -188.5 -141t-79.5 -344zM401 1172 q37 106 57.5 189t26.5 161q31 4 66.5 2t60.5 -8q-10 -88 -41.5 -176t-85.5 -183q-23 2 -43 5.5t-41 9.5z" />
<glyph unicode="&#xf4;" horiz-adv-x="882" d="M63 500q0 262 114 427t294 165q152 0 240 -120t88 -323q0 -299 -107.5 -484t-281.5 -185q-158 0 -252.5 145.5t-94.5 374.5zM176 514q0 -188 67.5 -315t182.5 -127q100 0 176 144t76 351q0 219 -57.5 325.5t-176.5 106.5q-109 0 -188.5 -141t-79.5 -344zM221 1235 q86 78 128 133.5t77 132.5q10 2 25.5 4t27.5 2q8 0 22.5 -1t24.5 -3q31 -72 73 -127t134 -139q-18 -18 -33.5 -27.5t-35.5 -19.5q-68 47 -110 87t-77 89q-33 -47 -76 -89t-110 -89q-23 12 -39 23.5t-31 23.5z" />
<glyph unicode="&#xf5;" horiz-adv-x="882" d="M63 500q0 262 114 427t294 165q152 0 240 -120t88 -323q0 -299 -107.5 -484t-281.5 -185q-158 0 -252.5 145.5t-94.5 374.5zM176 514q0 -188 67.5 -315t182.5 -127q100 0 176 144t76 351q0 219 -57.5 325.5t-176.5 106.5q-109 0 -188.5 -141t-79.5 -344zM278 1214 q-6 74 25 115t94 41q25 0 48.5 -8t64.5 -33q31 -18 46 -23.5t27 -5.5q29 0 39.5 17.5t8.5 60.5q23 2 41 -2t45 -16q6 -78 -25 -117t-96 -39q-27 0 -52.5 8t-66.5 33q-29 18 -43 23.5t-27 5.5q-25 0 -35 -18.5t-8 -55.5q-23 -2 -44 2t-42 12z" />
<glyph unicode="&#xf6;" horiz-adv-x="882" d="M63 500q0 262 114 427t294 165q152 0 240 -120t88 -323q0 -299 -107.5 -484t-281.5 -185q-158 0 -252.5 145.5t-94.5 374.5zM176 514q0 -188 67.5 -315t182.5 -127q100 0 176 144t76 351q0 219 -57.5 325.5t-176.5 106.5q-109 0 -188.5 -141t-79.5 -344zM326 1246.5v27.5 q0 47 10.5 100.5t26.5 88.5q18 6 30.5 8t30.5 0q23 -2 38.5 -6.5t31.5 -14.5q-25 -51 -44 -109.5t-32 -111.5q-14 -2 -39.5 -2t-50.5 2q-2 8 -2 17.5zM539 1246.5v27.5q0 47 10.5 100.5t26.5 88.5q18 6 30.5 8t30.5 0q23 -2 38.5 -6.5t31.5 -14.5q-25 -51 -44 -109.5 t-32 -111.5q-14 -2 -39.5 -2t-50.5 2q-2 8 -2 17.5z" />
<glyph unicode="&#xf7;" horiz-adv-x="698" d="M55 614q0 23 2 42.5t9 43.5q139 -16 270 -17t307 13q0 -23 -2 -43t-6 -39q-139 -16 -287 -16t-293 16zM295 485q45 10 84 11.5t78 -4.5q-2 -53 -5 -82t-8 -58q-41 -4 -74.5 -4t-68.5 4q0 10 -1 22.5t-1 33.5q-2 31 -3 46t-1 31zM299 936q45 10 84 11t78 -5q-2 -53 -5 -82 t-7 -57q-41 -4 -75 -4t-69 4q0 10 -1 22.5t-1 32.5l-3 46.5t-1 31.5z" />
<glyph unicode="&#xf8;" horiz-adv-x="882" d="M57 -88q18 37 41 79t66 126q-49 72 -75 170t-26 213q0 262 114 427t294 165q39 0 73 -7.5t64 -23.5q12 29 26.5 62.5t45.5 105.5q20 -8 38.5 -20.5t43.5 -30.5q-12 -33 -27.5 -70l-46.5 -111q53 -57 82 -146t29 -202q0 -299 -107.5 -484t-281.5 -185q-45 0 -88 13t-80 40 q-14 -31 -33 -66t-57 -106q-29 8 -50.5 20.5t-44.5 30.5zM176 514q0 -76 12.5 -147.5t36.5 -126.5q86 170 168 346t170 377q-25 18 -54.5 27t-64.5 9q-109 0 -188.5 -141t-79.5 -344zM293 131q29 -31 61.5 -45t71.5 -14q100 0 176 144t76 351q0 94 -11.5 169t-33.5 130 q-74 -176 -158 -357t-182 -378z" />
<glyph unicode="&#xf9;" horiz-adv-x="790" d="M84 555q0 143 22.5 283.5t57.5 205.5q12 4 25.5 7.5t27.5 3.5q10 0 21.5 -3t21.5 -8q-33 -98 -50 -226t-17 -283q0 -201 50 -332t136 -131q104 0 159.5 151.5t55.5 431.5q0 82 -8 168t-17 121q23 10 56.5 16.5t60.5 6.5q10 -45 15.5 -109.5t5.5 -130.5 q0 -362 -87.5 -554.5t-257.5 -192.5q-137 0 -207.5 146t-70.5 429zM265 1413q25 6 60.5 8t66.5 -2q6 -78 26.5 -161t56.5 -189q-20 -6 -40.5 -9t-42.5 -5q-53 94 -85 182t-42 176z" />
<glyph unicode="&#xfa;" horiz-adv-x="790" d="M84 555q0 143 22.5 283.5t57.5 205.5q12 4 25.5 7.5t27.5 3.5q10 0 21.5 -3t21.5 -8q-33 -98 -50 -226t-17 -283q0 -201 50 -332t136 -131q104 0 159.5 151.5t55.5 431.5q0 82 -8 168t-17 121q23 10 56.5 16.5t60.5 6.5q10 -45 15.5 -109.5t5.5 -130.5 q0 -362 -87.5 -554.5t-257.5 -192.5q-137 0 -207.5 146t-70.5 429zM364 1034q37 106 57.5 189t26.5 161q31 4 66.5 2t60.5 -8q-10 -88 -41.5 -176t-85.5 -183q-23 2 -43 5.5t-41 9.5z" />
<glyph unicode="&#xfb;" horiz-adv-x="790" d="M84 555q0 143 22.5 283.5t57.5 205.5q12 4 25.5 7.5t27.5 3.5q10 0 21.5 -3t21.5 -8q-33 -98 -50 -226t-17 -283q0 -201 50 -332t136 -131q104 0 159.5 151.5t55.5 431.5q0 82 -8 168t-17 121q23 10 56.5 16.5t60.5 6.5q10 -45 15.5 -109.5t5.5 -130.5 q0 -362 -87.5 -554.5t-257.5 -192.5q-137 0 -207.5 146t-70.5 429zM162 1163q86 78 128 133.5t77 132.5q10 2 25.5 4t27.5 2q8 0 22.5 -1t24.5 -3q31 -72 73 -127t134 -139q-18 -18 -33.5 -27.5t-35.5 -19.5q-68 47 -110 87t-77 89q-33 -47 -76 -89t-110 -89 q-23 12 -39 23.5t-31 23.5z" />
<glyph unicode="&#xfc;" horiz-adv-x="790" d="M84 555q0 143 22.5 283.5t57.5 205.5q12 4 25.5 7.5t27.5 3.5q10 0 21.5 -3t21.5 -8q-33 -98 -50 -226t-17 -283q0 -201 50 -332t136 -131q104 0 159.5 151.5t55.5 431.5q0 82 -8 168t-17 121q23 10 56.5 16.5t60.5 6.5q10 -45 15.5 -109.5t5.5 -130.5 q0 -362 -87.5 -554.5t-257.5 -192.5q-137 0 -207.5 146t-70.5 429zM285 1141.5v27.5q0 47 10.5 100.5t26.5 88.5q18 6 30.5 8t30.5 0q23 -2 38.5 -6.5t31.5 -14.5q-25 -51 -44 -109.5t-32 -111.5q-14 -2 -39.5 -2t-50.5 2q-2 8 -2 17.5zM498 1141.5v27.5q0 47 10.5 100.5 t26.5 88.5q18 6 30.5 8t30.5 0q23 -2 38.5 -6.5t31.5 -14.5q-25 -51 -44 -109.5t-32 -111.5q-14 -2 -39.5 -2t-50.5 2q-2 8 -2 17.5z" />
<glyph unicode="&#xfd;" horiz-adv-x="847" d="M84 502q0 139 19.5 259t84.5 324q27 -2 56.5 -9t46.5 -15q-51 -186 -70.5 -304t-19.5 -253q0 -162 54 -261.5t148 -99.5q66 0 121.5 60.5t98.5 181.5q-2 199 -20.5 347.5t-63.5 289.5q25 25 60.5 34t68.5 1q31 -135 50 -314t19 -335q0 -412 -96 -632t-260 -220 q-113 0 -188.5 88t-102.5 239q29 18 56.5 30.5t54.5 20.5q23 -154 65.5 -220t120.5 -66q98 0 157.5 140t73.5 413q-47 -80 -107 -121t-132 -41q-133 0 -214 126t-81 337zM387 1073q37 106 57.5 189t26.5 161q31 4 66.5 2t60.5 -8q-10 -88 -41.5 -176t-85.5 -183 q-23 2 -43 5.5t-41 9.5z" />
<glyph unicode="&#xfe;" horiz-adv-x="868" d="M115.5 633.5q-11.5 542.5 52.5 875.5q20 12 40.5 17.5t47.5 5.5q14 0 24.5 -1t22.5 -5q-33 -117 -52.5 -281t-25.5 -377q53 127 135 196t183 69q115 0 184.5 -111t69.5 -295q0 -299 -129 -503t-312 -204q-31 0 -57 5.5t-53 15.5q10 -137 24.5 -256t30.5 -215 q-27 -8 -52.5 -12t-49.5 -4q-72 537 -83.5 1079.5zM221 668q0 -119 4.5 -247t12.5 -259q25 -27 54.5 -40t63.5 -13q129 0 224.5 176t95.5 436q0 137 -47 217t-127 80q-96 0 -168 -89t-113 -261z" />
<glyph unicode="&#xff;" horiz-adv-x="847" d="M84 502q0 139 19.5 259t84.5 324q27 -2 56.5 -9t46.5 -15q-51 -186 -70.5 -304t-19.5 -253q0 -162 54 -261.5t148 -99.5q66 0 121.5 60.5t98.5 181.5q-2 199 -20.5 347.5t-63.5 289.5q25 25 60.5 34t68.5 1q31 -135 50 -314t19 -335q0 -412 -96 -632t-260 -220 q-113 0 -188.5 88t-102.5 239q29 18 56.5 30.5t54.5 20.5q23 -154 65.5 -220t120.5 -66q98 0 157.5 140t73.5 413q-47 -80 -107 -121t-132 -41q-133 0 -214 126t-81 337zM283 1135.5v27.5q0 47 10.5 100.5t26.5 88.5q18 6 30.5 8t30.5 0q23 -2 38.5 -6.5t31.5 -14.5 q-25 -51 -44 -109.5t-32 -111.5q-14 -2 -39.5 -2t-50.5 2q-2 8 -2 17.5zM496 1135.5v27.5q0 47 10.5 100.5t26.5 88.5q18 6 30.5 8t30.5 0q23 -2 38.5 -6.5t31.5 -14.5q-25 -51 -44 -109.5t-32 -111.5q-14 -2 -39.5 -2t-50.5 2q-2 8 -2 17.5z" />
<glyph unicode="&#x152;" horiz-adv-x="1806" d="M98 659q0 365 135.5 583t368.5 218q92 0 165 -39t126 -114v22t-2 35v34v21q274 47 436 64.5t346 21.5q2 -27 0 -50t-6 -46q-168 -2 -326.5 -17.5t-326.5 -45.5q-2 -150 3 -288t17 -288q274 43 361.5 54.5t175.5 19.5q6 -25 8 -47.5t0 -44.5q-156 -12 -268.5 -26.5 t-268.5 -43.5q16 -172 38 -343t46 -331q195 6 326 21.5t264 44.5q6 -23 7 -53t-3 -50q-176 -25 -330.5 -37t-359.5 -18q-16 106 -29.5 206.5t-23.5 192.5q-53 -197 -152.5 -297t-242.5 -100q-213 0 -348.5 208t-135.5 533zM223 678q0 -285 98.5 -474.5t264.5 -189.5 q160 0 246 188.5t81 528.5q-4 309 -87 470t-238 161q-172 0 -268.5 -182.5t-96.5 -501.5z" />
<glyph unicode="&#x153;" horiz-adv-x="1544" d="M63 479q0 262 114 427t294 165q113 0 192.5 -67.5t112.5 -192.5q63 117 151.5 179.5t188.5 62.5q113 0 177.5 -75t64.5 -204q0 -72 -13.5 -141.5t-37.5 -130.5q-39 -12 -92.5 -18.5t-127.5 -6.5q-72 0 -145.5 13.5t-142.5 37.5q-2 -25 -4 -49t-2 -47q0 -170 60 -275.5 t163 -105.5q90 0 177 79t118 192q25 -4 50 -18.5t44 -35.5q-37 -119 -153.5 -214t-233.5 -95q-106 0 -183 61.5t-116 176.5q-53 -115 -132 -176.5t-177 -61.5q-158 0 -252.5 145.5t-94.5 374.5zM176 494q0 -188 67.5 -315.5t182.5 -127.5q100 0 176 144.5t76 351.5 q0 219 -57.5 325.5t-176.5 106.5q-109 0 -188.5 -141.5t-79.5 -343.5zM815 612q63 -27 137 -39t170 -12q25 0 52.5 3t39.5 7q14 59 22.5 110.5t8.5 94.5q0 98 -32.5 140t-106.5 42q-94 0 -174 -96t-117 -250z" />
<glyph unicode="&#x178;" horiz-adv-x="1032" d="M37 1454q35 14 66.5 23.5t64.5 11.5q55 -274 147.5 -512t237.5 -475q88 203 152.5 436t111.5 522q35 -8 68.5 -20.5t66.5 -28.5q-160 -631 -305 -964.5t-352 -610.5q-27 8 -51.5 18.5t-46.5 24.5q92 129 167.5 254t135.5 252q-164 227 -270.5 471t-192.5 598zM326 1596.5 v27.5q0 47 10.5 100.5t26.5 88.5q18 6 30.5 8t30.5 0q23 -2 38.5 -6.5t31.5 -14.5q-25 -51 -44 -109.5t-32 -111.5q-14 -2 -39.5 -2t-50.5 2q-2 8 -2 17.5zM539 1596.5v27.5q0 47 10.5 100.5t26.5 88.5q18 6 30.5 8t30.5 0q23 -2 38.5 -6.5t31.5 -14.5q-25 -51 -44 -109.5 t-32 -111.5q-14 -2 -39.5 -2t-50.5 2q-2 8 -2 17.5z" />
<glyph unicode="&#x2c6;" horiz-adv-x="532" d="M10 1241q86 78 128 133.5t77 132.5q10 2 25.5 4t27.5 2q8 0 22.5 -1t24.5 -3q31 -72 73 -127t134 -139q-18 -18 -33.5 -27.5t-35.5 -19.5q-68 47 -110 87t-77 89q-33 -47 -76 -89t-110 -89q-23 12 -39 23.5t-31 23.5z" />
<glyph unicode="&#x2dc;" horiz-adv-x="532" d="M53 1329q-6 74 25 115t94 41q25 0 48.5 -8t64.5 -33q31 -18 46 -23.5t27 -5.5q29 0 39.5 17.5t8.5 60.5q23 2 41 -2t45 -16q6 -78 -25 -117t-96 -39q-27 0 -52.5 8t-66.5 33q-29 18 -43 23.5t-27 5.5q-25 0 -35 -18.5t-8 -55.5q-23 -2 -44 2t-42 12z" />
<glyph unicode="&#x2000;" horiz-adv-x="975" />
<glyph unicode="&#x2001;" horiz-adv-x="1950" />
<glyph unicode="&#x2002;" horiz-adv-x="975" />
<glyph unicode="&#x2003;" horiz-adv-x="1950" />
<glyph unicode="&#x2004;" horiz-adv-x="650" />
<glyph unicode="&#x2005;" horiz-adv-x="487" />
<glyph unicode="&#x2006;" horiz-adv-x="325" />
<glyph unicode="&#x2007;" horiz-adv-x="325" />
<glyph unicode="&#x2008;" horiz-adv-x="243" />
<glyph unicode="&#x2009;" horiz-adv-x="390" />
<glyph unicode="&#x200a;" horiz-adv-x="108" />
<glyph unicode="&#x2010;" horiz-adv-x="540" d="M61 545q0 47 2.5 67.5t6.5 40.5q51 -10 120.5 -15t135.5 -5q49 0 87 2t66 6q0 -39 -1 -62.5t-5 -46.5q-129 -12 -234.5 -9t-177.5 22z" />
<glyph unicode="&#x2011;" horiz-adv-x="540" d="M61 545q0 47 2.5 67.5t6.5 40.5q51 -10 120.5 -15t135.5 -5q49 0 87 2t66 6q0 -39 -1 -62.5t-5 -46.5q-129 -12 -234.5 -9t-177.5 22z" />
<glyph unicode="&#x2012;" horiz-adv-x="540" d="M61 545q0 47 2.5 67.5t6.5 40.5q51 -10 120.5 -15t135.5 -5q49 0 87 2t66 6q0 -39 -1 -62.5t-5 -46.5q-129 -12 -234.5 -9t-177.5 22z" />
<glyph unicode="&#x2013;" horiz-adv-x="819" d="M61 541q2 37 4.5 56t6.5 36q102 -16 201.5 -24.5t213.5 -8.5q59 0 126 3t145 9q0 -18 -2 -39.5t-8 -50.5q-180 -16 -347.5 -11t-339.5 30z" />
<glyph unicode="&#x2014;" horiz-adv-x="1146" d="M61 522q2 37 4.5 56.5t6.5 35.5q168 -25 292.5 -33t297.5 -8q115 0 218 5.5t205 15.5q0 -18 -2 -39.5t-8 -50.5q-283 -27 -535.5 -23t-478.5 41z" />
<glyph unicode="&#x2018;" horiz-adv-x="264" d="M20 1503q31 8 58.5 12.5t58.5 2.5q-6 -137 7.5 -258t48.5 -259q-18 -2 -37 -3t-39 1q-51 143 -74 263t-23 241z" />
<glyph unicode="&#x2019;" horiz-adv-x="264" d="M72 1016q29 158 39 281.5t4 209.5q33 4 61.5 4t52.5 -2q0 -127 -18 -236.5t-68 -271.5q-16 2 -34.5 5.5t-36.5 9.5z" />
<glyph unicode="&#x201a;" horiz-adv-x="249" d="M20 -350q29 158 39 281.5t4 209.5q33 4 62 4t53 -2q0 -127 -18.5 -236.5t-67.5 -271.5q-16 2 -34.5 5.5t-37.5 9.5z" />
<glyph unicode="&#x201c;" horiz-adv-x="491" d="M20 1503q31 8 58.5 12.5t58.5 2.5q-6 -137 7.5 -258t48.5 -259q-18 -2 -37 -3t-39 1q-51 143 -74 263t-23 241zM247 1503q31 8 58.5 12.5t58.5 2.5q-6 -137 7.5 -258t48.5 -259q-18 -2 -37 -3t-39 1q-51 143 -74 263t-23 241z" />
<glyph unicode="&#x201d;" horiz-adv-x="497" d="M72 1016q29 158 39 281.5t4 209.5q33 4 61.5 4t52.5 -2q0 -127 -18 -236.5t-68 -271.5q-16 2 -34.5 5.5t-36.5 9.5zM305 1016q29 158 39 281.5t4 209.5q33 4 61.5 4t52.5 -2q0 -127 -18 -236.5t-68 -271.5q-16 2 -34.5 5.5t-36.5 9.5z" />
<glyph unicode="&#x201e;" horiz-adv-x="481" d="M20 -350q29 158 39 281.5t4 209.5q33 4 62 4t53 -2q0 -127 -18.5 -236.5t-67.5 -271.5q-16 2 -34.5 5.5t-37.5 9.5zM251 -350q29 158 39 281.5t4 209.5q33 4 62 4t53 -2q0 -127 -18.5 -236.5t-67.5 -271.5q-16 2 -34.5 5.5t-37.5 9.5z" />
<glyph unicode="&#x2022;" horiz-adv-x="415" d="M72 670q57 16 125.5 19t146.5 -7q-2 -78 -7 -132t-13 -106q-72 -6 -128.5 -6t-113.5 6q-8 117 -9 152t-1 74z" />
<glyph unicode="&#x2026;" horiz-adv-x="897" d="M72 135q45 10 84 11t77 -5q-2 -53 -5 -81.5t-7 -57.5q-41 -4 -74.5 -4t-68.5 4q0 10 -1 22.5t-1 32.5l-3 46.5t-1 31.5zM367 135q45 10 84 11t77 -5q-2 -53 -5 -81.5t-7 -57.5q-41 -4 -74.5 -4t-68.5 4q0 10 -1 22.5t-1 32.5l-3 46.5t-1 31.5zM664 133q45 10 84 11t77 -5 q-2 -53 -5 -81.5t-7 -57.5q-41 -4 -74.5 -4t-68.5 4q0 10 -1 22.5t-1 32.5l-3 46.5t-1 31.5z" />
<glyph unicode="&#x202f;" horiz-adv-x="390" />
<glyph unicode="&#x2039;" horiz-adv-x="514" d="M20 541q88 53 177.5 142t167.5 204q35 -25 51 -41.5t28 -34.5q-68 -90 -142.5 -164t-160.5 -133q55 -78 135.5 -151.5t176.5 -139.5q-25 -35 -41.5 -51t-34.5 -29q-117 88 -204 185.5t-153 212.5z" />
<glyph unicode="&#x203a;" horiz-adv-x="514" d="M61 223q96 66 176 139.5t136 151.5q-86 59 -161 133t-142 164q12 18 28.5 34.5t51.5 41.5q78 -115 167 -204t177 -142q-66 -115 -153 -212.5t-204 -185.5q-18 12 -34.5 28.5t-41.5 51.5z" />
<glyph unicode="&#x205f;" horiz-adv-x="487" />
<glyph unicode="&#x20ac;" horiz-adv-x="1017" d="M32 465q1 20 5 37q51 -4 95 -5t85 -1q-2 14 -2 30.5v48.5v65t2 38q-72 0 -110.5 1t-73.5 3q-2 29 -1 49.5t5 36.5q53 -4 99 -5t89 -1q33 283 156 444.5t303 161.5q150 0 212 -114.5t44 -352.5q-20 -8 -45 -13t-55 -7q20 207 -22 302t-152 95q-123 0 -214.5 -138.5 t-115.5 -373.5q74 4 156.5 13t191.5 26q0 -20 -3 -41t-7 -41q-125 -18 -201 -27.5t-143 -13.5q-2 -14 -2 -31.5v-54.5v-60.5t2 -35.5q74 4 156.5 13t197.5 26q0 -20 -3 -41t-7 -41q-119 -18 -196 -27.5t-142 -13.5q20 -203 86.5 -305.5t179.5 -102.5q117 0 179.5 114 t56.5 308q35 2 59 -1t49 -13q-16 -254 -106 -376t-260 -122q-145 0 -238.5 128t-118.5 366q-74 0 -113.5 1t-76.5 3q-2 29 -1 49z" />
<glyph unicode="&#x2122;" horiz-adv-x="1484" d="M20 1497q168 29 296 40t286 13l5 -15t5 -30q0 -10 -1 -20t-3 -25q-47 0 -95 -2t-132 -6q12 -131 18.5 -250t6.5 -246q0 -57 -2.5 -115.5t-4.5 -115.5q-25 -6 -49 -9t-49 -3q4 168 -6 365.5t-31 363.5q-35 -4 -78 -9.5t-155 -19.5q-4 18 -7.5 39t-3.5 45zM729 1503 q12 8 50 23.5t52 17.5q70 -100 134.5 -228t109.5 -261q78 125 124 229.5t91 255.5q12 -2 45 -11t51 -16q6 -152 6 -369.5t-6 -473.5q-27 -8 -51 -12.5t-55 -4.5q8 141 13 303t7 361q-43 -90 -92 -178t-116 -197q-16 -2 -37 -5t-27 -3q-49 137 -99 242.5t-106 195.5 q-2 -18 -2 -39.5v-68.5q0 -125 13.5 -262.5t37.5 -276.5q-8 -2 -44.5 -7t-51.5 -5q-27 170 -40 388t-7 402z" />
<glyph unicode="&#x25fc;" horiz-adv-x="1126" d="M0 0v1126h1126v-1126h-1126z" />
<glyph unicode="&#xfb01;" horiz-adv-x="966" d="M70 834q0 25 3 45t9 26q18 -4 43 -7t72 -7q8 309 73.5 453.5t202.5 144.5q84 0 132 -63.5t48 -168.5q0 -33 -8 -69.5t-18 -57.5q-27 0 -51.5 5.5t-47.5 13.5q10 35 15.5 64.5t5.5 58.5q0 55 -20.5 90t-55.5 35q-84 0 -128 -124t-44 -355v-17.5v-19.5q61 -2 98 -3t70 -1 q35 0 69.5 3t69.5 9q0 -18 -3 -44t-7 -54q-23 -4 -57.5 -6.5t-81.5 -2.5q-45 0 -84 2.5t-72 6.5q4 -236 26.5 -438.5t61.5 -370.5q-37 -12 -64.5 -18.5t-50.5 -6.5q-27 123 -52 379t-27 467q-37 6 -70 13t-57 18zM686 478.5q6 279.5 47 500.5q18 10 36.5 15t37.5 5 q8 0 18.5 -1t20.5 -5q-41 -229 -53.5 -518t8.5 -524q-12 -4 -25.5 -7t-27.5 -3q-8 0 -16.5 1t-16.5 3q-35 254 -29 533.5zM772 1248v28q0 47 10.5 100.5t26.5 87.5q18 6 30.5 8.5t30.5 0.5q23 -2 38.5 -6.5t31.5 -14.5q-25 -51 -44 -109.5t-32 -111.5q-14 -2 -39.5 -2 t-50.5 2q-2 8 -2 17z" />
<glyph unicode="&#xfb02;" horiz-adv-x="964" d="M70 834q0 25 3 45t9 26q18 -4 43 -7t72 -7q8 309 73.5 453.5t202.5 144.5q84 0 132 -63.5t48 -168.5q0 -33 -8 -69.5t-18 -57.5q-27 0 -51.5 5.5t-47.5 13.5q10 35 15.5 64.5t5.5 58.5q0 55 -20.5 90t-55.5 35q-84 0 -128 -124t-44 -355v-17.5v-19.5q61 -2 98 -3t70 -1 q35 0 69.5 3t69.5 9q0 -18 -3 -44t-7 -54q-23 -4 -57.5 -6.5t-81.5 -2.5q-45 0 -84 2.5t-72 6.5q4 -236 26.5 -438.5t61.5 -370.5q-37 -12 -64.5 -18.5t-50.5 -6.5q-27 123 -52 379t-27 467q-37 6 -70 13t-57 18zM696 715.5q-2 371.5 23 787.5q14 8 32.5 12.5t34.5 4.5 t32 -2t30 -7q-35 -336 -39 -759t25 -865q-14 -4 -48 -8t-55 -4q-33 469 -35 840.5z" />
</font>
</defs>
</svg>
