<?xml version="1.0" standalone="no"?>
<!DOCTYPE svg PUBLIC "-//W3C//DTD SVG 1.1//EN" "http://www.w3.org/Graphics/SVG/1.1/DTD/svg11.dtd" >
<svg xmlns="http://www.w3.org/2000/svg" xmlns:xlink="http://www.w3.org/1999/xlink" version="1.1">
<metadata></metadata>
<defs>
<font id="atmasemibold" horiz-adv-x="1046" >
<font-face units-per-em="2048" ascent="1638" descent="-410" />
<missing-glyph horiz-adv-x="421" />
<glyph horiz-adv-x="0" />
<glyph horiz-adv-x="0" />
<glyph horiz-adv-x="682" />
<glyph unicode="&#xd;" horiz-adv-x="0" />
<glyph unicode=" "  horiz-adv-x="421" />
<glyph unicode="&#x09;" horiz-adv-x="421" />
<glyph unicode="&#xa0;" horiz-adv-x="421" />
<glyph unicode="!" horiz-adv-x="573" d="M129 1341v75t2 44q53 27 102.5 38t102.5 11q35 0 66.5 -5t64.5 -15q-37 -213 -54.5 -495.5t-11.5 -524.5q-14 -4 -34.5 -6t-51.5 -2q-37 0 -74.5 4t-72.5 12q-20 215 -29.5 415t-9.5 449zM154 108.5q0 61.5 4 139.5q43 0 83 -1t193 -7q10 -150 12.5 -189t6.5 -76 q-33 -8 -65 -11t-77 -3q-41 0 -81 7t-72 20q-4 59 -4 120.5z" />
<glyph unicode="&#x22;" horiz-adv-x="741" d="M78 1507q18 8 50 14.5t67 6.5q31 0 65.5 -5t67.5 -16q-12 -123 -27.5 -240.5t-40.5 -248.5q-23 -8 -66.5 -11t-97.5 -1q-8 258 -11 341t-7 160zM402 1507q18 8 50 14.5t67 6.5q31 0 65.5 -5t67.5 -16q-12 -123 -27.5 -240.5t-40.5 -248.5q-23 -8 -66.5 -11t-97.5 -1 q-8 258 -11 341t-7 160z" />
<glyph unicode="#" horiz-adv-x="1259" d="M23 463q4 39 20 90q61 -10 119.5 -18.5t116.5 -14.5q25 82 39 136.5t24 101.5q-82 10 -152.5 21.5t-136.5 23.5q-6 45 -2 85t21 85q68 -12 146.5 -22.5t162.5 -18.5q20 100 32.5 186t18.5 160q53 -4 106.5 -23.5t88.5 -48.5q-10 -76 -22.5 -147.5t-26.5 -138.5 q100 -4 157.5 -6.5t104.5 -2.5q18 82 31.5 171t21.5 186q57 -4 109.5 -22.5t84.5 -49.5q-10 -74 -22 -144.5t-27 -136.5q43 2 92.5 5.5t120.5 9.5q12 -47 8 -104.5t-24 -100.5q-59 -2 -119.5 -4t-120.5 -2q-14 -59 -29.5 -115.5t-31.5 -109.5q94 2 164 6t125 10 q12 -49 8 -105.5t-25 -99.5q-78 -4 -160.5 -6t-177.5 -2q-35 -94 -72.5 -188.5t-82.5 -190.5q-47 6 -84 19.5t-82 42.5q31 68 62.5 147.5t66.5 175.5q-49 2 -106.5 6t-157.5 15q-39 -104 -80 -202.5t-84 -193.5q-47 6 -85 20.5t-79 41.5q35 78 69.5 168t69.5 190 q-41 6 -87 14.5t-111 20.5q-6 41 -2 80zM471 504q72 -4 138.5 -7t125.5 -3q8 29 18.5 63.5t45.5 163.5q-45 2 -98.5 4t-165.5 10q-14 -61 -30 -118.5t-34 -112.5z" />
<glyph unicode="$" horiz-adv-x="907" d="M14 473q55 25 118 37t126 12q-2 -125 48 -204.5t134 -79.5q61 0 94 33.5t33 95.5q0 43 -20.5 81.5t-65.5 79.5q-29 25 -84 67t-67 52q-158 123 -208 208t-50 194q0 135 84 230t225 122q-8 57 -10 104t2 82q43 14 98 18.5t104 -6.5q-6 -57 -9 -104t-1 -92q127 -18 204 -99 t105 -227q-47 -27 -108 -41t-143 -18q-18 119 -49 168t-89 49q-45 0 -72.5 -33t-27.5 -86q0 -70 46 -132t157 -140q166 -117 226 -208t60 -210q0 -133 -93.5 -228t-245.5 -120q6 -55 8 -107.5t-2 -95.5q-45 -14 -100.5 -17t-102.5 7q8 57 12 108.5t2 106.5 q-154 27 -246 135.5t-92 257.5z" />
<glyph unicode="%" horiz-adv-x="1863" d="M55 1096q0 215 120 350t314 135q152 0 236 -91t84 -259q0 -227 -117 -384t-315 -157q-152 0 -237 110t-85 296zM307 1128q0 -121 33 -201.5t88 -80.5q57 0 90 88t33 227q0 133 -26.5 198.5t-80.5 65.5q-61 0 -99 -80.5t-38 -216.5zM383 16q244 436 434.5 841t319.5 767 q59 -12 117.5 -43t103.5 -76q-166 -395 -351.5 -764.5t-445.5 -816.5q-47 12 -89 32.5t-89 59.5zM1053 369q0 215 119.5 350t314.5 135q152 0 236.5 -91t84.5 -257q0 -229 -116.5 -385t-317.5 -156q-152 0 -236.5 110t-84.5 294zM1307 401q0 -119 32.5 -200.5t87.5 -81.5 q57 0 89 87t32 228q0 135 -26.5 199.5t-79.5 64.5q-61 0 -98 -81.5t-37 -215.5z" />
<glyph unicode="&#x26;" horiz-adv-x="1656" d="M82 375q0 164 102.5 284.5t284.5 167.5q-8 49 -12 96.5t-4 92.5q0 213 113.5 338t314.5 125q145 0 235 -78t90 -201q0 -150 -112.5 -251t-321.5 -142q45 -141 140.5 -262t240.5 -226q29 57 43 121t14 131q0 51 -6 99.5t-20 113.5q76 20 153.5 13.5t147.5 -39.5 q2 -53 -1 -104.5t-9 -106.5q-12 -100 -40 -188.5t-73 -163.5q59 -31 123.5 -60.5t132.5 -54.5q-25 -70 -69 -125t-103 -96q-70 27 -140.5 58.5t-142.5 68.5q-90 -61 -203.5 -92t-244.5 -31q-285 0 -459 142t-174 370zM385 451q0 -168 109.5 -272.5t285.5 -104.5q47 0 91 10 t85 31q-168 121 -282.5 268t-169.5 313q-59 -43 -89 -104t-30 -141zM729 1081q0 -45 3 -86t11 -77q92 35 141.5 102t49.5 158q0 68 -23.5 104.5t-68.5 36.5q-53 0 -83 -62.5t-30 -175.5z" />
<glyph unicode="'" horiz-adv-x="415" d="M78 1507q18 8 50 14.5t67 6.5q31 0 65.5 -5t67.5 -16q-12 -123 -27.5 -240.5t-40.5 -248.5q-23 -8 -66.5 -11t-97.5 -1q-8 258 -11 341t-7 160z" />
<glyph unicode="(" horiz-adv-x="741" d="M45 616q0 309 135 571.5t404 471.5q49 -20 94 -55t88 -86q-236 -164 -360.5 -392.5t-124.5 -496.5q0 -246 108.5 -449t347.5 -403q-35 -45 -75.5 -74t-106.5 -59q-248 199 -379 449.5t-131 522.5z" />
<glyph unicode=")" horiz-adv-x="831" d="M-51 -217q236 164 361.5 394.5t125.5 492.5q0 246 -107.5 451.5t-338.5 402.5q33 45 73.5 74.5t106.5 60.5q238 -193 369 -448t131 -529q0 -307 -136.5 -568t-404.5 -470q-49 16 -93 51t-87 88z" />
<glyph unicode="*" horiz-adv-x="989" d="M76 911q55 31 122.5 64t155.5 74q-66 33 -128 58.5t-142 51.5q0 23 9 54.5t26 58.5q10 18 20.5 33.5t28.5 33.5q45 -25 104.5 -62.5t147.5 -100.5q-10 76 -17.5 143t-15.5 139q23 12 54.5 19.5t62.5 7.5q18 0 35.5 -2t46.5 -8q0 -66 -4 -140.5t-15 -173.5q63 43 118.5 86 t115.5 96q20 -12 41.5 -36.5t36.5 -51.5q10 -16 17 -33.5t15 -43.5q-47 -29 -113.5 -62t-152.5 -72q14 -6 107.5 -47t152.5 -67q-2 -27 -11 -57.5t-24 -55.5q-12 -18 -23 -33.5t-28 -33.5q-49 31 -110.5 71t-149.5 101q4 -59 13.5 -122t27.5 -169q-23 -12 -54.5 -19.5 t-60.5 -7.5q-20 0 -38.5 3t-45.5 9q-2 59 3.5 135t15.5 162l-45 -31.5t-70 -52.5q-47 -35 -71.5 -52t-45.5 -32q-23 16 -44 40t-35 49q-8 14 -15.5 30.5t-17.5 46.5z" />
<glyph unicode="+" horiz-adv-x="911" d="M70 610q0 51 3 95.5t11 95.5q61 -8 130 -13.5t159 -9.5q-4 78 -9.5 145.5t-11.5 131.5q47 6 91 9t100 1q10 -68 15 -140.5t7 -146.5q82 4 155 9.5t140 11.5q0 -49 -6 -96.5t-18 -92.5q-61 -8 -130 -14t-141 -10q-2 -70 -7 -141.5t-15 -143.5q-49 -6 -96.5 -7t-94.5 3 q6 66 11.5 136.5t9.5 152.5q-84 2 -161 8t-142 16z" />
<glyph unicode="," horiz-adv-x="458" d="M43 -438q45 180 65.5 345t20.5 335q76 6 150.5 0t136.5 -23q-10 -176 -50 -347t-114 -345q-63 4 -114.5 13t-94.5 22z" />
<glyph unicode="-" horiz-adv-x="702" d="M57 467q-4 78 2.5 131t24.5 109q51 -10 132 -17.5t144 -7.5q117 0 178.5 3t110.5 9q0 -84 -6 -139t-20 -100q-141 -29 -317.5 -25t-248.5 37z" />
<glyph unicode="." horiz-adv-x="466" d="M98 225q74 18 152 21.5t158 -8.5q-2 -78 -8.5 -141.5t-16.5 -127.5q-82 -8 -146.5 -7t-127.5 9q-8 119 -9.5 163t-1.5 91z" />
<glyph unicode="/" horiz-adv-x="950" d="M-90 -330q176 317 450.5 909t419.5 965q51 -6 112.5 -40t106.5 -81q-178 -418 -427.5 -926.5t-477.5 -918.5q-47 14 -99 41t-85 51z" />
<glyph unicode="0" horiz-adv-x="1200" d="M68 614q0 344 166.5 554t443.5 210q215 0 335 -150.5t120 -416.5q0 -379 -159 -615.5t-437 -236.5q-219 0 -344 179t-125 476zM381 657q0 -215 59.5 -355t157.5 -140q100 0 158.5 153.5t58.5 395.5q0 236 -48 349.5t-146 113.5q-109 0 -174.5 -141.5t-65.5 -375.5z" />
<glyph unicode="1" horiz-adv-x="876" d="M29 1026q186 90 346 190.5t293 213.5q55 -20 99 -49t83 -70q-74 -193 -147.5 -589.5t-106.5 -787.5q-29 -12 -69 -19t-89 -9q-33 0 -54.5 2t-43.5 6q0 68 3 134.5t9 164.5q8 162 33 361.5t64 396.5q-70 -49 -132.5 -91t-121.5 -79q-53 43 -94.5 98t-71.5 127z" />
<glyph unicode="2" horiz-adv-x="995" d="M-8 35q0 57 5 98t15 78q305 213 458 400.5t153 351.5q0 82 -33 127t-92 45q-68 0 -112 -71t-73 -224q-84 0 -153.5 13t-126.5 42q49 209 170 313.5t311 104.5q186 0 304 -103.5t118 -267.5q0 -188 -137 -363.5t-457 -394.5q227 -12 340.5 -14t222.5 4q-2 -74 -14 -138.5 t-35 -119.5q-238 8 -474.5 41t-389.5 78z" />
<glyph unicode="3" horiz-adv-x="1034" d="M51 1225q182 49 423 79.5t452 32.5q20 -55 30.5 -119.5t8.5 -132.5q-82 -111 -159 -186.5t-188 -157.5q186 -47 278.5 -145t92.5 -250q0 -193 -139 -328t-336 -135q-201 0 -320.5 117t-130.5 330q55 27 124 39t159 14q0 -147 52.5 -235.5t129.5 -88.5q72 0 110 57.5 t38 164.5q0 152 -93.5 238.5t-265.5 88.5q-14 63 -18 100t-4 83q104 66 186 134t148 144q-141 -10 -277.5 -30.5t-271.5 -51.5q-14 47 -22.5 110.5t-6.5 127.5z" />
<glyph unicode="4" horiz-adv-x="1210" d="M16 471q182 281 292 516.5t210 562.5q63 -2 135 -18t162 -51q-100 -274 -205.5 -496.5t-236.5 -433.5q55 -12 116.5 -22.5t137.5 -22.5q8 96 19 175t24 138q43 20 89 29.5t101 9.5q37 0 74 -5t67 -13q-18 -57 -38.5 -149.5t-40.5 -221.5q61 -6 127.5 -11t140.5 -9 q0 -59 -15.5 -122t-39.5 -104q-43 2 -102.5 6.5t-139.5 10.5q-8 -66 -14.5 -141.5t-12.5 -166.5q-31 -12 -71.5 -18t-87.5 -6q-31 2 -50.5 5t-42.5 9q-2 45 -4 93t-2 100v92t2 57q-162 16 -309 33.5t-244 32.5q-10 25 -19 54.5t-22 86.5z" />
<glyph unicode="5" horiz-adv-x="1069" d="M10 412q70 0 145.5 -9.5t151.5 -25.5q0 -135 44 -206t126 -71q78 0 119 61.5t41 182.5q0 133 -67.5 214t-184.5 81q-33 0 -67.5 -7t-73.5 -22q-27 16 -60.5 49t-48.5 56q-4 39 -5 73.5t-1 71.5q0 117 12.5 250t36.5 283q217 -47 400.5 -66.5t429.5 -21.5 q-2 -74 -14.5 -141.5t-35.5 -121.5q-154 8 -275.5 21.5t-260.5 38.5q-8 -82 -12 -148.5t-2 -122.5q29 8 67.5 13.5t73.5 5.5q182 0 292.5 -116.5t110.5 -309.5q0 -217 -132 -358.5t-339 -141.5q-211 0 -334.5 127t-136.5 361z" />
<glyph unicode="6" horiz-adv-x="1142" d="M70 600q0 367 165.5 591t438.5 224q170 0 275.5 -90t135.5 -262q-61 -39 -123.5 -58.5t-142.5 -25.5q-14 117 -52 171t-105 54q-123 0 -199 -150.5t-80 -408.5q61 76 142 116t175 40q172 0 279.5 -106.5t107.5 -278.5q0 -215 -140 -366.5t-374 -151.5q-242 0 -372.5 186 t-130.5 516zM399 410q23 -145 77 -227.5t130 -82.5q72 0 118 69t46 167q0 119 -50 190.5t-132 71.5q-61 0 -111.5 -50t-77.5 -138z" />
<glyph unicode="7" horiz-adv-x="966" d="M-6 1120q-4 78 8 145.5t39 125.5q301 -55 506 -78t401 -27q4 -51 -1 -100t-23 -117q-190 -240 -332.5 -506t-265.5 -614q-82 -8 -156 3t-145 42q121 326 270 593t346 509q-172 -4 -323.5 1t-323.5 23z" />
<glyph unicode="8" horiz-adv-x="1153" d="M74 348q0 115 61.5 212t173.5 157q-106 41 -166.5 129t-60.5 201q0 193 151.5 313.5t397.5 120.5q195 0 309.5 -87t114.5 -237q0 -121 -59.5 -225.5t-166.5 -165.5q113 -37 174.5 -114t61.5 -181q0 -205 -152.5 -344t-410.5 -139q-199 0 -313.5 99t-114.5 261zM387 389 q0 -102 48 -167.5t124 -65.5q84 0 136.5 79.5t52.5 198.5q0 102 -43 159.5t-121 57.5q-86 0 -141.5 -72.5t-55.5 -189.5zM393 1059q0 -102 46 -166t124 -64q80 0 127 72t47 184q0 106 -42 166t-115 60q-82 0 -134.5 -72t-52.5 -180z" />
<glyph unicode="9" horiz-adv-x="1155" d="M59 82q35 72 73 124t85 93q35 -59 102.5 -96t143.5 -37q121 0 203 123t106 342q-55 -59 -123.5 -89t-152.5 -30q-188 0 -304 116.5t-116 305.5q0 225 141 373.5t369 148.5q236 0 372 -172t136 -465q0 -385 -187.5 -632.5t-478.5 -247.5q-111 0 -203 35.5t-166 107.5z M393 975q0 -119 52.5 -188.5t140.5 -69.5q70 0 118 51t72 150q-12 166 -61 249.5t-133 83.5q-82 0 -135.5 -77.5t-53.5 -198.5z" />
<glyph unicode=":" horiz-adv-x="481" d="M84 1110q39 8 77 12t83 4q43 0 84 -7t71 -21q4 -117 6.5 -173.5t0.5 -90.5q-70 -2 -139.5 0t-164.5 8q-2 57 -6 112.5t-12 155.5zM109 102.5v149.5q88 8 162.5 12t148.5 2v-110.5t-2 -175.5q-84 -2 -172 3t-135 13q-2 57 -2 106.5z" />
<glyph unicode=";" horiz-adv-x="479" d="M45 -432q47 184 68.5 346t19.5 332q78 2 151.5 -3t131.5 -18q-2 -172 -43 -343t-119 -347q-59 4 -110.5 11.5t-98.5 21.5zM111 1110q39 8 76.5 12t82.5 4q43 0 84 -7t72 -21q4 -117 6 -173.5t0 -90.5q-70 -2 -139.5 0t-163.5 8q-2 57 -6 112.5t-12 155.5z" />
<glyph unicode="&#x3c;" horiz-adv-x="909" d="M59 643l2 111q133 102 340 213.5t392 183.5q23 -47 35 -85t22 -89q-154 -66 -286 -135.5t-249 -145.5q109 -70 240 -138t293 -138q-8 -49 -21.5 -88t-35.5 -84q-184 68 -392.5 180.5t-339.5 214.5z" />
<glyph unicode="=" horiz-adv-x="911" d="M47 422q0 51 3 95t11 95q180 -23 370 -23.5t407 21.5q0 -45 -7.5 -93t-19.5 -95q-174 -25 -384 -25t-380 25zM72 733q0 51 3 95t11 96q180 -23 370.5 -24t405.5 22q0 -49 -6 -96.5t-18 -92.5q-172 -27 -381 -27t-385 27z" />
<glyph unicode="&#x3e;" horiz-adv-x="909" d="M59 422q158 70 289 138.5t246 141.5q-119 76 -252 146t-281 131q8 51 22.5 91t37.5 83q184 -70 392 -182.5t337 -214.5l-2 -111q-131 -100 -337 -211.5t-394 -185.5q-20 45 -33.5 83t-24.5 91z" />
<glyph unicode="?" horiz-adv-x="989" d="M31 1118q12 219 128.5 332t329.5 113q190 0 317.5 -112t127.5 -282q0 -147 -95.5 -253.5t-267.5 -149.5q-2 -51 -3 -117t-3 -168q-37 -10 -96 -15t-125 -5q-18 115 -28.5 203t-12.5 157q152 29 232.5 119t80.5 229q0 104 -35.5 164t-103.5 60q-76 0 -122 -88t-46 -238 q-86 0 -154.5 12.5t-123.5 38.5zM327 124q-1 62 3 132h80.5t189.5 -4q10 -111 14 -163t11 -103q-31 -6 -59.5 -10.5t-82.5 -6.5q-43 0 -82 7.5t-67 19.5q-6 66 -7 128z" />
<glyph unicode="@" horiz-adv-x="1845" d="M66 578q0 410 254.5 660.5t676.5 250.5q358 0 561 -206t203 -544q0 -246 -127 -405.5t-307 -159.5q-115 0 -189.5 53.5t-105.5 157.5q-37 -94 -96 -141t-141 -47q-123 0 -196 107.5t-73 283.5q0 225 109.5 360t292.5 135q14 0 29.5 -2t29.5 -4l-2 45q72 16 133.5 18.5 t118.5 -12.5q-10 -162 -14 -275.5t-4 -223.5q0 -164 30.5 -241t98.5 -77q92 0 156.5 123t64.5 309q0 272 -158 426t-438 154q-319 0 -506.5 -189.5t-187.5 -508.5q0 -322 157.5 -502t442.5 -180q113 0 196.5 25.5t161.5 84.5q41 -39 69.5 -74.5t51.5 -78.5 q-115 -66 -236 -97.5t-260 -31.5q-367 0 -581.5 219t-214.5 588zM764 618q0 -119 28.5 -184t81.5 -65q45 0 81 55t53 158q0 18 -1 38.5t-3 65.5q-4 98 -6.5 151.5t-4.5 100.5q-10 4 -22.5 5t-26.5 1q-82 0 -131 -88t-49 -238z" />
<glyph unicode="A" horiz-adv-x="1329" d="M4 78q170 309 287 613t233 759q80 -2 143.5 -9t137.5 -24q184 -322 308 -699.5t198 -850.5q-55 -37 -128 -59.5t-177 -36.5q-20 166 -46 310t-57 273q-133 0 -253 -7t-226 -21q-43 -111 -84 -205t-84 -176q-78 14 -144.5 49t-107.5 84zM500 541q94 12 180 19t168 9 q-41 143 -88.5 274.5t-100.5 250.5q-37 -147 -76.5 -286.5t-82.5 -266.5z" />
<glyph unicode="B" horiz-adv-x="1257" d="M156 1102v188.5t2 124.5q102 49 215.5 76t226.5 27q240 0 369 -87.5t129 -248.5q0 -102 -49.5 -184.5t-145.5 -139.5q141 -33 219 -116.5t78 -202.5q0 -244 -187.5 -412t-459.5 -168q-88 0 -180 26.5t-174 75.5q-23 293 -33 538t-10 503zM451 483q0 -82 1 -155.5 t5 -145.5q31 -16 62.5 -24t62.5 -8q125 0 216 99t91 226q0 104 -60.5 157.5t-181.5 53.5q-43 0 -94 -10t-102 -27v-83v-83zM455 854q172 23 256 93.5t84 193.5q0 94 -59.5 144t-172.5 50q-16 0 -37.5 -3t-46.5 -7q-8 -98 -14 -209.5t-10 -261.5z" />
<glyph unicode="C" horiz-adv-x="1204" d="M80 551q0 373 185.5 620.5t471.5 247.5q186 0 288.5 -116.5t113.5 -337.5q-77 -37 -139 -49q-53 -11 -128 -11h-24v29q0 140 -36 212q-40 79 -126 79q-113 0 -191.5 -172t-78.5 -428q0 -240 64.5 -368t185.5 -128q115 0 172 91q47 75 47 196q0 25 -2 53q22 2 44 2 q44 0 89 -8q67 -12 106 -37q-16 -240 -153.5 -369t-378.5 -129q-242 0 -376 163t-134 460z" />
<glyph unicode="D" horiz-adv-x="1247" d="M109 1040q0 80 2 163t4 159q115 55 222 80.5t228 25.5q305 0 465 -144.5t160 -418.5q0 -297 -218 -561t-550 -364q-51 0 -130 6t-132 14q-27 301 -39 554t-12 486zM410 422q0 -43 1 -90t3 -127q223 96 340.5 276.5t117.5 423.5q0 174 -89 272.5t-251 98.5q-23 0 -46 -3 t-46 -9q-16 -203 -23 -396.5t-7 -445.5z" />
<glyph unicode="E" horiz-adv-x="1171" d="M125 1403q293 55 503 77.5t425 24.5q0 -59 -7.5 -122.5t-21.5 -131.5q-147 -2 -282.5 -8t-262.5 -18q-4 -87 -6 -185q-1 -49 -1 -100.5t1 -105.5q121 29 233.5 45t231.5 20q12 -51 18.5 -108.5t6.5 -135.5q-150 -6 -262.5 -14t-219.5 -25q8 -162 17.5 -268t21.5 -196 q109 4 278 23.5t277 41.5q13 -37 21 -111q7 -60 6 -107v-22q-115 -23 -375 -42t-463 -21q-55 362 -95 784t-44 705z" />
<glyph unicode="F" horiz-adv-x="1103" d="M115 1468q174 10 338.5 30t574.5 87q10 -29 14.5 -61.5t4.5 -69.5q2 -31 -2.5 -63.5t-12.5 -69.5q-178 -25 -301 -38t-235 -21q8 -104 14 -210t8 -208q109 23 205 34t186 13q12 -53 18.5 -111.5t6.5 -136.5q-98 -2 -203 -9.5t-209 -19.5q1 -74 1 -144q0 -139 -3 -260 q-4 -181 -12 -349q-72 -15 -140 -23q-53 -6 -113 -6h-32v98q1 364 -25 764q-30 454 -83 774z" />
<glyph unicode="G" horiz-adv-x="1251" d="M80 565q0 393 175 655.5t445 262.5q186 0 297 -123t123 -338q-70 -23 -144.5 -33t-166.5 -10q-14 160 -56 234.5t-114 74.5q-104 0 -170 -174t-66 -452q0 -231 52.5 -347t158.5 -116q78 0 139.5 57t98.5 164q-10 53 -17.5 114.5t-13.5 147.5q63 18 139.5 26.5t172.5 8.5 q-1 -28 -1 -57q0 -165 20 -324q24 -186 75 -371q-41 -10 -95.5 -17t-134.5 -14q-25 55 -46 115t-42 125q-78 -111 -175 -164t-218 -53q-201 0 -318.5 164t-117.5 444z" />
<glyph unicode="H" horiz-adv-x="1335" d="M113 1413q37 23 91 36t111 13q41 0 78 -5t74 -15q-8 -104 -14.5 -265t-8.5 -343q109 20 220.5 30t232.5 15q-8 276 -15.5 407t-15.5 213q51 12 81 16.5t61 4.5q45 0 89 -12t79 -35q16 -338 27 -793t11 -799q-78 0 -169 9.5t-136 21.5q0 164 -2 354.5t-6 366.5 q-125 -2 -239.5 -9.5t-219.5 -19.5q-1 -98 -1 -197v-99q1 -148 5 -269q-44 -11 -124 -21q-66 -8 -123 -8h-23q-33 440 -48 791.5t-15 611.5z" />
<glyph unicode="I" horiz-adv-x="598" d="M115 1352q39 25 89 38t105 13q41 0 74 -4t70 -13q4 -72 6 -155t2 -187q0 -268 -8.5 -544.5t-24.5 -530.5q-41 -12 -115.5 -21t-140.5 -9v100q0 359 -12 670q-14 354 -45 643z" />
<glyph unicode="J" horiz-adv-x="1030" d="M39 285q49 39 107.5 63.5t129.5 34.5q29 -207 64 -282.5t98 -75.5q76 0 112 104t36 326q0 213 -16.5 472t-47.5 503q37 23 92.5 37t114.5 16q14 1 27 1q26 0 51 -3q37 -4 74 -13q10 -113 16 -238.5t6 -250.5q0 -258 -14 -425t-47 -323q-43 -201 -145.5 -306t-252.5 -105 q-156 0 -268.5 130t-136.5 335z" />
<glyph unicode="K" horiz-adv-x="1259" d="M121 903q0 115 5 237t13 253q45 23 98.5 36t108.5 13q41 0 79 -5t73 -16q-31 -174 -47.5 -358t-20.5 -377q150 147 255.5 309t227.5 437q68 -23 128.5 -67t117.5 -112q-102 -190 -208.5 -332.5t-235.5 -263.5q168 -143 292 -292.5t267 -372.5q-49 -72 -112.5 -122 t-149.5 -87q-115 221 -230.5 380t-277.5 320q-23 -16 -39 -28.5t-33 -22.5q4 -145 14.5 -278.5t28.5 -272.5q-41 -12 -122 -21.5t-148 -9.5q-43 266 -63.5 519.5t-20.5 533.5z" />
<glyph unicode="L" d="M135 1343q66 20 132.5 29.5t135.5 9.5q23 0 44.5 -1t41.5 -5q-14 -116 -22 -276q-6 -128 -6 -268v-70q0 -242 10 -414t33 -317q119 29 253 44t255 15q12 -47 23.5 -118.5t11.5 -118.5q-205 -2 -383.5 -15.5t-415.5 -46.5q-51 351 -83 789q-30 413 -30 724v39z" />
<glyph unicode="M" horiz-adv-x="1632" d="M135 1442q70 45 147.5 75.5t149.5 43.5q143 -197 252 -391.5t180 -381.5q80 205 179.5 397.5t218.5 373.5q70 -10 133 -29t116 -45q12 -266 16 -649q2 -203 3 -440q0 -211 -2 -449q-86 -31 -158 -43.5t-160 -12.5q18 254 29.5 564.5t15.5 644.5q-98 -166 -178 -339 t-147 -362q-38 -12 -90 -14h-20q-41 0 -81 6q-72 186 -153.5 351t-175.5 317v-42v-42q0 -246 26.5 -496t73.5 -456q-43 -12 -126 -21.5t-159 -9.5q-43 290 -69 702q-22 356 -22 655q0 47 1 93z" />
<glyph unicode="N" horiz-adv-x="1386" d="M129 1358q4 4 14.5 9t14.5 7q63 33 140 52.5t165 25.5q158 -217 277.5 -434t224.5 -473v87v87q0 270 -9.5 466.5t-27.5 317.5q78 25 156.5 38t160.5 15q6 -119 8 -225t2 -207q0 -272 -10 -536t-31 -529q-80 -14 -145 -21t-129 -9q-143 342 -257 559t-241 395 q-2 -119 -2 -246t2 -256q0 -74 2 -159.5t13 -378.5q-43 -12 -116 -20.5t-136 -10.5q-39 469 -57.5 820t-18.5 626z" />
<glyph unicode="O" horiz-adv-x="1286" d="M68 674q0 365 180 596t469 231q238 0 365.5 -168t127.5 -481q0 -156 -37.5 -312.5t-107.5 -275.5q-86 -152 -212 -228.5t-286 -76.5q-233 0 -366 195.5t-133 519.5zM383 719q0 -252 63.5 -403.5t178.5 -151.5q127 0 195.5 161.5t68.5 446.5q0 272 -55.5 396t-178.5 124 q-125 0 -198.5 -156.5t-73.5 -416.5z" />
<glyph unicode="P" horiz-adv-x="1226" d="M129 1102q0 70 4 157t10 166q106 45 234.5 70t249.5 25q250 0 386 -105.5t136 -294.5q0 -223 -185.5 -397t-529.5 -274q2 -147 9.5 -288t17.5 -300q-19 -1 -38 -1q-49 0 -101 4q-74 5 -127 15q-35 350 -50.5 634t-15.5 589zM434 655q199 49 298 152.5t99 259.5 q0 129 -65.5 199.5t-190.5 70.5q-27 0 -53 -3t-53 -9q-14 -162 -22.5 -326.5t-12.5 -343.5z" />
<glyph unicode="Q" horiz-adv-x="1300" d="M70 561q0 356 183 586.5t462 230.5q244 0 373 -157.5t129 -456.5q0 -160 -45.5 -316.5t-124.5 -271.5q53 -47 107.5 -105t111.5 -128q-18 -49 -61.5 -95.5t-112.5 -91.5q-55 82 -103.5 146.5t-93.5 120.5q-72 -51 -157 -78t-181 -27q-227 0 -357 174t-130 469zM387 606 q0 -217 60.5 -350t166.5 -133q41 0 75 14.5t63 42.5q-33 33 -69 67t-77 68q20 39 46 66t57 43q35 -20 68.5 -42t66.5 -44q25 72 38 160t13 184q0 252 -53.5 369.5t-167.5 117.5q-131 0 -209 -153.5t-78 -409.5z" />
<glyph unicode="R" horiz-adv-x="1241" d="M121 1417q94 74 223 117t254 43q242 0 376 -111.5t134 -306.5q0 -135 -70.5 -247.5t-208.5 -200.5q104 -119 202 -278t200 -376q-49 -47 -121 -86t-156 -61q-121 281 -195.5 424t-160.5 266q-51 -18 -76.5 -26.5t-48.5 -14.5q-6 -162 -14 -303t-21 -268q-17 -1 -36 -1 q-46 0 -99 4q-74 5 -129 13q6 111 8 184.5t2 147.5q0 274 -14 522t-49 559zM457 1376q10 -211 14 -334.5t4 -234.5v-27.5v-27.5q162 45 240 136t78 236q0 127 -60.5 198t-173.5 71q-25 0 -50 -4.5t-52 -12.5z" />
<glyph unicode="S" horiz-adv-x="1075" d="M20 440q49 25 120 43.5t124 20.5q0 -182 64.5 -288.5t179.5 -106.5q86 0 134 51t48 139q0 80 -44 148.5t-193 181.5q-100 76 -147.5 122t-80.5 91q-45 66 -67.5 139.5t-22.5 157.5q0 195 127 313.5t338 118.5q188 0 300 -97.5t151 -299.5q-45 -31 -105.5 -46.5 t-150.5 -21.5q-20 141 -66.5 202.5t-134.5 61.5q-68 0 -105.5 -44t-37.5 -122q0 -86 45 -157.5t196 -184.5q100 -76 145 -120t78 -89q43 -63 64.5 -135t21.5 -156q0 -193 -134 -318.5t-332 -125.5q-227 0 -371 151.5t-144 370.5z" />
<glyph unicode="T" horiz-adv-x="1196" d="M35 1511q295 59 542.5 84t559.5 27q8 -27 13 -60.5t5 -72.5q0 -27 -3 -55.5t-11 -75.5q-70 0 -146.5 -2t-212.5 -6q16 -170 23.5 -351.5t7.5 -380.5q0 -104 -5.5 -228t-19.5 -308q-61 -16 -128.5 -24.5t-153.5 -10.5q1 56 1 115q1 244 -13 532q-16 358 -52 631 q-61 -6 -137 -14t-231 -27q-20 60 -30 118q-9 49 -9 92v17z" />
<glyph unicode="U" horiz-adv-x="1187" d="M88 549q0 201 34 418t75 311q33 8 75.5 14t81.5 6q43 0 77 -6t56 -16q-35 -168 -52 -338t-17 -324q0 -287 40 -429t120 -142q96 0 150 174t54 475q0 168 -22.5 344t-67.5 359q61 25 151.5 40t174.5 17q47 -201 66.5 -353.5t19.5 -291.5q0 -481 -144.5 -726t-431.5 -245 q-219 0 -329.5 179.5t-110.5 533.5z" />
<glyph unicode="V" horiz-adv-x="1220" d="M18 1235q70 31 152 48t176 22q41 -336 106.5 -635t147.5 -529q113 297 189.5 645.5t123.5 780.5q76 -4 147 -18.5t134 -39.5q-55 -436 -178 -846.5t-324 -826.5q-43 -16 -108.5 -24.5t-149.5 -8.5q-145 348 -248.5 707.5t-167.5 724.5z" />
<glyph unicode="W" horiz-adv-x="1744" d="M6 1319q88 27 171 41t169 16q20 -256 68.5 -526t132.5 -596q72 229 120 436t85 447q78 18 167 28.5t158 10.5q29 -264 59.5 -461t73.5 -391q106 293 171 567t96 563q82 -6 152.5 -30.5t127.5 -69.5q-66 -369 -189.5 -723.5t-301.5 -679.5q-45 -8 -100.5 -15.5 t-123.5 -11.5q-106 434 -129.5 562t-35.5 239q-51 -240 -113 -441.5t-139 -396.5q-53 -16 -119 -26.5t-129 -12.5q-143 414 -228.5 754t-142.5 717z" />
<glyph unicode="X" horiz-adv-x="1323" d="M8 168q266 307 359.5 422t173.5 223q-102 164 -216 313.5t-247 294.5q70 61 146.5 108.5t146.5 72.5q111 -145 203 -279.5t174 -265.5q96 139 169.5 259t137.5 238q57 -29 116.5 -79t98.5 -105q-84 -133 -181.5 -266t-209.5 -277q92 -166 179 -354.5t175 -415.5 q-33 -35 -88 -72.5t-131 -74.5q-88 195 -171 360.5t-165 313.5q-156 -188 -271.5 -318.5t-236.5 -253.5q-41 27 -88 72t-74 84z" />
<glyph unicode="Y" horiz-adv-x="1112" d="M6 1403q66 45 141.5 69.5t167.5 28.5q39 -242 100.5 -433t157.5 -380q59 170 107.5 362.5t87.5 430.5q94 -14 168.5 -41t140.5 -68q-141 -545 -291.5 -903t-355.5 -662q-63 14 -131 45t-109 62q78 121 143.5 238.5t119.5 236.5q-156 199 -264.5 444.5t-182.5 569.5z" />
<glyph unicode="Z" horiz-adv-x="1204" d="M31 12q0 74 7 137.5t19 106.5q246 252 424 472t318 446q-152 8 -309.5 25.5t-356.5 45.5q0 84 15.5 147.5t50.5 125.5q248 -47 492.5 -88t477.5 -76q-16 -123 -24 -161t-19 -60q-137 -201 -331.5 -429.5t-460.5 -502.5q112 -3 218 -3q89 0 174 2q187 5 380 23 q0 -86 -13.5 -160.5t-39.5 -134.5q-236 2 -518.5 25.5t-503.5 58.5z" />
<glyph unicode="[" horiz-adv-x="823" d="M127 1544q172 39 305 56.5t270 23.5q2 -57 -1 -109.5t-11 -93.5q-121 -2 -180 -5t-109 -7q-20 -328 -6.5 -693.5t62.5 -803.5q57 0 143 9.5t168 25.5q10 -33 18.5 -95.5t8.5 -111.5q-133 -16 -267.5 -24.5t-263.5 -6.5q-57 377 -95 886t-42 949z" />
<glyph unicode="\" horiz-adv-x="950" d="M-47 1425q178 -418 428 -926.5t477 -918.5q47 14 99.5 41t84.5 51q-176 317 -450.5 909t-419.5 965q-51 -6 -112.5 -39.5t-106.5 -81.5z" />
<glyph unicode="]" horiz-adv-x="802" d="M29 1612q127 16 271 25.5t304 9.5q47 -276 53.5 -773t-26.5 -1050q-150 -29 -282 -45.5t-273 -24.5q0 57 3 108.5t9 92.5q100 2 177 6t143 10q29 387 17.5 749.5t-63.5 715.5q-68 0 -149.5 -7.5t-157.5 -21.5q-10 37 -18 99.5t-8 105.5z" />
<glyph unicode="^" horiz-adv-x="933" d="M14 377q72 184 184.5 392t213.5 337l110 -2q102 -135 215 -341t183 -388q-43 -23 -81 -35t-94 -25q-63 150 -132.5 283t-147.5 252q-72 -111 -140.5 -243t-136.5 -290q-49 8 -89 22.5t-85 37.5z" />
<glyph unicode="_" horiz-adv-x="962" d="M73 -230q4 57 9.5 104.5t11.5 94.5q90 -12 249.5 -22.5t256.5 -10.5q100 0 191 4.5t165 12.5q0 -53 -7.5 -103.5t-19.5 -95.5q-201 -33 -453.5 -27.5t-402.5 43.5z" />
<glyph unicode="`" horiz-adv-x="532" d="M102 1511q49 18 117.5 24.5t134.5 -1.5q4 -80 21.5 -166t48.5 -174q-47 -12 -91 -17.5t-89 -5.5q-63 98 -97 180.5t-45 159.5z" />
<glyph unicode="a" d="M51 305q0 141 116 212t345 71q43 0 77 -1t70 -3v15v15q0 186 -30.5 266.5t-98.5 80.5t-114.5 -74t-48.5 -187q-100 2 -166 40t-95 106q33 119 160 201.5t293 82.5q195 0 295 -104t100 -307q0 -131 -35.5 -355.5t-89.5 -435.5q-59 0 -122.5 7.5t-116.5 21.5q8 43 11 63.5 t7 36.5q-43 -25 -96 -37t-113 -12q-158 0 -253 81t-95 216zM358 287q0 -59 34 -92t95 -33q39 0 74 10t70 31q10 74 16 133t8 115h-14q-139 0 -209 -38q-74 -40 -74 -126z" />
<glyph unicode="b" horiz-adv-x="1062" d="M113 770q0 184 6 352t18 285q35 18 97.5 28.5t136.5 10.5q43 0 69.5 -3t53.5 -11q-18 -96 -35 -221.5t-31 -286.5q47 57 106.5 84.5t133.5 27.5q160 0 242.5 -117t82.5 -344q0 -295 -148.5 -485t-373.5 -190q-94 0 -173 23.5t-163 78.5q-10 150 -16 358.5t-6 409.5z M403 133q18 -14 41 -22.5t43 -8.5q96 0 147.5 134.5t51.5 381.5q0 111 -30.5 166.5t-90.5 55.5q-45 0 -85 -44t-68 -128q-4 -150 -6.5 -236t-2.5 -160v-69.5v-69.5z" />
<glyph unicode="c" horiz-adv-x="985" d="M53 412q0 287 148.5 492.5t376.5 205.5q172 0 268 -94t96 -258q-51 -25 -117.5 -37t-154.5 -12q0 119 -28 179t-81 60q-82 0 -142.5 -159.5t-60.5 -364.5q0 -139 41 -218t117 -79q61 0 123.5 56.5t122.5 164.5q47 -12 91 -42t73 -68q-33 -115 -163 -202t-302 -87 q-195 0 -301.5 124t-106.5 339z" />
<glyph unicode="d" horiz-adv-x="1110" d="M63 457q0 287 139.5 458.5t372.5 171.5q16 0 35 -2t35 -4q-2 172 -3 242t-1 125q37 18 99.5 29.5t125.5 11.5q31 0 61.5 -4t61.5 -10q-16 -139 -24.5 -432t-8.5 -822q0 -72 1.5 -133t5.5 -141q-43 -14 -112 -23.5t-122 -9.5q-8 47 -15 107.5t-16 134.5 q-43 -111 -109.5 -164t-162.5 -53q-172 0 -267.5 138t-95.5 380zM362 494q0 -164 39 -252t109 -88q59 0 102 76.5t62 220.5q-8 154 -13.5 258t-9.5 196q-20 2 -31.5 3t-23.5 1q-106 0 -170 -110t-64 -305z" />
<glyph unicode="e" horiz-adv-x="1021" d="M61 432q0 272 163 484t380 212q152 0 241 -82.5t89 -222.5q0 -66 -13.5 -141.5t-35.5 -136.5q-53 -25 -131 -36t-193 -11q-47 0 -95 6t-97 18q-2 -33 -3 -49t-1 -31q0 -139 42 -219t115 -80q57 0 117.5 72t85.5 160q59 -10 120.5 -43t102.5 -74q-39 -115 -172 -204 t-303 -89q-195 0 -303.5 126t-108.5 341zM393 680q41 -12 83 -18.5t79 -6.5q23 0 45.5 2t30.5 5q14 53 21 99t7 83q0 61 -18 90t-59 29q-57 0 -108.5 -77t-80.5 -206z" />
<glyph unicode="f" horiz-adv-x="890" d="M37 823q0 35 10 84t23 62q20 -2 47.5 -5t64.5 -8q20 262 118.5 397.5t270.5 135.5q133 0 211 -77t78 -202q0 -31 -6 -60.5t-16 -51.5q-49 0 -104.5 8t-119.5 27q6 18 10.5 39.5t4.5 44.5q0 45 -15.5 68.5t-46.5 23.5q-53 0 -80.5 -93.5t-29.5 -273.5q27 -2 56.5 -2h88.5 q80 0 128 3t79 9q0 -41 -6 -95t-15 -91q-27 -8 -66.5 -11t-103.5 -3q-29 0 -62.5 1t-94.5 3q10 -182 44 -395.5t68 -352.5q-63 -23 -152 -37t-165 -14q-27 121 -52.5 375t-27.5 456q-45 8 -81 16.5t-58 18.5z" />
<glyph unicode="g" horiz-adv-x="1075" d="M72 506q0 281 134 431t386 150q68 0 151.5 -15t155.5 -40q31 -109 52.5 -310.5t21.5 -375.5q0 -416 -132 -634t-376 -218q-166 0 -264.5 91t-110.5 237q51 39 118.5 65.5t137.5 36.5q18 -131 52 -189.5t91 -58.5q72 0 115 109t58 324q-39 -51 -88.5 -76t-108.5 -25 q-178 0 -285.5 136.5t-107.5 361.5zM375 559q0 -164 49 -260t127 -96q35 0 64.5 28.5t52.5 85.5q-2 143 -18.5 298t-43.5 278q-14 2 -28.5 4t-28.5 2q-88 0 -131 -84t-43 -256z" />
<glyph unicode="h" horiz-adv-x="1114" d="M113 930q0 145 7 307t17 266q35 20 98.5 31.5t135.5 11.5q29 0 54.5 -3t70.5 -13q-25 -127 -44.5 -280.5t-31.5 -323.5q59 84 133 128t158 44q154 0 226.5 -99.5t72.5 -310.5q0 -172 -51.5 -402.5t-106.5 -351.5q-66 2 -133.5 17.5t-132.5 42.5q57 180 89 359t32 333 q0 115 -21.5 159t-75.5 44q-49 0 -102 -54.5t-100 -152.5q-2 -92 -3.5 -144.5t-1.5 -97.5q0 -68 4.5 -163t12.5 -191q-37 -12 -118 -21.5t-155 -9.5q-16 217 -25 445.5t-9 429.5z" />
<glyph unicode="i" horiz-adv-x="538" d="M93 537q5 272 46 489q43 25 97.5 38t115.5 13q29 0 58.5 -3t58.5 -9q-43 -164 -69.5 -455t-26.5 -600q-33 -14 -81 -23.5t-99 -9.5q-23 0 -40.5 2.5l-31.5 4.5q-29 244 -29 481q0 36 1 72zM176 1366q0 37 6 72t17 61q39 18 81 27.5t93 9.5q49 -2 90 -10t67 -23 q-18 -43 -40.5 -116.5t-34.5 -139.5q-57 -8 -121 -11q-38 -2 -80 -2q-28 0 -57 1q-10 33 -15.5 65.5t-5.5 65.5z" />
<glyph unicode="j" horiz-adv-x="577" d="M-266 -217q33 63 70.5 106t80.5 62q33 -59 67 -87t75 -28q74 0 110.5 92t36.5 277q0 193 -36 427t-95 435q76 23 175 33q55 6 105 6q41 0 78 -4q35 -166 53.5 -330.5t18.5 -316.5q0 -414 -107.5 -634t-312.5 -220q-100 0 -181 46t-138 136zM45 1391q-1 12 -1 23 q0 22 3 42q4 31 12 57q37 20 80 29.5t97 9.5q53 0 96 -8t76 -22q-12 -37 -27.5 -105.5t-32.5 -161.5q-43 -16 -106 -23q-50 -5 -124 -5h-44q-14 49 -21.5 89t-7.5 75z" />
<glyph unicode="k" horiz-adv-x="1075" d="M102 612q0 227 15.5 492.5t40.5 415.5h17q67 0 160 -14q105 -16 154 -38q-33 -147 -59.5 -363t-38.5 -421q92 88 182.5 198.5t223.5 299.5q57 -29 114.5 -80t89.5 -103q-88 -115 -190 -216t-246 -212q84 -100 193.5 -191t275.5 -200q-72 -90 -125 -133t-110 -61 q-115 96 -213.5 203.5t-198.5 252.5l-4 -2v-5v-7q0 -147 8 -267t25 -235q-53 -18 -115.5 -26.5t-148.5 -8.5q-27 176 -38.5 348.5t-11.5 372.5z" />
<glyph unicode="l" horiz-adv-x="550" d="M115 1468q37 23 88 37.5t106 14.5q39 0 76 -5.5t76 -15.5q-27 -260 -35 -729q-4 -208 -3 -402q0 -242 5 -462q-37 -12 -118 -21.5t-144 -9.5q-32 401 -46 820q-8 251 -9 479q0 152 4 294z" />
<glyph unicode="m" horiz-adv-x="1646" d="M76 1096q37 18 98.5 28.5t128.5 10.5q37 0 67.5 -3.5t59.5 -9.5q-4 -37 -9 -93t-11 -155q59 96 139 144.5t174 48.5q72 0 121 -31.5t80 -95.5q66 121 155.5 182.5t200.5 61.5q129 0 192.5 -98.5t63.5 -299.5q0 -188 -37 -434t-84 -422q-78 0 -154.5 9.5t-148.5 25.5 q61 266 91 468t30 347q0 88 -21.5 127t-70.5 39q-47 0 -93.5 -54t-82.5 -157q2 -8 2 -18v-33q0 -158 -27 -359.5t-55 -304.5q-59 2 -130 10.5t-153 24.5q37 213 54.5 358.5t17.5 250.5q0 88 -21.5 126.5t-70.5 38.5t-98.5 -55t-84.5 -151q-2 -158 -3 -232t-1 -131 q0 -100 1 -157.5t5 -94.5q-45 -12 -117.5 -20t-136.5 -8q-31 289 -51 602t-20 514z" />
<glyph unicode="n" horiz-adv-x="1107" d="M90 1069q37 18 99.5 29.5t127.5 11.5q29 0 60 -3t65 -9q-4 -35 -9 -84t-9 -113q61 98 137 147.5t166 49.5q137 0 203.5 -99.5t66.5 -300.5q0 -158 -25.5 -361.5t-53.5 -316.5q-61 2 -136 10.5t-159 24.5q35 190 53 354t18 283q0 90 -22.5 129t-71.5 39 q-53 0 -104.5 -58.5t-87.5 -160.5q-6 -94 -9 -193.5t-4 -187.5q0 -66 3 -153t8 -154q-45 -14 -118 -23.5t-136 -9.5q-23 213 -42.5 561t-19.5 588z" />
<glyph unicode="o" horiz-adv-x="1044" d="M55 483q0 281 148.5 458t384.5 177q182 0 285.5 -115.5t103.5 -320.5q0 -299 -143.5 -500.5t-387.5 -201.5q-184 0 -287.5 137t-103.5 366zM354 526q0 -154 42 -258t114 -104q68 0 114 124t46 292q0 180 -37 266t-113 86q-70 0 -118 -116t-48 -290z" />
<glyph unicode="p" horiz-adv-x="1067" d="M121 719q0 121 4 217t14 190q37 20 99.5 31.5t128.5 11.5q27 0 48 -3t52 -11q-10 -35 -18.5 -78t-14.5 -98q57 90 131 135t160 45q133 0 210 -107.5t77 -293.5q0 -324 -148.5 -531t-371.5 -207q-16 0 -33.5 1.5t-50.5 3.5q4 -68 10 -141.5t35 -315.5q-47 -14 -120 -23.5 t-136 -9.5q-33 246 -54.5 576.5t-21.5 607.5zM399 266q0 -25 2 -43q18 -14 40 -21t46 -7q90 0 154 152.5t64 379.5q0 98 -29 150.5t-84 52.5q-61 0 -107.5 -56.5t-74.5 -166.5q-6 -76 -8.5 -166t-2.5 -203v-72z" />
<glyph unicode="q" horiz-adv-x="1134" d="M68 401q0 305 143 486.5t385 181.5q23 0 55.5 -4t63.5 -12q2 18 6 37.5t10 44.5q43 23 90 32t109 9q31 0 68.5 -5.5t72.5 -15.5q-68 -199 -119 -693q-46 -443 -46 -835q0 -47 1 -92q-31 -14 -73.5 -21.5t-90.5 -7.5q-33 0 -52 2.5t-40 8.5q-2 31 -6 198.5t-6 325.5 q-45 -72 -100.5 -107.5t-118.5 -35.5q-166 0 -259 136t-93 367zM367 446q0 -156 36.5 -243.5t100.5 -87.5q45 0 77.5 33.5t57.5 105.5q2 133 15.5 299t33.5 326q-16 6 -36.5 9t-45.5 3q-111 0 -175 -117t-64 -328z" />
<glyph unicode="r" horiz-adv-x="925" d="M102 1094q31 12 70 17t94 5q51 0 94 -7t78 -22q-8 -43 -14 -94t-10 -106q49 131 124.5 206.5t155.5 75.5q100 0 155.5 -80.5t55.5 -230.5v-54.5t-2 -35.5q-49 -16 -119 -22q-41 -3 -85 -3q-32 0 -64 2q2 41 3 56.5t1 27.5q0 57 -13.5 86t-41.5 29q-51 0 -99 -130 t-75 -351q6 -123 18 -238.5t31 -226.5q-35 -12 -80 -18q-33 -4 -73 -4q-15 0 -30 1q-33 2 -53 5.5t-41 11.5q-54 252 -76 552q-12 167 -12 317q0 121 8 231z" />
<glyph unicode="s" horiz-adv-x="915" d="M37 279q41 18 103 29q52 9 92 9h14v-9q0 -103 43 -164q45 -64 125 -64q59 0 93 33.5t34 95.5q0 53 -36 101t-159 130q-164 111 -216 192t-52 181q0 150 105.5 245t275.5 95q168 0 269 -81t132 -238q-45 -29 -103.5 -45.5t-146.5 -22.5q-14 106 -49 155.5t-94 49.5 q-47 0 -72.5 -29t-25.5 -80q0 -49 34.5 -93t155.5 -122q168 -111 223.5 -192.5t55.5 -182.5q0 -156 -122 -258t-300 -102q-164 0 -271.5 105.5t-107.5 261.5z" />
<glyph unicode="t" horiz-adv-x="866" d="M10 942q2 51 12.5 97t26.5 73q25 -8 58.5 -14t72.5 -11q10 70 24.5 135.5t31.5 127.5q86 0 172 -11.5t147 -31.5q-14 -49 -29.5 -111.5t-27.5 -130.5q37 -1 71 -1q51 0 97 2q76 3 139 9q0 -35 -8.5 -80t-22.5 -88q-59 -10 -138 -14q-53 -3 -109 -3q-28 0 -58 1 q-12 -96 -18.5 -181t-6.5 -159q0 -182 20.5 -268t61.5 -86q35 0 53.5 64.5t20.5 191.5q55 -4 111.5 -25.5t99.5 -54.5q-4 -162 -84 -260.5t-221 -98.5q-172 0 -267.5 148.5t-95.5 427.5q0 90 3.5 170t11.5 153q-39 4 -77 11.5t-71 17.5z" />
<glyph unicode="u" horiz-adv-x="1005" d="M68 547q0 145 28.5 301t61.5 217q37 8 71.5 13t67.5 5q45 0 79 -6t52 -16q-25 -106 -37 -226t-12 -243q0 -193 31.5 -307.5t89.5 -114.5q63 0 97 130t34 357q0 88 -8.5 183.5t-16.5 132.5q59 25 145.5 40t166.5 15q10 -51 15 -121.5t5 -144.5q0 -383 -122.5 -582.5 t-362.5 -199.5q-188 0 -286.5 146t-98.5 421z" />
<glyph unicode="v" horiz-adv-x="1003" d="M-27 1114q68 33 153 50.5t177 19.5q55 -156 104.5 -364t96.5 -496q72 182 126 392t81 406q68 -4 137.5 -21t132.5 -44q-66 -264 -164 -510t-242 -504q-35 -14 -93 -20.5t-167 -6.5q-55 287 -140 561.5t-202 536.5z" />
<glyph unicode="w" horiz-adv-x="1538" d="M8 1067q80 25 163 39t171 16q18 -258 46 -448.5t73 -372.5q63 176 110 343t82 349q84 19 156 29q59 8 106 8h19q49 -147 89 -327.5t77 -403.5q63 195 104 378t62 367q80 -6 139 -22t119 -51q-84 -322 -175 -558.5t-210 -443.5q-39 -14 -106.5 -26.5t-127.5 -16.5 q-33 203 -66.5 372t-76.5 335q-66 -199 -117 -332t-110 -260q-47 -14 -122 -25.5t-137 -13.5q-96 252 -160.5 509t-107.5 556z" />
<glyph unicode="x" horiz-adv-x="1073" d="M-31 102q119 115 223.5 221.5t196.5 211.5q-82 119 -167 227t-173 207q74 59 149.5 103t143.5 69q72 -96 136.5 -192.5t125.5 -194.5q57 74 122 162t155 219q55 -37 103 -89.5t87 -117.5q-98 -119 -180 -213t-158 -174q63 -106 125.5 -226.5t134.5 -265.5 q-35 -35 -95 -72.5t-124 -66.5q-66 117 -130 225.5t-128 208.5q-100 -102 -204.5 -200.5t-217.5 -194.5q-33 25 -65.5 65.5t-59.5 87.5z" />
<glyph unicode="y" horiz-adv-x="1077" d="M68 522q0 139 19 262t75 312q76 0 146.5 -8.5t146.5 -24.5q-45 -174 -62.5 -287.5t-17.5 -238.5q0 -123 37 -201t98 -78q47 0 86 40t70 120q-6 164 -29 328.5t-53 259.5q57 25 144 39q68 11 135 11q19 0 38 -1q31 -111 52.5 -312.5t21.5 -375.5q0 -416 -130 -633 t-372 -217q-164 0 -259 91t-108 236q49 37 116 63.5t140 39.5q18 -133 50 -190.5t86 -57.5q74 0 116.5 123t51.5 368q-51 -80 -115 -117.5t-143 -37.5q-147 0 -243.5 136t-96.5 351z" />
<glyph unicode="z" horiz-adv-x="1034" d="M25 47q-1 11 -1 22q0 33 5 69q6 48 16 85q147 186 302 348t319 303q-104 10 -236 14q-62 2 -135 1q-83 0 -180 -2q2 78 15 135t44 117q238 -10 431.5 -44t373.5 -96q-6 -57 -18.5 -107t-28.5 -87q-227 -215 -367.5 -366.5t-236.5 -282.5q90 -3 165 -3q87 0 153 4 q124 7 261 27q0 -68 -12 -134t-37 -122q-238 2 -461 34t-372 85z" />
<glyph unicode="{" horiz-adv-x="677" d="M84 657.5q-2 65.5 8 120.5q29 -6 59.5 -9t59.5 -3q57 0 90 30.5t33 82.5q0 37 -18.5 76.5t-71.5 115.5q-72 92 -97.5 158.5t-25.5 144.5q0 135 85 219t218 84q49 0 97 -8t91 -24q6 -31 0 -76t-24 -92q-25 12 -43.5 17t-42.5 5q-59 0 -94 -40t-35 -107q0 -43 16.5 -85 t69.5 -122q61 -94 81.5 -151.5t20.5 -119.5q0 -66 -42 -123t-109 -85q72 -27 114.5 -84.5t42.5 -124.5q0 -59 -17.5 -111.5t-70.5 -138.5q-53 -80 -68.5 -128t-15.5 -102q0 -70 34 -108.5t93 -38.5q25 0 45.5 4t46.5 14q18 -47 26.5 -91.5t4.5 -75.5q-45 -18 -89 -26.5 t-107 -8.5q-131 0 -217.5 83t-86.5 212q0 84 25 152.5t86 152.5q49 72 68.5 117t19.5 83q0 49 -34 79t-91 30q-29 0 -55.5 -3t-63.5 -13q-14 53 -16 118.5z" />
<glyph unicode="|" horiz-adv-x="555" d="M154 1460q59 25 128.5 32t123.5 -7q-23 -297 -32 -894.5t1 -916.5q-37 -12 -89.5 -17t-90.5 -1q-20 342 -31.5 832.5t-9.5 971.5z" />
<glyph unicode="}" horiz-adv-x="663" d="M81 -246q1 45 13 90q23 -6 42.5 -9t39.5 -3q59 0 90 34t31 97q0 49 -15.5 97.5t-66.5 129.5q-53 90 -69.5 142.5t-16.5 107.5q2 74 44 134.5t116 89.5q-72 29 -112 88t-38 135q0 55 18.5 106t78.5 133q59 84 77.5 133.5t18.5 104.5q0 66 -34 105.5t-89 39.5q-27 0 -42 -3 t-32 -9q-12 43 -13 86t7 84q27 10 57.5 14.5t79.5 4.5q145 -2 231.5 -79t86.5 -204q-2 -78 -25.5 -140.5t-95.5 -166.5q-55 -82 -78 -130t-23 -85q0 -53 32 -83t87 -30q31 0 53.5 3t47.5 9q12 -57 12 -124.5t-14 -112.5q-37 8 -58.5 11t-44.5 3q-53 0 -86 -29.5t-35 -81.5 q0 -39 18.5 -80.5t67.5 -115.5q57 -82 79 -147.5t20 -149.5q0 -129 -96.5 -213t-237.5 -82q-33 0 -60.5 3t-56.5 11q-10 37 -9 82z" />
<glyph unicode="~" horiz-adv-x="901" d="M70 545q-10 125 45 195.5t164 70.5q33 0 68.5 -9t103.5 -36q63 -27 95 -35t60 -8q57 0 83 24.5t24 79.5q35 2 72.5 -4t60.5 -16q10 -125 -45.5 -195.5t-165.5 -70.5q-41 0 -83 10t-116 41q-57 23 -83.5 30t-49.5 7q-57 0 -81.5 -24.5t-20.5 -80.5q-29 -2 -64 4.5 t-67 16.5z" />
<glyph unicode="&#xa1;" horiz-adv-x="573" d="M98 -373q35 219 53.5 502t12.5 516q14 4 34.5 6t51.5 2q37 0 74.5 -4t72.5 -12q20 -215 29.5 -413.5t9.5 -448.5q0 -23 -1 -52.5t-3 -66.5q-51 -25 -100 -37t-103 -12q-35 0 -66.5 5t-64.5 15zM113 1141q33 8 64.5 11t76.5 3q41 0 82 -7t70 -20q4 -74 4 -138t-4 -124 h-95.5t-179.5 6q-8 143 -11 185.5t-7 83.5z" />
<glyph unicode="&#xa2;" horiz-adv-x="993" d="M61 557q0 287 149.5 492.5t379.5 205.5q33 0 61.5 -3t55.5 -9q18 59 36.5 103.5t38.5 78.5q41 -2 94.5 -20.5t96.5 -46.5q-39 -70 -62.5 -118t-40.5 -93q39 -45 59.5 -106.5t20.5 -137.5q-51 -25 -117.5 -37t-154.5 -12q0 121 -26.5 180.5t-82.5 59.5q-82 0 -142 -160 t-60 -365q0 -139 41 -218t116 -79q61 0 124 56.5t122 165.5q47 -10 95 -41t73 -70q-33 -113 -165 -202t-304 -89q-23 0 -43 2t-41 4q-18 -61 -39.5 -116.5t-44.5 -100.5q-47 4 -102.5 23.5t-94.5 46.5q37 57 64 110.5t47 110.5q-74 59 -114 158.5t-40 226.5z" />
<glyph unicode="&#xa3;" horiz-adv-x="1054" d="M27 78q59 35 121.5 57.5t113.5 26.5q33 37 49.5 77t16.5 89q0 35 -5.5 63.5t-17.5 54.5q-59 -2 -123.5 -1t-148.5 4q-4 51 -3 99t7 75q20 -2 49 -2h92q-61 86 -90 163.5t-29 159.5q0 186 139.5 310t354.5 124q197 0 315.5 -132t130.5 -363q-59 -18 -135 -20.5t-162 11.5 q8 156 -31.5 239t-119.5 83q-82 0 -127 -72.5t-45 -201.5q0 -74 16.5 -137.5t63.5 -151.5q133 8 232.5 19.5t164.5 25.5l6 -49.5t4 -30.5q0 -33 -4 -62.5t-12 -52.5q-68 -10 -148.5 -18t-169.5 -12q2 -23 3.5 -35t1.5 -25q0 -72 -27 -132t-84 -116q31 -6 64.5 -9t76.5 -3 q104 4 214 24.5t218 59.5q23 -57 32 -132t1 -138q-125 -16 -246 -15.5t-309 27.5q-82 12 -121 15t-69 3q-49 0 -93 -10t-114 -41q-25 39 -38 76t-15 76z" />
<glyph unicode="&#xa4;" horiz-adv-x="1150" d="M-18 229q66 59 113.5 110.5t88.5 109.5q-20 49 -31.5 106t-11.5 119q0 104 28 195.5t79 162.5q-51 47 -99.5 98.5t-82.5 96.5q20 39 61 81t82 66q49 -74 89 -122t89 -95q53 31 115.5 47.5t130.5 16.5q61 0 116.5 -14.5t98.5 -43.5q43 61 83 109.5t77 81.5q39 -14 84 -50 t75 -73q-59 -53 -107 -104.5t-93 -110.5q16 -37 23 -80t7 -92q0 -94 -21.5 -186.5t-62.5 -168.5q76 -66 123 -115.5t80 -92.5q-23 -39 -62.5 -79t-80.5 -63q-57 80 -92 123t-76 82q-59 -53 -134 -79.5t-161 -26.5q-59 0 -110.5 14t-96.5 45q-43 -59 -83 -108.5t-77 -84.5 q-41 16 -88 52.5t-73 72.5zM412 713q0 -129 43 -219.5t108 -90.5q70 0 115 106t45 251q0 147 -37 221t-108 74q-74 0 -120 -95.5t-46 -246.5z" />
<glyph unicode="&#xa5;" horiz-adv-x="1126" d="M41 1262q23 37 59.5 64.5t83.5 43.5q41 14 68 21.5t51 9.5q78 -150 141.5 -308.5t118.5 -336.5q86 150 150.5 302t126.5 355q63 -12 122.5 -45t116.5 -88q-59 -145 -114.5 -253.5t-124.5 -221.5q57 4 108 10t96 14q6 -23 8.5 -45t2.5 -49q-2 -29 -10.5 -54.5t-22.5 -45.5 q-78 -12 -157 -19.5t-154 -9.5q-8 -10 -11.5 -15t-5.5 -9q-2 -16 -2 -38v-63q96 4 180 10.5t150 14.5q4 -23 5 -43.5t-1 -38.5q0 -27 -5 -55.5t-15 -57.5q-80 -8 -162 -14t-160 -8q-4 -92 -10.5 -182.5t-14.5 -178.5q-47 -12 -119.5 -21t-133.5 -9q2 70 3 148.5t1 236.5 q-78 0 -157 3t-157 7q0 51 5 108.5t14 87.5q59 -4 133 -7t158 -5v14.5v24.5q-2 16 -2.5 24.5t-0.5 14.5q-2 6 -7 18.5l-13 32.5q-70 -2 -142.5 -1t-150.5 5q-2 57 1 111.5t11 85.5q43 -2 91.5 -4t99.5 -2q-45 92 -102.5 198.5t-149.5 262.5z" />
<glyph unicode="&#xa6;" horiz-adv-x="559" d="M146.5 1133q-1.5 178 5.5 327q59 25 128.5 32t122.5 -7q-10 -141 -18 -329.5t-12 -383.5q-43 -8 -97.5 -11t-119.5 -1q-8 195 -9.5 373zM162 451q47 6 100 6t109 -8q-2 -205 -2 -413t4 -362q-37 -12 -89.5 -17t-90.5 -1q-10 145 -17.5 332.5t-13.5 462.5z" />
<glyph unicode="&#xa7;" horiz-adv-x="899" d="M51 -80q37 25 93.5 44.5t105.5 21.5q23 -113 70 -172.5t114 -59.5q51 0 82 35t31 92q0 63 -48 120.5t-161 125.5q-147 90 -205.5 172t-58.5 180q0 96 57 173t158 120q-86 66 -126 139.5t-40 163.5q0 139 104.5 230.5t268.5 91.5q152 0 242.5 -73t123.5 -222 q-39 -23 -87 -34t-122 -17q-16 102 -52 149t-99 47q-55 0 -86 -33.5t-31 -95.5q0 -63 47 -120.5t154 -123.5q141 -84 194.5 -161.5t53.5 -180.5q0 -96 -56.5 -171.5t-156.5 -118.5q98 -72 143 -148t45 -170q0 -137 -105.5 -227t-271.5 -90q-152 0 -246 76.5t-135 236.5z M315 535q0 -49 37 -95.5t131 -107.5q51 16 79 53t28 92q0 53 -34 97.5t-130 107.5q-55 -16 -83 -54t-28 -93z" />
<glyph unicode="&#xa8;" horiz-adv-x="532" d="M-117 1370q0 35 6.5 71t16.5 62q39 20 81 28.5t93 6.5q45 0 85 -8t73 -25q-18 -41 -41 -114.5t-35 -139.5q-47 -8 -110.5 -11t-147.5 -1q-10 33 -15.5 65.5t-5.5 65.5zM301 1370q0 35 6.5 71t16.5 62q39 20 81 28.5t93 6.5q45 0 85 -8t73 -25q-18 -41 -41 -114.5 t-35 -139.5q-47 -8 -110.5 -11t-147.5 -1q-10 33 -15.5 65.5t-5.5 65.5z" />
<glyph unicode="&#xa9;" horiz-adv-x="1685" d="M66 625q0 350 234.5 583.5t590.5 233.5q334 0 531.5 -215t197.5 -555q0 -377 -210 -592t-581 -215q-348 0 -555.5 205.5t-207.5 554.5zM279 639q0 -281 151.5 -442.5t415.5 -161.5q262 0 410.5 170t148.5 471q0 276 -143.5 435t-395.5 159t-419.5 -179.5t-167.5 -451.5z M502 586q0 209 117.5 351t295.5 142q111 0 177.5 -65.5t76.5 -184.5q-59 -27 -102 -34t-115 -7q0 76 -20.5 117t-54.5 41q-51 0 -85 -89t-34 -216q0 -123 29.5 -188.5t86.5 -65.5t85 45t18 123q49 4 101 -5t75 -26q-8 -131 -97 -204.5t-243 -73.5q-147 0 -229 88t-82 252z " />
<glyph unicode="&#xaa;" horiz-adv-x="645" d="M23 1026q0 80 68.5 121t203.5 41h62.5t23.5 -2q0 109 -13.5 148.5t-45.5 39.5q-29 0 -49.5 -37t-22.5 -96q-66 8 -111 27.5t-73 54.5q41 84 108.5 126t165.5 42q129 0 195.5 -59.5t66.5 -174.5q0 -72 -20.5 -192.5t-53.5 -259.5q-39 0 -85 5t-93 13q2 10 3 20.5t3 30.5 q-25 -10 -54.5 -16t-63.5 -6q-98 0 -156.5 47t-58.5 127zM254 1012q0 -29 14.5 -43.5t42.5 -14.5q18 0 31.5 3.5t26.5 11.5q4 49 7 79.5t3 45.5q-63 -2 -94 -22.5t-31 -59.5z" />
<glyph unicode="&#xab;" horiz-adv-x="1124" d="M14 543q123 92 215.5 195.5t169.5 234.5q57 -29 107.5 -69t77.5 -81q-84 -100 -159 -170.5t-159 -128.5q66 -80 143 -146t175 -132q-37 -61 -79 -99t-102 -65q-139 113 -233 224.5t-156 236.5zM520 543q123 92 215 195.5t170 234.5q57 -29 107.5 -69t77.5 -81 q-84 -100 -159 -170.5t-159 -128.5q66 -80 143 -146t175 -132q-37 -61 -79 -99t-102 -65q-139 113 -233 224.5t-156 236.5z" />
<glyph unicode="&#xac;" horiz-adv-x="909" d="M55 633q0 51 3 95t12 95q180 -23 369.5 -24t406.5 22q10 -111 5 -238.5t-24 -254.5q-51 0 -95 3t-97 11q10 66 15 132.5t7 141.5q-147 -12 -305.5 -7t-296.5 24z" />
<glyph unicode="&#xad;" horiz-adv-x="0" />
<glyph unicode="&#xae;" horiz-adv-x="1685" d="M66 625q0 350 234.5 583.5t590.5 233.5q334 0 531.5 -215t197.5 -555q0 -377 -210 -592t-581 -215q-348 0 -555.5 205.5t-207.5 554.5zM279 639q0 -281 151.5 -442.5t415.5 -161.5q262 0 410.5 170t148.5 471q0 276 -143.5 435t-395.5 159t-419.5 -179.5t-167.5 -451.5z M526 1028q63 45 145.5 71.5t166.5 26.5q147 0 236 -67.5t89 -175.5q0 -70 -44 -132.5t-128 -111.5q61 -68 118 -152.5t110 -193.5q-37 -35 -90.5 -62.5t-120.5 -48.5q-70 162 -110 239t-85 140q-4 0 -13 -3t-16 -5q-2 -68 -7 -144.5t-13 -170.5q-45 -2 -98.5 2t-100.5 12 v26.5t2 40.5v41.5v24.5q0 145 -10 301t-31 342zM778 995q4 -115 6 -179t2 -120v-9v-11q72 18 109 65t37 121q0 63 -31 100t-84 37q-6 0 -12.5 -1t-26.5 -3z" />
<glyph unicode="&#xaf;" horiz-adv-x="530" d="M32 1377q1 50 7 81q125 -20 231.5 -23t225.5 9q4 -39 4 -80t-4 -82q-152 -25 -275 -20.5t-186 32.5q-4 33 -3 83z" />
<glyph unicode="&#xb0;" horiz-adv-x="548" d="M20 1290q0 111 73 175.5t202 64.5q109 0 171 -55.5t62 -147.5q0 -131 -68.5 -201.5t-197.5 -70.5q-111 0 -176.5 64.5t-65.5 170.5zM180 1286q0 -57 23.5 -89t66.5 -32t70 40.5t27 103.5q0 57 -22.5 87.5t-63.5 30.5q-45 0 -73 -38.5t-28 -102.5z" />
<glyph unicode="&#xb1;" horiz-adv-x="911" d="M43 121q0 51 3 95t11 95q180 -23 369.5 -23.5t407.5 21.5q0 -49 -6.5 -96t-18.5 -92q-170 -25 -380 -25t-386 25zM70 682q0 51 3 95t11 95q61 -8 130 -13t159 -9q-4 78 -9.5 145.5t-11.5 130.5q47 6 91 9.5t100 1.5q10 -68 15 -140.5t7 -146.5q82 4 155 9t140 11 q0 -49 -6 -96t-18 -92q-61 -8 -130 -14.5t-141 -10.5q-2 -70 -7 -141.5t-15 -142.5q-49 -6 -96.5 -7t-94.5 3q6 66 11.5 136t9.5 152q-84 2 -161 8.5t-142 16.5z" />
<glyph unicode="&#xb2;" horiz-adv-x="712" d="M12 645q-2 37 2 62.5t15 56.5q215 137 312 244.5t97 210.5q0 45 -18.5 71.5t-48.5 26.5q-39 0 -63.5 -41t-45.5 -137q-74 0 -129 10t-100 31q37 135 124 201.5t226 66.5q137 0 223 -71.5t86 -186.5q0 -106 -91 -218t-261 -212q115 -2 185.5 -1t136.5 5 q-2 -57 -11.5 -107.5t-27.5 -89.5q-158 2 -331 23.5t-280 54.5z" />
<glyph unicode="&#xb3;" horiz-adv-x="745" d="M47 821q45 20 102.5 30.5t126.5 10.5q0 -86 29 -135t74 -49q37 0 56.5 29.5t19.5 89.5q0 96 -59.5 147t-159.5 35q-8 29 -13.5 63.5t-7.5 65.5q66 31 125 72t109 90q-104 -8 -196.5 -20.5t-178.5 -30.5q-12 33 -18.5 80t-6.5 98q111 33 284 54.5t331 23.5 q16 -41 25 -91.5t9 -105.5q-57 -63 -105 -105.5t-116 -89.5q113 -25 173.5 -87t60.5 -150q0 -129 -98.5 -214t-247.5 -85q-141 0 -225.5 71.5t-92.5 202.5z" />
<glyph unicode="&#xb4;" horiz-adv-x="532" d="M100 1192q31 88 48.5 173t21.5 165q61 10 131 4.5t121 -25.5q-12 -84 -47 -166.5t-94 -173.5q-53 0 -96.5 5.5t-84.5 17.5z" />
<glyph unicode="&#xb5;" horiz-adv-x="1064" d="M72 309q2 166 23.5 344t68.5 410q61 -2 135 -10.5t158 -24.5q-35 -190 -53.5 -354t-18.5 -283q0 -88 22.5 -128t73.5 -40q53 0 104.5 58.5t88.5 162.5q8 188 8 365.5t-10 323.5q43 14 117.5 23t138.5 9q25 -215 43 -564t18 -589q-37 -16 -99.5 -26.5t-127.5 -10.5 q-35 0 -63.5 3.5t-57.5 9.5q4 39 9 87t9 107q-55 -92 -118.5 -139t-132.5 -47q-43 0 -77 14t-59 43q14 -129 40 -252t57 -219q-27 -6 -50.5 -9t-58.5 -3q-49 0 -93 9t-77 28q-12 197 -17 361.5t-1 340.5z" />
<glyph unicode="&#xb6;" horiz-adv-x="1445" d="M102 1112q0 203 156 323.5t418 120.5q145 0 270 -24.5t365 -108.5q6 -432 -14.5 -1027t-59.5 -984q-57 -14 -99 -20t-85 -6q25 373 39 609t18 337q8 229 9 460.5t-5 489.5q-37 10 -61.5 16.5t-44.5 10.5q6 -418 -15.5 -871.5t-72.5 -1025.5q-33 -10 -78 -15t-105 -3 q2 23 28 448.5t26 587.5q-346 100 -517.5 270t-171.5 412z" />
<glyph unicode="&#xb7;" horiz-adv-x="466" d="M98 631q74 18 152 21.5t158 -8.5q-2 -78 -8.5 -141.5t-16.5 -127.5q-82 -8 -146.5 -7t-127.5 9q-8 119 -9.5 163t-1.5 91z" />
<glyph unicode="&#xb8;" horiz-adv-x="534" d="M20 -319q29 18 55.5 32.5t59.5 28.5q14 -43 43 -68.5t66 -25.5q35 0 56.5 20.5t21.5 55.5q0 33 -20.5 52t-55.5 19q-18 0 -35.5 -4t-36.5 -14q-16 14 -29.5 26.5t-19.5 22.5q27 43 42 96t17 103l109 -25q-2 -20 -7 -45t-16 -55q12 2 26.5 4t29.5 2q80 0 130 -45t50 -119 q0 -94 -70.5 -151.5t-187.5 -57.5q-82 0 -141.5 38t-86.5 110z" />
<glyph unicode="&#xb9;" horiz-adv-x="634" d="M25 1264q121 53 231.5 115.5t208.5 131.5q47 -16 83 -37.5t62 -52.5q-49 -123 -97.5 -366.5t-68.5 -481.5q-33 -10 -64.5 -15t-66.5 -5q-27 0 -43 2t-32 6q2 31 4 56.5t4 58.5q6 133 19.5 267t31.5 245q-39 -25 -75 -47.5t-70 -42.5q-45 33 -75 71.5t-52 94.5z" />
<glyph unicode="&#xba;" horiz-adv-x="643" d="M29 1102q0 160 96 262t248 102q117 0 179 -62.5t62 -178.5q0 -166 -93 -284t-253 -118q-113 0 -176 76t-63 203zM256 1133q0 -76 17.5 -128.5t45.5 -52.5q31 0 47.5 58.5t16.5 150.5q0 90 -14.5 133t-44.5 43q-31 0 -49.5 -56t-18.5 -148z" />
<glyph unicode="&#xbb;" horiz-adv-x="1124" d="M31 823q27 39 79 80t115 74q86 -139 175 -241.5t202 -192.5q-61 -125 -155.5 -236.5t-233.5 -224.5q-59 27 -101 64.5t-79 99.5q98 66 175 132t142 146q-86 59 -161.5 131t-157.5 168zM537 823q27 39 79 80t115 74q86 -139 175 -241.5t202 -192.5q-61 -125 -155.5 -236.5 t-233.5 -224.5q-59 27 -101.5 64.5t-78.5 99.5q98 66 175 132t142 146q-86 59 -162 131t-157 168z" />
<glyph unicode="&#xbc;" horiz-adv-x="1742" d="M21 1336q121 53 231.5 115.5t208.5 131.5q47 -16 83 -37.5t62 -52.5q-49 -123 -97.5 -366.5t-68.5 -481.5q-33 -10 -64.5 -15t-66.5 -5q-27 0 -43 2t-32 6q2 31 4 56.5t4 58.5q6 133 19.5 267t31.5 245q-39 -25 -75 -47.5t-70 -42.5q-45 33 -75 71.5t-52 94.5zM246 17 q244 436 434 840.5t319 766.5q59 -12 118 -43t104 -76q-166 -395 -351.5 -764.5t-445.5 -816.5q-47 12 -89 33t-89 60zM887 305q121 184 190.5 330.5t135.5 347.5q49 0 103 -11.5t134 -40.5q-59 -162 -124.5 -295t-147.5 -264q57 -10 86 -14t53 -8q4 45 11.5 90t15.5 80 q31 14 68.5 21t88.5 9q23 0 52.5 -4t60.5 -10q-12 -31 -26.5 -85t-28.5 -132q51 -4 88 -7t67 -5q0 -45 -12 -93.5t-33 -76.5q-6 0 -13 1t-26 1q-37 2 -57 3t-41 3q-6 -43 -10 -87t-8 -89q-25 -10 -58.5 -15.5t-74.5 -5.5q-18 -2 -32.5 -1t-41.5 7q-2 18 -3 43t-1 76v55.5 t2 34.5q-209 18 -279.5 26.5t-109.5 12.5q-10 20 -18.5 57t-10.5 46z" />
<glyph unicode="&#xbd;" horiz-adv-x="1693" d="M21 1334q121 53 231.5 115.5t208.5 131.5q47 -16 83 -37.5t62 -52.5q-49 -123 -97.5 -366.5t-68.5 -481.5q-33 -10 -64.5 -15t-66.5 -5q-27 0 -43 2t-32 6q2 31 4 56.5t4 58.5q6 133 19.5 267t31.5 245q-39 -25 -75 -47.5t-70 -42.5q-45 33 -75 71.5t-52 94.5zM240 19 q244 436 434 840.5t319 766.5q59 -12 118 -43t104 -76q-166 -395 -351.5 -764.5t-445.5 -816.5q-47 12 -89 33t-89 60zM927 53q-2 37 2 62.5t15 56.5q215 137 312 244.5t97 210.5q0 45 -18.5 71.5t-48.5 26.5q-39 0 -63.5 -41t-45.5 -137q-74 0 -129 10t-100 31 q37 135 124 201.5t226 66.5q137 0 223 -71.5t86 -186.5q0 -106 -91 -218t-261 -212q115 -2 185.5 -1t136.5 5q-2 -57 -11.5 -107.5t-27.5 -89.5q-158 2 -331 23.5t-280 54.5z" />
<glyph unicode="&#xbe;" horiz-adv-x="1865" d="M53 927q45 20 102.5 30.5t126.5 10.5q0 -86 29 -135t74 -49q37 0 56.5 29.5t19.5 89.5q0 96 -59.5 147t-159.5 35q-8 29 -13.5 63.5t-7.5 65.5q66 31 125 72t109 90q-104 -8 -196.5 -20.5t-178.5 -30.5q-12 33 -18.5 80t-6.5 98q111 33 284 54.5t331 23.5 q16 -41 25 -91.5t9 -105.5q-57 -63 -105 -105.5t-116 -89.5q113 -25 173.5 -87t60.5 -150q0 -129 -98.5 -214t-247.5 -85q-141 0 -225.5 71.5t-92.5 202.5zM410 17q244 436 434 840.5t319 766.5q59 -12 118 -43t104 -76q-166 -395 -351.5 -764.5t-445.5 -816.5 q-47 12 -89 33t-89 60zM1016 312q121 184 190.5 330.5t135.5 347.5q49 0 103 -11.5t134 -40.5q-59 -162 -124.5 -295t-147.5 -264q57 -10 86 -14t53 -8q4 45 11.5 90t15.5 80q31 14 68.5 21t88.5 9q23 0 52.5 -4t60.5 -10q-12 -31 -26.5 -85t-28.5 -132q51 -4 88 -7t67 -5 q0 -45 -12 -93.5t-33 -76.5q-6 0 -13 1t-26 1q-37 2 -57 3t-41 3q-6 -43 -10 -87t-8 -89q-25 -10 -58.5 -15.5t-74.5 -5.5q-18 -2 -32.5 -1t-41.5 7q-2 18 -3 43t-1 76v55.5t2 34.5q-209 18 -279.5 26.5t-109.5 12.5q-10 20 -18.5 57t-10.5 46z" />
<glyph unicode="&#xbf;" horiz-adv-x="927" d="M53 -39q0 147 96.5 254t268.5 147q0 25 1 53.5t1 88.5q0 59 1 89t1 54q41 10 102.5 16.5t118.5 4.5q18 -115 28.5 -203t12.5 -156q-152 -31 -232.5 -121t-80.5 -227q0 -104 36.5 -163.5t102.5 -59.5q76 0 122 87t46 236q86 0 154.5 -12t125.5 -39q-12 -217 -129.5 -329.5 t-330.5 -112.5q-190 0 -317.5 111.5t-127.5 281.5zM362 1145q31 6 60 10t82 6q43 0 82 -7t67 -19q6 -66 7.5 -129.5t-3.5 -133.5q-41 0 -80.5 0.5t-189.5 4.5q-10 123 -15 172t-10 96z" />
<glyph unicode="&#xc0;" horiz-adv-x="1329" d="M4 78q170 309 287 613t233 759q80 -2 143.5 -9t137.5 -24q184 -322 308 -699.5t198 -850.5q-55 -37 -128 -59.5t-177 -36.5q-20 166 -46 310t-57 273q-133 0 -253 -7t-226 -21q-43 -111 -84 -205t-84 -176q-78 14 -144.5 49t-107.5 84zM440 1876q49 18 117.5 24.5 t134.5 -1.5q4 -80 21.5 -166t48.5 -174q-47 -12 -91 -17.5t-89 -5.5q-63 98 -97 180.5t-45 159.5zM500 541q94 12 180 19t168 9q-41 143 -88.5 274.5t-100.5 250.5q-37 -147 -76.5 -286.5t-82.5 -266.5z" />
<glyph unicode="&#xc1;" horiz-adv-x="1329" d="M4 78q170 309 287 613t233 759q80 -2 143.5 -9t137.5 -24q184 -322 308 -699.5t198 -850.5q-55 -37 -128 -59.5t-177 -36.5q-20 166 -46 310t-57 273q-133 0 -253 -7t-226 -21q-43 -111 -84 -205t-84 -176q-78 14 -144.5 49t-107.5 84zM500 541q94 12 180 19t168 9 q-41 143 -88.5 274.5t-100.5 250.5q-37 -147 -76.5 -286.5t-82.5 -266.5zM577 1557q31 88 48.5 173t21.5 165q61 10 131 4.5t121 -25.5q-12 -84 -47 -166.5t-94 -173.5q-53 0 -96.5 5.5t-84.5 17.5z" />
<glyph unicode="&#xc2;" horiz-adv-x="1329" d="M4 78q170 309 287 613t233 759q80 -2 143.5 -9t137.5 -24q184 -322 308 -699.5t198 -850.5q-55 -37 -128 -59.5t-177 -36.5q-20 166 -46 310t-57 273q-133 0 -253 -7t-226 -21q-43 -111 -84 -205t-84 -176q-78 14 -144.5 49t-107.5 84zM383 1610q72 66 117 123t80 127 q16 4 36.5 6t43.5 2q27 0 51 -2t47 -6q29 -59 76 -116.5t125 -125.5q-29 -37 -61.5 -61.5t-71.5 -38.5q-53 47 -88 83.5t-68 83.5q-33 -47 -71 -86.5t-87 -85.5q-39 14 -71.5 40t-57.5 57zM500 541q94 12 180 19t168 9q-41 143 -88.5 274.5t-100.5 250.5 q-37 -147 -76.5 -286.5t-82.5 -266.5z" />
<glyph unicode="&#xc3;" horiz-adv-x="1329" d="M4 78q170 309 287 613t233 759q80 -2 143.5 -9t137.5 -24q184 -322 308 -699.5t198 -850.5q-55 -37 -128 -59.5t-177 -36.5q-20 166 -46 310t-57 273q-133 0 -253 -7t-226 -21q-43 -111 -84 -205t-84 -176q-78 14 -144.5 49t-107.5 84zM405 1536q-8 104 31 162.5 t115 58.5q23 0 46 -7.5t66 -27.5q37 -18 56.5 -24t37.5 -6q33 0 46.5 19.5t11.5 57.5q35 2 65.5 -2t55.5 -16q8 -102 -31 -161.5t-117 -59.5q-27 0 -53.5 7t-71.5 30q-33 18 -50 23t-32 5q-31 0 -45 -18.5t-12 -56.5q-27 -2 -60.5 3t-58.5 13zM500 541q94 12 180 19t168 9 q-41 143 -88.5 274.5t-100.5 250.5q-37 -147 -76.5 -286.5t-82.5 -266.5z" />
<glyph unicode="&#xc4;" horiz-adv-x="1329" d="M4 78q170 309 287 613t233 759q80 -2 143.5 -9t137.5 -24q184 -322 308 -699.5t198 -850.5q-55 -37 -128 -59.5t-177 -36.5q-20 166 -46 310t-57 273q-133 0 -253 -7t-226 -21q-43 -111 -84 -205t-84 -176q-78 14 -144.5 49t-107.5 84zM301 1671q0 35 6.5 71t16.5 62 q39 20 81 28.5t93 6.5q45 0 85 -8t73 -25q-18 -41 -41 -114.5t-35 -139.5q-47 -8 -110.5 -11t-147.5 -1q-10 33 -15.5 65.5t-5.5 65.5zM500 541q94 12 180 19t168 9q-41 143 -88.5 274.5t-100.5 250.5q-37 -147 -76.5 -286.5t-82.5 -266.5zM719 1671q0 35 6.5 71t16.5 62 q39 20 81 28.5t93 6.5q45 0 85 -8t73 -25q-18 -41 -41 -114.5t-35 -139.5q-47 -8 -110.5 -11t-147.5 -1q-10 33 -15.5 65.5t-5.5 65.5z" />
<glyph unicode="&#xc5;" horiz-adv-x="1329" d="M4 78q170 309 287 613t233 759q80 -2 143.5 -9t137.5 -24q184 -322 308 -699.5t198 -850.5q-55 -37 -128 -59.5t-177 -36.5q-20 166 -46 310t-57 273q-133 0 -253 -7t-226 -21q-43 -111 -84 -205t-84 -176q-78 14 -144.5 49t-107.5 84zM471 1704q0 96 66.5 155.5 t175.5 59.5q86 0 135 -43t49 -121q0 -104 -65.5 -168.5t-173.5 -64.5q-84 0 -135.5 50t-51.5 132zM500 541q94 12 180 19t168 9q-41 143 -88.5 274.5t-100.5 250.5q-37 -147 -76.5 -286.5t-82.5 -266.5zM623 1710q0 -43 15 -69.5t42 -26.5q29 0 45.5 32.5t16.5 85.5 q0 51 -13.5 76t-40.5 25q-29 0 -47 -34t-18 -89z" />
<glyph unicode="&#xc6;" horiz-adv-x="1789" d="M6 76q178 309 300 614t243 754q53 0 115.5 -8.5t146.5 -28.5q283 53 472.5 72.5t385.5 21.5q2 -57 -5 -119.5t-22 -134.5q-145 0 -281 -6t-265 -20q-4 -94 -5 -192.5t1 -199.5q129 31 239.5 47.5t222.5 20.5q14 -57 20.5 -115.5t4.5 -128.5q-135 -4 -251 -14t-228 -27 q4 -115 13 -232.5t24 -229.5q102 2 272 21t283 44q12 -35 20 -107t8 -133q-115 -23 -375 -42t-462 -21q-12 96 -25.5 202.5t-23.5 221.5q-111 -2 -208.5 -9.5t-185.5 -19.5q-37 -80 -79 -166t-103 -200q-78 14 -144.5 50t-107.5 85zM535 524q70 10 139 16.5t139 8.5 q-16 203 -26.5 356.5t-16.5 278.5q-47 -162 -106.5 -327t-128.5 -333z" />
<glyph unicode="&#xc7;" horiz-adv-x="1204" d="M80 551q0 373 185.5 620.5t471.5 247.5q186 0 288.5 -116.5t113.5 -337.5q-78 -37 -139.5 -49.5t-151.5 -10.5q4 162 -36 241t-126 79q-113 0 -191.5 -172t-78.5 -428q0 -240 64.5 -368t185.5 -128q115 0 172 91t45 249q66 6 133 -6t106 -37q-16 -240 -153.5 -369 t-378.5 -129q-242 0 -376 163t-134 460zM389 -366q29 18 55.5 32.5t59.5 28.5q14 -43 43 -68.5t66 -25.5q35 0 56.5 20.5t21.5 55.5q0 33 -20.5 52t-55.5 19q-18 0 -35.5 -4t-36.5 -14q-16 14 -29.5 26.5t-19.5 22.5q27 43 42 96t17 103l109 -25q-2 -20 -7 -45t-16 -55 q12 2 26.5 4t29.5 2q80 0 130 -45t50 -119q0 -94 -70.5 -151.5t-187.5 -57.5q-82 0 -141.5 38t-86.5 110z" />
<glyph unicode="&#xc8;" horiz-adv-x="1171" d="M125 1403q293 55 503 77.5t425 24.5q0 -59 -7.5 -122.5t-21.5 -131.5q-147 -2 -282.5 -8t-262.5 -18q-4 -86 -6 -184.5t0 -206.5q121 29 233.5 45t231.5 20q12 -51 18.5 -108.5t6.5 -135.5q-150 -6 -262.5 -14t-219.5 -25q8 -162 17.5 -268t21.5 -196q109 4 278 23.5 t277 41.5q12 -37 20.5 -111t6.5 -129q-115 -23 -375 -42t-463 -21q-55 362 -95 784t-44 705zM370 1882q49 18 117.5 24.5t134.5 -1.5q4 -80 21.5 -166t48.5 -174q-47 -12 -91 -17.5t-89 -5.5q-63 98 -97 180.5t-45 159.5z" />
<glyph unicode="&#xc9;" horiz-adv-x="1171" d="M125 1403q293 55 503 77.5t425 24.5q0 -59 -7.5 -122.5t-21.5 -131.5q-147 -2 -282.5 -8t-262.5 -18q-4 -86 -6 -184.5t0 -206.5q121 29 233.5 45t231.5 20q12 -51 18.5 -108.5t6.5 -135.5q-150 -6 -262.5 -14t-219.5 -25q8 -162 17.5 -268t21.5 -196q109 4 278 23.5 t277 41.5q12 -37 20.5 -111t6.5 -129q-115 -23 -375 -42t-463 -21q-55 362 -95 784t-44 705zM422 1567q31 88 48.5 173t21.5 165q61 10 131 4.5t121 -25.5q-12 -84 -47 -166.5t-94 -173.5q-53 0 -96.5 5.5t-84.5 17.5z" />
<glyph unicode="&#xca;" horiz-adv-x="1171" d="M125 1403q293 55 503 77.5t425 24.5q0 -59 -7.5 -122.5t-21.5 -131.5q-147 -2 -282.5 -8t-262.5 -18q-4 -86 -6 -184.5t0 -206.5q121 29 233.5 45t231.5 20q12 -51 18.5 -108.5t6.5 -135.5q-150 -6 -262.5 -14t-219.5 -25q8 -162 17.5 -268t21.5 -196q109 4 278 23.5 t277 41.5q12 -37 20.5 -111t6.5 -129q-115 -23 -375 -42t-463 -21q-55 362 -95 784t-44 705zM284 1639q72 66 117 123t80 127q16 4 36.5 6t43.5 2q27 0 51 -2t47 -6q29 -59 76 -116.5t125 -125.5q-29 -37 -61.5 -61.5t-71.5 -38.5q-53 47 -88 83.5t-68 83.5 q-33 -47 -71 -86.5t-87 -85.5q-39 14 -71.5 40t-57.5 57z" />
<glyph unicode="&#xcb;" horiz-adv-x="1171" d="M125 1403q293 55 503 77.5t425 24.5q0 -59 -7.5 -122.5t-21.5 -131.5q-147 -2 -282.5 -8t-262.5 -18q-4 -86 -6 -184.5t0 -206.5q121 29 233.5 45t231.5 20q12 -51 18.5 -108.5t6.5 -135.5q-150 -6 -262.5 -14t-219.5 -25q8 -162 17.5 -268t21.5 -196q109 4 278 23.5 t277 41.5q12 -37 20.5 -111t6.5 -129q-115 -23 -375 -42t-463 -21q-55 362 -95 784t-44 705zM215 1714q0 35 6.5 71t16.5 62q39 20 81 28.5t93 6.5q45 0 85 -8t73 -25q-18 -41 -41 -114.5t-35 -139.5q-47 -8 -110.5 -11t-147.5 -1q-10 33 -15.5 65.5t-5.5 65.5zM633 1714 q0 35 6.5 71t16.5 62q39 20 81 28.5t93 6.5q45 0 85 -8t73 -25q-18 -41 -41 -114.5t-35 -139.5q-47 -8 -110.5 -11t-147.5 -1q-10 33 -15.5 65.5t-5.5 65.5z" />
<glyph unicode="&#xcc;" horiz-adv-x="598" d="M61 1857q49 18 117.5 24.5t134.5 -1.5q4 -80 21.5 -166t48.5 -174q-47 -12 -91 -17.5t-89 -5.5q-63 98 -97 180.5t-45 159.5zM115 1352q39 25 89 38t105 13q41 0 74 -4t70 -13q4 -72 6 -155t2 -187q0 -268 -8.5 -544.5t-24.5 -530.5q-41 -12 -115.5 -21t-140.5 -9 q2 416 -12.5 770t-44.5 643z" />
<glyph unicode="&#xcd;" horiz-adv-x="598" d="M115 1352q39 25 89 38t105 13q41 0 74 -4t70 -13q4 -72 6 -155t2 -187q0 -268 -8.5 -544.5t-24.5 -530.5q-41 -12 -115.5 -21t-140.5 -9q2 416 -12.5 770t-44.5 643zM170 1550q31 88 48.5 173t21.5 165q61 10 131 4.5t121 -25.5q-12 -84 -47 -166.5t-94 -173.5 q-53 0 -96.5 5.5t-84.5 17.5z" />
<glyph unicode="&#xce;" horiz-adv-x="598" d="M-15 1610q72 66 117 123t80 127q16 4 36.5 6t43.5 2q27 0 51 -2t47 -6q29 -59 76 -116.5t125 -125.5q-29 -37 -61.5 -61.5t-71.5 -38.5q-53 47 -88 83.5t-68 83.5q-33 -47 -71 -86.5t-87 -85.5q-39 14 -71.5 40t-57.5 57zM115 1352q39 25 89 38t105 13q41 0 74 -4t70 -13 q4 -72 6 -155t2 -187q0 -268 -8.5 -544.5t-24.5 -530.5q-41 -12 -115.5 -21t-140.5 -9q2 416 -12.5 770t-44.5 643z" />
<glyph unicode="&#xcf;" horiz-adv-x="598" d="M-92 1700q0 35 6.5 71t16.5 62q39 20 81 28.5t93 6.5q45 0 85 -8t73 -25q-18 -41 -41 -114.5t-35 -139.5q-47 -8 -110.5 -11t-147.5 -1q-10 33 -15.5 65.5t-5.5 65.5zM115 1352q39 25 89 38t105 13q41 0 74 -4t70 -13q4 -72 6 -155t2 -187q0 -268 -8.5 -544.5 t-24.5 -530.5q-41 -12 -115.5 -21t-140.5 -9q2 416 -12.5 770t-44.5 643zM326 1700q0 35 6.5 71t16.5 62q39 20 81 28.5t93 6.5q45 0 85 -8t73 -25q-18 -41 -41 -114.5t-35 -139.5q-47 -8 -110.5 -11t-147.5 -1q-10 33 -15.5 65.5t-5.5 65.5z" />
<glyph unicode="&#xd0;" horiz-adv-x="1247" d="M-48 774q1 47 7 72q8 0 19.5 -1t31.5 -1q43 -2 63.5 -3t37.5 -1q-2 35 -2 76.5v123.5q0 80 2 163t4 159q117 55 223 80.5t217 25.5q311 0 473 -144.5t162 -418.5q0 -297 -218 -561t-550 -364q-51 0 -130 6t-132 14q-14 176 -25.5 345t-17.5 329q-33 2 -68 4t-94 6 q-4 43 -3 90zM410 422q0 -43 1 -90t3 -127q223 96 340.5 276.5t117.5 423.5q0 174 -89 272.5t-251 98.5q-23 0 -46 -3t-46 -9q-10 -115 -16 -218.5t-8 -201.5q55 4 110.5 8t108.5 10q2 -57 2 -92t-4 -65q-55 -8 -110.5 -14.5t-110.5 -10.5q-2 -45 -2 -97.5v-160.5z" />
<glyph unicode="&#xd1;" horiz-adv-x="1386" d="M129 1358q4 4 14.5 9t14.5 7q63 33 140 52.5t165 25.5q158 -217 277.5 -434t224.5 -473v87v87q0 270 -9.5 466.5t-27.5 317.5q78 25 156.5 38t160.5 15q6 -119 8 -225t2 -207q0 -272 -10 -536t-31 -529q-80 -14 -145 -21t-129 -9q-143 342 -257 559t-241 395 q-2 -119 -2 -246t2 -256q0 -74 2 -159.5t13 -378.5q-43 -12 -116 -20.5t-136 -10.5q-39 469 -57.5 820t-18.5 626zM416 1616q-8 104 31 162.5t115 58.5q23 0 46 -7.5t66 -27.5q37 -18 56.5 -24t37.5 -6q33 0 46.5 19.5t11.5 57.5q35 2 65.5 -2t55.5 -16q8 -102 -31 -161.5 t-117 -59.5q-27 0 -53.5 7t-71.5 30q-33 18 -50 23t-32 5q-31 0 -45 -18.5t-12 -56.5q-27 -2 -60.5 3t-58.5 13z" />
<glyph unicode="&#xd2;" horiz-adv-x="1286" d="M68 674q0 365 180 596t469 231q238 0 365.5 -168t127.5 -481q0 -156 -37.5 -312.5t-107.5 -275.5q-86 -152 -212 -228.5t-286 -76.5q-233 0 -366 195.5t-133 519.5zM383 719q0 -252 63.5 -403.5t178.5 -151.5q127 0 195.5 161.5t68.5 446.5q0 272 -55.5 396t-178.5 124 q-125 0 -198.5 -156.5t-73.5 -416.5zM473 1894q49 18 117.5 24.5t134.5 -1.5q4 -80 21.5 -166t48.5 -174q-47 -12 -91 -17.5t-89 -5.5q-63 98 -97 180.5t-45 159.5z" />
<glyph unicode="&#xd3;" horiz-adv-x="1286" d="M68 674q0 365 180 596t469 231q238 0 365.5 -168t127.5 -481q0 -156 -37.5 -312.5t-107.5 -275.5q-86 -152 -212 -228.5t-286 -76.5q-233 0 -366 195.5t-133 519.5zM383 719q0 -252 63.5 -403.5t178.5 -151.5q127 0 195.5 161.5t68.5 446.5q0 272 -55.5 396t-178.5 124 q-125 0 -198.5 -156.5t-73.5 -416.5zM499 1571q31 88 48.5 173t21.5 165q61 10 131 4.5t121 -25.5q-12 -84 -47 -166.5t-94 -173.5q-53 0 -96.5 5.5t-84.5 17.5z" />
<glyph unicode="&#xd4;" horiz-adv-x="1286" d="M68 674q0 365 180 596t469 231q238 0 365.5 -168t127.5 -481q0 -156 -37.5 -312.5t-107.5 -275.5q-86 -152 -212 -228.5t-286 -76.5q-233 0 -366 195.5t-133 519.5zM360 1637q72 66 117 123t80 127q16 4 36.5 6t43.5 2q27 0 51 -2t47 -6q29 -59 76 -116.5t125 -125.5 q-29 -37 -61.5 -61.5t-71.5 -38.5q-53 47 -88 83.5t-68 83.5q-33 -47 -71 -86.5t-87 -85.5q-39 14 -71.5 40t-57.5 57zM383 719q0 -252 63.5 -403.5t178.5 -151.5q127 0 195.5 161.5t68.5 446.5q0 272 -55.5 396t-178.5 124q-125 0 -198.5 -156.5t-73.5 -416.5z" />
<glyph unicode="&#xd5;" horiz-adv-x="1286" d="M68 674q0 365 180 596t469 231q238 0 365.5 -168t127.5 -481q0 -156 -37.5 -312.5t-107.5 -275.5q-86 -152 -212 -228.5t-286 -76.5q-233 0 -366 195.5t-133 519.5zM383 719q0 -252 63.5 -403.5t178.5 -151.5q127 0 195.5 161.5t68.5 446.5q0 272 -55.5 396t-178.5 124 q-125 0 -198.5 -156.5t-73.5 -416.5zM399 1620q-8 104 31 162.5t115 58.5q23 0 46 -7.5t66 -27.5q37 -18 56.5 -24t37.5 -6q33 0 46.5 19.5t11.5 57.5q35 2 65.5 -2t55.5 -16q8 -102 -31 -161.5t-117 -59.5q-27 0 -53.5 7t-71.5 30q-33 18 -50 23t-32 5q-31 0 -45 -18.5 t-12 -56.5q-27 -2 -60.5 3t-58.5 13z" />
<glyph unicode="&#xd6;" horiz-adv-x="1286" d="M68 674q0 365 180 596t469 231q238 0 365.5 -168t127.5 -481q0 -156 -37.5 -312.5t-107.5 -275.5q-86 -152 -212 -228.5t-286 -76.5q-233 0 -366 195.5t-133 519.5zM274 1724q0 35 6.5 71t16.5 62q39 20 81 28.5t93 6.5q45 0 85 -8t73 -25q-18 -41 -41 -114.5t-35 -139.5 q-47 -8 -110.5 -11t-147.5 -1q-10 33 -15.5 65.5t-5.5 65.5zM383 719q0 -252 63.5 -403.5t178.5 -151.5q127 0 195.5 161.5t68.5 446.5q0 272 -55.5 396t-178.5 124q-125 0 -198.5 -156.5t-73.5 -416.5zM692 1724q0 35 6.5 71t16.5 62q39 20 81 28.5t93 6.5q45 0 85 -8 t73 -25q-18 -41 -41 -114.5t-35 -139.5q-47 -8 -110.5 -11t-147.5 -1q-10 33 -15.5 65.5t-5.5 65.5z" />
<glyph unicode="&#xd7;" horiz-adv-x="911" d="M106 453q55 49 115 104t123 119q-66 61 -124 111.5t-114 95.5q29 37 60 69.5t70 69.5q51 -37 112.5 -89t130.5 -120q51 55 102.5 110.5t102.5 112.5q37 -37 66.5 -73.5t52.5 -77.5q-37 -43 -83 -95.5t-106 -113.5q49 -49 97.5 -106.5t99.5 -125.5q-29 -35 -61.5 -68.5 t-71.5 -66.5q-47 59 -97.5 116.5t-101.5 113.5q-61 -61 -123.5 -120t-122.5 -108q-37 35 -66.5 68t-60.5 74z" />
<glyph unicode="&#xd8;" horiz-adv-x="1275" d="M68 674q0 365 179 596t466 231q55 0 103 -9t93 -28q12 27 27.5 59.5t46.5 98.5q49 -14 101.5 -46t91.5 -73q-8 -16 -17.5 -34.5t-25.5 -57.5q-18 -39 -27.5 -57.5t-18.5 -34.5q57 -82 87 -201t30 -266q0 -156 -37.5 -312.5t-107.5 -275.5q-86 -152 -212 -228.5 t-286 -76.5q-53 0 -100 10.5t-90 30.5q-10 -16 -21.5 -36.5t-36.5 -61.5q-18 -31 -26 -46.5t-17 -27.5q-68 23 -108.5 46.5t-79.5 62.5q35 55 65.5 106t59.5 100q-68 96 -103.5 232.5t-35.5 298.5zM385 719q0 -59 5 -119.5t13 -118.5q90 162 185.5 344.5t206.5 403.5 q-27 31 -64 47t-82 16q-121 0 -192.5 -155.5t-71.5 -417.5zM500 223q27 -31 56.5 -45t64.5 -14q127 0 195.5 161.5t68.5 446.5q0 29 -1 60.5t-3 80.5q-86 -166 -180.5 -336t-200.5 -354z" />
<glyph unicode="&#xd9;" horiz-adv-x="1187" d="M88 549q0 201 34 418t75 311q33 8 75.5 14t81.5 6q43 0 77 -6t56 -16q-35 -168 -52 -338t-17 -324q0 -287 40 -429t120 -142q96 0 150 174t54 475q0 168 -22.5 344t-67.5 359q61 25 151.5 40t174.5 17q47 -201 66.5 -353.5t19.5 -291.5q0 -481 -144.5 -726t-431.5 -245 q-219 0 -329.5 179.5t-110.5 533.5zM309 1775q49 18 117.5 24.5t134.5 -1.5q4 -80 21.5 -166t48.5 -174q-47 -12 -91 -17.5t-89 -5.5q-63 98 -97 180.5t-45 159.5z" />
<glyph unicode="&#xda;" horiz-adv-x="1187" d="M88 549q0 201 34 418t75 311q33 8 75.5 14t81.5 6q43 0 77 -6t56 -16q-35 -168 -52 -338t-17 -324q0 -287 40 -429t120 -142q96 0 150 174t54 475q0 168 -22.5 344t-67.5 359q61 25 151.5 40t174.5 17q47 -201 66.5 -353.5t19.5 -291.5q0 -481 -144.5 -726t-431.5 -245 q-219 0 -329.5 179.5t-110.5 533.5zM415 1454q31 88 48.5 173t21.5 165q61 10 131 4.5t121 -25.5q-12 -84 -47 -166.5t-94 -173.5q-53 0 -96.5 5.5t-84.5 17.5z" />
<glyph unicode="&#xdb;" horiz-adv-x="1187" d="M88 549q0 201 34 418t75 311q33 8 75.5 14t81.5 6q43 0 77 -6t56 -16q-35 -168 -52 -338t-17 -324q0 -287 40 -429t120 -142q96 0 150 174t54 475q0 168 -22.5 344t-67.5 359q61 25 151.5 40t174.5 17q47 -201 66.5 -353.5t19.5 -291.5q0 -481 -144.5 -726t-431.5 -245 q-219 0 -329.5 179.5t-110.5 533.5zM272 1573q72 66 117 123t80 127q16 4 36.5 6t43.5 2q27 0 51 -2t47 -6q29 -59 76 -116.5t125 -125.5q-29 -37 -61.5 -61.5t-71.5 -38.5q-53 47 -88 83.5t-68 83.5q-33 -47 -71 -86.5t-87 -85.5q-39 14 -71.5 40t-57.5 57z" />
<glyph unicode="&#xdc;" horiz-adv-x="1187" d="M88 549q0 201 34 418t75 311q33 8 75.5 14t81.5 6q43 0 77 -6t56 -16q-35 -168 -52 -338t-17 -324q0 -287 40 -429t120 -142q96 0 150 174t54 475q0 168 -22.5 344t-67.5 359q61 25 151.5 40t174.5 17q47 -201 66.5 -353.5t19.5 -291.5q0 -481 -144.5 -726t-431.5 -245 q-219 0 -329.5 179.5t-110.5 533.5zM209 1651q0 35 6.5 71t16.5 62q39 20 81 28.5t93 6.5q45 0 85 -8t73 -25q-18 -41 -41 -114.5t-35 -139.5q-47 -8 -110.5 -11t-147.5 -1q-10 33 -15.5 65.5t-5.5 65.5zM627 1651q0 35 6.5 71t16.5 62q39 20 81 28.5t93 6.5q45 0 85 -8 t73 -25q-18 -41 -41 -114.5t-35 -139.5q-47 -8 -110.5 -11t-147.5 -1q-10 33 -15.5 65.5t-5.5 65.5z" />
<glyph unicode="&#xdd;" horiz-adv-x="1112" d="M6 1403q66 45 141.5 69.5t167.5 28.5q39 -242 100.5 -433t157.5 -380q59 170 107.5 362.5t87.5 430.5q94 -14 168.5 -41t140.5 -68q-141 -545 -291.5 -903t-355.5 -662q-63 14 -131 45t-109 62q78 121 143.5 238.5t119.5 236.5q-156 199 -264.5 444.5t-182.5 569.5z M430 1536q31 88 48.5 173t21.5 165q61 10 131 4.5t121 -25.5q-12 -84 -47 -166.5t-94 -173.5q-53 0 -96.5 5.5t-84.5 17.5z" />
<glyph unicode="&#xde;" horiz-adv-x="1216" d="M125 1102q0 72 4 166t10 172q84 12 171 6t161 -27q-6 -53 -10 -107.5t-8 -107.5q43 6 86 9.5t86 3.5q250 0 386 -105.5t136 -294.5q0 -223 -184.5 -396.5t-524.5 -273.5q2 -35 4 -75.5t13 -210.5q-66 -2 -138.5 3t-126.5 15q-35 350 -50 634t-15 589zM428 426 q0 -41 2 -76q199 49 299 153.5t100 260.5q0 129 -65.5 199.5t-190.5 70.5q-29 0 -60.5 -4t-72.5 -14q-6 -119 -9 -235.5t-3 -231.5v-123z" />
<glyph unicode="&#xdf;" horiz-adv-x="1396" d="M31 823q0 33 11 83t21 63q23 -2 51.5 -5t63.5 -8q27 258 153 395.5t331 137.5q139 0 233 -80t94 -192q0 -47 -15.5 -88.5t-49.5 -84.5q-43 -57 -57.5 -95t-14.5 -85q0 -59 41 -110.5t178 -132.5q168 -102 222.5 -178.5t54.5 -170.5q0 -166 -99.5 -263t-271.5 -97 q-160 0 -261.5 100.5t-109.5 266.5q39 18 100.5 29t108.5 9q-2 -113 38 -175t114 -62q53 0 82.5 33.5t29.5 95.5q0 53 -36.5 96t-159.5 109q-158 86 -209 155.5t-51 163.5q0 70 23.5 129.5t78.5 122.5q47 55 64.5 94t17.5 95q0 55 -39 95t-96 40q-109 0 -165 -99.5 t-56 -291.5q0 -205 35.5 -469.5t80.5 -440.5q-61 -23 -150 -37t-167 -14q-27 121 -52.5 375t-27.5 454q-49 10 -84 19.5t-55 17.5z" />
<glyph unicode="&#xe0;" d="M51 305q0 141 116 212t345 71q43 0 77 -1t70 -3v15v15q0 186 -30.5 266.5t-98.5 80.5t-114.5 -74t-48.5 -187q-100 2 -166 40t-95 106q33 119 160 201.5t293 82.5q195 0 295 -104t100 -307q0 -131 -35.5 -355.5t-89.5 -435.5q-59 0 -122.5 7.5t-116.5 21.5q8 43 11 63.5 t7 36.5q-43 -25 -96 -37t-113 -12q-158 0 -253 81t-95 216zM358 287q0 -59 34 -92t95 -33q39 0 74 10t70 31q10 74 16 133t8 115q-150 2 -223.5 -38t-73.5 -126zM376 1534q49 18 117.5 24.5t134.5 -1.5q4 -80 21.5 -166t48.5 -174q-47 -12 -91 -17.5t-89 -5.5 q-63 98 -97 180.5t-45 159.5z" />
<glyph unicode="&#xe1;" d="M51 305q0 141 116 212t345 71q43 0 77 -1t70 -3v15v15q0 186 -30.5 266.5t-98.5 80.5t-114.5 -74t-48.5 -187q-100 2 -166 40t-95 106q33 119 160 201.5t293 82.5q195 0 295 -104t100 -307q0 -131 -35.5 -355.5t-89.5 -435.5q-59 0 -122.5 7.5t-116.5 21.5q8 43 11 63.5 t7 36.5q-43 -25 -96 -37t-113 -12q-158 0 -253 81t-95 216zM358 287q0 -59 34 -92t95 -33q39 0 74 10t70 31q10 74 16 133t8 115q-150 2 -223.5 -38t-73.5 -126zM462 1219q31 88 48.5 173t21.5 165q61 10 131 4.5t121 -25.5q-12 -84 -47 -166.5t-94 -173.5q-53 0 -96.5 5.5 t-84.5 17.5z" />
<glyph unicode="&#xe2;" d="M51 305q0 141 116 212t345 71q43 0 77 -1t70 -3v15v15q0 186 -30.5 266.5t-98.5 80.5t-114.5 -74t-48.5 -187q-100 2 -166 40t-95 106q33 119 160 201.5t293 82.5q195 0 295 -104t100 -307q0 -131 -35.5 -355.5t-89.5 -435.5q-59 0 -122.5 7.5t-116.5 21.5q8 43 11 63.5 t7 36.5q-43 -25 -96 -37t-113 -12q-158 0 -253 81t-95 216zM305 1278q72 66 117 123t80 127q16 4 36.5 6t43.5 2q27 0 51 -2t47 -6q29 -59 76 -116.5t125 -125.5q-29 -37 -61.5 -61.5t-71.5 -38.5q-53 47 -88 83.5t-68 83.5q-33 -47 -71 -86.5t-87 -85.5q-39 14 -71.5 40 t-57.5 57zM358 287q0 -59 34 -92t95 -33q39 0 74 10t70 31q10 74 16 133t8 115q-150 2 -223.5 -38t-73.5 -126z" />
<glyph unicode="&#xe3;" d="M51 305q0 141 116 212t345 71q43 0 77 -1t70 -3v15v15q0 186 -30.5 266.5t-98.5 80.5t-114.5 -74t-48.5 -187q-100 2 -166 40t-95 106q33 119 160 201.5t293 82.5q195 0 295 -104t100 -307q0 -131 -35.5 -355.5t-89.5 -435.5q-59 0 -122.5 7.5t-116.5 21.5q8 43 11 63.5 t7 36.5q-43 -25 -96 -37t-113 -12q-158 0 -253 81t-95 216zM317 1233q-8 104 31 162.5t115 58.5q23 0 46 -7.5t66 -27.5q37 -18 56.5 -24t37.5 -6q33 0 46.5 19.5t11.5 57.5q35 2 65.5 -2t55.5 -16q8 -102 -31 -161.5t-117 -59.5q-27 0 -53.5 7t-71.5 30q-33 18 -50 23 t-32 5q-31 0 -45 -18.5t-12 -56.5q-27 -2 -60.5 3t-58.5 13zM358 287q0 -59 34 -92t95 -33q39 0 74 10t70 31q10 74 16 133t8 115q-150 2 -223.5 -38t-73.5 -126z" />
<glyph unicode="&#xe4;" d="M51 305q0 141 116 212t345 71q43 0 77 -1t70 -3v15v15q0 186 -30.5 266.5t-98.5 80.5t-114.5 -74t-48.5 -187q-100 2 -166 40t-95 106q33 119 160 201.5t293 82.5q195 0 295 -104t100 -307q0 -131 -35.5 -355.5t-89.5 -435.5q-59 0 -122.5 7.5t-116.5 21.5q8 43 11 63.5 t7 36.5q-43 -25 -96 -37t-113 -12q-158 0 -253 81t-95 216zM221 1341q0 35 6.5 71t16.5 62q39 20 81 28.5t93 6.5q45 0 85 -8t73 -25q-18 -41 -41 -114.5t-35 -139.5q-47 -8 -110.5 -11t-147.5 -1q-10 33 -15.5 65.5t-5.5 65.5zM358 287q0 -59 34 -92t95 -33q39 0 74 10 t70 31q10 74 16 133t8 115q-150 2 -223.5 -38t-73.5 -126zM639 1341q0 35 6.5 71t16.5 62q39 20 81 28.5t93 6.5q45 0 85 -8t73 -25q-18 -41 -41 -114.5t-35 -139.5q-47 -8 -110.5 -11t-147.5 -1q-10 33 -15.5 65.5t-5.5 65.5z" />
<glyph unicode="&#xe5;" d="M51 305q0 141 116 212t345 71q43 0 77 -1t70 -3v15v15q0 186 -30.5 266.5t-98.5 80.5t-114.5 -74t-48.5 -187q-100 2 -166 40t-95 106q33 119 160 201.5t293 82.5q195 0 295 -104t100 -307q0 -131 -35.5 -355.5t-89.5 -435.5q-59 0 -122.5 7.5t-116.5 21.5q8 43 11 63.5 t7 36.5q-43 -25 -96 -37t-113 -12q-158 0 -253 81t-95 216zM358 287q0 -59 34 -92t95 -33q39 0 74 10t70 31q10 74 16 133t8 115q-150 2 -223.5 -38t-73.5 -126zM368 1374q0 96 66.5 155.5t175.5 59.5q86 0 135 -43t49 -121q0 -104 -65.5 -168.5t-173.5 -64.5 q-84 0 -135.5 50t-51.5 132zM520 1380q0 -43 15 -69.5t42 -26.5q29 0 45.5 32.5t16.5 85.5q0 51 -13.5 76t-40.5 25q-29 0 -47 -34t-18 -89z" />
<glyph unicode="&#xe6;" horiz-adv-x="1601" d="M51 256q0 141 117 214t344 73q45 0 80 -1t67 -3q2 27 1 63.5t-1 42.5q-4 141 -33.5 204.5t-95.5 63.5q-68 0 -114.5 -72.5t-48.5 -187.5q-100 2 -166 40t-95 106q33 119 163 201.5t290 82.5q100 0 173 -42t118 -126q76 82 164 124t182 42q141 0 228 -85t87 -220 q0 -68 -13 -144.5t-34 -133.5q-55 -25 -133 -36t-190 -11q-47 0 -96.5 6t-98.5 18q-2 -33 -3 -49t-1 -31q0 -137 42 -217t118 -80q55 0 115.5 71t87.5 159q59 -10 120.5 -43t100.5 -74q-35 -113 -169 -202t-304 -89q-98 0 -181.5 45t-138.5 129q-76 -68 -158.5 -99.5 t-181.5 -31.5q-156 0 -249 80t-93 213zM358 238q0 -59 32 -91t91 -32q45 0 98.5 19.5t106.5 53.5q-18 47 -27.5 99.5t-9.5 107.5v5v6q-145 2 -218 -40t-73 -128zM971 633q41 -12 84 -18.5t80 -6.5q14 0 38.5 2t36.5 4q14 57 21.5 101.5t7.5 81.5q0 63 -18.5 90.5t-59.5 27.5 q-57 0 -108 -76.5t-82 -205.5z" />
<glyph unicode="&#xe7;" horiz-adv-x="985" d="M53 412q0 289 148.5 494.5t376.5 205.5q172 0 268 -94t96 -258q-51 -25 -117.5 -37t-154.5 -12q0 119 -28 179t-81 60q-82 0 -142.5 -160.5t-60.5 -363.5q0 -139 41 -218t117 -79q63 0 124.5 55.5t121.5 163.5q45 -10 90 -39.5t74 -70.5q-29 -104 -148 -189.5t-274 -95.5 q-6 -29 -10.5 -42t-8.5 -24q14 4 28.5 5.5t29.5 1.5q82 0 133 -45t51 -119q0 -94 -71.5 -150.5t-190.5 -56.5q-82 0 -140.5 38t-84.5 109q33 20 55 31.5t59 28.5q12 -43 41 -67.5t66 -24.5q35 0 55.5 20t20.5 55q0 31 -20.5 50.5t-55.5 19.5q-16 0 -33.5 -4t-36.5 -15 q-16 14 -29.5 26.5t-19.5 23.5q18 29 31.5 65.5t21.5 75.5q-164 20 -253 141t-89 316z" />
<glyph unicode="&#xe8;" horiz-adv-x="1021" d="M61 432q0 272 163 484t380 212q152 0 241 -82.5t89 -222.5q0 -66 -13.5 -141.5t-35.5 -136.5q-53 -25 -131 -36t-193 -11q-47 0 -95 6t-97 18q-2 -33 -3 -49t-1 -31q0 -139 42 -219t115 -80q57 0 117.5 72t85.5 160q59 -10 120.5 -43t102.5 -74q-39 -115 -172 -204 t-303 -89q-195 0 -303.5 126t-108.5 341zM393 680q41 -12 83 -18.5t79 -6.5q23 0 45.5 2t30.5 5q14 53 21 99t7 83q0 61 -18 90t-59 29q-57 0 -108.5 -77t-80.5 -206zM401 1511q49 18 117.5 24.5t134.5 -1.5q4 -80 21.5 -166t48.5 -174q-47 -12 -91 -17.5t-89 -5.5 q-63 98 -97 180.5t-45 159.5z" />
<glyph unicode="&#xe9;" horiz-adv-x="1021" d="M61 432q0 272 163 484t380 212q152 0 241 -82.5t89 -222.5q0 -66 -13.5 -141.5t-35.5 -136.5q-53 -25 -131 -36t-193 -11q-47 0 -95 6t-97 18q-2 -33 -3 -49t-1 -31q0 -139 42 -219t115 -80q57 0 117.5 72t85.5 160q59 -10 120.5 -43t102.5 -74q-39 -115 -172 -204 t-303 -89q-195 0 -303.5 126t-108.5 341zM393 680q41 -12 83 -18.5t79 -6.5q23 0 45.5 2t30.5 5q14 53 21 99t7 83q0 61 -18 90t-59 29q-57 0 -108.5 -77t-80.5 -206zM532 1192q31 88 48.5 173t21.5 165q61 10 131 4.5t121 -25.5q-12 -84 -47 -166.5t-94 -173.5 q-53 0 -96.5 5.5t-84.5 17.5z" />
<glyph unicode="&#xea;" horiz-adv-x="1021" d="M61 432q0 272 163 484t380 212q152 0 241 -82.5t89 -222.5q0 -66 -13.5 -141.5t-35.5 -136.5q-53 -25 -131 -36t-193 -11q-47 0 -95 6t-97 18q-2 -33 -3 -49t-1 -31q0 -139 42 -219t115 -80q57 0 117.5 72t85.5 160q59 -10 120.5 -43t102.5 -74q-39 -115 -172 -204 t-303 -89q-195 0 -303.5 126t-108.5 341zM329 1258q72 66 117 123t80 127q16 4 36.5 6t43.5 2q27 0 51 -2t47 -6q29 -59 76 -116.5t125 -125.5q-29 -37 -61.5 -61.5t-71.5 -38.5q-53 47 -88 83.5t-68 83.5q-33 -47 -71 -86.5t-87 -85.5q-39 14 -71.5 40t-57.5 57zM393 680 q41 -12 83 -18.5t79 -6.5q23 0 45.5 2t30.5 5q14 53 21 99t7 83q0 61 -18 90t-59 29q-57 0 -108.5 -77t-80.5 -206z" />
<glyph unicode="&#xeb;" horiz-adv-x="1021" d="M61 432q0 272 163 484t380 212q152 0 241 -82.5t89 -222.5q0 -66 -13.5 -141.5t-35.5 -136.5q-53 -25 -131 -36t-193 -11q-47 0 -95 6t-97 18q-2 -33 -3 -49t-1 -31q0 -139 42 -219t115 -80q57 0 117.5 72t85.5 160q59 -10 120.5 -43t102.5 -74q-39 -115 -172 -204 t-303 -89q-195 0 -303.5 126t-108.5 341zM295 1333q0 35 6.5 71t16.5 62q39 20 81 28.5t93 6.5q45 0 85 -8t73 -25q-18 -41 -41 -114.5t-35 -139.5q-47 -8 -110.5 -11t-147.5 -1q-10 33 -15.5 65.5t-5.5 65.5zM393 680q41 -12 83 -18.5t79 -6.5q23 0 45.5 2t30.5 5 q14 53 21 99t7 83q0 61 -18 90t-59 29q-57 0 -108.5 -77t-80.5 -206zM713 1333q0 35 6.5 71t16.5 62q39 20 81 28.5t93 6.5q45 0 85 -8t73 -25q-18 -41 -41 -114.5t-35 -139.5q-47 -8 -110.5 -11t-147.5 -1q-10 33 -15.5 65.5t-5.5 65.5z" />
<glyph unicode="&#xec;" horiz-adv-x="540" d="M95 512q5 309 44 514q43 25 97.5 38t115.5 13q29 0 58.5 -3t58.5 -9q-43 -164 -69.5 -455t-26.5 -600q-33 -14 -81 -23.5t-99 -9.5q-23 0 -40.5 2.5l-31.5 4.5q-31 219 -26 528zM129 1491q49 18 117.5 24.5t134.5 -1.5q4 -80 21.5 -166t48.5 -174q-47 -12 -91 -17.5 t-89 -5.5q-63 98 -97 180.5t-45 159.5z" />
<glyph unicode="&#xed;" horiz-adv-x="540" d="M95 512q5 309 44 514q43 25 97.5 38t115.5 13q29 0 58.5 -3t58.5 -9q-43 -164 -69.5 -455t-26.5 -600q-33 -14 -81 -23.5t-99 -9.5q-23 0 -40.5 2.5l-31.5 4.5q-31 219 -26 528zM237 1172q31 88 48.5 173t21.5 165q61 10 131 4.5t121 -25.5q-12 -84 -47 -166.5 t-94 -173.5q-53 0 -96.5 5.5t-84.5 17.5z" />
<glyph unicode="&#xee;" horiz-adv-x="540" d="M76 1243q72 66 117 123t80 127q16 4 36.5 6t43.5 2q27 0 51 -2t47 -6q29 -59 76 -116.5t125 -125.5q-29 -37 -61.5 -61.5t-71.5 -38.5q-53 47 -88 83.5t-68 83.5q-33 -47 -71 -86.5t-87 -85.5q-39 14 -71.5 40t-57.5 57zM95 512q5 309 44 514q43 25 97.5 38t115.5 13 q29 0 58.5 -3t58.5 -9q-43 -164 -69.5 -455t-26.5 -600q-33 -14 -81 -23.5t-99 -9.5q-23 0 -40.5 2.5l-31.5 4.5q-31 219 -26 528z" />
<glyph unicode="&#xef;" horiz-adv-x="540" d="M20 1327q0 35 6.5 71t16.5 62q39 20 81 28.5t93 6.5q45 0 85 -8t73 -25q-18 -41 -41 -114.5t-35 -139.5q-47 -8 -110.5 -11t-147.5 -1q-10 33 -15.5 65.5t-5.5 65.5zM95 512q5 309 44 514q43 25 97.5 38t115.5 13q29 0 58.5 -3t58.5 -9q-43 -164 -69.5 -455t-26.5 -600 q-33 -14 -81 -23.5t-99 -9.5q-23 0 -40.5 2.5l-31.5 4.5q-31 219 -26 528zM438 1327q0 35 6.5 71t16.5 62q39 20 81 28.5t93 6.5q45 0 85 -8t73 -25q-18 -41 -41 -114.5t-35 -139.5q-47 -8 -110.5 -11t-147.5 -1q-10 33 -15.5 65.5t-5.5 65.5z" />
<glyph unicode="&#xf0;" horiz-adv-x="1110" d="M63 457q0 287 139.5 458.5t372.5 171.5q16 0 35 -2t35 -4v40v40q-63 2 -121.5 5t-105.5 8q-4 41 -3 88t7 73q37 -2 82 -4t137 -4v60.5v60.5q37 18 99.5 29.5t125.5 11.5q31 0 61.5 -4t61.5 -10q-2 -29 -5 -64t-7 -76q39 2 81 6.5t101 10.5q2 -57 2 -93t-4 -65 q-49 -8 -96 -14t-92 -9q-6 -150 -9.5 -354.5t-3.5 -595.5q0 -72 1.5 -133t5.5 -141q-43 -14 -112 -23.5t-122 -9.5q-8 47 -15 107.5t-16 134.5q-43 -111 -109.5 -164t-162.5 -53q-172 0 -267.5 138t-95.5 380zM362 494q0 -164 39 -252t109 -88q57 0 100 76.5t64 220.5 q-8 154 -13.5 258t-9.5 196q-20 2 -31.5 3t-23.5 1q-106 0 -170 -110t-64 -305z" />
<glyph unicode="&#xf1;" horiz-adv-x="1107" d="M90 1069q37 18 99.5 29.5t127.5 11.5q29 0 60 -3t65 -9q-4 -35 -9 -84t-9 -113q61 98 137 147.5t166 49.5q137 0 203.5 -99.5t66.5 -300.5q0 -158 -25.5 -361.5t-53.5 -316.5q-61 2 -136 10.5t-159 24.5q35 190 53 354t18 283q0 90 -22.5 129t-71.5 39 q-53 0 -104.5 -58.5t-87.5 -160.5q-6 -94 -9.5 -193.5t-3.5 -187.5q0 -66 3 -153t8 -154q-45 -14 -118 -23.5t-136 -9.5q-23 213 -42.5 561t-19.5 588zM332 1239q-8 104 31 162.5t115 58.5q23 0 46 -7.5t66 -27.5q37 -18 56.5 -24t37.5 -6q33 0 46.5 19.5t11.5 57.5 q35 2 65.5 -2t55.5 -16q8 -102 -31 -161.5t-117 -59.5q-27 0 -53.5 7t-71.5 30q-33 18 -50 23t-32 5q-31 0 -45 -18.5t-12 -56.5q-27 -2 -60.5 3t-58.5 13z" />
<glyph unicode="&#xf2;" horiz-adv-x="1044" d="M55 483q0 281 148.5 458t384.5 177q182 0 285.5 -115.5t103.5 -320.5q0 -299 -143.5 -500.5t-387.5 -201.5q-184 0 -287.5 137t-103.5 366zM354 526q0 -154 42 -258t114 -104q68 0 114 124t46 292q0 180 -37 266t-113 86q-70 0 -118 -116t-48 -290zM356 1507 q49 18 117.5 24.5t134.5 -1.5q4 -80 21.5 -166t48.5 -174q-47 -12 -91 -17.5t-89 -5.5q-63 98 -97 180.5t-45 159.5z" />
<glyph unicode="&#xf3;" horiz-adv-x="1044" d="M55 483q0 281 148.5 458t384.5 177q182 0 285.5 -115.5t103.5 -320.5q0 -299 -143.5 -500.5t-387.5 -201.5q-184 0 -287.5 137t-103.5 366zM354 526q0 -154 42 -258t114 -104q68 0 114 124t46 292q0 180 -37 266t-113 86q-70 0 -118 -116t-48 -290zM422 1188 q31 88 48.5 173t21.5 165q61 10 131 4.5t121 -25.5q-12 -84 -47 -166.5t-94 -173.5q-53 0 -96.5 5.5t-84.5 17.5z" />
<glyph unicode="&#xf4;" horiz-adv-x="1044" d="M55 483q0 281 148.5 458t384.5 177q182 0 285.5 -115.5t103.5 -320.5q0 -299 -143.5 -500.5t-387.5 -201.5q-184 0 -287.5 137t-103.5 366zM280 1266q72 66 117 123t80 127q16 4 36.5 6t43.5 2q27 0 51 -2t47 -6q29 -59 76 -116.5t125 -125.5q-29 -37 -61.5 -61.5 t-71.5 -38.5q-53 47 -88 83.5t-68 83.5q-33 -47 -71 -86.5t-87 -85.5q-39 14 -71.5 40t-57.5 57zM354 526q0 -154 42 -258t114 -104q68 0 114 124t46 292q0 180 -37 266t-113 86q-70 0 -118 -116t-48 -290z" />
<glyph unicode="&#xf5;" horiz-adv-x="1044" d="M55 483q0 281 148.5 458t384.5 177q182 0 285.5 -115.5t103.5 -320.5q0 -299 -143.5 -500.5t-387.5 -201.5q-184 0 -287.5 137t-103.5 366zM303 1239q-8 104 31 162.5t115 58.5q23 0 46 -7.5t66 -27.5q37 -18 56.5 -24t37.5 -6q33 0 46.5 19.5t11.5 57.5q35 2 65.5 -2 t55.5 -16q8 -102 -31 -161.5t-117 -59.5q-27 0 -53.5 7t-71.5 30q-33 18 -50 23t-32 5q-31 0 -45 -18.5t-12 -56.5q-27 -2 -60.5 3t-58.5 13zM354 526q0 -154 42 -258t114 -104q68 0 114 124t46 292q0 180 -37 266t-113 86q-70 0 -118 -116t-48 -290z" />
<glyph unicode="&#xf6;" horiz-adv-x="1044" d="M55 483q0 281 148.5 458t384.5 177q182 0 285.5 -115.5t103.5 -320.5q0 -299 -143.5 -500.5t-387.5 -201.5q-184 0 -287.5 137t-103.5 366zM219 1352q0 35 6.5 71t16.5 62q39 20 81 28.5t93 6.5q45 0 85 -8t73 -25q-18 -41 -41 -114.5t-35 -139.5q-47 -8 -110.5 -11 t-147.5 -1q-10 33 -15.5 65.5t-5.5 65.5zM354 526q0 -154 42 -258t114 -104q68 0 114 124t46 292q0 180 -37 266t-113 86q-70 0 -118 -116t-48 -290zM637 1352q0 35 6.5 71t16.5 62q39 20 81 28.5t93 6.5q45 0 85 -8t73 -25q-18 -41 -41 -114.5t-35 -139.5 q-47 -8 -110.5 -11t-147.5 -1q-10 33 -15.5 65.5t-5.5 65.5z" />
<glyph unicode="&#xf7;" horiz-adv-x="911" d="M59 578q0 51 3.5 95t11.5 95q180 -23 369.5 -24t406.5 22q0 -51 -7 -98t-20 -90q-172 -27 -380 -27t-384 27zM328 434q82 18 158.5 20t152.5 -10q-2 -78 -8 -141t-17 -127q-72 -8 -136 -8t-138 8q-8 94 -10 146.5t-2 111.5zM342 1114q82 18 157.5 20t153.5 -10 q-4 -82 -9 -144t-15 -124q-72 -8 -136.5 -8t-138.5 8q-8 94 -10 146.5t-2 111.5z" />
<glyph unicode="&#xf8;" horiz-adv-x="1044" d="M55 483q0 281 148.5 458t384.5 177q33 0 64.5 -4t62.5 -12q29 51 42 76.5t25 48.5q53 -23 87 -46.5t75 -62.5q-6 -10 -12 -23.5t-19 -37.5q-14 -25 -20 -38t-12 -24q47 -59 71.5 -138t24.5 -175q0 -299 -143.5 -500.5t-387.5 -201.5q-35 0 -67.5 5t-65.5 17 q-8 -12 -16 -26.5t-27 -43.5q-18 -29 -26 -43t-17 -26q-35 10 -73.5 32.5t-83.5 59.5q39 66 57 98.5t35 59.5q-51 66 -79 161t-28 209zM354 480q0 -15 2 -27q35 59 73 126.5t175 315.5q-16 18 -37.5 27.5t-46.5 9.5q-70 0 -118 -116t-48 -290v-46zM436 201 q16 -18 34.5 -27.5t39.5 -9.5q68 0 114 124t46 292v6v16q-53 -94 -110.5 -193t-123.5 -208z" />
<glyph unicode="&#xf9;" horiz-adv-x="1005" d="M68 547q0 145 28.5 301t61.5 217q37 8 71.5 13t67.5 5q45 0 79 -6t52 -16q-25 -106 -37 -226t-12 -243q0 -193 31.5 -307.5t89.5 -114.5q63 0 97 130t34 357q0 88 -8.5 183.5t-16.5 132.5q59 25 145.5 40t166.5 15q10 -51 15 -121.5t5 -144.5q0 -383 -122.5 -582.5 t-362.5 -199.5q-188 0 -286.5 146t-98.5 421zM333 1470q49 18 117.5 24.5t134.5 -1.5q4 -80 21.5 -166t48.5 -174q-47 -12 -91 -17.5t-89 -5.5q-63 98 -97 180.5t-45 159.5z" />
<glyph unicode="&#xfa;" horiz-adv-x="1005" d="M68 547q0 145 28.5 301t61.5 217q37 8 71.5 13t67.5 5q45 0 79 -6t52 -16q-25 -106 -37 -226t-12 -243q0 -193 31.5 -307.5t89.5 -114.5q63 0 97 130t34 357q0 88 -8.5 183.5t-16.5 132.5q59 25 145.5 40t166.5 15q10 -51 15 -121.5t5 -144.5q0 -383 -122.5 -582.5 t-362.5 -199.5q-188 0 -286.5 146t-98.5 421zM434 1141q31 88 48.5 173t21.5 165q61 10 131 4.5t121 -25.5q-12 -84 -47 -166.5t-94 -173.5q-53 0 -96.5 5.5t-84.5 17.5z" />
<glyph unicode="&#xfb;" horiz-adv-x="1005" d="M68 547q0 145 28.5 301t61.5 217q37 8 71.5 13t67.5 5q45 0 79 -6t52 -16q-25 -106 -37 -226t-12 -243q0 -193 31.5 -307.5t89.5 -114.5q63 0 97 130t34 357q0 88 -8.5 183.5t-16.5 132.5q59 25 145.5 40t166.5 15q10 -51 15 -121.5t5 -144.5q0 -383 -122.5 -582.5 t-362.5 -199.5q-188 0 -286.5 146t-98.5 421zM266 1241q72 66 117 123t80 127q16 4 36.5 6t43.5 2q27 0 51 -2t47 -6q29 -59 76 -116.5t125 -125.5q-29 -37 -61.5 -61.5t-71.5 -38.5q-53 47 -88 83.5t-68 83.5q-33 -47 -71 -86.5t-87 -85.5q-39 14 -71.5 40t-57.5 57z" />
<glyph unicode="&#xfc;" horiz-adv-x="1005" d="M68 547q0 145 28.5 301t61.5 217q37 8 71.5 13t67.5 5q45 0 79 -6t52 -16q-25 -106 -37 -226t-12 -243q0 -193 31.5 -307.5t89.5 -114.5q63 0 97 130t34 357q0 88 -8.5 183.5t-16.5 132.5q59 25 145.5 40t166.5 15q10 -51 15 -121.5t5 -144.5q0 -383 -122.5 -582.5 t-362.5 -199.5q-188 0 -286.5 146t-98.5 421zM190 1317q0 35 6.5 71t16.5 62q39 20 81 28.5t93 6.5q45 0 85 -8t73 -25q-18 -41 -41 -114.5t-35 -139.5q-47 -8 -110.5 -11t-147.5 -1q-10 33 -15.5 65.5t-5.5 65.5zM608 1317q0 35 6.5 71t16.5 62q39 20 81 28.5t93 6.5 q45 0 85 -8t73 -25q-18 -41 -41 -114.5t-35 -139.5q-47 -8 -110.5 -11t-147.5 -1q-10 33 -15.5 65.5t-5.5 65.5z" />
<glyph unicode="&#xfd;" horiz-adv-x="1067" d="M68 522q0 139 19 262t75 312q76 0 146.5 -8.5t146.5 -24.5q-45 -174 -62.5 -287.5t-17.5 -238.5q0 -123 37 -201t98 -78q47 0 86 40t70 120q-6 164 -29 328.5t-53 259.5q57 25 144 39t173 10q31 -111 52.5 -312.5t21.5 -375.5q0 -416 -130 -633t-372 -217q-164 0 -259 91 t-108 236q49 37 116 63.5t140 39.5q18 -133 50 -190.5t86 -57.5q74 0 116.5 123t51.5 368q-51 -80 -115 -117.5t-143 -37.5q-147 0 -243.5 136t-96.5 351zM422 1155q31 88 48.5 173t21.5 165q61 10 131 4.5t121 -25.5q-12 -84 -47 -166.5t-94 -173.5q-53 0 -96.5 5.5 t-84.5 17.5z" />
<glyph unicode="&#xfe;" horiz-adv-x="1060" d="M124 566q-18 511 9 902q43 31 95.5 47.5t105.5 16.5q41 0 75.5 -5t69.5 -18q-18 -111 -31.5 -251t-19.5 -293q57 94 134 144t167 50q133 0 210 -107.5t77 -293.5q0 -324 -148.5 -531t-371.5 -207q-14 0 -30.5 1.5t-39.5 3.5q6 -143 12 -255t15 -200q-43 -16 -118 -27.5 t-138 -11.5q-55 524 -73 1035zM418 473q0 -131 2 -258q20 -10 36.5 -15t35.5 -5q90 0 153.5 152.5t63.5 379.5q0 98 -29 150.5t-84 52.5q-57 0 -102 -50.5t-74 -148.5q-2 -127 -2 -258z" />
<glyph unicode="&#xff;" horiz-adv-x="1067" d="M68 522q0 139 19 262t75 312q76 0 146.5 -8.5t146.5 -24.5q-45 -174 -62.5 -287.5t-17.5 -238.5q0 -123 37 -201t98 -78q47 0 86 40t70 120q-6 164 -29 328.5t-53 259.5q57 25 144 39t173 10q31 -111 52.5 -312.5t21.5 -375.5q0 -416 -130 -633t-372 -217q-164 0 -259 91 t-108 236q49 37 116 63.5t140 39.5q18 -133 50 -190.5t86 -57.5q74 0 116.5 123t51.5 368q-51 -80 -115 -117.5t-143 -37.5q-147 0 -243.5 136t-96.5 351zM176 1313q0 35 6.5 71t16.5 62q39 20 81 28.5t93 6.5q45 0 85 -8t73 -25q-18 -41 -41 -114.5t-35 -139.5 q-47 -8 -110.5 -11t-147.5 -1q-10 33 -15.5 65.5t-5.5 65.5zM594 1313q0 35 6.5 71t16.5 62q39 20 81 28.5t93 6.5q45 0 85 -8t73 -25q-18 -41 -41 -114.5t-35 -139.5q-47 -8 -110.5 -11t-147.5 -1q-10 33 -15.5 65.5t-5.5 65.5z" />
<glyph unicode="&#x152;" horiz-adv-x="1888" d="M74 678q0 369 172 597t454 228q80 0 147.5 -21.5t123.5 -62.5q244 43 428 60.5t373 19.5q0 -59 -7.5 -123.5t-21.5 -130.5q-145 0 -281.5 -6t-263.5 -20q-4 -82 -6 -179.5t0 -205.5q121 29 233.5 45t231.5 20q12 -51 18 -108.5t6 -135.5q-150 -6 -262 -14t-219 -25 q8 -141 17.5 -242.5t21.5 -195.5q100 4 271 23.5t284 42.5q12 -37 20.5 -111t6.5 -131q-117 -20 -378 -39.5t-460 -21.5q-2 12 -4 25.5t-6 39.5q-6 51 -10.5 77t-6.5 48q-76 -84 -172 -126t-211 -42q-233 0 -366 195.5t-133 519.5zM389 721q0 -248 64.5 -400.5t179.5 -152.5 q117 0 175 155.5t56 450.5q-2 270 -56 396t-171 126t-182.5 -152.5t-65.5 -422.5z" />
<glyph unicode="&#x153;" horiz-adv-x="1634" d="M45 444q0 276 145.5 454.5t368.5 178.5q98 0 178 -43t135 -125q70 80 155 123t173 43q143 0 230.5 -84t87.5 -221q0 -70 -13.5 -145.5t-36.5 -132.5q-55 -25 -134 -37.5t-187 -12.5q-47 0 -96.5 6.5t-98.5 18.5q-2 -29 -3 -46.5t-1 -31.5q0 -139 42 -219t116 -80 q57 0 117.5 72t87.5 160q59 -10 120.5 -43t100.5 -76q-33 -109 -170 -200t-279 -91q-113 0 -197.5 47t-135.5 139q-68 -80 -146 -118.5t-170 -38.5q-180 0 -284.5 137t-104.5 366zM344 485q0 -152 43 -257t115 -105q68 0 112.5 123t44.5 293q0 180 -35.5 266t-111.5 86 q-70 0 -119 -116t-49 -290zM977 627q41 -12 84 -18.5t80 -6.5q20 0 42.5 2t33.5 4q14 53 21 99.5t7 83.5q0 59 -19.5 87.5t-60.5 28.5q-57 0 -107 -75.5t-81 -204.5z" />
<glyph unicode="&#x178;" horiz-adv-x="1112" d="M6 1403q66 45 141.5 69.5t167.5 28.5q39 -242 100.5 -433t157.5 -380q59 170 107.5 362.5t87.5 430.5q94 -14 168.5 -41t140.5 -68q-141 -545 -291.5 -903t-355.5 -662q-63 14 -131 45t-109 62q78 121 143.5 238.5t119.5 236.5q-156 199 -264.5 444.5t-182.5 569.5z M207 1712q0 35 6.5 71t16.5 62q39 20 81 28.5t93 6.5q45 0 85 -8t73 -25q-18 -41 -41 -114.5t-35 -139.5q-47 -8 -110.5 -11t-147.5 -1q-10 33 -15.5 65.5t-5.5 65.5zM625 1712q0 35 6.5 71t16.5 62q39 20 81 28.5t93 6.5q45 0 85 -8t73 -25q-18 -41 -41 -114.5t-35 -139.5 q-47 -8 -110.5 -11t-147.5 -1q-10 33 -15.5 65.5t-5.5 65.5z" />
<glyph unicode="&#x2c6;" horiz-adv-x="532" d="M-33 1268q72 66 117 123t80 127q16 4 36.5 6t43.5 2q27 0 51 -2t47 -6q29 -59 76 -116.5t125 -125.5q-29 -37 -61.5 -61.5t-71.5 -38.5q-53 47 -88 83.5t-68 83.5q-33 -47 -71 -86.5t-87 -85.5q-39 14 -71.5 40t-57.5 57z" />
<glyph unicode="&#x2dc;" horiz-adv-x="532" d="M6 1278q-8 104 31 162.5t115 58.5q23 0 46 -7.5t66 -27.5q37 -18 56.5 -24t37.5 -6q33 0 46.5 19.5t11.5 57.5q35 2 65.5 -2t55.5 -16q8 -102 -31 -161.5t-117 -59.5q-27 0 -53.5 7t-71.5 30q-33 18 -50 23t-32 5q-31 0 -45 -18.5t-12 -56.5q-27 -2 -60.5 3t-58.5 13z " />
<glyph unicode="&#x2000;" horiz-adv-x="960" />
<glyph unicode="&#x2001;" horiz-adv-x="1921" />
<glyph unicode="&#x2002;" horiz-adv-x="960" />
<glyph unicode="&#x2003;" horiz-adv-x="1921" />
<glyph unicode="&#x2004;" horiz-adv-x="640" />
<glyph unicode="&#x2005;" horiz-adv-x="480" />
<glyph unicode="&#x2006;" horiz-adv-x="320" />
<glyph unicode="&#x2007;" horiz-adv-x="320" />
<glyph unicode="&#x2008;" horiz-adv-x="240" />
<glyph unicode="&#x2009;" horiz-adv-x="384" />
<glyph unicode="&#x200a;" horiz-adv-x="106" />
<glyph unicode="&#x2010;" horiz-adv-x="702" d="M57 467q-4 78 2.5 131t24.5 109q51 -10 132 -17.5t144 -7.5q117 0 178.5 3t110.5 9q0 -84 -6 -139t-20 -100q-141 -29 -317.5 -25t-248.5 37z" />
<glyph unicode="&#x2011;" horiz-adv-x="702" d="M57 467q-4 78 2.5 131t24.5 109q51 -10 132 -17.5t144 -7.5q117 0 178.5 3t110.5 9q0 -84 -6 -139t-20 -100q-141 -29 -317.5 -25t-248.5 37z" />
<glyph unicode="&#x2012;" horiz-adv-x="702" d="M57 467q-4 78 2.5 131t24.5 109q51 -10 132 -17.5t144 -7.5q117 0 178.5 3t110.5 9q0 -84 -6 -139t-20 -100q-141 -29 -317.5 -25t-248.5 37z" />
<glyph unicode="&#x2013;" horiz-adv-x="991" d="M53 487q4 57 9.5 104.5t11.5 94.5q90 -12 249.5 -22.5t256.5 -10.5q100 0 191 4.5t165 12.5q0 -53 -7.5 -103.5t-19.5 -95.5q-201 -33 -453.5 -27.5t-402.5 43.5z" />
<glyph unicode="&#x2014;" horiz-adv-x="1773" d="M53 479q4 57 9.5 105.5t11.5 95.5q199 -31 410.5 -44t502.5 -13q178 0 366.5 10t366.5 31q0 -47 -7 -97.5t-19 -101.5q-371 -63 -840 -58t-801 72z" />
<glyph unicode="&#x2018;" horiz-adv-x="423" d="M33 1487q63 16 135 22.5t135 -0.5q-6 -119 6.5 -239.5t42.5 -257.5q-43 -10 -96.5 -16.5t-112.5 -8.5q-59 156 -83.5 266.5t-26.5 233.5z" />
<glyph unicode="&#x2019;" horiz-adv-x="423" d="M72 1018q29 152 39 271.5t4 217.5q68 6 139.5 1t130.5 -19q-4 -127 -26.5 -233.5t-82.5 -266.5q-57 2 -111 9.5t-93 19.5z" />
<glyph unicode="&#x201a;" horiz-adv-x="417" d="M53 -258q29 154 39 271.5t4 215.5q68 6 139.5 2t131.5 -20q-2 -121 -25 -226.5t-84 -271.5q-51 2 -104.5 9.5t-100.5 19.5z" />
<glyph unicode="&#x201c;" horiz-adv-x="806" d="M33 1487q63 16 135 22.5t135 -0.5q-6 -119 6.5 -239.5t42.5 -257.5q-43 -10 -96.5 -16.5t-112.5 -8.5q-59 156 -83.5 266.5t-26.5 233.5zM416 1487q63 16 135 22.5t135 -0.5q-6 -119 6.5 -239.5t42.5 -257.5q-43 -10 -96.5 -16.5t-112.5 -8.5q-59 156 -83.5 266.5 t-26.5 233.5z" />
<glyph unicode="&#x201d;" horiz-adv-x="808" d="M72 1018q29 152 39 271.5t4 217.5q68 6 139.5 1t130.5 -19q-4 -127 -26.5 -233.5t-82.5 -266.5q-57 2 -111 9.5t-93 19.5zM457 1018q29 152 39 271.5t4 217.5q68 6 139.5 1t130.5 -19q-4 -127 -26.5 -233.5t-82.5 -266.5q-57 2 -111 9.5t-93 19.5z" />
<glyph unicode="&#x201e;" horiz-adv-x="790" d="M53 -258q29 154 39 271.5t4 215.5q68 6 139.5 2t131.5 -20q-2 -121 -25 -226.5t-84 -271.5q-51 2 -104.5 9.5t-100.5 19.5zM424 -258q29 154 39 271.5t4 215.5q68 6 139.5 2t131.5 -20q-2 -121 -25 -226.5t-84 -271.5q-51 2 -104.5 9.5t-100.5 19.5z" />
<glyph unicode="&#x2022;" horiz-adv-x="606" d="M72 750q115 27 233.5 30.5t243.5 -14.5q-4 -115 -12.5 -213t-24.5 -201q-127 -12 -224.5 -12t-197.5 14q-12 147 -15 226.5t-3 169.5z" />
<glyph unicode="&#x2026;" horiz-adv-x="1341" d="M98 225q74 18 152 21.5t158 -8.5q-2 -78 -8.5 -141.5t-16.5 -127.5q-82 -8 -146.5 -7t-127.5 9q-8 119 -9.5 163t-1.5 91zM534 225q74 18 152 21.5t158 -8.5q-2 -78 -8.5 -141.5t-16.5 -127.5q-82 -8 -146.5 -7t-127.5 9q-8 119 -9.5 163t-1.5 91zM972 225 q74 18 152 21.5t158 -8.5q-2 -78 -8.5 -141.5t-16.5 -127.5q-82 -8 -146.5 -7t-127.5 9q-8 119 -9.5 163t-1.5 91z" />
<glyph unicode="&#x202f;" horiz-adv-x="384" />
<glyph unicode="&#x2039;" horiz-adv-x="618" d="M14 543q123 92 215.5 195.5t169.5 234.5q57 -29 107.5 -69t77.5 -81q-84 -100 -159 -170.5t-159 -128.5q66 -80 143 -146t175 -132q-37 -61 -79 -99t-102 -65q-139 113 -233 224.5t-156 236.5z" />
<glyph unicode="&#x203a;" horiz-adv-x="618" d="M31 823q27 39 79 80t115 74q86 -139 175 -241.5t202 -192.5q-61 -125 -155.5 -236.5t-233.5 -224.5q-59 27 -101 64.5t-79 99.5q98 66 175 132t142 146q-86 59 -161.5 131t-157.5 168z" />
<glyph unicode="&#x205f;" horiz-adv-x="480" />
<glyph unicode="&#x20ac;" horiz-adv-x="1177" d="M19.5 743.5q-3.5 57.5 3.5 92.5q37 -2 77.5 -5.5t135.5 -9.5q59 254 208.5 400.5t350.5 146.5q162 0 251 -114.5t93 -333.5q-80 -35 -138.5 -45.5t-144.5 -10.5q6 158 -21.5 235t-95.5 77q-61 0 -111 -94.5t-75 -254.5q45 2 97 7.5t128 15.5q6 -41 4 -93t-12 -81 q-63 -10 -121.5 -18.5t-111.5 -12.5q-2 -12 -2 -27.5v-48.5v-21v-22q55 4 115.5 11.5t133.5 19.5q6 -37 4 -91t-12 -83q-90 -16 -137 -23.5t-86 -11.5q25 -115 69 -173t107 -58q78 0 129 81t72 236q59 -8 112.5 -43t90.5 -88q-82 -203 -194 -294t-277 -91q-174 0 -289 106.5 t-152 303.5q-31 0 -66.5 2t-111.5 10q-8 43 -10 101.5t4 93.5q43 -2 85 -5.5t81 -7.5v13q0 16 1 35.5l3 58.5q-45 2 -89 5t-87 7q-8 45 -11.5 102.5z" />
<glyph unicode="&#x2122;" horiz-adv-x="1726" d="M23 1530q160 35 307 49t336 16q6 -23 9 -46t1 -50q0 -23 -3 -47.5t-9 -48.5h-109t-63 -2q4 -63 6 -140.5t2 -177.5q0 -78 -5.5 -166t-13.5 -182q-51 -12 -100 -17t-113 -5q0 160 -10 347t-27 324q-41 -4 -86 -9t-92 -9q-14 41 -22 82t-8 82zM768 1505q49 33 109.5 56.5 t113.5 31.5q76 -98 135.5 -198.5t102.5 -200.5q59 94 104 185t86 202q53 -8 91 -18.5t87 -32.5q6 -115 9.5 -274.5t7.5 -567.5q-61 -25 -116.5 -34t-127.5 -9q4 53 7 130t18 403q-39 -63 -77 -118.5t-75 -101.5q-31 -8 -59.5 -12t-63.5 -4q-45 100 -77.5 163.5t-65.5 117.5 q2 -141 17.5 -271.5t39.5 -218.5q-27 -8 -90 -14t-123 -6q-23 156 -38 387t-15 405z" />
<glyph unicode="&#x25fc;" horiz-adv-x="1136" d="M0 0v1137h1137v-1137h-1137z" />
<glyph unicode="&#xfb01;" horiz-adv-x="1273" d="M37 823q0 35 10 84t23 62q20 -2 47.5 -5t64.5 -8q20 262 118.5 397.5t270.5 135.5q127 0 201 -75t74 -197q0 -29 -6 -60t-17 -51q-55 0 -111.5 9t-111.5 26q6 16 10 37.5t4 46.5q0 41 -12 62.5t-35 21.5q-53 0 -80.5 -92.5t-29.5 -274.5q16 -2 34.5 -2h57.5q80 0 128 3 t79 9q0 -41 -6.5 -95t-14.5 -91q-27 -8 -66.5 -11t-103.5 -3h-64.5t-37.5 2q10 -180 42 -391t68 -355q-63 -23 -152 -37t-165 -14q-27 121 -52.5 375t-27.5 454q-49 10 -84 19.5t-55 17.5zM824 486.5q5 308.5 44 519.5q41 25 95.5 37t119.5 12q35 0 63 -2t52 -9 q-43 -164 -69.5 -453.5t-26.5 -598.5q-31 -16 -79 -25.5t-101 -9.5q-20 0 -38 1t-34 5q-31 215 -26 523.5zM907 1346q0 35 5.5 70.5t15.5 62.5q39 18 82 27t92 7q47 0 87 -8t71 -24q-18 -41 -40 -116t-34 -138q-47 -8 -110.5 -11.5t-149.5 -1.5q-10 37 -14.5 69t-4.5 63z " />
<glyph unicode="&#xfb02;" horiz-adv-x="1314" d="M37 823q0 35 10 84t23 62q20 -2 47.5 -5t64.5 -8q20 262 115.5 397.5t259.5 135.5q125 0 196.5 -75t71.5 -197q0 -29 -6 -60t-14 -51q-55 0 -113.5 9t-109.5 26q6 25 9 45t3 39q0 39 -11.5 61.5t-29.5 22.5q-45 0 -69.5 -93.5t-26.5 -273.5q16 -2 34.5 -2h57.5 q80 0 128 3t79 9q0 -41 -6.5 -95t-14.5 -91q-27 -8 -66.5 -11t-103.5 -3h-64.5t-37.5 2q10 -180 42 -391t68 -355q-63 -23 -152 -37t-165 -14q-27 121 -52.5 375t-27.5 454q-49 10 -84 19.5t-55 17.5zM874 1468q39 25 91.5 38.5t105.5 13.5q39 0 76 -5.5t74 -15.5 q-27 -264 -35 -736t4 -857q-37 -12 -118 -21.5t-146 -9.5q-33 401 -46.5 820t-5.5 773z" />
</font>
</defs>
</svg>
